/* XPM */
static char * stock_commandline_history_xpm[] = {
"24 24 28 1",
" 	c None",
".	c #FFFFFF",
"+	c #A0A0A0",
"@	c #909090",
"#	c #919191",
"$	c #9C9C9C",
"%	c #818181",
"&	c #1D1D1D",
"*	c #161616",
"=	c #181818",
"-	c #3D3D3D",
";	c #9F9F9F",
">	c #C1C1C1",
",	c #505050",
"'	c #080808",
")	c #000000",
"!	c #030303",
"~	c #2B2B2B",
"{	c #989898",
"]	c #E2E2E2",
"^	c #BBBBBB",
"/	c #1F1F1F",
"(	c #101010",
"_	c #888888",
":	c #878787",
"<	c #696969",
"[	c #A3A3A3",
"}	c #DBDBDB",
"                        ",
"                        ",
"                        ",
"                        ",
"........................",
".+@@@@@@@@@@@@@@@@@@@#$.",
".%&*****************=-;.",
".>,')))))))))))))))!~{] ",
" .^,')))))))))))))!~{]  ",
"  .^,')))))))))))!~{]   ",
"   .^,'))))))))))/;]    ",
"    .^,'))))))))(_.     ",
"     .^,'))))))(:..     ",
"      .^,'))))(:..      ",
"       .^,'))(:..       ",
"        .^,'(:..        ",
"         .^<[..         ",
"          .}..          ",
"            .           ",
"                        ",
"                        ",
"                        ",
"                        ",
"                        "};
