/* XPM */
static char * stock_commandline_browser_xpm[] = {
"24 24 8 1",
" 	c None",
".	c #FFFFFF",
"+	c #9E9E9E",
"@	c #484848",
"#	c #131313",
"$	c #CFCFCF",
"%	c #363636",
"&	c #000000",
"                        ",
"                        ",
"                        ",
"                        ",
"         .....          ",
"       .........        ",
"      ...+@#@+...       ",
"     ..$%&&&&&%$..      ",
"     ..%&&&&&&&%..      ",
"    ..+&&&&&&&&&+..     ",
"    ..@&&&&&&&&&@..     ",
"    ..#&&&&&&&&&#..     ",
"    ..@&&&&&&&&&@..     ",
"    ..+&&&&&&&&&+..     ",
"     ..%&&&&&&&%..      ",
"     ..$%&&&&&%$..      ",
"      ...+@#@+...       ",
"       .........        ",
"         .....          ",
"                        ",
"                        ",
"                        ",
"                        ",
"                        "};
