<?xml version="1.0" encoding="UTF-8" standalone="no"?>
<!-- Created with Inkscape (http://www.inkscape.org/) -->
<svg
   xmlns:dc="http://purl.org/dc/elements/1.1/"
   xmlns:cc="http://web.resource.org/cc/"
   xmlns:rdf="http://www.w3.org/1999/02/22-rdf-syntax-ns#"
   xmlns:svg="http://www.w3.org/2000/svg"
   xmlns="http://www.w3.org/2000/svg"
   xmlns:sodipodi="http://sodipodi.sourceforge.net/DTD/sodipodi-0.dtd"
   xmlns:inkscape="http://www.inkscape.org/namespaces/inkscape"
   width="300"
   height="300"
   id="svg9575"
   sodipodi:version="0.32"
   inkscape:version="0.45.1"
   version="1.0"
   sodipodi:docbase="/shaunm/projects/mate-doc-utils/data/watermarks"
   sodipodi:docname="watermark-python.svg"
   inkscape:output_extension="org.inkscape.output.svg.inkscape"
   inkscape:export-filename="/shaunm/projects/mate-doc-utils/data/watermarks/watermark-python.png"
   inkscape:export-xdpi="90"
   inkscape:export-ydpi="90">
  <defs
     id="defs9577">
    <linearGradient
       id="linearGradient11669">
      <stop
         style="stop-color:#f5f5f5;stop-opacity:1;"
         offset="0"
         id="stop11671" />
      <stop
         style="stop-color:#babdb6;stop-opacity:1"
         offset="1"
         id="stop11673" />
    </linearGradient>
    <linearGradient
       id="linearGradient11301">
      <stop
         id="stop11303"
         offset="0"
         style="stop-color:#a9a9a9;stop-opacity:1;" />
      <stop
         id="stop11305"
         offset="1"
         style="stop-color:#989898;stop-opacity:1;" />
    </linearGradient>
  </defs>
  <sodipodi:namedview
     id="base"
     pagecolor="#ffffff"
     bordercolor="#666666"
     borderopacity="1.0"
     gridtolerance="10000"
     guidetolerance="10"
     objecttolerance="10"
     inkscape:pageopacity="0.0"
     inkscape:pageshadow="2"
     inkscape:zoom="1"
     inkscape:cx="128.35627"
     inkscape:cy="142.19644"
     inkscape:document-units="px"
     inkscape:current-layer="layer1"
     height="300px"
     width="300px"
     showgrid="true"
     inkscape:window-width="1053"
     inkscape:window-height="890"
     inkscape:window-x="85"
     inkscape:window-y="67" />
  <metadata
     id="metadata9580">
    <rdf:RDF>
      <cc:Work
         rdf:about="">
        <dc:format>image/svg+xml</dc:format>
        <dc:type
           rdf:resource="http://purl.org/dc/dcmitype/StillImage" />
      </cc:Work>
    </rdf:RDF>
  </metadata>
  <g
     inkscape:label="Layer 1"
     inkscape:groupmode="layer"
     id="layer1">
    <path
       style="color:#000000;fill:#b4b4b4;fill-opacity:1;fill-rule:nonzero;stroke:#787878;stroke-width:5.00000048;stroke-linecap:butt;stroke-linejoin:miter;marker:none;marker-start:none;marker-mid:none;marker-end:none;stroke-miterlimit:4;stroke-dasharray:none;stroke-dashoffset:0;stroke-opacity:1;visibility:visible;display:inline;overflow:visible;opacity:0.08"
       d="M 151.77609,7.5000002 C 80.838611,7.500005 85.268397,38.461163 85.268397,38.461163 L 85.347482,70.536608 L 153.0414,70.536608 L 153.0414,80.167201 L 58.459713,80.167201 C 58.459713,80.167201 13.06683,74.986035 13.06683,147.02419 C 13.066826,219.06234 52.68675,216.50772 52.68675,216.50772 L 76.332166,216.50772 L 76.332166,183.07922 C 76.332166,183.07922 75.057622,143.20379 115.31943,143.20379 C 155.58124,143.20379 182.45977,143.20379 182.45977,143.20379 C 182.45977,143.20379 220.18173,143.8175 220.18173,106.51203 C 220.18173,69.206584 220.18173,44.828497 220.18173,44.828497 C 220.18173,44.828491 225.90897,7.5000002 151.77609,7.5000002 z M 114.44953,29.069346 C 121.18459,29.06934 126.62811,34.54798 126.62811,41.326464 C 126.62813,48.104946 121.18459,53.58358 114.44953,53.58358 C 107.71449,53.583586 102.27097,48.104946 102.27097,41.326464 C 102.27095,34.54798 107.71449,29.069346 114.44953,29.069346 z "
       id="path8615"
       inkscape:export-filename="/shaunm/projects/mate-doc-utils/data/watermarks/watermark-python.png"
       inkscape:export-xdpi="90"
       inkscape:export-ydpi="90" />
    <path
       id="path8620"
       d="M 153.79072,287.27071 C 224.72822,287.27071 220.2984,256.30956 220.2984,256.30956 L 220.21932,224.2341 L 152.52541,224.2341 L 152.52541,214.60351 L 247.10711,214.60351 C 247.10711,214.60351 292.5,219.78467 292.5,147.74647 C 292.50001,75.708342 252.88006,78.262966 252.88006,78.262966 L 229.23464,78.262966 L 229.23464,111.69145 C 229.23464,111.69145 230.50921,151.56688 190.24737,151.56688 C 149.98556,151.56688 123.10702,151.56688 123.10702,151.56688 C 123.10702,151.56688 85.385069,150.95318 85.385069,188.25867 C 85.385069,225.56411 85.385069,249.94222 85.385069,249.94222 C 85.385069,249.94222 79.657829,287.27071 153.79072,287.27071 z M 191.11727,265.70138 C 184.38223,265.70138 178.93869,260.22274 178.93869,253.44425 C 178.93869,246.66577 184.38223,241.18713 191.11727,241.18713 C 197.85232,241.18713 203.29585,246.66577 203.29585,253.44425 C 203.29588,260.22274 197.85232,265.70138 191.11727,265.70138 z "
       style="color:#000000;fill:#c8c8c8;fill-opacity:1;fill-rule:nonzero;stroke:#8c8c8c;stroke-width:5;stroke-linecap:butt;stroke-linejoin:miter;marker:none;marker-start:none;marker-mid:none;marker-end:none;stroke-miterlimit:4;stroke-dasharray:none;stroke-dashoffset:0;stroke-opacity:1;visibility:visible;display:inline;overflow:visible;opacity:0.08"
       inkscape:export-xdpi="90"
       inkscape:export-ydpi="90"
       inkscape:export-filename="/shaunm/projects/mate-doc-utils/data/watermarks/watermark-python.png" />
  </g>
</svg>
