<?xml version="1.0" encoding="UTF-8" standalone="no"?>
<!-- Created with Inkscape (http://www.inkscape.org/) -->
<svg
   xmlns:dc="http://purl.org/dc/elements/1.1/"
   xmlns:cc="http://web.resource.org/cc/"
   xmlns:rdf="http://www.w3.org/1999/02/22-rdf-syntax-ns#"
   xmlns:svg="http://www.w3.org/2000/svg"
   xmlns="http://www.w3.org/2000/svg"
   xmlns:xlink="http://www.w3.org/1999/xlink"
   xmlns:sodipodi="http://sodipodi.sourceforge.net/DTD/sodipodi-0.dtd"
   xmlns:inkscape="http://www.inkscape.org/namespaces/inkscape"
   version="1.0"
   x="0.0000000"
   y="0.0000000"
   width="48"
   height="48"
   id="svg1"
   sodipodi:version="0.32"
   inkscape:version="0.44"
   sodipodi:docname="document-open.svg"
   sodipodi:docbase="/home/lapo/Icone/Crux/crux-icon-theme/scalable/actions"
   inkscape:export-filename="/home/lapo/Icone/Crux/folderx-daritaliare.png"
   inkscape:export-xdpi="90"
   inkscape:export-ydpi="90"
   inkscape:output_extension="org.inkscape.output.svg.inkscape">
  <metadata
     id="metadata162">
    <rdf:RDF>
      <cc:Work
         rdf:about="">
        <dc:format>image/svg+xml</dc:format>
        <dc:type
           rdf:resource="http://purl.org/dc/dcmitype/StillImage" />
        <dc:title>Document Open</dc:title>
        <dc:creator>
          <cc:Agent>
            <dc:title>Lapo Calamandrei</dc:title>
          </cc:Agent>
        </dc:creator>
        <dc:date />
        <cc:license
           rdf:resource="http://creativecommons.org/licenses/GPL/2.0/" />
        <dc:identifier />
        <dc:subject>
          <rdf:Bag>
            <rdf:li>document</rdf:li>
            <rdf:li>open</rdf:li>
            <rdf:li>file</rdf:li>
            <rdf:li>folder</rdf:li>
            <rdf:li>sheet</rdf:li>
            <rdf:li>paper</rdf:li>
          </rdf:Bag>
        </dc:subject>
      </cc:Work>
      <cc:License
         rdf:about="http://creativecommons.org/licenses/GPL/2.0/">
        <cc:permits
           rdf:resource="http://web.resource.org/cc/Reproduction" />
        <cc:permits
           rdf:resource="http://web.resource.org/cc/Distribution" />
        <cc:requires
           rdf:resource="http://web.resource.org/cc/Notice" />
        <cc:permits
           rdf:resource="http://web.resource.org/cc/DerivativeWorks" />
        <cc:requires
           rdf:resource="http://web.resource.org/cc/ShareAlike" />
        <cc:requires
           rdf:resource="http://web.resource.org/cc/SourceCode" />
      </cc:License>
    </rdf:RDF>
  </metadata>
  <sodipodi:namedview
     id="base"
     pagecolor="#ffffff"
     bordercolor="#666"
     borderopacity="1"
     inkscape:pageopacity="0.0"
     inkscape:pageshadow="2"
     inkscape:window-width="1051"
     inkscape:window-height="655"
     inkscape:cy="14.150405"
     inkscape:cx="-5.0266945"
     inkscape:zoom="1"
     inkscape:document-units="px"
     showgrid="false"
     inkscape:window-x="142"
     inkscape:window-y="17"
     inkscape:current-layer="layer2"
     inkscape:showpageshadow="false"
     showguides="false"
     inkscape:guide-bbox="true"
     inkscape:object-paths="false"
     gridspacingx="0.5px"
     gridspacingy="0.5px"
     gridempspacing="2"
     inkscape:grid-points="false"
     showborder="true">
    <sodipodi:guide
       orientation="horizontal"
       position="36.062446"
       id="guide1934" />
    <sodipodi:guide
       orientation="horizontal"
       position="15.003922"
       id="guide1941" />
    <sodipodi:guide
       orientation="vertical"
       position="4.5"
       id="guide1943" />
    <sodipodi:guide
       orientation="vertical"
       position="44.503533"
       id="guide1945" />
    <sodipodi:guide
       orientation="horizontal"
       position="43.125"
       id="guide1947" />
    <sodipodi:guide
       orientation="horizontal"
       position="39"
       id="guide1949" />
    <sodipodi:guide
       orientation="horizontal"
       position="19.003495"
       id="guide2919" />
    <sodipodi:guide
       orientation="vertical"
       position="0.97227183"
       id="guide2212" />
    <sodipodi:guide
       orientation="vertical"
       position="47.994873"
       id="guide2214" />
    <sodipodi:guide
       orientation="horizontal"
       position="111"
       id="guide4328" />
    <sodipodi:guide
       orientation="vertical"
       position="65.75"
       id="guide3135" />
    <sodipodi:guide
       orientation="vertical"
       position="129.75"
       id="guide3137" />
    <sodipodi:guide
       orientation="vertical"
       position="190.75"
       id="guide3139" />
    <sodipodi:guide
       orientation="vertical"
       position="212.48559"
       id="guide3316" />
    <sodipodi:guide
       orientation="horizontal"
       position="178.01413"
       id="guide3318" />
  </sodipodi:namedview>
  <defs
     id="defs3">
    <linearGradient
       id="linearGradient16514">
      <stop
         style="stop-color:white;stop-opacity:0.18292683;"
         offset="0"
         id="stop16516" />
      <stop
         id="stop2824"
         offset="0.8214286"
         style="stop-color:white;stop-opacity:1;" />
      <stop
         style="stop-color:white;stop-opacity:0;"
         offset="1"
         id="stop16518" />
    </linearGradient>
    <linearGradient
       id="linearGradient11425">
      <stop
         style="stop-color:#555753;stop-opacity:1;"
         offset="0"
         id="stop11427" />
      <stop
         style="stop-color:#2e3436;stop-opacity:1"
         offset="1"
         id="stop11429" />
    </linearGradient>
    <linearGradient
       id="linearGradient2502">
      <stop
         style="stop-color:#babdb6;stop-opacity:1"
         offset="0"
         id="stop2504" />
      <stop
         id="stop13256"
         offset="0.26671854"
         style="stop-color:#eeeeec;stop-opacity:1;" />
      <stop
         style="stop-color:white;stop-opacity:1;"
         offset="0.37147304"
         id="stop2460" />
      <stop
         style="stop-color:#888a85;stop-opacity:1"
         offset="1"
         id="stop2506" />
    </linearGradient>
    <linearGradient
       inkscape:collect="always"
       id="linearGradient3148">
      <stop
         style="stop-color:white;stop-opacity:1;"
         offset="0"
         id="stop3150" />
      <stop
         style="stop-color:white;stop-opacity:0;"
         offset="1"
         id="stop3152" />
    </linearGradient>
    <linearGradient
       inkscape:collect="always"
       id="linearGradient4100">
      <stop
         style="stop-color:#75507b;stop-opacity:1;"
         offset="0"
         id="stop4102" />
      <stop
         style="stop-color:#5c3566;stop-opacity:1"
         offset="1"
         id="stop4104" />
    </linearGradient>
    <linearGradient
       inkscape:collect="always"
       id="linearGradient3311">
      <stop
         style="stop-color:#888a85;stop-opacity:1;"
         offset="0"
         id="stop3313" />
      <stop
         style="stop-color:#555753;stop-opacity:1"
         offset="1"
         id="stop3315" />
    </linearGradient>
    <linearGradient
       id="linearGradient2894">
      <stop
         style="stop-color:#39213f;stop-opacity:1;"
         offset="0"
         id="stop2896" />
      <stop
         id="stop2900"
         offset="0.47619048"
         style="stop-color:#75507b;stop-opacity:1;" />
      <stop
         style="stop-color:#5c3566;stop-opacity:1"
         offset="1"
         id="stop2898" />
    </linearGradient>
    <linearGradient
       id="linearGradient3100">
      <stop
         style="stop-color:white;stop-opacity:1;"
         offset="0"
         id="stop3102" />
      <stop
         id="stop2071"
         offset="1"
         style="stop-color:white;stop-opacity:0;" />
    </linearGradient>
    <linearGradient
       id="linearGradient3018">
      <stop
         style="stop-color:white;stop-opacity:1;"
         offset="0"
         id="stop3020" />
      <stop
         style="stop-color:white;stop-opacity:0;"
         offset="1"
         id="stop3022" />
    </linearGradient>
    <linearGradient
       inkscape:collect="always"
       xlink:href="#linearGradient3018"
       id="linearGradient24117"
       gradientUnits="userSpaceOnUse"
       x1="7.875"
       y1="8.8348885"
       x2="7.875"
       y2="30.009003" />
    <linearGradient
       inkscape:collect="always"
       xlink:href="#linearGradient3311"
       id="linearGradient24202"
       gradientUnits="userSpaceOnUse"
       gradientTransform="translate(707.5001,-194.433)"
       x1="20.625"
       y1="-89.501274"
       x2="20.625"
       y2="-73.592278" />
    <radialGradient
       inkscape:collect="always"
       xlink:href="#linearGradient3148"
       id="radialGradient24534"
       gradientUnits="userSpaceOnUse"
       gradientTransform="matrix(2.909226,4.633384e-3,0,0.196634,687.6916,-272.146)"
       cx="10.804749"
       cy="16.085173"
       fx="10.804749"
       fy="16.085173"
       r="22.730583" />
    <linearGradient
       inkscape:collect="always"
       xlink:href="#linearGradient3100"
       id="linearGradient24537"
       gradientUnits="userSpaceOnUse"
       x1="17.02047"
       y1="-16.221062"
       x2="17.02047"
       y2="-29.344501"
       gradientTransform="matrix(1,0,0,0.50779,707.5001,-252.822)" />
    <linearGradient
       inkscape:collect="always"
       xlink:href="#linearGradient4100"
       id="linearGradient24540"
       gradientUnits="userSpaceOnUse"
       x1="20.662504"
       y1="34.941128"
       x2="20.537504"
       y2="25.303768"
       gradientTransform="matrix(1,0,0,0.56332,707.5001,-281.4365)" />
    <linearGradient
       inkscape:collect="always"
       xlink:href="#linearGradient2894"
       id="linearGradient24542"
       gradientUnits="userSpaceOnUse"
       gradientTransform="matrix(1,0,0,0.540956,707.5001,-234.4558)"
       x1="9.4176369"
       y1="-44.498653"
       x2="9.4176369"
       y2="-60.72047" />
    <linearGradient
       inkscape:collect="always"
       xlink:href="#linearGradient2502"
       id="linearGradient25136"
       gradientUnits="userSpaceOnUse"
       gradientTransform="matrix(0.967744,0,0,1,646.8386,-241.433)"
       x1="84.25"
       y1="-51.881321"
       x2="84.25"
       y2="-27.44416" />
    <linearGradient
       inkscape:collect="always"
       xlink:href="#linearGradient11425"
       id="linearGradient25138"
       gradientUnits="userSpaceOnUse"
       x1="103.8125"
       y1="-41.689045"
       x2="103.8125"
       y2="-21.4375"
       gradientTransform="translate(643.5001,-248.433)" />
    <linearGradient
       inkscape:collect="always"
       xlink:href="#linearGradient16514"
       id="linearGradient16520"
       x1="100.7497"
       y1="-26.998718"
       x2="100.7497"
       y2="-51.375"
       gradientUnits="userSpaceOnUse" />
  </defs>
  <g
     inkscape:groupmode="layer"
     id="layer2"
     inkscape:label="vectors"
     style="display:inline">
    <g
       id="g891"
       transform="matrix(0.186703,0,0,0.186703,-21.1073,57.62299)" />
    <g
       id="g6102"
       inkscape:label="pixmap"
       style="display:inline"
       transform="translate(188.7605,-103.2651)" />
    <g
       transform="matrix(0.186703,0,0,0.186703,167.6532,-45.64211)"
       id="g6106" />
    <g
       id="g25170"
       transform="translate(-708.4998,297.433)"
       inkscape:export-filename="/home/lapo/Icone/Crux/folderx.png"
       inkscape:export-xdpi="90"
       inkscape:export-ydpi="90">
      <path
         style="fill:url(#linearGradient24202);fill-opacity:1;stroke:#555753;stroke-width:0.99999934;stroke-linecap:round;stroke-linejoin:miter;stroke-miterlimit:4;stroke-dasharray:none;stroke-opacity:1;display:inline"
         d="M 716.0001,-289.933 C 715.0976,-289.933 714.66823,-289.61939 714.5001,-288.47712 C 712.61813,-278.50394 712.71586,-270.39874 713.0001,-260.2979 C 713.0001,-259.5486 713.61641,-258.93301 714.3751,-258.93301 L 749.6251,-258.93301 C 750.38379,-258.93301 750.94826,-259.55029 751.0001,-260.2979 C 752.0001,-278.34477 750.0001,-283.56811 750.0001,-283.56811 C 750.0001,-284.31741 749.38379,-284.933 748.6251,-284.933 L 731.0001,-284.933 L 730.0001,-288.33006 C 729.75497,-289.16279 729.4026,-289.933 728.5001,-289.933 L 716.0001,-289.933 z "
         id="path23297"
         sodipodi:nodetypes="czcccccccscc"
         inkscape:export-filename="/home/lapo/Icone/Crux/folderx.png"
         inkscape:export-xdpi="90"
         inkscape:export-ydpi="90" />
      <path
         sodipodi:type="inkscape:offset"
         inkscape:radius="-0.98693144"
         inkscape:original="M 8.5 7.5 C 7.5975 7.4999999 7.168127 7.826478 7 8.96875 C 5.118026 18.941927 5.215756 29.024159 5.5 39.125 C 5.5 39.874297 6.116307 40.5 6.875 40.5 L 42.125 40.5 C 42.88369 40.500001 43.44816 39.872606 43.5 39.125 C 44.5 21.078129 42.5 13.875 42.5 13.875 C 42.5 13.125703 41.88369 12.5 41.125 12.5 L 23.5 12.5 L 22.5 9.09375 C 22.254867 8.2610185 21.9025 7.5 21 7.5 L 8.5 7.5 z "
         style="opacity:0.48627451;fill:none;fill-opacity:1;stroke:url(#linearGradient24117);stroke-width:0.99999934;stroke-linecap:round;stroke-linejoin:miter;stroke-miterlimit:4;stroke-dasharray:none;stroke-opacity:1;display:inline"
         id="path23299"
         d="M 8.5,8.5 C 8.167757,8.5 8.1531396,8.5341442 8.15625,8.53125 C 8.1593604,8.5283558 8.0371607,8.6602106 7.96875,9.125 C 7.9689149,9.135416 7.9689149,9.145834 7.96875,9.15625 C 6.1104047,19.004211 6.2160965,29.00501 6.5,39.09375 C 6.5001649,39.104166 6.5001649,39.114584 6.5,39.125 C 6.5,39.333121 6.6589296,39.5 6.875,39.5 L 42.125,39.5 C 42.339597,39.5 42.479725,39.354901 42.5,39.0625 C 43.495176,21.102696 41.5625,14.125 41.5625,14.125 C 41.530831,14.044756 41.509819,13.960707 41.5,13.875 C 41.5,13.666882 41.341065,13.5 41.125,13.5 L 23.5,13.5 C 23.062797,13.49451 22.681309,13.202036 22.5625,12.78125 L 21.5625,9.375 C 21.45311,9.0033953 21.310238,8.710051 21.21875,8.59375 C 21.127262,8.477449 21.173845,8.5 21,8.5 L 8.5,8.5 z "
         transform="translate(707.5001,-297.433)"
         inkscape:export-filename="/home/lapo/Icone/Crux/folderx.png"
         inkscape:export-xdpi="90"
         inkscape:export-ydpi="90" />
      <path
         id="path23303"
         style="opacity:0.04787233;fill-rule:evenodd;stroke-width:3pt"
         d="M 713.67426,-265.43304 C 711.4297,-265.43304 709.6227,-263.23291 709.6227,-260.50001 C 709.6227,-257.76711 711.4297,-255.56697 713.67426,-255.56697 L 750.94858,-255.56697 C 753.19314,-255.56697 755.00013,-257.76711 755.00013,-260.50001 C 755.00013,-263.23291 753.19314,-265.43304 750.94858,-265.43304 L 713.67426,-265.43304 z " />
      <path
         id="path23305"
         style="opacity:0.04787233;fill-rule:evenodd;stroke-width:3pt"
         d="M 713.67426,-265.10417 C 711.57934,-265.10417 709.89281,-263.05071 709.89281,-260.50001 C 709.89281,-257.9493 711.57934,-255.89584 713.67426,-255.89584 L 750.94858,-255.89584 C 753.0435,-255.89584 754.73003,-257.9493 754.73003,-260.50001 C 754.73003,-263.05071 753.0435,-265.10417 750.94858,-265.10417 L 713.67426,-265.10417 z " />
      <path
         id="path23307"
         style="opacity:0.04787233;fill-rule:evenodd;stroke-width:3pt"
         d="M 713.67426,-264.7753 C 711.72897,-264.7753 710.16291,-262.86852 710.16291,-260.50001 C 710.16291,-258.13149 711.72897,-256.22471 713.67426,-256.22471 L 750.94858,-256.22471 C 752.89386,-256.22471 754.45993,-258.13149 754.45993,-260.50001 C 754.45993,-262.86852 752.89386,-264.7753 750.94858,-264.7753 L 713.67426,-264.7753 z " />
      <path
         id="path23309"
         style="opacity:0.04787233;fill-rule:evenodd;stroke-width:3pt"
         d="M 713.67426,-264.44643 C 711.87861,-264.44643 710.43302,-262.68633 710.43302,-260.50001 C 710.43302,-258.31369 711.87861,-256.55358 713.67426,-256.55358 L 750.94858,-256.55358 C 752.74423,-256.55358 754.18982,-258.31369 754.18982,-260.50001 C 754.18982,-262.68633 752.74423,-264.44643 750.94858,-264.44643 L 713.67426,-264.44643 z " />
      <path
         id="path23311"
         style="opacity:0.04787233;fill-rule:evenodd;stroke-width:3pt"
         d="M 713.67449,-264.11756 C 712.02848,-264.11756 710.70335,-262.50413 710.70335,-260.50001 C 710.70335,-258.49588 712.02848,-256.88245 713.67449,-256.88245 L 750.94847,-256.88245 C 752.59448,-256.88245 753.91961,-258.49588 753.91961,-260.50001 C 753.91961,-262.50413 752.59448,-264.11756 750.94847,-264.11756 L 713.67449,-264.11756 z " />
      <path
         id="path23313"
         style="opacity:0.04787233;fill-rule:evenodd;stroke-width:3pt"
         d="M 713.67426,-263.78869 C 712.17789,-263.78869 710.97322,-262.32194 710.97322,-260.50001 C 710.97322,-258.67807 712.17789,-257.21132 713.67426,-257.21132 L 750.94858,-257.21132 C 752.44495,-257.21132 753.64961,-258.67807 753.64961,-260.50001 C 753.64961,-262.32194 752.44495,-263.78869 750.94858,-263.78869 L 713.67426,-263.78869 z " />
      <path
         id="path23315"
         style="opacity:0.04787233;fill-rule:evenodd;stroke-width:3pt"
         d="M 713.67426,-263.45982 C 712.32752,-263.45982 711.24333,-262.13975 711.24333,-260.50001 C 711.24333,-258.86027 712.32752,-257.54019 713.67426,-257.54019 L 750.94858,-257.54019 C 752.29531,-257.54019 753.37951,-258.86027 753.37951,-260.50001 C 753.37951,-262.13975 752.29531,-263.45982 750.94858,-263.45982 L 713.67426,-263.45982 z " />
      <path
         id="path23317"
         style="opacity:0.04787233;fill-rule:evenodd;stroke-width:3pt"
         d="M 713.67426,-263.13096 C 712.47716,-263.13096 711.51343,-261.95755 711.51343,-260.50001 C 711.51343,-259.04246 712.47716,-257.86906 713.67426,-257.86906 L 750.94858,-257.86906 C 752.14568,-257.86906 753.10941,-259.04246 753.10941,-260.50001 C 753.10941,-261.95755 752.14568,-263.13096 750.94858,-263.13096 L 713.67426,-263.13096 z " />
      <rect
         style="fill:#eeeeec;fill-opacity:1;stroke:#d3d7cf;stroke-width:0.99999988;stroke-linecap:round;stroke-linejoin:round;stroke-miterlimit:4;stroke-dasharray:none;stroke-opacity:1;display:inline"
         id="rect23319"
         width="10.000002"
         height="3"
         x="717.00012"
         y="-286.93301"
         rx="1.5"
         ry="1.5"
         inkscape:export-filename="/home/lapo/Icone/Crux/folderx.png"
         inkscape:export-xdpi="90"
         inkscape:export-ydpi="90" />
      <path
         sodipodi:type="arc"
         style="fill:black;fill-opacity:1;stroke:none;stroke-width:1;stroke-linecap:round;stroke-linejoin:round;stroke-miterlimit:4;stroke-dasharray:none;stroke-opacity:1;display:inline"
         id="path23321"
         sodipodi:cx="11.75"
         sodipodi:cy="11.5"
         sodipodi:rx="0.25"
         sodipodi:ry="0.5"
         d="M 12 11.5 A 0.25 0.5 0 1 1  11.5,11.5 A 0.25 0.5 0 1 1  12 11.5 z"
         transform="matrix(2,0,0,1,694.5001,-296.433)"
         inkscape:export-filename="/home/lapo/Icone/Crux/folderx.png"
         inkscape:export-xdpi="90"
         inkscape:export-ydpi="90" />
      <path
         sodipodi:type="arc"
         style="fill:black;fill-opacity:1;stroke:none;stroke-width:1;stroke-linecap:round;stroke-linejoin:round;stroke-miterlimit:4;stroke-dasharray:none;stroke-opacity:1;display:inline"
         id="path23323"
         sodipodi:cx="11.75"
         sodipodi:cy="11.5"
         sodipodi:rx="0.25"
         sodipodi:ry="0.5"
         d="M 12 11.5 A 0.25 0.5 0 1 1  11.5,11.5 A 0.25 0.5 0 1 1  12 11.5 z"
         transform="matrix(2,0,0,1,696.5001,-296.433)"
         inkscape:export-filename="/home/lapo/Icone/Crux/folderx.png"
         inkscape:export-xdpi="90"
         inkscape:export-ydpi="90" />
      <path
         sodipodi:type="arc"
         style="fill:black;fill-opacity:1;stroke:none;stroke-width:1;stroke-linecap:round;stroke-linejoin:round;stroke-miterlimit:4;stroke-dasharray:none;stroke-opacity:1;display:inline"
         id="path23325"
         sodipodi:cx="11.75"
         sodipodi:cy="11.5"
         sodipodi:rx="0.25"
         sodipodi:ry="0.5"
         d="M 12 11.5 A 0.25 0.5 0 1 1  11.5,11.5 A 0.25 0.5 0 1 1  12 11.5 z"
         transform="matrix(2,0,0,1,698.5001,-296.433)"
         inkscape:export-filename="/home/lapo/Icone/Crux/folderx.png"
         inkscape:export-xdpi="90"
         inkscape:export-ydpi="90" />
      <path
         sodipodi:type="arc"
         style="fill:black;fill-opacity:1;stroke:none;stroke-width:1;stroke-linecap:round;stroke-linejoin:round;stroke-miterlimit:4;stroke-dasharray:none;stroke-opacity:1;display:inline"
         id="path23327"
         sodipodi:cx="11.75"
         sodipodi:cy="11.5"
         sodipodi:rx="0.25"
         sodipodi:ry="0.5"
         d="M 12 11.5 A 0.25 0.5 0 1 1  11.5,11.5 A 0.25 0.5 0 1 1  12 11.5 z"
         transform="matrix(2,0,0,1,700.5001,-296.433)"
         inkscape:export-filename="/home/lapo/Icone/Crux/folderx.png"
         inkscape:export-xdpi="90"
         inkscape:export-ydpi="90" />
      <path
         sodipodi:type="arc"
         style="fill:black;fill-opacity:1;stroke:none;stroke-width:1;stroke-linecap:round;stroke-linejoin:round;stroke-miterlimit:4;stroke-dasharray:none;stroke-opacity:1;display:inline"
         id="path23329"
         sodipodi:cx="11.75"
         sodipodi:cy="11.5"
         sodipodi:rx="0.25"
         sodipodi:ry="0.5"
         d="M 12 11.5 A 0.25 0.5 0 1 1  11.5,11.5 A 0.25 0.5 0 1 1  12 11.5 z"
         transform="matrix(2,0,0,1,702.5001,-296.433)"
         inkscape:export-filename="/home/lapo/Icone/Crux/folderx.png"
         inkscape:export-xdpi="90"
         inkscape:export-ydpi="90" />
      <path
         style="fill:url(#linearGradient25136);fill-opacity:1;stroke:url(#linearGradient25138);stroke-width:1.00000036;stroke-linecap:round;stroke-linejoin:round;stroke-miterlimit:4;stroke-dashoffset:10;stroke-opacity:1"
         d="M 716.00011,-294.93301 L 748.00007,-294.93301 C 748.00007,-294.93301 746.5001,-292.433 747.00007,-267.933 L 717.00011,-267.933 C 717.5001,-292.433 716.00011,-294.93301 716.00011,-294.93301 z "
         id="path23333"
         sodipodi:nodetypes="ccccc" />
      <path
         sodipodi:type="inkscape:offset"
         inkscape:radius="-1"
         inkscape:original="M 72.5 -53.5 C 72.5 -53.5 73.999985 -51 73.5 -26.5 L 103.5 -26.5 C 103.00003 -51 104.5 -53.5 104.5 -53.5 L 72.5 -53.5 z "
         style="opacity:0.7;fill:none;fill-opacity:1;stroke:url(#linearGradient16520);stroke-width:1.00000036;stroke-linecap:round;stroke-linejoin:round;stroke-miterlimit:4;stroke-dashoffset:10;stroke-opacity:1;display:inline"
         id="path2517"
         d="M 73.78125,-52.5 C 73.915239,-51.807177 74.047834,-50.929319 74.1875,-49.28125 C 74.493666,-45.66847 74.708056,-38.965936 74.5,-27.5 L 102.5,-27.5 C 102.29195,-38.965936 102.50634,-45.668471 102.8125,-49.28125 C 102.95217,-50.929319 103.08476,-51.807178 103.21875,-52.5 L 73.78125,-52.5 z "
         transform="translate(643.5001,-241.433)" />
      <path
         style="fill:none;fill-rule:evenodd;stroke:white;stroke-width:1px;stroke-linecap:round;stroke-linejoin:miter;stroke-opacity:1"
         d="M 717.0001,-293.933 L 747.0001,-293.933"
         id="path23336"
         sodipodi:nodetypes="cc" />
      <path
         style="opacity:0.2;fill:none;fill-rule:evenodd;stroke:black;stroke-width:1px;stroke-linecap:round;stroke-linejoin:miter;stroke-opacity:1;display:inline"
         d="M 720.5001,-290.933 L 743.5001,-290.933"
         id="path23340"
         sodipodi:nodetypes="cc" />
      <path
         style="opacity:0.2;fill:none;fill-rule:evenodd;stroke:black;stroke-width:1px;stroke-linecap:round;stroke-linejoin:miter;stroke-opacity:1;display:inline"
         d="M 721.0001,-286.933 L 743.0001,-286.933"
         id="path23342"
         sodipodi:nodetypes="cc" />
      <path
         style="opacity:0.2;fill:none;fill-rule:evenodd;stroke:black;stroke-width:1px;stroke-linecap:round;stroke-linejoin:miter;stroke-opacity:1;display:inline"
         d="M 721.0001,-282.933 L 743.0001,-282.933"
         id="path23344"
         sodipodi:nodetypes="cc" />
      <path
         style="opacity:0.2;fill:none;fill-rule:evenodd;stroke:black;stroke-width:1px;stroke-linecap:round;stroke-linejoin:miter;stroke-opacity:1;display:inline"
         d="M 721.0001,-278.933 L 743.0001,-278.933"
         id="path23346"
         sodipodi:nodetypes="cc" />
      <path
         style="opacity:0.2;fill:none;fill-rule:evenodd;stroke:black;stroke-width:1px;stroke-linecap:round;stroke-linejoin:miter;stroke-opacity:1;display:inline"
         d="M 721.0001,-274.933 L 743.0001,-274.933"
         id="path23348"
         sodipodi:nodetypes="cc" />
      <path
         style="fill:url(#linearGradient24540);fill-opacity:1;stroke:url(#linearGradient24542);stroke-width:1.00000083;stroke-linecap:round;stroke-linejoin:miter;stroke-miterlimit:4;stroke-opacity:1;display:inline"
         d="M 710.14518,-269.88844 L 753.85475,-269.88844 C 754.48913,-269.88844 754.99983,-269.69133 754.99983,-269.44649 C 752.0001,-265.29031 752.0001,-263.433 752.0001,-261.89488 C 752.0001,-260.933 751.5001,-259.06932 749.85475,-259.02852 L 714.14518,-259.02852 C 713.0001,-259.06932 712.0001,-260.933 712.0001,-261.89488 C 711.9376,-263.433 712.0001,-265.29031 709.0001,-269.44649 C 709.0001,-269.69133 709.51081,-269.88844 710.14518,-269.88844 z "
         id="path23352"
         sodipodi:nodetypes="ccccccccc" />
      <path
         sodipodi:nodetypes="cscccscccc"
         id="path23354"
         d="M 710.1251,-269.32518 C 712.85988,-265.70503 713.0001,-265.72276 713.0001,-262.40323 C 713.03975,-261.05808 713.41886,-260.73702 714.21885,-260.15322 L 749.8126,-260.15322 L 749.84385,-260.15322 C 750.91957,-260.42003 750.83677,-261.18137 751.0001,-262.40323 C 751.0001,-264.75446 751.0731,-265.57743 753.8751,-269.32518 C 753.86074,-269.32577 753.85904,-269.32518 753.84385,-269.32518 L 710.15635,-269.32518 C 710.14116,-269.32518 710.13946,-269.32577 710.1251,-269.32518 z "
         style="opacity:0.1;fill:none;fill-opacity:1;stroke:url(#linearGradient24537);stroke-width:1.00000131;stroke-linecap:round;stroke-linejoin:miter;stroke-miterlimit:4;stroke-opacity:1;display:inline" />
      <path
         style="opacity:0.35;fill:none;fill-opacity:1;fill-rule:evenodd;stroke:url(#radialGradient24534);stroke-width:1.00000048px;stroke-linecap:round;stroke-linejoin:miter;stroke-opacity:1"
         d="M 710.0001,-268.933 L 754.0001,-268.933"
         id="path23356"
         sodipodi:nodetypes="cc" />
    </g>
    <g
       inkscape:label="pattern"
       id="g30621"
       inkscape:r_cx="true"
       inkscape:r_cy="true"
       transform="translate(190.4218,35.092)" />
    <g
       inkscape:label="pattern"
       id="g35222"
       inkscape:r_cx="true"
       inkscape:r_cy="true"
       transform="translate(190.4218,81.092)" />
  </g>
</svg>
