<?xml version="1.0" encoding="UTF-8" standalone="no"?>
<!-- Created with Inkscape (http://www.inkscape.org/) -->
<svg
   xmlns:dc="http://purl.org/dc/elements/1.1/"
   xmlns:cc="http://web.resource.org/cc/"
   xmlns:rdf="http://www.w3.org/1999/02/22-rdf-syntax-ns#"
   xmlns:svg="http://www.w3.org/2000/svg"
   xmlns="http://www.w3.org/2000/svg"
   xmlns:xlink="http://www.w3.org/1999/xlink"
   xmlns:sodipodi="http://sodipodi.sourceforge.net/DTD/sodipodi-0.dtd"
   xmlns:inkscape="http://www.inkscape.org/namespaces/inkscape"
   width="48"
   height="48"
   id="svg2"
   sodipodi:version="0.32"
   inkscape:version="0.43+devel"
   version="1.0"
   sodipodi:docbase="/home/lapo/Icone/Crux/crux-icon-theme/scalable/actions"
   sodipodi:docname="view-refresh.svg"
   inkscape:export-filename="/home/lapo/Icone/Crux/arrowx.png"
   inkscape:export-xdpi="90"
   inkscape:export-ydpi="90">
  <defs
     id="defs4">
    <linearGradient
       id="linearGradient3488">
      <stop
         id="stop3490"
         offset="0"
         style="stop-color:black;stop-opacity:0.39215687" />
      <stop
         id="stop3492"
         offset="1"
         style="stop-color:white;stop-opacity:1;" />
    </linearGradient>
    <linearGradient
       inkscape:collect="always"
       id="linearGradient3317">
      <stop
         style="stop-color:#d3d7cf;stop-opacity:1"
         offset="0"
         id="stop3319" />
      <stop
         style="stop-color:#888a85;stop-opacity:1"
         offset="1"
         id="stop3321" />
    </linearGradient>
    <linearGradient
       inkscape:collect="always"
       id="linearGradient3296">
      <stop
         style="stop-color:white;stop-opacity:1;"
         offset="0"
         id="stop3298" />
      <stop
         style="stop-color:white;stop-opacity:0;"
         offset="1"
         id="stop3300" />
    </linearGradient>
    <linearGradient
       inkscape:collect="always"
       id="linearGradient3288">
      <stop
         style="stop-color:white;stop-opacity:1;"
         offset="0"
         id="stop3290" />
      <stop
         style="stop-color:white;stop-opacity:0;"
         offset="1"
         id="stop3292" />
    </linearGradient>
    <linearGradient
       inkscape:collect="always"
       id="linearGradient3275">
      <stop
         style="stop-color:#5c3566;stop-opacity:1"
         offset="0"
         id="stop3277" />
      <stop
         style="stop-color:#75507b;stop-opacity:1"
         offset="1"
         id="stop3279" />
    </linearGradient>
    <linearGradient
       id="linearGradient3262">
      <stop
         style="stop-color:#ef2929;stop-opacity:1;"
         offset="0"
         id="stop3264" />
      <stop
         style="stop-color:#c00;stop-opacity:1"
         offset="1"
         id="stop3266" />
    </linearGradient>
    <linearGradient
       id="linearGradient3239">
      <stop
         style="stop-color:#ef2929;stop-opacity:1;"
         offset="0"
         id="stop3241" />
      <stop
         style="stop-color:#f89797;stop-opacity:1;"
         offset="1"
         id="stop3243" />
    </linearGradient>
    <linearGradient
       id="linearGradient3217">
      <stop
         style="stop-color:#c17d11;stop-opacity:1;"
         offset="0"
         id="stop3219" />
      <stop
         style="stop-color:#8f5902;stop-opacity:1"
         offset="1"
         id="stop3221" />
    </linearGradient>
    <linearGradient
       id="linearGradient3209">
      <stop
         style="stop-color:#c17d11;stop-opacity:1"
         offset="0"
         id="stop3211" />
      <stop
         style="stop-color:#e9b96e;stop-opacity:1;"
         offset="1"
         id="stop3213" />
    </linearGradient>
    <linearGradient
       id="linearGradient3199">
      <stop
         style="stop-color:#729fcf;stop-opacity:1;"
         offset="0"
         id="stop3201" />
      <stop
         style="stop-color:white;stop-opacity:1"
         offset="1"
         id="stop3203" />
    </linearGradient>
    <linearGradient
       id="linearGradient3174">
      <stop
         style="stop-color:#ad7fa8;stop-opacity:1"
         offset="0"
         id="stop3176" />
      <stop
         style="stop-color:white;stop-opacity:1;"
         offset="1"
         id="stop3178" />
    </linearGradient>
    <linearGradient
       id="linearGradient3006">
      <stop
         style="stop-color:#2e3436;stop-opacity:1;"
         offset="0"
         id="stop3008" />
      <stop
         style="stop-color:#5c3566;stop-opacity:1"
         offset="1"
         id="stop3010" />
    </linearGradient>
    <linearGradient
       id="linearGradient1985">
      <stop
         style="stop-color:#ad7fa8;stop-opacity:1;"
         offset="0"
         id="stop1987" />
      <stop
         style="stop-color:white;stop-opacity:1;"
         offset="1"
         id="stop1989" />
    </linearGradient>
    <linearGradient
       id="linearGradient3696">
      <stop
         style="stop-color:white;stop-opacity:1;"
         offset="0"
         id="stop3698" />
      <stop
         style="stop-color:white;stop-opacity:0.40996173"
         offset="1"
         id="stop3700" />
    </linearGradient>
    <linearGradient
       inkscape:collect="always"
       xlink:href="#linearGradient3174"
       id="linearGradient3793"
       gradientUnits="userSpaceOnUse"
       gradientTransform="translate(-61,-205)"
       x1="70.84375"
       y1="34.799343"
       x2="70.84375"
       y2="54.805916" />
    <linearGradient
       inkscape:collect="always"
       xlink:href="#linearGradient3275"
       id="linearGradient3795"
       gradientUnits="userSpaceOnUse"
       gradientTransform="translate(-61,-205)"
       x1="62.3125"
       y1="40.18309"
       x2="62.3125"
       y2="51.254974" />
    <linearGradient
       inkscape:collect="always"
       xlink:href="#linearGradient3296"
       id="linearGradient3797"
       gradientUnits="userSpaceOnUse"
       gradientTransform="translate(-61,-205)"
       x1="66"
       y1="48.1875"
       x2="63.5625"
       y2="35.548676" />
    <linearGradient
       inkscape:collect="always"
       xlink:href="#linearGradient3239"
       id="linearGradient3800"
       gradientUnits="userSpaceOnUse"
       gradientTransform="translate(-61,-205)"
       x1="65.098015"
       y1="36.628273"
       x2="64.567688"
       y2="35.5" />
    <linearGradient
       inkscape:collect="always"
       xlink:href="#linearGradient3209"
       id="linearGradient3802"
       gradientUnits="userSpaceOnUse"
       gradientTransform="matrix(0.800001,0,0,0.777376,-46.50005,-194.9837)"
       x1="73.90403"
       y1="41.016624"
       x2="76.84375"
       y2="47.218826" />
    <linearGradient
       inkscape:collect="always"
       xlink:href="#linearGradient3217"
       id="linearGradient3804"
       gradientUnits="userSpaceOnUse"
       gradientTransform="matrix(0.800001,0,0,0.777376,-46.50005,-194.9837)"
       x1="75.739166"
       y1="48.240158"
       x2="74.236351"
       y2="46.286785" />
    <linearGradient
       inkscape:collect="always"
       xlink:href="#linearGradient3199"
       id="linearGradient3806"
       gradientUnits="userSpaceOnUse"
       gradientTransform="matrix(1,0,0,0.750006,-60,-194.6253)"
       x1="66.90625"
       y1="42.28125"
       x2="69.203117"
       y2="46.4375" />
    <linearGradient
       inkscape:collect="always"
       xlink:href="#linearGradient3262"
       id="linearGradient3808"
       gradientUnits="userSpaceOnUse"
       gradientTransform="translate(-61,-205)"
       x1="72.1875"
       y1="33.34375"
       x2="80.15625"
       y2="39.21875" />
    <linearGradient
       inkscape:collect="always"
       xlink:href="#linearGradient3288"
       id="linearGradient3810"
       gradientUnits="userSpaceOnUse"
       gradientTransform="translate(-61,-205)"
       x1="71.727142"
       y1="35.963161"
       x2="71.727142"
       y2="38.538486" />
    <linearGradient
       inkscape:collect="always"
       xlink:href="#linearGradient3174"
       id="linearGradient3812"
       gradientUnits="userSpaceOnUse"
       gradientTransform="matrix(0.764706,0,0,0.799418,-66.29412,-195.0712)"
       x1="70.84375"
       y1="36.675091"
       x2="70.84375"
       y2="54.805916" />
    <linearGradient
       inkscape:collect="always"
       xlink:href="#linearGradient3275"
       id="linearGradient3814"
       gradientUnits="userSpaceOnUse"
       gradientTransform="matrix(0.764706,0,0,0.799418,-66.29412,-195.0712)"
       x1="62.3125"
       y1="42.000011"
       x2="62.3125"
       y2="51.254974" />
    <linearGradient
       inkscape:collect="always"
       xlink:href="#linearGradient3239"
       id="linearGradient3816"
       gradientUnits="userSpaceOnUse"
       gradientTransform="matrix(0.796053,0,0,0.784722,-68.45723,-193.4653)"
       x1="65.098015"
       y1="36.628273"
       x2="64.567688"
       y2="35.5" />
    <linearGradient
       inkscape:collect="always"
       xlink:href="#linearGradient3199"
       id="linearGradient3818"
       gradientUnits="userSpaceOnUse"
       gradientTransform="matrix(0.750004,0,0,0.500009,-64.87526,-181.2504)"
       x1="66.90625"
       y1="41.778389"
       x2="66.90625"
       y2="44.50071" />
    <linearGradient
       inkscape:collect="always"
       xlink:href="#linearGradient3209"
       id="linearGradient3820"
       gradientUnits="userSpaceOnUse"
       gradientTransform="matrix(0.600006,0,0,0.445585,-54.00048,-178.5462)"
       x1="73.90403"
       y1="41.016624"
       x2="76.84375"
       y2="47.218826" />
    <linearGradient
       inkscape:collect="always"
       xlink:href="#linearGradient3217"
       id="linearGradient3822"
       gradientUnits="userSpaceOnUse"
       gradientTransform="matrix(0.600006,0,0,0.445585,-54.00048,-178.5462)"
       x1="75.739166"
       y1="48.240158"
       x2="74.236351"
       y2="46.286785" />
    <linearGradient
       inkscape:collect="always"
       xlink:href="#linearGradient3696"
       id="linearGradient3164"
       gradientUnits="userSpaceOnUse"
       x1="114.69141"
       y1="17.694544"
       x2="114.3125"
       y2="15.469391" />
    <linearGradient
       inkscape:collect="always"
       xlink:href="#linearGradient1985"
       id="linearGradient3166"
       gradientUnits="userSpaceOnUse"
       gradientTransform="matrix(-1,0,0,-1,148,47.02482)"
       x1="126.03334"
       y1="3.1880391"
       x2="126.03334"
       y2="16.297308" />
    <linearGradient
       inkscape:collect="always"
       xlink:href="#linearGradient3317"
       id="linearGradient3168"
       gradientUnits="userSpaceOnUse"
       x1="116.5"
       y1="37.875"
       x2="148.125"
       y2="32.75"
       gradientTransform="translate(-100,0)" />
    <linearGradient
       inkscape:collect="always"
       xlink:href="#linearGradient3006"
       id="linearGradient3170"
       gradientUnits="userSpaceOnUse"
       gradientTransform="matrix(-1.997932,0,0,-1.997932,46.4792,-13.44106)"
       x1="9.8383999"
       y1="-27.006704"
       x2="11.779426"
       y2="-21.882927" />
    <radialGradient
       inkscape:collect="always"
       xlink:href="#linearGradient1985"
       id="radialGradient3172"
       gradientUnits="userSpaceOnUse"
       gradientTransform="matrix(2.821872,0,0,1.139301,98.19953,41.64675)"
       cx="10.391869"
       cy="-20.786554"
       fx="10.391869"
       fy="-20.786554"
       r="8.9597788" />
    <linearGradient
       inkscape:collect="always"
       xlink:href="#linearGradient3006"
       id="linearGradient3175"
       gradientUnits="userSpaceOnUse"
       gradientTransform="matrix(1.997932,0,0,1.997932,101.5208,60.46588)"
       x1="12.622529"
       y1="-22.314352"
       x2="11.153779"
       y2="-26.481432" />
    <linearGradient
       inkscape:collect="always"
       xlink:href="#linearGradient3317"
       id="linearGradient3177"
       gradientUnits="userSpaceOnUse"
       x1="140.25"
       y1="10"
       x2="105.0625"
       y2="22.6875" />
    <linearGradient
       inkscape:collect="always"
       xlink:href="#linearGradient3696"
       id="linearGradient3179"
       gradientUnits="userSpaceOnUse"
       x1="111.125"
       y1="13.125"
       x2="111.875"
       y2="15.127323" />
    <linearGradient
       inkscape:collect="always"
       xlink:href="#linearGradient3488"
       id="linearGradient3181"
       gradientUnits="userSpaceOnUse"
       x1="132.375"
       y1="24"
       x2="134.49203"
       y2="32.017578" />
    <linearGradient
       inkscape:collect="always"
       xlink:href="#linearGradient3488"
       id="linearGradient3183"
       gradientUnits="userSpaceOnUse"
       x1="124.375"
       y1="6.375"
       x2="126.75"
       y2="16.625574" />
  </defs>
  <sodipodi:namedview
     id="base"
     pagecolor="#ededed"
     bordercolor="#afafaf"
     borderopacity="1"
     inkscape:pageopacity="0"
     inkscape:pageshadow="2"
     inkscape:zoom="2"
     inkscape:cx="156.21402"
     inkscape:cy="-48.624818"
     inkscape:document-units="px"
     inkscape:current-layer="layer2"
     width="48px"
     height="48px"
     gridspacingx="0.5px"
     gridspacingy="0.5px"
     inkscape:showpageshadow="false"
     borderlayer="true"
     gridempspacing="2"
     inkscape:window-width="1283"
     inkscape:window-height="1008"
     inkscape:window-x="139"
     inkscape:window-y="0"
     showgrid="false"
     showborder="true"
     inkscape:grid-points="true"
     inkscape:grid-bbox="true"
     showguides="false"
     inkscape:guide-bbox="true"
     inkscape:object-points="false"
     inkscape:object-paths="false"
     inkscape:object-bbox="false">
    <sodipodi:guide
       orientation="horizontal"
       position="-19.5"
       id="guide3109" />
    <sodipodi:guide
       orientation="horizontal"
       position="-27.0625"
       id="guide3111" />
    <sodipodi:guide
       orientation="horizontal"
       position="-88.1875"
       id="guide3961" />
  </sodipodi:namedview>
  <metadata
     id="metadata7">
    <rdf:RDF>
      <cc:Work
         rdf:about="">
        <dc:format>image/svg+xml</dc:format>
        <dc:type
           rdf:resource="http://purl.org/dc/dcmitype/StillImage" />
        <dc:creator>
          <cc:Agent>
            <dc:title>Lapo Calamandrei</dc:title>
          </cc:Agent>
        </dc:creator>
        <cc:license
           rdf:resource="http://creativecommons.org/licenses/GPL/2.0/" />
      </cc:Work>
      <cc:License
         rdf:about="http://creativecommons.org/licenses/GPL/2.0/">
        <cc:permits
           rdf:resource="http://web.resource.org/cc/Reproduction" />
        <cc:permits
           rdf:resource="http://web.resource.org/cc/Distribution" />
        <cc:requires
           rdf:resource="http://web.resource.org/cc/Notice" />
        <cc:permits
           rdf:resource="http://web.resource.org/cc/DerivativeWorks" />
        <cc:requires
           rdf:resource="http://web.resource.org/cc/ShareAlike" />
        <cc:requires
           rdf:resource="http://web.resource.org/cc/SourceCode" />
      </cc:License>
    </rdf:RDF>
  </metadata>
  <g
     inkscape:groupmode="layer"
     id="layer2"
     inkscape:label="vectors"
     style="display:inline">
    <path
       sodipodi:type="inkscape:offset"
       inkscape:radius="2.53125"
       inkscape:original="M 128.5 2.53125 L 128.5 7.53125 L 116.5 7.53125 C 103.51344 7.5312499 104.53125 27.5 104.53125 27.5 C 104.53125 27.5 108.50827 17.5 116.5 17.5 L 128.5 17.5 L 128.5 23.5 L 140.5 12.5 L 128.5 2.53125 z "
       style="opacity:0.5;fill:url(#linearGradient3183);fill-opacity:1;stroke:none;stroke-width:1.00000024;stroke-linecap:round;stroke-linejoin:round;stroke-miterlimit:4;stroke-dasharray:none;stroke-dashoffset:1.20000057;stroke-opacity:1;display:inline"
       id="path3591"
       d="M 128.21875,0 C 126.93168,0.14399072 125.96085,1.2361766 125.96875,2.53125 L 125.96875,5 L 116.5,5 C 112.60467,5 109.41374,6.630973 107.28125,8.9375 C 105.14876,11.244027 103.97066,14.101562 103.21875,16.84375 C 101.71492,22.328126 102,27.625 102,27.625 C 102.06368,28.809632 102.94148,29.791151 104.11168,29.986185 C 105.28188,30.181218 106.43056,29.537447 106.875,28.4375 C 106.875,28.4375 107.76378,26.240162 109.5,24.0625 C 111.23622,21.884838 113.55991,20.03125 116.5,20.03125 L 125.96875,20.03125 L 125.96875,23.5 C 125.96229,24.508793 126.5554,25.42513 127.47838,25.832328 C 128.40137,26.239526 129.47802,26.059848 130.21875,25.375 L 142.21875,14.375 C 142.75729,13.880878 143.05599,13.17811 143.03803,12.447451 C 143.02006,11.716793 142.68718,11.029555 142.125,10.5625 L 130.125,0.59375 C 129.59776,0.14303521 128.90868,-0.071597594 128.21875,5.2148562e-18 L 128.21875,0 z "
       transform="translate(-100,1)"
       inkscape:export-filename="/home/lapo/Icone/Crux/navx.png"
       inkscape:export-xdpi="90"
       inkscape:export-ydpi="90" />
    <path
       sodipodi:type="inkscape:offset"
       inkscape:radius="2.5"
       inkscape:original="M 143.46875 19.53125 C 143.46875 19.53125 139.49173 29.5 131.5 29.5 L 119.5 29.5 L 119.5 23.53125 L 107.5 34.53125 L 119.5 44.5 L 119.5 39.5 L 131.5 39.5 C 144.48657 39.500001 143.46875 19.53125 143.46875 19.53125 z "
       style="opacity:0.5;fill:url(#linearGradient3181);fill-opacity:1;stroke:none;stroke-width:1.00000024;stroke-linecap:round;stroke-linejoin:round;stroke-miterlimit:4;stroke-dasharray:none;stroke-dashoffset:1.20000057;stroke-opacity:1;display:inline"
       id="path3595"
       d="M 143.28125,17.03125 C 142.33346,17.105711 141.50991,17.711264 141.15625,18.59375 C 141.15625,18.59375 140.26999,20.794754 138.53125,22.96875 C 136.79251,25.142746 134.45638,27 131.5,27 L 122,27 L 122,23.53125 C 121.99946,22.540529 121.41399,21.643575 120.50727,21.244347 C 119.60055,20.845119 118.54362,21.018929 117.8125,21.6875 L 105.8125,32.6875 C 105.27523,33.175891 104.97681,33.873712 104.99481,34.599561 C 105.0128,35.325409 105.34544,36.007584 105.90625,36.46875 L 117.90625,46.4375 C 118.65405,47.056004 119.6922,47.185927 120.56935,46.770784 C 121.44651,46.355641 122.00422,45.470428 122,44.5 L 122,42 L 131.5,42 C 135.38733,42 138.55997,40.363663 140.6875,38.0625 C 142.81503,35.761337 143.99892,32.92665 144.75,30.1875 C 146.25216,24.7092 145.96875,19.40625 145.96875,19.40625 C 145.93686,18.731384 145.63321,18.098151 145.12695,17.650757 C 144.62069,17.203364 143.95491,16.979898 143.28125,17.03125 z "
       inkscape:export-filename="/home/lapo/Icone/Crux/navx.png"
       inkscape:export-xdpi="90"
       inkscape:export-ydpi="90"
       transform="translate(-100,0)" />
    <g
       id="g3522"
       transform="translate(-100,1)"
       inkscape:export-filename="/home/lapo/Icone/Crux/navx.png"
       inkscape:export-xdpi="90"
       inkscape:export-ydpi="90">
      <path
         inkscape:export-ydpi="90"
         inkscape:export-xdpi="90"
         inkscape:export-filename="/home/lapo/Icone/Crux/arrowx.png"
         sodipodi:nodetypes="ccssscccc"
         id="path2527"
         d="M 128.49294,2.5248159 L 128.49294,7.5206799 L 116.50535,7.5206799 C 103.51879,7.5206799 104.51776,27.5 104.51776,27.5 C 104.51776,27.5 108.51362,17.51034 116.50535,17.51034 L 128.49294,17.51034 L 128.5,23.5 L 140.5,12.5 L 128.49294,2.5248159 z "
         style="fill:url(#radialGradient3172);fill-opacity:1;stroke:url(#linearGradient3175);stroke-width:1.00000024;stroke-linecap:round;stroke-linejoin:round;stroke-miterlimit:4;stroke-dasharray:none;stroke-dashoffset:1.20000057;stroke-opacity:1;display:inline" />
      <path
         sodipodi:nodetypes="cccssccscccccc"
         id="path2599"
         d="M 139.46875,12.28125 L 139.21875,12.5 L 116.5,12.5 C 114.38889,12.5 112.63616,13.373375 111.15625,14.71875 C 109.67634,16.064125 108.48211,17.879527 107.5625,19.71875 C 106.99558,20.852598 106.52262,21.971501 106.15625,23 C 105.51599,23.743179 105.25795,24.51972 105.0625,25.40625 C 105.5682,24.481689 106.19567,23.353108 107.125,22.1875 C 109.16899,19.623828 112.29559,17 116.5,17 L 128.5,17 C 128.77613,17.000028 128.99997,17.223869 129,17.5 L 129,22.34375 L 139.75,12.5 L 139.46875,12.28125 z "
         style="fill:url(#linearGradient3177);fill-opacity:1;stroke:none;stroke-width:1.00000024;stroke-linecap:round;stroke-linejoin:round;stroke-miterlimit:4;stroke-dasharray:none;stroke-dashoffset:1.20000057;stroke-opacity:1;display:inline" />
      <path
         sodipodi:nodetypes="csscccssccccccccc"
         id="path2578"
         d="M 116.5,12 C 114.11111,12 112.11384,13.001625 110.5,14.46875 C 108.88616,15.935875 107.64289,17.870473 106.6875,19.78125 C 106.05229,21.051676 105.53087,22.297536 105.13319,23.42489 C 105.08508,24.12031 105.01894,24.854755 105.00845,25.41149 C 105.31346,24.859425 105.7223,24.154487 106.15625,23.5 C 106.52262,22.471501 106.99558,21.352598 107.5625,20.21875 C 108.48211,18.379527 109.67634,16.564125 111.15625,15.21875 C 112.63616,13.873375 114.38889,13 116.5,13 L 139.21875,13 L 139.75,12.5 L 139.15625,12 L 116.5,12 z M 104.03125,27.3125 C 104.02917,27.32244 104,27.40625 104,27.40625 L 104.03125,27.40625 C 104.03079,27.396757 104.03197,27.328888 104.03125,27.3125 z "
         style="fill:white;fill-opacity:1;fill-rule:evenodd;stroke:none;stroke-width:1px;stroke-linecap:butt;stroke-linejoin:miter;stroke-opacity:1" />
      <path
         d="M 129.5,4.65625 L 129.5,7.53125 C 129.49994,8.0835119 129.05226,8.5311948 128.5,8.53125 L 116.5,8.53125 C 113.50963,8.53125 111.44713,9.6433169 109.875,11.34375 C 108.30287,13.044183 107.28278,15.382379 106.625,17.78125 C 106.0604,19.840325 105.85321,21.773475 105.71875,23.46875 C 106.0765,22.920998 106.29123,22.450414 106.75,21.875 C 108.84475,19.247657 112.08704,16.5 116.5,16.5 L 128.5,16.5 C 129.05226,16.500055 129.49994,16.947738 129.5,17.5 L 129.5,21.1875 L 138.96875,12.53125 L 129.5,4.65625 z "
         id="path3496"
         style="fill:none;fill-opacity:1;stroke:url(#linearGradient3179);stroke-width:1;stroke-linecap:round;stroke-linejoin:miter;stroke-miterlimit:4;stroke-dasharray:none;stroke-dashoffset:1.20000057;stroke-opacity:1;display:inline"
         inkscape:original="M 128.5 2.53125 L 128.5 7.53125 L 116.5 7.53125 C 103.51344 7.5312499 104.53125 27.5 104.53125 27.5 C 104.53125 27.5 108.50827 17.5 116.5 17.5 L 128.5 17.5 L 128.5 23.5 L 140.5 12.5 L 128.5 2.53125 z "
         inkscape:radius="-0.99999994"
         sodipodi:type="inkscape:offset" />
    </g>
    <path
       style="fill:url(#linearGradient3168);fill-opacity:1;stroke:url(#linearGradient3170);stroke-width:1.00000024;stroke-linecap:round;stroke-linejoin:round;stroke-miterlimit:4;stroke-dasharray:none;stroke-dashoffset:1.20000057;stroke-opacity:1;display:inline"
       d="M 19.50706,44.500004 L 19.50706,39.50414 L 31.49465,39.50414 C 44.48121,39.50414 43.48224,19.52482 43.48224,19.52482 C 43.48224,19.52482 39.48638,29.51448 31.49465,29.51448 L 19.50706,29.51448 L 19.5,23.52482 L 7.5,34.52482 L 19.50706,44.500004 z "
       id="path3531"
       sodipodi:nodetypes="ccssscccc"
       inkscape:export-filename="/home/lapo/Icone/Crux/navx.png"
       inkscape:export-xdpi="90"
       inkscape:export-ydpi="90" />
    <path
       style="fill:url(#linearGradient3166);fill-opacity:1;stroke:none;stroke-width:1.00000024;stroke-linecap:round;stroke-linejoin:round;stroke-miterlimit:4;stroke-dasharray:none;stroke-dashoffset:1.20000057;stroke-opacity:1;display:inline"
       d="M 8.53125,34.74357 L 8.78125,34.52482 L 31.5,34.52482 C 33.61111,34.52482 35.36384,33.651445 36.84375,32.30607 C 38.32366,30.960695 39.51789,29.145293 40.4375,27.30607 C 41.00442,26.172222 41.47738,25.053319 41.84375,24.02482 C 42.48401,23.281641 42.74205,22.5051 42.9375,21.61857 C 42.4318,22.543131 41.80433,23.671712 40.875,24.83732 C 38.83101,27.400992 35.70441,30.02482 31.5,30.02482 L 19.5,30.02482 C 19.22387,30.024792 19.00003,29.800951 19,29.52482 L 19,24.68107 L 8.25,34.52482 L 8.53125,34.74357 z "
       id="path3533"
       sodipodi:nodetypes="cccssccscccccc"
       inkscape:export-filename="/home/lapo/Icone/Crux/navx.png"
       inkscape:export-xdpi="90"
       inkscape:export-ydpi="90" />
    <path
       style="fill:white;fill-opacity:1;fill-rule:evenodd;stroke:none;stroke-width:1px;stroke-linecap:butt;stroke-linejoin:miter;stroke-opacity:1"
       d="M 31.5,35.02482 C 33.88889,35.02482 35.88616,34.023195 37.5,32.55607 C 39.11384,31.088945 40.35711,29.154347 41.3125,27.24357 C 41.94771,25.973144 42.46913,24.727284 42.86681,23.59993 C 42.91492,22.90451 42.98106,22.170065 42.99155,21.61333 C 42.68654,22.165395 42.2777,22.870333 41.84375,23.52482 C 41.47738,24.553319 41.00442,25.672222 40.4375,26.80607 C 39.51789,28.645293 38.32366,30.460695 36.84375,31.80607 C 35.36384,33.151445 33.61111,34.02482 31.5,34.02482 L 8.78125,34.02482 L 8.25,34.52482 L 8.84375,35.02482 L 31.5,35.02482 z M 43.96875,19.71232 C 43.97083,19.70238 44,19.61857 44,19.61857 L 43.96875,19.61857 C 43.96921,19.628063 43.96803,19.695932 43.96875,19.71232 z "
       id="path3535"
       sodipodi:nodetypes="csscccssccccccccc"
       inkscape:export-filename="/home/lapo/Icone/Crux/navx.png"
       inkscape:export-xdpi="90"
       inkscape:export-ydpi="90" />
    <path
       sodipodi:type="inkscape:offset"
       inkscape:radius="-0.99999994"
       inkscape:original="M 128.5 2.53125 L 128.5 7.53125 L 116.5 7.53125 C 103.51344 7.5312499 104.53125 27.5 104.53125 27.5 C 104.53125 27.5 108.50827 17.5 116.5 17.5 L 128.5 17.5 L 128.5 23.5 L 140.5 12.5 L 128.5 2.53125 z "
       style="fill:none;fill-opacity:1;stroke:url(#linearGradient3164);stroke-width:1;stroke-linecap:round;stroke-linejoin:miter;stroke-miterlimit:4;stroke-dasharray:none;stroke-dashoffset:1.20000057;stroke-opacity:1;display:inline"
       id="path3537"
       d="M 129.5,4.65625 L 129.5,7.53125 C 129.49994,8.0835119 129.05226,8.5311948 128.5,8.53125 L 116.5,8.53125 C 113.50963,8.53125 111.44713,9.6433169 109.875,11.34375 C 108.30287,13.044183 107.28278,15.382379 106.625,17.78125 C 106.0604,19.840325 105.85321,21.773475 105.71875,23.46875 C 106.0765,22.920998 106.29123,22.450414 106.75,21.875 C 108.84475,19.247657 112.08704,16.5 116.5,16.5 L 128.5,16.5 C 129.05226,16.500055 129.49994,16.947738 129.5,17.5 L 129.5,21.1875 L 138.96875,12.53125 L 129.5,4.65625 z "
       transform="matrix(-1,0,0,-1,148,47.02482)"
       inkscape:export-filename="/home/lapo/Icone/Crux/navx.png"
       inkscape:export-xdpi="90"
       inkscape:export-ydpi="90" />
  </g>
</svg>
