<?xml version="1.0" encoding="UTF-8" standalone="no"?>
<!-- Created with Inkscape (http://www.inkscape.org/) -->
<svg
   xmlns:svg="http://www.w3.org/2000/svg"
   xmlns="http://www.w3.org/2000/svg"
   xmlns:xlink="http://www.w3.org/1999/xlink"
   version="1.0"
   width="48"
   height="48"
   id="svg1328">
  <defs
     id="defs3">
    <linearGradient
       id="linearGradient3365">
      <stop
         style="stop-color:#ffffff;stop-opacity:1"
         offset="0"
         id="stop3367" />
      <stop
         style="stop-color:#ffffff;stop-opacity:0"
         offset="0.5"
         id="stop3371" />
      <stop
         style="stop-color:#ffffff;stop-opacity:1"
         offset="0.75"
         id="stop3373" />
      <stop
         style="stop-color:#ffffff;stop-opacity:0"
         offset="0.95394737"
         id="stop3375" />
      <stop
         style="stop-color:#ffffff;stop-opacity:0"
         offset="0.95394737"
         id="stop3377" />
      <stop
         style="stop-color:#ffffff;stop-opacity:1"
         offset="1"
         id="stop3369" />
    </linearGradient>
    <linearGradient
       id="linearGradient3353">
      <stop
         style="stop-color:#969696;stop-opacity:1"
         offset="0"
         id="stop3355" />
      <stop
         style="stop-color:#b6b6b6;stop-opacity:0"
         offset="1"
         id="stop3357" />
    </linearGradient>
    <linearGradient
       id="linearGradient3341">
      <stop
         style="stop-color:#b6b6b6;stop-opacity:1"
         offset="0"
         id="stop3343" />
      <stop
         style="stop-color:#b6b6b6;stop-opacity:0"
         offset="1"
         id="stop3345" />
    </linearGradient>
    <linearGradient
       id="linearGradient3331">
      <stop
         style="stop-color:#ffffff;stop-opacity:1"
         offset="0"
         id="stop3333" />
      <stop
         style="stop-color:#ffffff;stop-opacity:0"
         offset="1"
         id="stop3335" />
    </linearGradient>
    <linearGradient
       id="linearGradient3323">
      <stop
         style="stop-color:#000000;stop-opacity:1"
         offset="0"
         id="stop3325" />
      <stop
         style="stop-color:#000000;stop-opacity:0"
         offset="1"
         id="stop3327" />
    </linearGradient>
    <linearGradient
       id="linearGradient3309">
      <stop
         style="stop-color:#e5e6e3;stop-opacity:1"
         offset="0"
         id="stop3311" />
      <stop
         style="stop-color:#d1d3cf;stop-opacity:1"
         offset="0.5"
         id="stop3317" />
      <stop
         style="stop-color:#767c6f;stop-opacity:1"
         offset="1"
         id="stop3313" />
    </linearGradient>
    <linearGradient
       id="linearGradient3289">
      <stop
         style="stop-color:#000000;stop-opacity:1"
         offset="0"
         id="stop3291" />
      <stop
         style="stop-color:#000000;stop-opacity:0"
         offset="1"
         id="stop3293" />
    </linearGradient>
    <linearGradient
       id="linearGradient3271">
      <stop
         style="stop-color:#eeeeec;stop-opacity:1"
         offset="0"
         id="stop3273" />
      <stop
         style="stop-color:#d3d3ce;stop-opacity:1"
         offset="1"
         id="stop3275" />
    </linearGradient>
    <linearGradient
       x1="78.98452"
       y1="12.350954"
       x2="79.109146"
       y2="8.7270317"
       id="linearGradient3277"
       xlink:href="#linearGradient3271"
       gradientUnits="userSpaceOnUse"
       gradientTransform="translate(-52,21)" />
    <radialGradient
       cx="69.296463"
       cy="14.854369"
       r="3.5355339"
       fx="69.296463"
       fy="14.854369"
       id="radialGradient3295"
       xlink:href="#linearGradient3289"
       gradientUnits="userSpaceOnUse"
       gradientTransform="matrix(1,0,0,1.575,0,-8.541261)" />
    <radialGradient
       cx="69.296463"
       cy="14.854369"
       r="3.5355339"
       fx="69.296463"
       fy="14.854369"
       id="radialGradient3299"
       xlink:href="#linearGradient3289"
       gradientUnits="userSpaceOnUse"
       gradientTransform="matrix(1,0,0,1.575,0,-8.541261)" />
    <radialGradient
       cx="77.499115"
       cy="-9.0639915"
       r="17.500887"
       fx="77.499115"
       fy="-9.0639915"
       id="radialGradient3315"
       xlink:href="#linearGradient3309"
       gradientUnits="userSpaceOnUse"
       gradientTransform="matrix(2.080863,0,0,1.843788,-135.7659,30.30738)" />
    <radialGradient
       cx="22.5"
       cy="34"
       r="23.5"
       fx="22.5"
       fy="34"
       id="radialGradient3329"
       xlink:href="#linearGradient3323"
       gradientUnits="userSpaceOnUse"
       gradientTransform="matrix(1,0,0,0.595745,0,13.74468)" />
    <linearGradient
       x1="31.988777"
       y1="35.874382"
       x2="31.988777"
       y2="44.874382"
       id="linearGradient3337"
       xlink:href="#linearGradient3331"
       gradientUnits="userSpaceOnUse"
       gradientTransform="translate(2,1)" />
    <linearGradient
       x1="7.7210102"
       y1="3.0030618"
       x2="6.7816706"
       y2="-3.74264"
       id="linearGradient3347"
       xlink:href="#linearGradient3341"
       gradientUnits="userSpaceOnUse"
       gradientTransform="translate(2,1)" />
    <linearGradient
       x1="31.988777"
       y1="35.874382"
       x2="31.988777"
       y2="44.874382"
       id="linearGradient3349"
       xlink:href="#linearGradient3331"
       gradientUnits="userSpaceOnUse"
       gradientTransform="translate(2,1)" />
    <linearGradient
       x1="7.7210102"
       y1="3.0030618"
       x2="6.7816706"
       y2="-3.74264"
       id="linearGradient3359"
       xlink:href="#linearGradient3353"
       gradientUnits="userSpaceOnUse"
       gradientTransform="translate(2,1)" />
    <linearGradient
       x1="-7.6092024"
       y1="6.7062273"
       x2="22.266058"
       y2="10.756479"
       id="linearGradient3363"
       xlink:href="#linearGradient3365"
       gradientUnits="userSpaceOnUse"
       gradientTransform="translate(2,1)" />
  </defs>
  <g
     id="layer1">
    <path
       d="M 25,15.5 C 25,15.5 27.125,5.375 23,4 C 18.875,2.625 13.25,10.5 8.5,10 C 3.75,9.5 3.6464466,-1.5355339 3.6464466,-1.5355339"
       style="opacity:1;color:#000000;fill:none;fill-opacity:1;fill-rule:nonzero;stroke:url(#linearGradient3359);stroke-width:6;stroke-linecap:butt;stroke-linejoin:miter;marker:none;marker-start:none;marker-mid:none;marker-end:none;stroke-miterlimit:10;stroke-dasharray:none;stroke-dashoffset:0;stroke-opacity:1;visibility:visible;display:block;overflow:visible"
       id="path3351" />
    <path
       d="M 25,15.5 C 25,15.5 27.125,5.375 23,4 C 18.875,2.625 13.25,10.5 8.5,10 C 3.75,9.5 3.6464466,-1.5355339 3.6464466,-1.5355339"
       style="opacity:1;color:#000000;fill:none;fill-opacity:1;fill-rule:nonzero;stroke:url(#linearGradient3347);stroke-width:4;stroke-linecap:butt;stroke-linejoin:miter;marker:none;marker-start:none;marker-mid:none;marker-end:none;stroke-miterlimit:10;stroke-dasharray:none;stroke-dashoffset:0;stroke-opacity:1;visibility:visible;display:block;overflow:visible"
       id="path3339" />
    <path
       d="M 24.748738,14.765981 C 24.748738,14.765981 26.017133,4.5314834 22.273864,3.4522727 C 18.694101,2.420202 11.378007,11.772266 6.7175144,9.109127 C 3.0052037,6.9878067 2.6516505,-1.4974747 2.6516505,-1.4974747"
       style="opacity:0.52197804;color:#000000;fill:none;fill-opacity:1;fill-rule:nonzero;stroke:url(#linearGradient3363);stroke-width:1;stroke-linecap:butt;stroke-linejoin:miter;marker:none;marker-start:none;marker-mid:none;marker-end:none;stroke-miterlimit:10;stroke-dasharray:none;stroke-dashoffset:0;stroke-opacity:1;visibility:visible;display:block;overflow:visible"
       id="path3361" />
    <path
       d="M 46 34 A 23.5 14 0 1 1  -1,34 A 23.5 14 0 1 1  46 34 z"
       transform="matrix(1,0,0,1.428571,2,-18.86433)"
       style="opacity:0.58241763;color:#000000;fill:url(#radialGradient3329);fill-opacity:1;fill-rule:nonzero;stroke:none;stroke-width:0.99999946;stroke-linecap:butt;stroke-linejoin:miter;marker:none;marker-start:none;marker-mid:none;marker-end:none;stroke-miterlimit:10;stroke-dasharray:none;stroke-dashoffset:0;stroke-opacity:1;visibility:visible;display:block;overflow:visible"
       id="path3321" />
    <path
       d="M 25.061614,11.494622 C 15.84863,11.723232 8.4991139,19.115639 8.4991139,28.256775 L 8.4991139,28.657341 C 8.4965829,28.6696 8.5004109,28.706298 8.4991139,28.718966 C 8.4987859,28.725392 8.4991139,28.743271 8.4991139,28.749779 L 8.4991139,41.136516 C 8.4991139,41.143025 8.4987859,41.160903 8.4991139,41.167329 C 8.5004109,41.179998 8.4965829,41.216696 8.4991139,41.228955 C 8.5006759,41.234969 8.5285129,41.253874 8.5303639,41.259767 C 8.5324959,41.265531 8.5279589,41.284954 8.5303639,41.29058 C 8.5383759,41.307023 8.5513559,41.337211 8.5616139,41.352206 C 8.5652669,41.357028 8.5889849,41.37838 8.5928639,41.383019 C 8.5969609,41.387465 8.6198069,41.409585 8.6241139,41.413831 C 8.6288179,41.417656 8.6504729,41.441042 8.6553639,41.444644 C 8.6705719,41.454759 8.7011879,41.467557 8.7178639,41.475457 C 8.7292759,41.480201 8.7684099,41.502619 8.7803639,41.50627 C 8.7864649,41.50781 8.8053979,41.505021 8.8116139,41.50627 C 8.8242629,41.508165 8.8610809,41.505623 8.8741139,41.50627 L 42.124114,41.50627 C 42.137147,41.505623 42.173965,41.508165 42.186614,41.50627 C 42.19283,41.505021 42.211764,41.50781 42.217864,41.50627 C 42.229818,41.502619 42.268952,41.480201 42.280364,41.475457 C 42.29704,41.467557 42.327656,41.454759 42.342864,41.444644 C 42.347755,41.441042 42.36941,41.417656 42.374114,41.413831 C 42.378421,41.409585 42.401267,41.387465 42.405364,41.383019 C 42.409243,41.37838 42.432961,41.357028 42.436614,41.352206 C 42.446872,41.33721 42.459852,41.307023 42.467864,41.29058 C 42.470269,41.284954 42.465732,41.265531 42.467864,41.259767 C 42.469715,41.253874 42.497552,41.23497 42.499114,41.228955 C 42.501645,41.216696 42.497817,41.179998 42.499114,41.167329 C 42.499442,41.160903 42.499114,41.143025 42.499114,41.136516 L 42.499114,28.749779 C 42.499114,28.743271 42.499442,28.725392 42.499114,28.718966 C 42.497817,28.706298 42.501645,28.6696 42.499114,28.657341 L 42.499114,28.256775 C 42.499114,18.970542 34.917114,11.494622 25.499114,11.494622 C 25.351958,11.494622 25.207852,11.490993 25.061614,11.494622 z "
       style="opacity:1;color:#000000;fill:url(#radialGradient3315);fill-opacity:1;fill-rule:nonzero;stroke:#848781;stroke-width:0.99999946;stroke-linecap:butt;stroke-linejoin:miter;marker:none;marker-start:none;marker-mid:none;marker-end:none;stroke-miterlimit:10;stroke-dasharray:none;stroke-dashoffset:0;stroke-opacity:1;visibility:visible;display:block;overflow:visible"
       id="rect2393" />
    <rect
       width="29.972158"
       height="10.054042"
       rx="0.38128227"
       ry="0.38128221"
       x="10.513954"
       y="29.472982"
       style="opacity:1;color:#000000;fill:url(#linearGradient3277);fill-opacity:1;fill-rule:nonzero;stroke:#888a85;stroke-width:0.99999976;stroke-linecap:butt;stroke-linejoin:miter;marker:none;marker-start:none;marker-mid:none;marker-end:none;stroke-miterlimit:10;stroke-dasharray:none;stroke-dashoffset:0;stroke-opacity:1;visibility:visible;display:block;overflow:visible"
       id="rect2391" />
    <path
       d="M 72.831997 14.854369 A 3.5355339 5.5684657 0 1 1  65.760929,14.854369 A 3.5355339 5.5684657 0 1 1  72.831997 14.854369 z"
       transform="translate(-34.8839,21)"
       style="opacity:0.48901098;color:#000000;fill:url(#radialGradient3299);fill-opacity:1;fill-rule:nonzero;stroke:none;stroke-width:0.99999946;stroke-linecap:butt;stroke-linejoin:miter;marker:none;marker-start:none;marker-mid:none;marker-end:none;stroke-miterlimit:10;stroke-dasharray:none;stroke-dashoffset:0;stroke-opacity:1;visibility:visible;display:block;overflow:visible"
       id="path3297" />
    <path
       d="M 72.831997 14.854369 A 3.5355339 5.5684657 0 1 1  65.760929,14.854369 A 3.5355339 5.5684657 0 1 1  72.831997 14.854369 z"
       transform="translate(-52,21)"
       style="opacity:0.48901098;color:#000000;fill:url(#radialGradient3295);fill-opacity:1;fill-rule:nonzero;stroke:none;stroke-width:0.99999946;stroke-linecap:butt;stroke-linejoin:miter;marker:none;marker-start:none;marker-mid:none;marker-end:none;stroke-miterlimit:10;stroke-dasharray:none;stroke-dashoffset:0;stroke-opacity:1;visibility:visible;display:block;overflow:visible"
       id="path3287" />
    <path
       d="M 25.090015,12.46904 C 16.475304,12.682805 9.6030509,19.595164 9.6030509,28.142692 L 9.6030509,28.517247 C 9.6006839,28.528709 9.6042629,28.563024 9.6030509,28.57487 C 9.6027439,28.580878 9.6030509,28.597596 9.6030509,28.603682 L 9.6030509,40.186049 C 9.6030509,40.192135 9.6027439,40.208852 9.6030509,40.214861 C 9.6042629,40.226707 9.6006839,40.261022 9.6030509,40.272485 C 9.6045109,40.278109 9.6305399,40.295786 9.6322709,40.301296 C 9.6342649,40.306686 9.6300219,40.324848 9.6322709,40.330108 C 9.6397629,40.345484 9.6518999,40.373711 9.6614919,40.387732 C 9.6649079,40.392241 9.6870849,40.412207 9.6907129,40.416545 C 9.6945439,40.420702 9.7159059,40.441385 9.7199329,40.445356 C 9.7243319,40.448932 9.7445809,40.4708 9.7491539,40.474168 C 9.7633739,40.483626 9.7920019,40.495593 9.8075949,40.50298 C 9.8182659,40.507416 9.8548589,40.528378 9.8660369,40.531792 C 9.8717419,40.533232 9.8894449,40.530624 9.8952569,40.531792 C 9.9070849,40.533564 9.9415119,40.531187 9.9536989,40.531792 L 41.04451,40.531792 C 41.056697,40.531187 41.091124,40.533564 41.102952,40.531792 C 41.108764,40.530624 41.126468,40.533232 41.132172,40.531792 C 41.14335,40.528378 41.179943,40.507416 41.190614,40.50298 C 41.206207,40.495593 41.234835,40.483626 41.249055,40.474168 C 41.253628,40.4708 41.273877,40.448932 41.278276,40.445356 C 41.282303,40.441385 41.303666,40.420702 41.307496,40.416545 C 41.311124,40.412207 41.333301,40.392241 41.336717,40.387732 C 41.346309,40.37371 41.358446,40.345484 41.365938,40.330108 C 41.368187,40.324848 41.363944,40.306686 41.365938,40.301296 C 41.367669,40.295786 41.393698,40.27811 41.395159,40.272485 C 41.397525,40.261022 41.393946,40.226707 41.395159,40.214861 C 41.395465,40.208852 41.395159,40.192135 41.395159,40.186049 L 41.395159,28.603682 C 41.395159,28.597596 41.395465,28.580878 41.395159,28.57487 C 41.393946,28.563024 41.397525,28.528709 41.395159,28.517247 L 41.395159,28.142692 C 41.395159,19.459489 34.305518,12.46904 25.499105,12.46904 C 25.361505,12.46904 25.226757,12.465647 25.090015,12.46904 z "
       style="opacity:0.58241763;color:#000000;fill:none;fill-opacity:1;fill-rule:nonzero;stroke:#ffffff;stroke-width:0.99999928;stroke-linecap:butt;stroke-linejoin:miter;marker:none;marker-start:none;marker-mid:none;marker-end:none;stroke-miterlimit:10;stroke-dasharray:none;stroke-dashoffset:0;stroke-opacity:1;visibility:visible;display:block;overflow:visible"
       id="path3319" />
    <rect
       width="2.9998362"
       height="14.243194"
       rx="0.381282"
       ry="0.38128212"
       x="15.522423"
       y="31.530037"
       style="opacity:1;color:#000000;fill:#babdb6;fill-opacity:1;fill-rule:nonzero;stroke:#888a85;stroke-width:0.99999917;stroke-linecap:butt;stroke-linejoin:miter;marker:none;marker-start:none;marker-mid:none;marker-end:none;stroke-miterlimit:10;stroke-dasharray:none;stroke-dashoffset:0;stroke-opacity:1;visibility:visible;display:block;overflow:visible"
       id="rect3279" />
    <rect
       width="1.0224007"
       height="8.2487669"
       rx="0"
       ry="0"
       x="16.5"
       y="36.5"
       style="opacity:1;color:#000000;fill:#babdb6;fill-opacity:1;fill-rule:nonzero;stroke:url(#linearGradient3337);stroke-width:0.99999887;stroke-linecap:butt;stroke-linejoin:miter;marker:none;marker-start:none;marker-mid:none;marker-end:none;stroke-miterlimit:10;stroke-dasharray:none;stroke-dashoffset:0;stroke-opacity:1;visibility:visible;display:block;overflow:visible"
       id="rect3281" />
    <rect
       width="2.9998362"
       height="14.243194"
       rx="0.381282"
       ry="0.38128212"
       x="32.5"
       y="31.530037"
       style="opacity:1;color:#000000;fill:#babdb6;fill-opacity:1;fill-rule:nonzero;stroke:#888a85;stroke-width:0.99999917;stroke-linecap:butt;stroke-linejoin:miter;marker:none;marker-start:none;marker-mid:none;marker-end:none;stroke-miterlimit:10;stroke-dasharray:none;stroke-dashoffset:0;stroke-opacity:1;visibility:visible;display:block;overflow:visible"
       id="rect3283" />
    <rect
       width="1.0224007"
       height="8.2487669"
       rx="0"
       ry="0"
       x="33.477577"
       y="36.5"
       style="opacity:1;color:#000000;fill:#babdb6;fill-opacity:1;fill-rule:nonzero;stroke:url(#linearGradient3349);stroke-width:0.99999887;stroke-linecap:butt;stroke-linejoin:miter;marker:none;marker-start:none;marker-mid:none;marker-end:none;stroke-miterlimit:10;stroke-dasharray:none;stroke-dashoffset:0;stroke-opacity:1;visibility:visible;display:block;overflow:visible"
       id="rect3285" />
  </g>
  <g
     id="layer2" />
</svg>
