<?xml version="1.0" encoding="UTF-8" standalone="no"?>
<!-- Created with Inkscape (http://www.inkscape.org/) -->
<svg
   xmlns:svg="http://www.w3.org/2000/svg"
   xmlns="http://www.w3.org/2000/svg"
   xmlns:xlink="http://www.w3.org/1999/xlink"
   version="1.0"
   width="48"
   height="48"
   id="svg1328">
  <defs
     id="defs3">
    <linearGradient
       id="linearGradient3260">
      <stop
         style="stop-color:#3465a4;stop-opacity:1"
         offset="0"
         id="stop3262" />
      <stop
         style="stop-color:#8fb1dc;stop-opacity:1"
         offset="1"
         id="stop3264" />
    </linearGradient>
    <linearGradient
       id="linearGradient3815">
      <stop
         style="stop-color:#204a87;stop-opacity:1"
         offset="0"
         id="stop3817" />
      <stop
         style="stop-color:#98b8e7;stop-opacity:1"
         offset="1"
         id="stop3819" />
    </linearGradient>
    <linearGradient
       id="linearGradient3805">
      <stop
         style="stop-color:#284e7f;stop-opacity:1"
         offset="0"
         id="stop3807" />
      <stop
         style="stop-color:#6694cf;stop-opacity:1"
         offset="0.5"
         id="stop3813" />
      <stop
         style="stop-color:#234570;stop-opacity:1"
         offset="1"
         id="stop3809" />
    </linearGradient>
    <linearGradient
       id="linearGradient3247">
      <stop
         style="stop-color:#f0f0f0;stop-opacity:1"
         offset="0"
         id="stop3249" />
      <stop
         style="stop-color:#f0f0f0;stop-opacity:0"
         offset="1"
         id="stop3251" />
    </linearGradient>
    <linearGradient
       id="linearGradient3233">
      <stop
         style="stop-color:#eeeeec;stop-opacity:1"
         offset="0"
         id="stop3235" />
      <stop
         style="stop-color:#a3a398;stop-opacity:1"
         offset="1"
         id="stop3237" />
    </linearGradient>
    <linearGradient
       id="linearGradient6924">
      <stop
         style="stop-color:#ffffff;stop-opacity:1"
         offset="0"
         id="stop6926" />
      <stop
         style="stop-color:#ffffff;stop-opacity:0"
         offset="1"
         id="stop6928" />
    </linearGradient>
    <linearGradient
       id="linearGradient4176">
      <stop
         style="stop-color:#ffffff;stop-opacity:1"
         offset="0"
         id="stop4178" />
      <stop
         style="stop-color:#ffffff;stop-opacity:0"
         offset="1"
         id="stop4180" />
    </linearGradient>
    <linearGradient
       id="linearGradient4134">
      <stop
         style="stop-color:#d6d7d5;stop-opacity:1"
         offset="0"
         id="stop4136" />
      <stop
         style="stop-color:#d1d2d0;stop-opacity:1"
         offset="0.25"
         id="stop4148" />
      <stop
         style="stop-color:#a5a6a3;stop-opacity:1"
         offset="0.5"
         id="stop4142" />
      <stop
         style="stop-color:#dddedc;stop-opacity:1"
         offset="1"
         id="stop4138" />
    </linearGradient>
    <linearGradient
       id="linearGradient4126">
      <stop
         style="stop-color:#000000;stop-opacity:1"
         offset="0"
         id="stop4128" />
      <stop
         style="stop-color:#000000;stop-opacity:0"
         offset="1"
         id="stop4130" />
    </linearGradient>
    <linearGradient
       x1="9.3030529"
       y1="26.71875"
       x2="38.826412"
       y2="26.71875"
       id="linearGradient4140"
       xlink:href="#linearGradient4134"
       gradientUnits="userSpaceOnUse"
       gradientTransform="matrix(1.008042,0,0,0.991346,-0.266749,-3.763012)" />
    <linearGradient
       x1="17.160095"
       y1="14.004482"
       x2="37.969398"
       y2="56.575912"
       id="linearGradient4182"
       xlink:href="#linearGradient4176"
       gradientUnits="userSpaceOnUse"
       gradientTransform="matrix(1.007243,0,0,0.992756,-0.239041,-3.769218)" />
    <linearGradient
       x1="16.07143"
       y1="19.5"
       x2="16.035715"
       y2="31.75"
       id="linearGradient6930"
       xlink:href="#linearGradient6924"
       gradientUnits="userSpaceOnUse"
       gradientTransform="matrix(1.010754,0,0,1,-0.372345,-1.264335)" />
    <radialGradient
       cx="23.857143"
       cy="40"
       r="17.142857"
       fx="23.857143"
       fy="40"
       id="radialGradient6946"
       xlink:href="#linearGradient4126"
       gradientUnits="userSpaceOnUse"
       gradientTransform="matrix(1,0,0,0.5,0,20)" />
    <linearGradient
       x1="34.244171"
       y1="17.695425"
       x2="34.244171"
       y2="29.91827"
       id="linearGradient3253"
       xlink:href="#linearGradient3247"
       gradientUnits="userSpaceOnUse"
       gradientTransform="matrix(1.010754,0,0,1,-0.372345,-2.121478)" />
    <linearGradient
       x1="24"
       y1="17.245949"
       x2="23.433737"
       y2="8.0476589"
       id="linearGradient3255"
       xlink:href="#linearGradient3233"
       gradientUnits="userSpaceOnUse" />
    <linearGradient
       x1="11.003058"
       y1="32.489445"
       x2="32.396713"
       y2="32.489445"
       id="linearGradient3811"
       xlink:href="#linearGradient3805"
       gradientUnits="userSpaceOnUse"
       gradientTransform="matrix(0.989992,0,0,1,0.723285,-1.957677)" />
    <linearGradient
       x1="25.698481"
       y1="11.170371"
       x2="25.573168"
       y2="20.118456"
       id="linearGradient3821"
       xlink:href="#linearGradient3815"
       gradientUnits="userSpaceOnUse" />
    <linearGradient
       x1="21.486856"
       y1="25.114395"
       x2="21.756248"
       y2="5.5616603"
       id="linearGradient3266"
       xlink:href="#linearGradient3260"
       gradientUnits="userSpaceOnUse" />
    <linearGradient
       x1="24"
       y1="17.245949"
       x2="23.433737"
       y2="8.0476589"
       id="linearGradient4230"
       xlink:href="#linearGradient3233"
       gradientUnits="userSpaceOnUse" />
    <radialGradient
       cx="23.857143"
       cy="40"
       r="17.142857"
       fx="23.857143"
       fy="40"
       id="radialGradient1544"
       xlink:href="#linearGradient4126"
       gradientUnits="userSpaceOnUse"
       gradientTransform="matrix(1,0,0,0.5,0,20)" />
  </defs>
  <g
     id="layer1">
    <path
       d="M 41 40 A 17.142857 8.5714283 0 1 1  6.7142868,40 A 17.142857 8.5714283 0 1 1  41 40 z"
       transform="matrix(1.05,0,0,1.166667,-1.049999,-13.60315)"
       style="opacity:1;color:#000000;fill:url(#radialGradient1544);fill-opacity:1;fill-rule:nonzero;stroke:none;stroke-width:1;stroke-linecap:butt;stroke-linejoin:miter;marker:none;marker-start:none;marker-mid:none;marker-end:none;stroke-miterlimit:10;stroke-dasharray:none;stroke-dashoffset:0;stroke-opacity:1;visibility:visible;display:block;overflow:visible"
       id="path3366" />
    <path
       d="M 23.86326,5.0661616 C 15.940627,5.0661616 9.4986602,7.8444097 9.4986592,11.262076 C 9.4986592,11.50732 9.4986592,33.931542 9.4986592,34.186952 C 9.4986592,37.604618 15.940626,40.382865 23.86326,40.382865 C 31.785894,40.382865 38.484373,37.604617 38.484371,34.186952 C 38.484371,33.984657 38.484371,11.464371 38.484371,11.262076 C 38.484371,7.8444087 31.785893,5.0661616 23.86326,5.0661616 z "
       style="opacity:1;color:#000000;fill:url(#linearGradient4140);fill-opacity:1;fill-rule:nonzero;stroke:#767973;stroke-width:1.00000012;stroke-linecap:butt;stroke-linejoin:miter;marker:none;marker-start:none;marker-mid:none;marker-end:none;stroke-miterlimit:10;stroke-dasharray:none;stroke-dashoffset:0;stroke-opacity:1;visibility:visible;display:block;overflow:visible"
       id="path3068" />
    <path
       d="M 23.266534,10.751064 C 16.657108,10.88579 11.390136,13.091002 11.390136,15.779277 C 11.390136,16.097968 11.390136,33.157158 11.390136,33.473681 C 11.390136,36.248674 16.974163,38.501891 23.882346,38.501893 C 30.790528,38.501893 36.40388,36.248674 36.403881,33.473681 C 36.403881,33.157158 36.403881,16.097968 36.403881,15.779277 C 36.403881,13.004283 30.790528,10.751065 23.882346,10.751064 C 23.666466,10.751064 23.47974,10.746718 23.266534,10.751064 z "
       style="opacity:0.79120878;color:#000000;fill:url(#linearGradient3811);fill-opacity:1;fill-rule:nonzero;stroke:#204a87;stroke-width:0.99621499;stroke-linecap:butt;stroke-linejoin:miter;marker:none;marker-start:none;marker-mid:none;marker-end:none;stroke-miterlimit:10;stroke-dasharray:none;stroke-dashoffset:0;stroke-opacity:1;visibility:visible;display:block;overflow:visible"
       id="path3275" />
    <path
       d="M 23.880515,5.8461885 C 16.499684,5.8461885 10.498263,8.4401802 10.498262,11.631182 C 10.498262,11.860162 10.498262,33.358699 10.498262,33.59717 C 10.498262,36.788173 16.499683,39.382163 23.880515,39.382163 C 31.261345,39.382163 37.501736,36.788172 37.501734,33.59717 C 37.501734,33.408293 37.501734,11.820062 37.501734,11.631182 C 37.501734,8.4401792 31.261344,5.8461885 23.880515,5.8461885 z "
       style="opacity:0.5443038;color:#000000;fill:none;fill-opacity:1;fill-rule:nonzero;stroke:url(#linearGradient4182);stroke-width:1.00000012;stroke-linecap:butt;stroke-linejoin:miter;marker:none;marker-start:none;marker-mid:none;marker-end:none;stroke-miterlimit:10;stroke-dasharray:none;stroke-dashoffset:0;stroke-opacity:1;visibility:visible;display:block;overflow:visible"
       id="path4174" />
    <path
       d="M 36.857142 14.071428 A 12.857142 5.5 0 1 1  11.142858,14.071428 A 12.857142 5.5 0 1 1  36.857142 14.071428 z"
       transform="matrix(0.972641,0,0,0.865862,0.559014,3.141851)"
       style="opacity:1;color:#000000;fill:url(#linearGradient3266);fill-opacity:1;fill-rule:nonzero;stroke:url(#linearGradient3821);stroke-width:1.08968079;stroke-linecap:butt;stroke-linejoin:miter;marker:none;marker-start:none;marker-mid:none;marker-end:none;stroke-miterlimit:10;stroke-dasharray:none;stroke-dashoffset:0;stroke-opacity:1;visibility:visible;display:block;overflow:visible"
       id="path3277" />
    <path
       d="M 35.873719,9.5635372 C 34.752677,8.5784272 33.80477,8.2784992 32.810672,7.7957703 L 33.116976,26.483594 L 35.873719,29.716081 L 35.873719,9.5635372 z "
       style="opacity:1;color:#000000;fill:url(#linearGradient3253);fill-opacity:1;fill-rule:nonzero;stroke:none;stroke-width:0.99999946;stroke-linecap:butt;stroke-linejoin:miter;marker:none;marker-start:none;marker-mid:none;marker-end:none;stroke-miterlimit:10;stroke-dasharray:none;stroke-dashoffset:0;stroke-opacity:1;visibility:visible;display:block;overflow:visible"
       id="path3245" />
    <path
       d="M 36.857142 14.071428 A 12.857142 5.5 0 1 1  11.142858,14.071428 A 12.857142 5.5 0 1 1  36.857142 14.071428 z"
       transform="matrix(1.048446,0,0,0.964345,-1.276948,-2.47689)"
       style="opacity:0.467033;color:#000000;fill:#f0f0f0;fill-opacity:1;fill-rule:nonzero;stroke:url(#linearGradient4230);stroke-width:0.99451303;stroke-linecap:butt;stroke-linejoin:miter;marker:none;marker-start:none;marker-mid:none;marker-end:none;stroke-miterlimit:10;stroke-dasharray:none;stroke-dashoffset:0;stroke-opacity:1;visibility:visible;display:block;overflow:visible"
       id="path3364" />
    <path
       d="M 41 40 A 17.142857 8.5714283 0 1 1  6.7142868,40 A 17.142857 8.5714283 0 1 1  41 40 z"
       transform="matrix(0.367338,0,0,0.36343,14.88941,-6.773792)"
       style="opacity:0.30769234;color:#000000;fill:url(#radialGradient6946);fill-opacity:1;fill-rule:nonzero;stroke:none;stroke-width:1;stroke-linecap:butt;stroke-linejoin:miter;marker:none;marker-start:none;marker-mid:none;marker-end:none;stroke-miterlimit:10;stroke-dasharray:none;stroke-dashoffset:0;stroke-opacity:1;visibility:visible;display:block;overflow:visible"
       id="path6944" />
    <path
       d="M 23.976301,3.5635242 C 21.951969,3.5635242 19.295213,4.2776772 19.295213,5.1561932 C 19.295213,5.2192332 19.295213,7.7201982 19.295213,7.7858522 C 19.295213,8.6643682 21.951969,9.3785212 23.976301,9.3785212 C 26.000634,9.3785212 28.434147,8.6643682 28.434146,7.7858522 C 28.434146,7.7338522 28.434146,5.2081932 28.434146,5.1561932 C 28.434146,4.2776762 26.000634,3.5635242 23.976301,3.5635242 z "
       style="opacity:1;color:#000000;fill:#9d9e9b;fill-opacity:1;fill-rule:nonzero;stroke:#7d7f7a;stroke-width:0.99999994;stroke-linecap:butt;stroke-linejoin:miter;marker:none;marker-start:none;marker-mid:none;marker-end:none;stroke-miterlimit:10;stroke-dasharray:none;stroke-dashoffset:0;stroke-opacity:1;visibility:visible;display:block;overflow:visible"
       id="path3362" />
    <path
       d="M 13.561625,15.807093 L 13.922608,32.592808 L 18.543198,33.878522 L 18.398805,17.164236 C 18.398805,17.164236 20.3585,17.075848 23.751747,16.861562 C 17.184499,16.811579 12.894801,15.283392 10.529362,13.021379 C 11.961499,15.113555 13.561625,15.807093 13.561625,15.807093 z "
       style="opacity:0.58241763;color:#000000;fill:url(#linearGradient6930);fill-opacity:1;fill-rule:nonzero;stroke:none;stroke-width:1;stroke-linecap:butt;stroke-linejoin:miter;marker:none;marker-start:none;marker-mid:none;marker-end:none;stroke-miterlimit:4;stroke-dasharray:none;stroke-dashoffset:0;stroke-opacity:1;visibility:visible;display:block;overflow:visible"
       id="path6922" />
    <path
       d="M 36.857142 14.071428 A 12.857142 5.5 0 1 1  11.142858,14.071428 A 12.857142 5.5 0 1 1  36.857142 14.071428 z"
       transform="matrix(0.274904,0,0,0.192106,17.2849,2.731899)"
       style="opacity:1;color:#000000;fill:#d3d7cf;fill-opacity:1;fill-rule:nonzero;stroke:url(#linearGradient3255);stroke-width:4.35150146;stroke-linecap:butt;stroke-linejoin:miter;marker:none;marker-start:none;marker-mid:none;marker-end:none;stroke-miterlimit:10;stroke-dasharray:none;stroke-dashoffset:0;stroke-opacity:1;visibility:visible;display:block;overflow:visible"
       id="path6940" />
    <g
       transform="translate(-53.99282,-31.64138)"
       id="g4438" />
  </g>
  <g
     id="layer2" />
</svg>
