<?xml version="1.0" encoding="UTF-8" standalone="no"?>
<!-- Created with Inkscape (http://www.inkscape.org/) -->
<svg
   xmlns:svg="http://www.w3.org/2000/svg"
   xmlns="http://www.w3.org/2000/svg"
   xmlns:xlink="http://www.w3.org/1999/xlink"
   version="1.0"
   width="48"
   height="48"
   id="svg11300">
  <defs
     id="defs3">
    <linearGradient
       id="linearGradient2891">
      <stop
         style="stop-color:#000000;stop-opacity:1"
         offset="0"
         id="stop2893" />
      <stop
         style="stop-color:#000000;stop-opacity:0"
         offset="1"
         id="stop2895" />
    </linearGradient>
    <linearGradient
       id="linearGradient2986">
      <stop
         style="stop-color:#a40000;stop-opacity:1"
         offset="0"
         id="stop2988" />
      <stop
         style="stop-color:#690000;stop-opacity:1"
         offset="1"
         id="stop2990" />
    </linearGradient>
    <linearGradient
       id="linearGradient2788">
      <stop
         style="stop-color:#f67f7f;stop-opacity:1"
         offset="0"
         id="stop2790" />
      <stop
         style="stop-color:#ef2929;stop-opacity:1"
         offset="1"
         id="stop2792" />
    </linearGradient>
    <linearGradient
       id="linearGradient2921">
      <stop
         style="stop-color:#ffffff;stop-opacity:1"
         offset="0"
         id="stop2923" />
      <stop
         style="stop-color:#ffffff;stop-opacity:0"
         offset="1"
         id="stop2925" />
    </linearGradient>
    <linearGradient
       id="linearGradient2862">
      <stop
         style="stop-color:#ffffff;stop-opacity:1"
         offset="0"
         id="stop2864" />
      <stop
         style="stop-color:#ffffff;stop-opacity:0"
         offset="1"
         id="stop2866" />
    </linearGradient>
    <linearGradient
       id="linearGradient2854">
      <stop
         style="stop-color:#ffffff;stop-opacity:1"
         offset="0"
         id="stop2856" />
      <stop
         style="stop-color:#ffffff;stop-opacity:0"
         offset="1"
         id="stop2858" />
    </linearGradient>
    <linearGradient
       id="linearGradient5170">
      <stop
         style="stop-color:#000000;stop-opacity:1"
         offset="0"
         id="stop5172" />
      <stop
         style="stop-color:#000000;stop-opacity:0"
         offset="1"
         id="stop5174" />
    </linearGradient>
    <linearGradient
       id="linearGradient5160">
      <stop
         style="stop-color:#ffffff;stop-opacity:1"
         offset="0"
         id="stop5162" />
      <stop
         style="stop-color:#d3d7cf;stop-opacity:1"
         offset="1"
         id="stop5164" />
    </linearGradient>
    <linearGradient
       id="linearGradient5152">
      <stop
         style="stop-color:#ffffff;stop-opacity:1"
         offset="0"
         id="stop5154" />
      <stop
         style="stop-color:#ffffff;stop-opacity:0"
         offset="1"
         id="stop5156" />
    </linearGradient>
    <linearGradient
       x1="23.28125"
       y1="21.40625"
       x2="21.78125"
       y2="55.90625"
       id="linearGradient5158"
       xlink:href="#linearGradient5152"
       gradientUnits="userSpaceOnUse" />
    <radialGradient
       cx="25.90625"
       cy="18.03125"
       r="19.005075"
       fx="25.90625"
       fy="18.03125"
       id="radialGradient5166"
       xlink:href="#linearGradient5160"
       gradientUnits="userSpaceOnUse"
       gradientTransform="matrix(0.73703,0,0,0.73703,6.812572,4.741682)" />
    <radialGradient
       cx="25.3125"
       cy="40.75"
       r="18.0625"
       fx="25.3125"
       fy="40.75"
       id="radialGradient5176"
       xlink:href="#linearGradient5170"
       gradientUnits="userSpaceOnUse"
       gradientTransform="matrix(1,0,0,0.352941,0,26.36765)" />
    <linearGradient
       id="linearGradient2635">
      <stop
         style="stop-color:#f9fff5;stop-opacity:1"
         offset="0"
         id="stop2637" />
      <stop
         style="stop-color:#f9fff5;stop-opacity:0"
         offset="1"
         id="stop2639" />
    </linearGradient>
    <linearGradient
       id="linearGradient2752">
      <stop
         style="stop-color:#9d9d9d;stop-opacity:1"
         offset="0"
         id="stop2754" />
      <stop
         style="stop-color:#b9b9b9;stop-opacity:1"
         offset="1"
         id="stop2756" />
    </linearGradient>
    <linearGradient
       id="linearGradient2245">
      <stop
         style="stop-color:#dde1d9;stop-opacity:1"
         offset="0"
         id="stop2247" />
      <stop
         style="stop-color:#cacdc6;stop-opacity:1"
         offset="1"
         id="stop2249" />
    </linearGradient>
    <linearGradient
       x1="13.62871"
       y1="101.2846"
       x2="8.6485014"
       y2="74.098007"
       id="linearGradient2531"
       xlink:href="#linearGradient2635"
       gradientUnits="userSpaceOnUse"
       gradientTransform="matrix(2.143634,0,0,0.480712,67.28739,-2.403674)" />
    <linearGradient
       x1="8.1134243"
       y1="88.509071"
       x2="8.1134233"
       y2="100.20015"
       id="linearGradient2534"
       xlink:href="#linearGradient2752"
       gradientUnits="userSpaceOnUse"
       gradientTransform="matrix(2.309851,0,0,0.432928,66.28739,-0.977874)" />
    <linearGradient
       x1="8.1134243"
       y1="88.509071"
       x2="8.1134233"
       y2="100.20015"
       id="linearGradient2537"
       xlink:href="#linearGradient2752"
       gradientUnits="userSpaceOnUse"
       gradientTransform="matrix(2.247004,0,0,0.432928,67.23497,-0.977874)" />
    <linearGradient
       x1="8.1134243"
       y1="88.509071"
       x2="8.1134233"
       y2="100.20015"
       id="linearGradient2540"
       xlink:href="#linearGradient2752"
       gradientUnits="userSpaceOnUse"
       gradientTransform="matrix(2.012827,0,0,0.432928,70.77715,-0.977874)" />
    <linearGradient
       x1="18.316999"
       y1="48.643234"
       x2="18.176752"
       y2="52.536461"
       id="linearGradient2546"
       xlink:href="#linearGradient2245"
       gradientUnits="userSpaceOnUse"
       gradientTransform="matrix(1.129863,0,0,0.899111,66.28739,-1.422607)" />
    <radialGradient
       cx="11"
       cy="19"
       r="10.5"
       fx="11"
       fy="19"
       id="radialGradient9846"
       xlink:href="#linearGradient2891"
       gradientUnits="userSpaceOnUse"
       gradientTransform="matrix(1,0,0,0.238095,0,14.47619)" />
    <linearGradient
       x1="27.762564"
       y1="71.519295"
       x2="24"
       y2="21.605078"
       id="linearGradient9848"
       xlink:href="#linearGradient2788"
       gradientUnits="userSpaceOnUse"
       gradientTransform="translate(28.85623,-27.05814)" />
    <linearGradient
       x1="41.185291"
       y1="16.25"
       x2="43.331738"
       y2="37.5"
       id="linearGradient9850"
       xlink:href="#linearGradient2986"
       gradientUnits="userSpaceOnUse"
       gradientTransform="translate(28.85623,-27.05814)" />
    <linearGradient
       x1="23.276466"
       y1="21.037874"
       x2="16.77494"
       y2="5.2555733"
       id="linearGradient9852"
       xlink:href="#linearGradient2921"
       gradientUnits="userSpaceOnUse"
       gradientTransform="translate(28.85623,-27.05814)" />
    <linearGradient
       x1="14"
       y1="34"
       x2="20.636963"
       y2="8.25"
       id="linearGradient9854"
       xlink:href="#linearGradient2862"
       gradientUnits="userSpaceOnUse"
       gradientTransform="translate(28.85623,-27.05814)" />
    <linearGradient
       x1="27.625"
       y1="23.25"
       x2="27.363037"
       y2="0.5"
       id="linearGradient9856"
       xlink:href="#linearGradient2854"
       gradientUnits="userSpaceOnUse"
       gradientTransform="translate(28.85623,-27.05814)" />
  </defs>
  <g
     id="layer1">
    <path
       d="M 43.375 40.75 A 18.0625 6.375 0 1 1  7.25,40.75 A 18.0625 6.375 0 1 1  43.375 40.75 z"
       transform="matrix(1.138408,0,0,1.138408,-3.50346,-7.640138)"
       style="opacity:0.23595503;color:#000000;fill:url(#radialGradient5176);fill-opacity:1;fill-rule:evenodd;stroke:none;stroke-width:1;stroke-linecap:butt;stroke-linejoin:miter;marker:none;marker-start:none;marker-mid:none;marker-end:none;stroke-miterlimit:4;stroke-dasharray:none;stroke-dashoffset:0;stroke-opacity:1;visibility:visible;display:inline;overflow:visible"
       id="path5168" />
    <path
       d="M 23.5625,5.53125 L 23.5625,10.65625 C 20.993604,11.013501 18.646191,12.073753 16.71875,13.625 L 13,9.90625 C 11.095031,8.0012812 9.0459565,10.139706 10.90625,12 L 14.625,15.71875 C 13.067023,17.637172 12.020502,19.969868 11.65625,22.53125 L 6.53125,22.53125 C 3.7855147,22.53125 4.0547984,25.5 6.53125,25.5 L 11.5625,25.5 C 11.755706,28.205867 12.703674,30.683551 14.21875,32.75 L 10.90625,36.0625 C 9.09375,37.875 11.318297,39.837953 13,38.15625 L 16.1875,34.96875 C 18.204948,36.76564 20.755546,37.956654 23.5625,38.34375 L 23.5625,42.53125 C 23.5625,45.184373 26.53125,45.188786 26.53125,42.53125 L 26.53125,38.46875 C 29.46022,38.255502 32.127787,37.117213 34.28125,35.375 L 37.0625,38.15625 C 38.565102,39.835629 40.924017,37.741879 39.15625,36.0625 L 36.375,33.28125 C 38.125006,31.116256 39.228658,28.44297 39.4375,25.5 L 43.53125,25.5 C 45.566103,25.5 45.836136,22.53125 43.53125,22.53125 L 39.34375,22.53125 C 38.952144,19.73621 37.759213,17.197731 35.96875,15.1875 L 39.15625,12 C 40.74724,10.232233 38.65349,8.4036481 37.0625,9.90625 L 33.75,13.21875 C 31.691357,11.709397 29.225223,10.760857 26.53125,10.5625 L 26.53125,5.53125 C 26.53125,3.1431283 23.5625,3.3215413 23.5625,5.53125 z "
       style="opacity:1;color:#000000;fill:url(#radialGradient5166);fill-opacity:1;fill-rule:evenodd;stroke:#888a85;stroke-width:1.01015258;stroke-linecap:butt;stroke-linejoin:miter;marker:none;marker-start:none;marker-mid:none;marker-end:none;stroke-miterlimit:4;stroke-dasharray:none;stroke-dashoffset:0;stroke-opacity:1;visibility:visible;display:inline;overflow:visible"
       id="path4263" />
    <path
       d="M 25.09375,4.6875 C 24.802565,4.6962497 24.4375,4.830562 24.4375,5.53125 L 24.4375,10.65625 C 24.438113,11.093192 24.119395,11.465029 23.6875,11.53125 C 21.282157,11.865756 19.088867,12.85769 17.28125,14.3125 C 16.928459,14.600807 16.414327,14.573748 16.09375,14.25 L 12.375,10.53125 C 11.651494,9.8077446 11.33476,10.005814 11.1875,10.15625 C 11.04024,10.306686 10.835581,10.679331 11.53125,11.375 L 15.25,15.09375 C 15.573748,15.414327 15.600807,15.928459 15.3125,16.28125 C 13.853456,18.077851 12.872809,20.254443 12.53125,22.65625 C 12.465029,23.088145 12.093192,23.406863 11.65625,23.40625 L 6.53125,23.40625 C 6.0040952,23.40625 5.7220217,23.54544 5.59375,23.65625 C 5.4654783,23.76706 5.4636361,23.855992 5.46875,23.96875 C 5.4789779,24.194267 5.6462216,24.625 6.53125,24.625 L 11.5625,24.625 C 12.020654,24.628151 12.400467,24.980835 12.4375,25.4375 C 12.618808,27.976731 13.517676,30.282217 14.9375,32.21875 C 15.198879,32.573641 15.158888,33.066854 14.84375,33.375 L 11.53125,36.6875 C 11.198455,37.020295 11.132722,37.278629 11.125,37.4375 C 11.117278,37.596371 11.159115,37.695871 11.25,37.78125 C 11.431769,37.952008 11.793527,38.112723 12.375,37.53125 L 15.5625,34.34375 C 15.895436,34.010044 16.43165,33.996295 16.78125,34.3125 C 18.667254,35.992316 21.051823,37.105274 23.6875,37.46875 C 24.119395,37.534971 24.438113,37.906808 24.4375,38.34375 L 24.4375,42.53125 C 24.4375,43.528133 24.847358,43.62484 25.0625,43.625 C 25.277642,43.62516 25.65625,43.530887 25.65625,42.53125 L 25.65625,38.46875 C 25.659401,38.010596 26.012085,37.630783 26.46875,37.59375 C 29.20929,37.394221 31.696414,36.323628 33.71875,34.6875 C 34.071541,34.399193 34.585673,34.426252 34.90625,34.75 L 37.6875,37.53125 C 37.698175,37.541405 37.708595,37.551825 37.71875,37.5625 C 38.195082,38.094871 38.491333,37.932624 38.71875,37.71875 C 38.832458,37.611813 38.907672,37.489364 38.90625,37.34375 C 38.904828,37.198136 38.866787,37.007822 38.5625,36.71875 C 38.551825,36.708595 38.541405,36.698175 38.53125,36.6875 L 35.75,33.90625 C 35.426252,33.585673 35.399193,33.071541 35.6875,32.71875 C 37.328102,30.689104 38.366546,28.198849 38.5625,25.4375 C 38.599533,24.980835 38.979346,24.628151 39.4375,24.625 L 43.53125,24.625 C 44.118829,24.625 44.267023,24.281581 44.28125,23.96875 C 44.288364,23.812334 44.242164,23.683302 44.15625,23.59375 C 44.070336,23.504198 43.917728,23.40625 43.53125,23.40625 L 39.34375,23.40625 C 38.906808,23.406863 38.534971,23.088145 38.46875,22.65625 C 38.101164,20.032652 36.98685,17.661116 35.3125,15.78125 C 34.996295,15.43165 35.010044,14.895436 35.34375,14.5625 L 38.5,11.40625 C 38.515299,11.389252 38.517035,11.391435 38.53125,11.375 C 39.042145,10.784319 38.864072,10.540391 38.6875,10.375 C 38.506015,10.205007 38.180911,10.066987 37.65625,10.5625 L 34.375,13.84375 C 34.066854,14.158888 33.573641,14.198879 33.21875,13.9375 C 31.289159,12.522765 28.99632,11.623605 26.46875,11.4375 C 26.012085,11.400467 25.659401,11.020654 25.65625,10.5625 L 25.65625,5.53125 C 25.65625,5.1134947 25.532627,4.9419285 25.4375,4.84375 C 25.342373,4.7455715 25.239343,4.6831252 25.09375,4.6875 z "
       style="opacity:0.64606742;color:#000000;fill:none;fill-opacity:1;fill-rule:evenodd;stroke:url(#linearGradient5158);stroke-width:1;stroke-linecap:butt;stroke-linejoin:miter;marker:none;marker-start:none;marker-mid:none;marker-end:none;stroke-miterlimit:4;stroke-dasharray:none;stroke-dashoffset:0;stroke-opacity:1;visibility:visible;display:inline;overflow:visible"
       id="path5150" />
    <g
       transform="translate(66.28739,-2.97788)"
       id="layer2" />
    <g
       transform="matrix(0.6585,0,0,0.673924,-9.261572,27.18542)"
       id="g9838">
      <path
         d="M 21.5 19 A 10.5 2.5 0 1 1  0.5,19 A 10.5 2.5 0 1 1  21.5 19 z"
         transform="matrix(2.095238,0,0,2.6,29.80861,-35.95813)"
         style="opacity:0.3;fill:url(#radialGradient9846);fill-opacity:1;stroke:none;stroke-width:1;stroke-linecap:round;stroke-linejoin:round;stroke-miterlimit:4;stroke-dasharray:none;stroke-dashoffset:0;stroke-opacity:1"
         id="path2894" />
      <path
         d="M 52.856234,-24.558139 C 41.540237,-24.558139 32.356234,-15.374143 32.356234,-4.0581388 C 32.356234,7.2578652 41.540236,16.441861 52.856234,16.441861 C 64.172231,16.441861 73.356234,7.2578652 73.356234,-4.0581388 C 73.356234,-15.374143 64.172231,-24.558139 52.856234,-24.558139 z M 52.856234,-17.558139 C 60.308246,-17.558139 66.356234,-11.51015 66.356234,-4.0581388 C 66.356235,-1.5980268 65.694919,0.7048642 64.543734,2.6918612 L 46.106234,-15.745639 C 48.093231,-16.896824 50.396122,-17.558139 52.856234,-17.558139 z M 41.168734,-10.808139 L 59.606234,7.6293612 C 57.619237,8.7805462 55.316346,9.4418612 52.856234,9.4418612 C 45.404223,9.4418602 39.356234,3.3938722 39.356234,-4.0581388 C 39.356234,-6.5182508 40.017549,-8.8211418 41.168734,-10.808139 z "
         style="opacity:1;fill:url(#linearGradient9848);fill-opacity:1;stroke:url(#linearGradient9850);stroke-width:1;stroke-linecap:square;stroke-linejoin:round;stroke-miterlimit:4;stroke-dasharray:none;stroke-dashoffset:0;stroke-opacity:1"
         id="path1937" />
      <path
         d="M 52.856234,-24.058139 C 41.809466,-24.058139 32.856234,-15.104914 32.856234,-4.0581388 C 32.856234,-3.0981848 32.913016,-2.1694728 33.043734,-1.2456388 C 34.829821,1.4477192 37.42481,2.4424642 40.449984,2.4418612 C 39.424515,0.4964862 38.856234,-1.7098688 38.856234,-4.0581388 C 38.856234,-6.6074248 39.537886,-8.9983668 40.731234,-11.058139 C 40.809172,-11.196544 40.948499,-11.289429 41.106234,-11.308139 C 41.258456,-11.321178 41.408232,-11.263572 41.512484,-11.151889 L 52.106234,-0.5581388 C 54.132399,-1.3812488 56.112152,-2.2392798 58.074984,-3.0893888 L 45.762484,-15.401889 C 45.652895,-15.509969 45.587895,-15.655317 45.606234,-15.808139 C 45.624572,-15.960961 45.724186,-16.104056 45.856234,-16.183139 C 47.916006,-17.376487 50.306948,-18.058139 52.856234,-18.058139 C 59.820666,-18.058139 65.600443,-12.944355 66.668734,-6.2768888 C 69.323504,-6.9120038 71.458813,-6.8341048 72.793734,-5.4643888 C 72.069257,-15.851959 63.428168,-24.058139 52.856234,-24.058139 z "
         style="opacity:0.25;fill:url(#linearGradient9852);fill-opacity:1;stroke:none;stroke-width:1;stroke-linecap:square;stroke-linejoin:round;stroke-miterlimit:4;stroke-dasharray:none;stroke-dashoffset:0;stroke-opacity:1"
         id="path2912" />
      <path
         d="M 52.856246,-23.558138 C 42.092243,-23.558138 33.356236,-14.822137 33.356236,-4.0581278 C 33.356236,6.7058812 42.092242,15.441882 52.856246,15.441882 C 63.620249,15.441882 72.356256,6.7058812 72.356256,-4.0581278 C 72.356256,-14.822137 63.620249,-23.558138 52.856246,-23.558138 z "
         style="opacity:0.7;fill:none;fill-opacity:1;stroke:#ffffff;stroke-width:1.00000048;stroke-linecap:square;stroke-linejoin:round;stroke-miterlimit:4;stroke-dasharray:none;stroke-dashoffset:0;stroke-opacity:1"
         id="path2841" />
      <path
         d="M 41.012484,-11.808139 C 41.332567,-11.862733 41.659157,-11.757758 41.887484,-11.526889 L 60.324984,6.9106112 C 60.554182,7.1311662 60.664156,7.4479862 60.620904,7.7631152 C 60.577651,8.0782432 60.386381,8.3537162 60.106234,8.5043612 C 57.973686,9.7398722 55.494693,10.441861 52.856234,10.441861 C 44.865767,10.44186 38.356234,3.9323282 38.356234,-4.0581388 C 38.356234,-6.6965978 39.058223,-9.1755908 40.293734,-11.308139 C 40.443206,-11.576896 40.708521,-11.761463 41.012484,-11.808139 L 41.012484,-11.808139 z "
         style="opacity:0.7;fill:none;fill-opacity:1;stroke:url(#linearGradient9854);stroke-width:1;stroke-linecap:square;stroke-linejoin:round;stroke-miterlimit:4;stroke-dashoffset:0;stroke-opacity:1"
         id="path2847" />
      <path
         d="M 52.856234,-18.558139 C 60.846702,-18.558139 67.356234,-12.048606 67.356234,-4.0581388 C 67.356235,-1.4196788 66.654245,1.0593132 65.418734,3.1918612 C 65.268089,3.4720082 64.992616,3.6632782 64.677488,3.7065312 C 64.362359,3.7497832 64.045539,3.6398092 63.824984,3.4106112 L 45.387484,-15.026889 C 45.158286,-15.247444 45.048312,-15.564264 45.091564,-15.879393 C 45.134817,-16.194521 45.326087,-16.469994 45.606234,-16.620639 C 47.738782,-17.85615 50.217775,-18.558139 52.856234,-18.558139 z "
         style="opacity:0.7;fill:none;fill-opacity:1;stroke:url(#linearGradient9856);stroke-width:1;stroke-linecap:square;stroke-linejoin:round;stroke-miterlimit:4;stroke-dashoffset:0;stroke-opacity:1"
         id="path2850" />
    </g>
    <g
       transform="matrix(0.832722,0,0,0.832722,-46.86587,7.529882)"
       id="g2570">
      <path
         d="M 75.375323,27.548869 L 106.37773,27.548869 C 107.49698,27.548869 107.35508,28.026051 107.46996,28.626237 L 110.3046,43.436836 C 110.41947,44.037025 110.33162,44.514204 109.21238,44.514204 L 72.540677,44.514204 C 71.421428,44.514204 71.333578,44.037025 71.44845,43.436836 L 74.283095,28.626237 C 74.397967,28.026049 74.256074,27.548869 75.375323,27.548869 z "
         style="color:#000000;fill:url(#linearGradient2546);fill-opacity:1;fill-rule:evenodd;stroke:#888a85;stroke-width:1.00000012;stroke-linecap:butt;stroke-linejoin:miter;marker:none;marker-start:none;marker-mid:none;marker-end:none;stroke-miterlimit:4;stroke-dasharray:none;stroke-dashoffset:0;stroke-opacity:1;visibility:visible;display:inline;overflow:visible"
         id="path2409" />
      <path
         d="M 76.007059,31.02212 L 74.28739,39.893604 L 79.618364,39.893604 L 80.134265,36.375602 L 94.579483,36.375602 L 95.114207,39.9666 L 101.11423,39.9666 L 99.48054,31.02212 L 76.007059,31.02212 z "
         style="fill:#7a7d77;fill-opacity:1;fill-rule:evenodd;stroke:none;stroke-width:0.25pt;stroke-linecap:butt;stroke-linejoin:miter;stroke-opacity:1"
         id="path2611" />
      <path
         d="M 79.989411,36.987429 L 79.547469,39.893605 L 94.308323,39.893605 L 93.866381,36.834474 L 79.989411,36.987429 z "
         style="fill:#777874;fill-opacity:1;fill-rule:evenodd;stroke:none;stroke-width:0.25pt;stroke-linecap:butt;stroke-linejoin:miter;stroke-opacity:1"
         id="path2613" />
      <path
         d="M 105.82396,31.022122 L 107.28739,39.740648 L 102.512,39.58769 L 101.20261,31.175078 L 105.82396,31.022122 z "
         style="color:#000000;fill:#777a75;fill-opacity:1;fill-rule:evenodd;stroke:none;stroke-width:0.25pt;stroke-linecap:butt;stroke-linejoin:miter;marker:none;marker-start:none;marker-mid:none;marker-end:none;stroke-miterlimit:4;stroke-dashoffset:0;stroke-opacity:1;visibility:visible;display:inline;overflow:visible"
         id="path2619" />
      <path
         d="M 105.82396,30.104386 L 107.28739,38.822912 L 102.512,38.669954 L 101.20261,30.257342 L 105.82396,30.104386 z "
         style="color:#000000;fill:url(#linearGradient2540);fill-opacity:1;fill-rule:evenodd;stroke:none;stroke-width:0.25pt;stroke-linecap:butt;stroke-linejoin:miter;marker:none;marker-start:none;marker-mid:none;marker-end:none;stroke-miterlimit:4;stroke-dasharray:none;stroke-dashoffset:0;stroke-opacity:1;visibility:visible;display:inline;overflow:visible"
         id="path2615" />
      <path
         d="M 76.007059,29.951428 L 74.28739,38.822912 L 79.618364,38.822912 L 80.134265,35.30491 L 94.579483,35.30491 L 95.114207,38.895908 L 101.11423,38.895908 L 99.48054,29.951428 L 76.007059,29.951428 z "
         style="fill:url(#linearGradient2537);fill-opacity:1;fill-rule:evenodd;stroke:none;stroke-width:0.25pt;stroke-linecap:butt;stroke-linejoin:miter;stroke-opacity:1"
         id="path2617" />
      <path
         d="M 79.989411,36.069694 L 79.547469,38.975869 L 94.308323,38.975869 L 93.866381,35.916738 L 79.989411,36.069694 z "
         style="color:#000000;fill:url(#linearGradient2534);fill-opacity:1;fill-rule:evenodd;stroke:none;stroke-width:0.25pt;stroke-linecap:butt;stroke-linejoin:miter;marker:none;marker-start:none;marker-mid:none;marker-end:none;stroke-miterlimit:4;stroke-dasharray:none;stroke-dashoffset:0;stroke-opacity:1;visibility:visible;display:inline;overflow:visible"
         id="path2621" />
      <path
         d="M 75.040958,28.864876 L 106.86677,28.864876 L 109.50395,43.295813 L 72.242882,43.295813 L 75.040958,28.864876 z "
         style="color:#000000;fill:none;fill-opacity:1;fill-rule:evenodd;stroke:url(#linearGradient2531);stroke-width:0.5;stroke-linecap:butt;stroke-linejoin:round;marker:none;marker-start:none;marker-mid:none;marker-end:none;stroke-miterlimit:4;stroke-dashoffset:0;stroke-opacity:1;visibility:visible;display:inline;overflow:visible"
         id="path2631" />
    </g>
  </g>
</svg>
