<?xml version="1.0" encoding="UTF-8" standalone="no"?>
<!-- Created with Inkscape (http://www.inkscape.org/) -->
<svg
   xmlns:svg="http://www.w3.org/2000/svg"
   xmlns="http://www.w3.org/2000/svg"
   xmlns:xlink="http://www.w3.org/1999/xlink"
   version="1.0"
   width="48"
   height="48"
   id="svg1306">
  <defs
     id="defs1308">
    <linearGradient
       x1="40.546875"
       y1="1.125"
       x2="47.375"
       y2="37.75"
       id="linearGradient13684"
       xlink:href="#linearGradient13678"
       gradientUnits="userSpaceOnUse" />
    <linearGradient
       id="linearGradient13678">
      <stop
         style="stop-color:#ffffff;stop-opacity:1"
         offset="0"
         id="stop13680" />
      <stop
         style="stop-color:#ffffff;stop-opacity:0"
         offset="1"
         id="stop13682" />
    </linearGradient>
    <linearGradient
       x1="40.546875"
       y1="1.125"
       x2="47.375"
       y2="37.75"
       id="linearGradient13702"
       xlink:href="#linearGradient13678"
       gradientUnits="userSpaceOnUse" />
    <linearGradient
       id="linearGradient4184">
      <stop
         style="stop-color:#838383;stop-opacity:1"
         offset="0"
         id="stop4186" />
      <stop
         style="stop-color:#bbbbbb;stop-opacity:0"
         offset="1"
         id="stop4188" />
    </linearGradient>
    <linearGradient
       x1="7.0625"
       y1="35.28125"
       x2="24.6875"
       y2="35.28125"
       id="linearGradient4209"
       xlink:href="#linearGradient4184"
       gradientUnits="userSpaceOnUse"
       gradientTransform="matrix(0.673759,0,0,1.084542,6.241576,-3.24763)" />
    <linearGradient
       id="linearGradient4236">
      <stop
         style="stop-color:#eeeeee;stop-opacity:1"
         offset="0"
         id="stop4238" />
      <stop
         style="stop-color:#eeeeee;stop-opacity:0"
         offset="1"
         id="stop4240" />
    </linearGradient>
    <linearGradient
       x1="12.277412"
       y1="37.205811"
       x2="12.221823"
       y2="33.758667"
       id="linearGradient4242"
       xlink:href="#linearGradient4236"
       gradientUnits="userSpaceOnUse"
       gradientTransform="matrix(1,0,0,1.084542,3.204508,-1.842482)" />
    <linearGradient
       id="linearGradient2212">
      <stop
         style="stop-color:#2e3436;stop-opacity:1"
         offset="0"
         id="stop2214" />
      <stop
         style="stop-color:#2e3436;stop-opacity:0"
         offset="1"
         id="stop2216" />
    </linearGradient>
    <linearGradient
       id="linearGradient2187">
      <stop
         style="stop-color:#babdb6;stop-opacity:1"
         offset="0"
         id="stop2189" />
      <stop
         style="stop-color:#eeeeec;stop-opacity:1"
         offset="1"
         id="stop2191" />
    </linearGradient>
    <linearGradient
       id="linearGradient2179">
      <stop
         style="stop-color:#ffffff;stop-opacity:1"
         offset="0"
         id="stop2181" />
      <stop
         style="stop-color:#eeeeec;stop-opacity:1"
         offset="1"
         id="stop2183" />
    </linearGradient>
    <radialGradient
       cx="23.098124"
       cy="34.511105"
       r="20.657619"
       fx="23.098124"
       fy="34.511105"
       id="radialGradient4460"
       xlink:href="#linearGradient2212"
       gradientUnits="userSpaceOnUse"
       gradientTransform="matrix(0.987016,-3.036258e-7,1.235702e-7,0.154497,0.46639,29.0816)" />
    <linearGradient
       x1="32.57143"
       y1="32.428574"
       x2="19.499998"
       y2="22.357141"
       id="linearGradient4462"
       xlink:href="#linearGradient2187"
       gradientUnits="userSpaceOnUse"
       gradientTransform="matrix(1,0,0,0.885726,1.000008,10.98679)" />
    <linearGradient
       x1="22.5"
       y1="18"
       x2="25.642859"
       y2="19.285715"
       id="linearGradient4466"
       xlink:href="#linearGradient2179"
       gradientUnits="userSpaceOnUse"
       gradientTransform="translate(1.000008,9.940941)" />
    <linearGradient
       id="linearGradient2479">
      <stop
         style="stop-color:#ffe69b;stop-opacity:1"
         offset="0"
         id="stop2481" />
      <stop
         style="stop-color:#ffffff;stop-opacity:1"
         offset="1"
         id="stop2483" />
    </linearGradient>
    <linearGradient
       id="linearGradient2536">
      <stop
         style="stop-color:#a40000;stop-opacity:1"
         offset="0"
         id="stop2538" />
      <stop
         style="stop-color:#ff1717;stop-opacity:1"
         offset="1"
         id="stop2540" />
    </linearGradient>
    <linearGradient
       id="linearGradient3957">
      <stop
         style="stop-color:#fffeff;stop-opacity:0.33333334"
         offset="0"
         id="stop3959" />
      <stop
         style="stop-color:#fffeff;stop-opacity:0.21568628"
         offset="1"
         id="stop3961" />
    </linearGradient>
    <linearGradient
       id="linearGradient5152">
      <stop
         style="stop-color:#ffffff;stop-opacity:1"
         offset="0"
         id="stop5154" />
      <stop
         style="stop-color:#ffffff;stop-opacity:0"
         offset="1"
         id="stop5156" />
    </linearGradient>
    <linearGradient
       x1="23.28125"
       y1="21.40625"
       x2="21.78125"
       y2="55.90625"
       id="linearGradient2658"
       xlink:href="#linearGradient5152"
       gradientUnits="userSpaceOnUse" />
    <linearGradient
       x1="36.917976"
       y1="66.288063"
       x2="19.071495"
       y2="5.5410109"
       id="linearGradient2703"
       xlink:href="#linearGradient2536"
       gradientUnits="userSpaceOnUse" />
    <linearGradient
       x1="43.93581"
       y1="53.835983"
       x2="20.064686"
       y2="-8.5626707"
       id="linearGradient2705"
       xlink:href="#linearGradient2479"
       gradientUnits="userSpaceOnUse" />
    <linearGradient
       x1="21.993773"
       y1="33.955299"
       x2="20.917078"
       y2="15.814602"
       id="linearGradient2707"
       xlink:href="#linearGradient3957"
       gradientUnits="userSpaceOnUse" />
  </defs>
  <g
     id="layer1">
    <path
       d="M 44.951788 34.413448 A 20.657619 3.5860415 0 1 1  3.636549,34.413448 A 20.657619 3.5860415 0 1 1  44.951788 34.413448 z"
       transform="matrix(1.064982,0,0,2.667528,-0.872845,-54.3647)"
       style="opacity:0.74731182;fill:url(#radialGradient4460);fill-opacity:1;stroke:none;stroke-width:1;stroke-linecap:round;stroke-linejoin:round;stroke-miterlimit:4;stroke-dasharray:none;stroke-dashoffset:0;stroke-opacity:1"
       id="path2210" />
    <path
       d="M 11.595947,16.530688 L 38.476667,16.553056 L 42.492024,29.64558 L 42.517278,38.801506 C 42.517278,40.796839 41.565961,41.523596 39.456617,41.523596 L 10.432307,41.557148 C 8.2441489,41.557148 7.4776109,40.797782 7.4776109,38.689134 L 7.5028649,29.7015 L 11.595947,16.530688 z "
       style="fill:url(#linearGradient4462);fill-opacity:1;fill-rule:evenodd;stroke:#686a65;stroke-width:1.00000012px;stroke-linecap:butt;stroke-linejoin:round;stroke-opacity:1"
       id="path1417" />
    <path
       d="M 8.0000079,29.940941 L 41.849754,30.040687 L 37.416007,17.897602 L 12.44195,17.98599 L 8.0000079,29.940941 z "
       style="fill:url(#linearGradient4466);fill-opacity:1;fill-rule:evenodd;stroke:none;stroke-width:1px;stroke-linecap:butt;stroke-linejoin:miter;stroke-opacity:1"
       id="path2159" />
    <path
       d="M 12.189025,17.505341 L 37.778261,17.461116 L 41.51435,30.089316 L 41.501723,38.761393 C 41.501723,39.868144 41.089891,40.551146 39.608779,40.551146 L 10.336991,40.562202 C 9.105851,40.562202 8.5348099,40.200944 8.5348099,38.841913 L 8.4969289,30.064124 L 12.189025,17.505341 z "
       style="opacity:0.61538463;fill:none;fill-opacity:0.75;fill-rule:evenodd;stroke:#ffffff;stroke-width:1.00000048px;stroke-linecap:butt;stroke-linejoin:miter;stroke-opacity:1"
       id="path2157" />
    <rect
       width="11.875"
       height="6.0327663"
       x="11"
       y="32"
       style="opacity:1;color:#000000;fill:url(#linearGradient4209);fill-opacity:1;fill-rule:evenodd;stroke:none;stroke-width:2.40899992;stroke-linecap:round;stroke-linejoin:round;marker:none;marker-start:none;marker-mid:none;marker-end:none;stroke-miterlimit:4;stroke-dasharray:none;stroke-dashoffset:0;stroke-opacity:1;visibility:visible;display:inline;overflow:visible"
       id="rect4174" />
    <path
       d="M 11.062502,38 C 11.062502,38 11.062502,33.649375 11.062502,33.649375 C 12.89803,37.09738 19.358993,38 24,38 C 24,38 11.062502,38 11.062502,38 z "
       style="opacity:0.81142853;fill:url(#linearGradient4242);fill-opacity:1;fill-rule:evenodd;stroke:none;stroke-width:1px;stroke-linecap:butt;stroke-linejoin:miter;stroke-opacity:1"
       id="path4194" />
    <path
       d="M 29.5,32.559777 L 29.5,37.580712"
       style="fill:none;fill-opacity:0.75;fill-rule:evenodd;stroke:#ffffff;stroke-width:1.00000048px;stroke-linecap:square;stroke-linejoin:miter;stroke-opacity:0.42372885"
       id="path4284" />
    <path
       d="M 31.5,32.559777 L 31.5,37.580712"
       style="fill:none;fill-opacity:0.75;fill-rule:evenodd;stroke:#ffffff;stroke-width:1.00000048px;stroke-linecap:square;stroke-linejoin:miter;stroke-opacity:0.42372885"
       id="path4286" />
    <path
       d="M 33.5,32.559777 L 33.5,37.580712"
       style="fill:none;fill-opacity:0.75;fill-rule:evenodd;stroke:#ffffff;stroke-width:1.00000048px;stroke-linecap:square;stroke-linejoin:miter;stroke-opacity:0.42372885"
       id="path4288" />
    <path
       d="M 35.5,32.559777 L 35.5,37.580712"
       style="fill:none;fill-opacity:0.75;fill-rule:evenodd;stroke:#ffffff;stroke-width:1.00000048px;stroke-linecap:square;stroke-linejoin:miter;stroke-opacity:0.42372885"
       id="path4290" />
    <path
       d="M 37.5,32.559777 L 37.5,37.580712"
       style="fill:none;fill-opacity:0.75;fill-rule:evenodd;stroke:#ffffff;stroke-width:1.00000048px;stroke-linecap:square;stroke-linejoin:miter;stroke-opacity:0.42372885"
       id="path4292" />
    <path
       d="M 28.5,32.549899 L 28.5,37.570834"
       style="opacity:0.09714284;fill:none;fill-opacity:0.75;fill-rule:evenodd;stroke:#000000;stroke-width:1.00000048px;stroke-linecap:square;stroke-linejoin:miter;stroke-opacity:1"
       id="path4294" />
    <path
       d="M 30.5,32.609676 L 30.5,37.630611"
       style="opacity:0.09714284;fill:none;fill-opacity:0.75;fill-rule:evenodd;stroke:#000000;stroke-width:1.00000048px;stroke-linecap:square;stroke-linejoin:miter;stroke-opacity:1"
       id="path4296" />
    <path
       d="M 32.5,32.609676 L 32.5,37.630611"
       style="opacity:0.09714284;fill:none;fill-opacity:0.75;fill-rule:evenodd;stroke:#000000;stroke-width:1.00000048px;stroke-linecap:square;stroke-linejoin:miter;stroke-opacity:1"
       id="path4298" />
    <path
       d="M 34.5,32.609676 L 34.5,37.630611"
       style="opacity:0.09714284;fill:none;fill-opacity:0.75;fill-rule:evenodd;stroke:#000000;stroke-width:1.00000048px;stroke-linecap:square;stroke-linejoin:miter;stroke-opacity:1"
       id="path4300" />
    <path
       d="M 36.5,32.609676 L 36.5,37.630611"
       style="opacity:0.09714284;fill:none;fill-opacity:0.75;fill-rule:evenodd;stroke:#000000;stroke-width:1.00000048px;stroke-linecap:square;stroke-linejoin:miter;stroke-opacity:1"
       id="path4302" />
    <path
       d="M 10,32.001126 L 10,38 L 22.5625,38 L 10.34375,37.627189 L 10,32.001126 z "
       style="opacity:0.18681317;fill:#ffffff;fill-opacity:1;fill-rule:evenodd;stroke:none;stroke-width:1px;stroke-linecap:butt;stroke-linejoin:miter;stroke-opacity:1"
       id="path4572" />
    <g
       transform="translate(-2.336444,2.090765)"
       id="g13689">
      <path
         d="M 46.925968,3.8880343 L 39.95384,13.020388 L 47.047248,13.020388 L 47.047248,16.020148 L 34.475371,16.020148 L 34.475371,15.43334 L 43.399686,3.9716929 L 35.015933,3.9716929 L 35.078433,0.97041721 L 46.988468,0.97041721 L 46.925968,3.8880343 z "
         style="font-size:10px;font-style:normal;font-variant:normal;font-weight:normal;font-stretch:normal;line-height:100%;writing-mode:lr-tb;text-anchor:start;fill:#3465a4;fill-opacity:1;stroke:#204a87;stroke-width:2;stroke-linecap:butt;stroke-linejoin:miter;stroke-miterlimit:4;stroke-dasharray:none;stroke-opacity:1;font-family:Segoe"
         id="path13687" />
      <path
         d="M 46.925968,3.8880343 L 39.95384,13.020388 L 47.047248,13.020388 L 47.047248,16.020148 L 34.475371,16.020148 L 34.475371,15.43334 L 43.399686,3.9716929 L 35.015933,3.9716929 L 35.078433,0.97041721 L 46.988468,0.97041721"
         style="font-size:10px;font-style:normal;font-variant:normal;font-weight:normal;font-stretch:normal;line-height:100%;writing-mode:lr-tb;text-anchor:start;fill:#3465a4;fill-opacity:1;stroke:none;stroke-width:1px;stroke-linecap:butt;stroke-linejoin:miter;stroke-opacity:1;font-family:Segoe"
         id="text12733" />
      <path
         d="M 35.46875,1.34375 L 35.40625,3.59375 L 43.40625,3.59375 C 43.542681,3.6020985 43.663766,3.6840106 43.722279,3.8075389 C 43.780792,3.9310671 43.767467,4.0766473 43.6875,4.1875 L 34.84375,15.53125 L 34.84375,15.65625 L 46.6875,15.65625 L 46.6875,13.40625 L 39.96875,13.40625 C 39.826696,13.409243 39.695149,13.331702 39.628973,13.205968 C 39.562797,13.080234 39.573358,12.9279 39.65625,12.8125 L 46.5625,3.75 L 46.625,1.34375 L 35.46875,1.34375 z "
         style="font-size:10px;font-style:normal;font-variant:normal;font-weight:normal;font-stretch:normal;line-height:100%;writing-mode:lr-tb;text-anchor:start;opacity:0.21348314;fill:#3465a4;fill-opacity:1;stroke:url(#linearGradient13684);stroke-width:1px;stroke-linecap:butt;stroke-linejoin:miter;stroke-opacity:1;font-family:Segoe"
         id="path13676" />
    </g>
    <g
       transform="matrix(0.567849,0,0,0.567849,1.423195,14.55986)"
       id="g13694">
      <path
         d="M 46.925968,3.8880343 L 39.95384,13.020388 L 47.047248,13.020388 L 47.047248,16.790599 L 34.475371,16.790599 L 34.475371,16.203791 L 43.399686,3.9716929 L 35.015933,3.9716929 L 35.078433,0.97041721 L 46.988468,0.97041721 L 46.925968,3.8880343 z "
         style="font-size:10px;font-style:normal;font-variant:normal;font-weight:normal;font-stretch:normal;line-height:100%;writing-mode:lr-tb;text-anchor:start;fill:#3465a4;fill-opacity:1;stroke:#204a87;stroke-width:3.52206182;stroke-linecap:butt;stroke-linejoin:miter;stroke-miterlimit:4;stroke-dasharray:none;stroke-opacity:1;font-family:Segoe"
         id="path13696" />
      <path
         d="M 46.925968,3.8880343 L 39.95384,13.020388 L 47.047248,13.020388 L 47.047248,16.020148 L 34.475371,16.020148 L 34.475371,15.43334 L 43.399686,3.9716929 L 35.015933,3.9716929 L 35.078433,0.97041721 L 46.988468,0.97041721"
         style="font-size:10px;font-style:normal;font-variant:normal;font-weight:normal;font-stretch:normal;line-height:100%;writing-mode:lr-tb;text-anchor:start;fill:#3465a4;fill-opacity:1;stroke:none;stroke-width:1px;stroke-linecap:butt;stroke-linejoin:miter;stroke-opacity:1;font-family:Segoe"
         id="path13698" />
      <path
         d="M 35.46875,1.34375 L 35.40625,3.59375 L 43.40625,3.59375 C 43.542681,3.6020985 43.663766,3.6840106 43.722279,3.8075389 C 43.780792,3.9310671 43.767467,4.0766473 43.6875,4.1875 L 34.84375,15.53125 L 34.84375,15.65625 L 46.6875,15.65625 L 46.6875,13.40625 L 39.96875,13.40625 C 39.826696,13.409243 39.695149,13.331702 39.628973,13.205968 C 39.562797,13.080234 39.573358,12.9279 39.65625,12.8125 L 46.5625,3.75 L 46.625,1.34375 L 35.46875,1.34375 z "
         style="font-size:10px;font-style:normal;font-variant:normal;font-weight:normal;font-stretch:normal;line-height:100%;writing-mode:lr-tb;text-anchor:start;opacity:0.21348314;fill:#3465a4;fill-opacity:1;stroke:url(#linearGradient13702);stroke-width:1.76103091px;stroke-linecap:butt;stroke-linejoin:miter;stroke-opacity:1;font-family:Segoe"
         id="path13700" />
    </g>
    <path
       d="M -58.90625,11.03125 C -59.19669,11.039977 -59.53125,11.157646 -59.53125,11.875 L -59.53125,17 C -59.530637,17.436942 -59.849355,17.808779 -60.28125,17.875 C -62.686591,18.209506 -64.879883,19.20144 -66.6875,20.65625 C -67.040291,20.944557 -67.554423,20.917498 -67.875,20.59375 L -71.59375,16.875 C -72.317254,16.151495 -72.633989,16.349563 -72.78125,16.5 C -72.928511,16.650437 -73.133168,17.023081 -72.4375,17.71875 L -68.71875,21.4375 C -68.395002,21.758077 -68.367943,22.272209 -68.65625,22.625 C -70.115293,24.421601 -71.095941,26.598194 -71.4375,29 C -71.503721,29.431895 -71.875558,29.750613 -72.3125,29.75 L -77.4375,29.75 C -77.964654,29.75 -78.246728,29.88919 -78.375,30 C -78.503272,30.11081 -78.505114,30.199742 -78.5,30.3125 C -78.489772,30.538017 -78.322529,30.96875 -77.4375,30.96875 L -72.40625,30.96875 C -71.948096,30.971901 -71.568283,31.324585 -71.53125,31.78125 C -71.34994,34.320481 -70.451074,36.625967 -69.03125,38.5625 C -68.769871,38.917391 -68.809862,39.410604 -69.125,39.71875 L -72.4375,43.03125 C -72.770294,43.364044 -72.836029,43.622379 -72.84375,43.78125 C -72.851471,43.940121 -72.809635,44.039621 -72.71875,44.125 C -72.536981,44.295758 -72.175223,44.456473 -71.59375,43.875 L -68.40625,40.6875 C -68.073314,40.353794 -67.5371,40.340045 -67.1875,40.65625 C -65.301494,42.336066 -62.916927,43.449024 -60.28125,43.8125 C -59.849355,43.878721 -59.530637,44.250558 -59.53125,44.6875 L -59.53125,48.875 C -59.531249,49.871884 -59.121391,49.96859 -58.90625,49.96875 C -58.691109,49.96891 -58.3125,49.874638 -58.3125,48.875 L -58.3125,44.8125 C -58.309349,44.354346 -57.956665,43.974533 -57.5,43.9375 C -54.759458,43.737971 -52.272336,42.667378 -50.25,41.03125 C -49.897209,40.742943 -49.383077,40.770002 -49.0625,41.09375 L -46.28125,43.875 C -46.270575,43.885155 -46.260155,43.895575 -46.25,43.90625 C -45.773667,44.438621 -45.477416,44.276373 -45.25,44.0625 C -45.136292,43.955563 -45.061078,43.833114 -45.0625,43.6875 C -45.063922,43.541886 -45.101963,43.351572 -45.40625,43.0625 C -45.416925,43.052345 -45.427345,43.041925 -45.4375,43.03125 L -48.21875,40.25 C -48.542498,39.929423 -48.569557,39.415291 -48.28125,39.0625 C -46.640647,37.032854 -45.602204,34.542599 -45.40625,31.78125 C -45.369217,31.324585 -44.989404,30.971901 -44.53125,30.96875 L -40.4375,30.96875 C -39.84992,30.96875 -39.701727,30.625331 -39.6875,30.3125 C -39.680386,30.156084 -39.726586,30.027052 -39.8125,29.9375 C -39.898414,29.847948 -40.051022,29.75 -40.4375,29.75 L -44.625,29.75 C -45.061942,29.750613 -45.433779,29.431895 -45.5,29 C -45.867584,26.376403 -46.9819,24.004866 -48.65625,22.125 C -48.972455,21.7754 -48.958706,21.239186 -48.625,20.90625 L -45.46875,17.75 C -45.453451,17.733002 -45.451715,17.735185 -45.4375,17.71875 C -44.926604,17.128069 -45.104678,16.884141 -45.28125,16.71875 C -45.462735,16.548757 -45.787839,16.410737 -46.3125,16.90625 L -49.59375,20.1875 C -49.901896,20.502638 -50.395109,20.542629 -50.75,20.28125 C -52.679589,18.866515 -54.97243,17.967355 -57.5,17.78125 C -57.956665,17.744217 -58.309349,17.364404 -58.3125,16.90625 L -58.3125,11.875 C -58.3125,11.464956 -58.429033,11.290076 -58.53125,11.1875 C -58.633467,11.084924 -58.761031,11.026886 -58.90625,11.03125 z "
       transform="translate(-83.97077,6.3456611)"
       style="opacity:0.64606742;color:#000000;fill:none;fill-opacity:1;fill-rule:evenodd;stroke:url(#linearGradient2658);stroke-width:1;stroke-linecap:butt;stroke-linejoin:miter;marker:none;marker-start:none;marker-mid:none;marker-end:none;stroke-miterlimit:4;stroke-dasharray:none;stroke-dashoffset:0;stroke-opacity:1;visibility:visible;display:inline;overflow:visible"
       id="path5150" />
    <g
       transform="matrix(0.906044,0,0,0.906044,-45.916135,5.4035841)"
       id="g11350">
      <g
         transform="matrix(0.50181,0,0,0.50181,77.515538,19.216431)"
         id="g1491">
        <g
           id="g1493" />
        <g
           id="g11312">
          <g
             id="g4006">
            <path
               d="M 46.857143 23.928572 A 23.357143 23.357143 0 1 1  0.1428566,23.928572 A 23.357143 23.357143 0 1 1  46.857143 23.928572 z"
               transform="matrix(0.920488,0,0,0.920488,2.368532,0.97408)"
               style="fill:url(#linearGradient2703);fill-opacity:1;fill-rule:nonzero;stroke:#b20000;stroke-width:2.16492105;stroke-linecap:butt;stroke-linejoin:miter;stroke-miterlimit:4;stroke-dasharray:none;stroke-opacity:1"
               id="path1314" />
            <path
               d="M 49.901535 26.635273 A 23.991123 23.991123 0 1 1  1.9192886,26.635273 A 23.991123 23.991123 0 1 1  49.901535 26.635273 z"
               transform="matrix(0.804178,0,0,0.804178,3.163406,1.58053)"
               style="opacity:0.34659089;fill:#cc0000;fill-opacity:0;stroke:url(#linearGradient2705);stroke-width:2.47803497;stroke-linecap:butt;stroke-linejoin:miter;stroke-miterlimit:4;stroke-dasharray:none;stroke-opacity:1"
               id="path3560" />
          </g>
        </g>
        <g
           id="layer3">
          <path
             d="M 21.158162,27.488536 L 20.704556,6.8863757 L 26.590888,6.8863757 L 26.202083,27.488536 L 21.158162,27.488536 z "
             style="fill:#efefef;fill-opacity:1;fill-rule:nonzero;stroke:none;stroke-width:0.73876643;stroke-miterlimit:4;stroke-opacity:0.8627451"
             id="rect2070" />
        </g>
        <g
           id="layer4">
          <path
             d="M 43.370686,21.715486 C 43.370686,32.546102 33.016357,15.449178 24.695948,22.101874 C 16.569626,28.599385 4.0989837,34.292422 4.0989837,23.461806 C 4.0989837,12.377753 12.79438,2.0948032 23.625,2.0948032 C 34.455619,2.0948032 43.370686,10.884868 43.370686,21.715486 z "
             transform="matrix(1.002994,0,0,1.002994,-7.185874e-2,1.968356e-2)"
             style="fill:url(#linearGradient2707);fill-opacity:1;fill-rule:nonzero;stroke:none;stroke-width:1;stroke-linecap:round;stroke-linejoin:round;stroke-miterlimit:4;stroke-dashoffset:0;stroke-opacity:1"
             id="path3955" />
        </g>
      </g>
      <path
         d="M 35.797279 38.542446 A 1.8561553 1.8561553 0 1 1  32.084969,38.542446 A 1.8561553 1.8561553 0 1 1  35.797279 38.542446 z"
         transform="translate(55.52947,-2.387226)"
         style="color:#000000;fill:#efefef;fill-opacity:1;fill-rule:evenodd;stroke:none;stroke-width:1;stroke-linecap:butt;stroke-linejoin:miter;marker:none;marker-start:none;marker-mid:none;marker-end:none;stroke-miterlimit:4;stroke-dasharray:none;stroke-dashoffset:0;stroke-opacity:1;visibility:visible;display:inline;overflow:visible"
         id="path4327" />
    </g>
  </g>
</svg>
