<?xml version="1.0" encoding="UTF-8" standalone="no"?>
<!-- Created with Inkscape (http://www.inkscape.org/) -->
<svg
   xmlns:svg="http://www.w3.org/2000/svg"
   xmlns="http://www.w3.org/2000/svg"
   xmlns:xlink="http://www.w3.org/1999/xlink"
   version="1.0"
   width="48"
   height="48"
   id="svg1328">
  <defs
     id="defs3">
    <linearGradient
       id="linearGradient2245">
      <stop
         style="stop-color:#dde1d9;stop-opacity:1"
         offset="0"
         id="stop2247" />
      <stop
         style="stop-color:#cacdc6;stop-opacity:1"
         offset="1"
         id="stop2249" />
    </linearGradient>
    <linearGradient
       x1="18.316999"
       y1="48.643234"
       x2="18.176752"
       y2="52.536461"
       id="linearGradient2981"
       xlink:href="#linearGradient2245"
       gradientUnits="userSpaceOnUse"
       gradientTransform="matrix(1.129863,0,0,0.899111,0,1.555273)" />
    <linearGradient
       x1="8.1134243"
       y1="88.509071"
       x2="8.1134233"
       y2="100.20015"
       id="linearGradient2758"
       xlink:href="#linearGradient2752"
       gradientUnits="userSpaceOnUse"
       gradientTransform="matrix(2.012827,0,0,0.432928,4.489755,2.000006)" />
    <linearGradient
       x1="8.1134243"
       y1="88.509071"
       x2="8.1134233"
       y2="100.20015"
       id="linearGradient1411"
       xlink:href="#linearGradient2752"
       gradientUnits="userSpaceOnUse"
       gradientTransform="matrix(2.247004,0,0,0.432928,0.947581,2.000006)" />
    <linearGradient
       id="linearGradient2752">
      <stop
         style="stop-color:#9d9d9d;stop-opacity:1"
         offset="0"
         id="stop2754" />
      <stop
         style="stop-color:#b9b9b9;stop-opacity:1"
         offset="1"
         id="stop2756" />
    </linearGradient>
    <linearGradient
       x1="8.1134243"
       y1="88.509071"
       x2="8.1134233"
       y2="100.20015"
       id="linearGradient1409"
       xlink:href="#linearGradient2752"
       gradientUnits="userSpaceOnUse"
       gradientTransform="matrix(2.309851,0,0,0.432928,0,2.000006)" />
    <linearGradient
       id="linearGradient2635">
      <stop
         style="stop-color:#f9fff5;stop-opacity:1"
         offset="0"
         id="stop2637" />
      <stop
         style="stop-color:#f9fff5;stop-opacity:0"
         offset="1"
         id="stop2639" />
    </linearGradient>
    <linearGradient
       x1="13.62871"
       y1="101.2846"
       x2="8.6485014"
       y2="74.098007"
       id="linearGradient2741"
       xlink:href="#linearGradient2635"
       gradientUnits="userSpaceOnUse"
       gradientTransform="matrix(2.143634,0,0,0.480712,1,0.574206)" />
    <linearGradient
       id="linearGradient3356">
      <stop
         style="stop-color:#ff4141;stop-opacity:1"
         offset="0"
         id="stop3358" />
      <stop
         style="stop-color:#ff9d9d;stop-opacity:1"
         offset="1"
         id="stop3360" />
    </linearGradient>
    <linearGradient
       id="linearGradient3348">
      <stop
         style="stop-color:#ff4949;stop-opacity:1"
         offset="0"
         id="stop3350" />
      <stop
         style="stop-color:#ffb1b1;stop-opacity:1"
         offset="1"
         id="stop3352" />
    </linearGradient>
    <linearGradient
       id="linearGradient3338">
      <stop
         style="stop-color:#cc0000;stop-opacity:1"
         offset="0"
         id="stop3340" />
      <stop
         style="stop-color:#ff5858;stop-opacity:1"
         offset="0.5"
         id="stop3346" />
      <stop
         style="stop-color:#cc0000;stop-opacity:1"
         offset="1"
         id="stop3342" />
    </linearGradient>
    <linearGradient
       id="linearGradient3247">
      <stop
         style="stop-color:#f0f0f0;stop-opacity:1"
         offset="0"
         id="stop3249" />
      <stop
         style="stop-color:#f0f0f0;stop-opacity:0"
         offset="1"
         id="stop3251" />
    </linearGradient>
    <linearGradient
       id="linearGradient3233">
      <stop
         style="stop-color:#eeeeec;stop-opacity:1"
         offset="0"
         id="stop3235" />
      <stop
         style="stop-color:#a3a398;stop-opacity:1"
         offset="1"
         id="stop3237" />
    </linearGradient>
    <linearGradient
       id="linearGradient6924">
      <stop
         style="stop-color:#ffffff;stop-opacity:1"
         offset="0"
         id="stop6926" />
      <stop
         style="stop-color:#ffffff;stop-opacity:0"
         offset="1"
         id="stop6928" />
    </linearGradient>
    <linearGradient
       id="linearGradient4176">
      <stop
         style="stop-color:#ffffff;stop-opacity:1"
         offset="0"
         id="stop4178" />
      <stop
         style="stop-color:#ffffff;stop-opacity:0"
         offset="1"
         id="stop4180" />
    </linearGradient>
    <linearGradient
       id="linearGradient4134">
      <stop
         style="stop-color:#d6d7d5;stop-opacity:1"
         offset="0"
         id="stop4136" />
      <stop
         style="stop-color:#d1d2d0;stop-opacity:1"
         offset="0.25"
         id="stop4148" />
      <stop
         style="stop-color:#a5a6a3;stop-opacity:1"
         offset="0.5"
         id="stop4142" />
      <stop
         style="stop-color:#dddedc;stop-opacity:1"
         offset="1"
         id="stop4138" />
    </linearGradient>
    <linearGradient
       id="linearGradient4126">
      <stop
         style="stop-color:#000000;stop-opacity:1"
         offset="0"
         id="stop4128" />
      <stop
         style="stop-color:#000000;stop-opacity:0"
         offset="1"
         id="stop4130" />
    </linearGradient>
    <radialGradient
       cx="23.857143"
       cy="40"
       r="17.142857"
       fx="23.857143"
       fy="40"
       id="radialGradient4132"
       xlink:href="#linearGradient4126"
       gradientUnits="userSpaceOnUse"
       gradientTransform="matrix(1,0,0,0.5,0,20)" />
    <linearGradient
       x1="9.3030529"
       y1="26.71875"
       x2="38.826412"
       y2="26.71875"
       id="linearGradient4140"
       xlink:href="#linearGradient4134"
       gradientUnits="userSpaceOnUse"
       gradientTransform="matrix(0.765647,0,0,0.779023,-3.920058,-3.051141)" />
    <linearGradient
       x1="17.160095"
       y1="14.004482"
       x2="37.969398"
       y2="56.575912"
       id="linearGradient4182"
       xlink:href="#linearGradient4176"
       gradientUnits="userSpaceOnUse"
       gradientTransform="matrix(0.747261,0,0,0.780131,-3.474617,-3.056018)" />
    <linearGradient
       x1="16.07143"
       y1="19.5"
       x2="15.785715"
       y2="30"
       id="linearGradient6930"
       xlink:href="#linearGradient6924"
       gradientUnits="userSpaceOnUse"
       gradientTransform="matrix(0.785824,0,0,0.785824,-4.426418,-1.110872)" />
    <radialGradient
       cx="23.857143"
       cy="40"
       r="17.142857"
       fx="23.857143"
       fy="40"
       id="radialGradient6946"
       xlink:href="#linearGradient4126"
       gradientUnits="userSpaceOnUse"
       gradientTransform="matrix(1,0,0,0.5,0,20)" />
    <linearGradient
       x1="24"
       y1="17.245949"
       x2="23.433737"
       y2="8.0476589"
       id="linearGradient3239"
       xlink:href="#linearGradient3233"
       gradientUnits="userSpaceOnUse" />
    <linearGradient
       x1="24"
       y1="17.245949"
       x2="23.433737"
       y2="8.0476589"
       id="linearGradient3243"
       xlink:href="#linearGradient3233"
       gradientUnits="userSpaceOnUse" />
    <linearGradient
       x1="34.244171"
       y1="17.695425"
       x2="34.244171"
       y2="29.91827"
       id="linearGradient3253"
       xlink:href="#linearGradient3247"
       gradientUnits="userSpaceOnUse"
       gradientTransform="matrix(0.785824,0,0,0.785824,-4.234777,-1.761184)" />
    <linearGradient
       x1="24"
       y1="17.245949"
       x2="23.433737"
       y2="8.0476589"
       id="linearGradient3255"
       xlink:href="#linearGradient3233"
       gradientUnits="userSpaceOnUse" />
    <linearGradient
       x1="11.003058"
       y1="33.489445"
       x2="30.452171"
       y2="33.489445"
       id="linearGradient3344"
       xlink:href="#linearGradient3338"
       gradientUnits="userSpaceOnUse"
       gradientTransform="matrix(0.722919,0,0,0.785824,-2.856978,-1.761184)" />
    <linearGradient
       x1="24"
       y1="18.132908"
       x2="24"
       y2="8.0243998"
       id="linearGradient3354"
       xlink:href="#linearGradient3348"
       gradientUnits="userSpaceOnUse" />
    <linearGradient
       x1="24"
       y1="10.396756"
       x2="24"
       y2="20.118456"
       id="linearGradient3362"
       xlink:href="#linearGradient3356"
       gradientUnits="userSpaceOnUse" />
  </defs>
  <g
     id="layer1">
    <path
       d="M 41 40 A 17.142857 8.5714283 0 1 1  6.7142868,40 A 17.142857 8.5714283 0 1 1  41 40 z"
       transform="matrix(0.831993,0,0,0.904687,-5.111713,-7.837026)"
       style="opacity:1;color:#000000;fill:url(#radialGradient4132);fill-opacity:1;fill-rule:nonzero;stroke:none;stroke-width:1;stroke-linecap:butt;stroke-linejoin:miter;marker:none;marker-start:none;marker-mid:none;marker-end:none;stroke-miterlimit:10;stroke-dasharray:none;stroke-dashoffset:0;stroke-opacity:1;visibility:visible;display:block;overflow:visible"
       id="path3366" />
    <path
       d="M 14.407615,3.8870363 C 8.3900691,3.8870363 3.4971471,6.0702504 3.4971463,8.755934 C 3.4971463,8.948653 3.4971463,26.570144 3.4971463,26.770852 C 3.4971463,29.456536 8.3900681,31.639749 14.407615,31.639749 C 20.425162,31.639749 25.512915,29.456535 25.512913,26.770852 C 25.512913,26.611883 25.512913,8.914902 25.512913,8.755934 C 25.512913,6.0702496 20.425162,3.8870363 14.407615,3.8870363 z "
       style="opacity:1;color:#000000;fill:url(#linearGradient4140);fill-opacity:1;fill-rule:nonzero;stroke:#767973;stroke-width:1.0000006;stroke-linecap:butt;stroke-linejoin:miter;marker:none;marker-start:none;marker-mid:none;marker-end:none;stroke-miterlimit:10;stroke-dasharray:none;stroke-dashoffset:0;stroke-opacity:1;visibility:visible;display:block;overflow:visible"
       id="path3068" />
    <path
       d="M 14.419394,4.5000002 C 8.943644,4.5000002 4.4912611,6.5384211 4.4912604,9.045986 C 4.4912604,9.225924 4.4912604,26.119991 4.4912604,26.307387 C 4.4912604,28.814954 8.943643,30.853373 14.419394,30.853373 C 19.895144,30.853373 24.524816,28.814953 24.524814,26.307387 C 24.524814,26.158963 24.524814,9.194413 24.524814,9.045986 C 24.524814,6.5384203 19.895144,4.5000002 14.419394,4.5000002 z "
       style="opacity:0.5443038;color:#000000;fill:none;fill-opacity:1;fill-rule:nonzero;stroke:url(#linearGradient4182);stroke-width:1.00000036;stroke-linecap:butt;stroke-linejoin:miter;marker:none;marker-start:none;marker-mid:none;marker-end:none;stroke-miterlimit:10;stroke-dasharray:none;stroke-dashoffset:0;stroke-opacity:1;visibility:visible;display:block;overflow:visible"
       id="path4174" />
    <path
       d="M 36.857142 14.071428 A 12.857142 5.5 0 1 1  11.142858,14.071428 A 12.857142 5.5 0 1 1  36.857142 14.071428 z"
       transform="matrix(0.792664,0,0,0.759881,-4.701535,-2.015529)"
       style="opacity:0.467033;color:#000000;fill:#f0f0f0;fill-opacity:1;fill-rule:nonzero;stroke:url(#linearGradient3239);stroke-width:1.28849459;stroke-linecap:butt;stroke-linejoin:miter;marker:none;marker-start:none;marker-mid:none;marker-end:none;stroke-miterlimit:10;stroke-dasharray:none;stroke-dashoffset:0;stroke-opacity:1;visibility:visible;display:block;overflow:visible"
       id="path3364" />
    <path
       d="M 41 40 A 17.142857 8.5714283 0 1 1  6.7142868,40 A 17.142857 8.5714283 0 1 1  41 40 z"
       transform="matrix(0.285592,0,0,0.285592,7.630674,-5.417084)"
       style="opacity:0.30769234;color:#000000;fill:url(#radialGradient6946);fill-opacity:1;fill-rule:nonzero;stroke:none;stroke-width:1;stroke-linecap:butt;stroke-linejoin:miter;marker:none;marker-start:none;marker-mid:none;marker-end:none;stroke-miterlimit:10;stroke-dasharray:none;stroke-dashoffset:0;stroke-opacity:1;visibility:visible;display:block;overflow:visible"
       id="path6944" />
    <path
       d="M 14.695397,2.7062278 C 13.121553,2.7062278 11.056023,3.2674264 11.056023,3.9577853 C 11.056023,4.0073237 11.056023,5.972642 11.056023,6.0242345 C 11.056023,6.7145934 13.121553,7.275792 14.695397,7.275792 C 16.269241,7.275792 18.161208,6.7145934 18.161207,6.0242345 C 18.161207,5.9833716 18.161207,3.9986482 18.161207,3.9577853 C 18.161207,3.2674256 16.269241,2.7062278 14.695397,2.7062278 z "
       style="opacity:1;color:#000000;fill:#9d9e9b;fill-opacity:1;fill-rule:nonzero;stroke:#7d7f7a;stroke-width:1;stroke-linecap:butt;stroke-linejoin:miter;marker:none;marker-start:none;marker-mid:none;marker-end:none;stroke-miterlimit:10;stroke-dasharray:none;stroke-dashoffset:0;stroke-opacity:1;visibility:visible;display:block;overflow:visible"
       id="path3362" />
    <path
       d="M 36.857142 14.071428 A 12.857142 5.5 0 1 1  11.142858,14.071428 A 12.857142 5.5 0 1 1  36.857142 14.071428 z"
       transform="matrix(0.213728,0,0,0.150961,9.493084,2.052715)"
       style="opacity:1;color:#000000;fill:#d3d7cf;fill-opacity:1;fill-rule:nonzero;stroke:url(#linearGradient3255);stroke-width:5.5671978;stroke-linecap:butt;stroke-linejoin:miter;marker:none;marker-start:none;marker-mid:none;marker-end:none;stroke-miterlimit:10;stroke-dasharray:none;stroke-dashoffset:0;stroke-opacity:1;visibility:visible;display:block;overflow:visible"
       id="path6940" />
    <path
       d="M 36.857142 14.071428 A 12.857142 5.5 0 1 1  11.142858,14.071428 A 12.857142 5.5 0 1 1  36.857142 14.071428 z"
       transform="matrix(0.786771,0,0,0.76334,-4.480725,16.01318)"
       style="opacity:0.23626374;color:#000000;fill:#d3d7cf;fill-opacity:1;fill-rule:nonzero;stroke:url(#linearGradient3243);stroke-width:1.29037714;stroke-linecap:butt;stroke-linejoin:miter;marker:none;marker-start:none;marker-mid:none;marker-end:none;stroke-miterlimit:10;stroke-dasharray:none;stroke-dashoffset:0;stroke-opacity:1;visibility:visible;display:block;overflow:visible"
       id="path3241" />
    <path
       d="M 23.945195,7.421181 C 23.073626,6.6470578 22.336664,6.4113672 21.56379,6.0320273 L 21.80193,20.717366 L 23.945195,23.257532 L 23.945195,7.421181 z "
       style="opacity:0.68681317;color:#000000;fill:url(#linearGradient3253);fill-opacity:1;fill-rule:nonzero;stroke:none;stroke-width:0.99999946;stroke-linecap:butt;stroke-linejoin:miter;marker:none;marker-start:none;marker-mid:none;marker-end:none;stroke-miterlimit:10;stroke-dasharray:none;stroke-dashoffset:0;stroke-opacity:1;visibility:visible;display:block;overflow:visible"
       id="path3245" />
    <path
       d="M 14.0362,20.651496 C 9.2619637,20.757367 5.4574317,22.490275 5.4574317,24.602786 C 5.4574317,24.853221 5.4574317,25.8329 5.4574317,26.081631 C 5.4574317,28.262287 9.4909852,30.032919 14.481026,30.032921 C 19.471067,30.032921 23.5258,28.262287 23.525801,26.081631 C 23.525801,25.8329 23.525801,24.853221 23.525801,24.602786 C 23.525801,22.422129 19.471067,20.651496 14.481026,20.651496 C 14.325087,20.651496 14.190207,20.64808 14.0362,20.651496 z "
       style="opacity:0.61538463;color:#000000;fill:url(#linearGradient3344);fill-opacity:1;fill-rule:nonzero;stroke:#a40000;stroke-width:0.99621558;stroke-linecap:butt;stroke-linejoin:miter;marker:none;marker-start:none;marker-mid:none;marker-end:none;stroke-miterlimit:10;stroke-dasharray:none;stroke-dashoffset:0;stroke-opacity:1;visibility:visible;display:block;overflow:visible"
       id="path3275" />
    <path
       d="M 36.857142 14.071428 A 12.857142 5.5 0 1 1  11.142858,14.071428 A 12.857142 5.5 0 1 1  36.857142 14.071428 z"
       transform="matrix(0.702543,0,0,0.718266,-2.369549,14.5004)"
       style="opacity:1;color:#000000;fill:url(#linearGradient3354);fill-opacity:1;fill-rule:nonzero;stroke:url(#linearGradient3362);stroke-width:1.40773511;stroke-linecap:butt;stroke-linejoin:miter;marker:none;marker-start:none;marker-mid:none;marker-end:none;stroke-miterlimit:10;stroke-dasharray:none;stroke-dashoffset:0;stroke-opacity:1;visibility:visible;display:block;overflow:visible"
       id="path3277" />
    <path
       d="M 6.406727,12.304265 L 6.687378,25.494882 L 10.279716,26.505226 L 10.167456,13.37074 C 10.167456,13.37074 11.795233,13.37074 14.433357,13.202349 C 9.223378,13.336716 6.200856,11.892728 4.0492553,10.115184 C 5.162688,11.759266 6.406727,12.304265 6.406727,12.304265 z "
       style="opacity:1;color:#000000;fill:url(#linearGradient6930);fill-opacity:1;fill-rule:nonzero;stroke:none;stroke-width:1;stroke-linecap:butt;stroke-linejoin:miter;marker:none;marker-start:none;marker-mid:none;marker-end:none;stroke-miterlimit:4;stroke-dasharray:none;stroke-dashoffset:0;stroke-opacity:1;visibility:visible;display:block;overflow:visible"
       id="path6922" />
    <path
       d="M 9.087933,30.526749 L 40.090339,30.526749 C 41.209588,30.526749 41.067694,31.003931 41.182566,31.604117 L 44.017212,46.414716 C 44.132084,47.014905 44.044234,47.492084 42.924985,47.492084 L 6.253287,47.492084 C 5.134038,47.492084 5.046188,47.014905 5.16106,46.414716 L 7.995705,31.604117 C 8.110577,31.003929 7.968684,30.526749 9.087933,30.526749 z "
       style="opacity:1;color:#000000;fill:url(#linearGradient2981);fill-opacity:1;fill-rule:evenodd;stroke:#888a85;stroke-width:1.00000012;stroke-linecap:butt;stroke-linejoin:miter;marker:none;marker-start:none;marker-mid:none;marker-end:none;stroke-miterlimit:4;stroke-dasharray:none;stroke-dashoffset:0;stroke-opacity:1;visibility:visible;display:inline;overflow:visible"
       id="path2409" />
    <path
       d="M 9.719669,34 L 8,42.871484 L 13.330974,42.871484 L 13.846875,39.353482 L 28.292093,39.353482 L 28.826817,42.94448 L 34.826835,42.94448 L 33.19315,34 L 9.719669,34 z "
       style="fill:#7a7d77;fill-opacity:1;fill-rule:evenodd;stroke:none;stroke-width:0.25pt;stroke-linecap:butt;stroke-linejoin:miter;stroke-opacity:1"
       id="path2611" />
    <path
       d="M 13.702021,39.965309 L 13.260079,42.871485 L 28.020933,42.871485 L 27.578991,39.812354 L 13.702021,39.965309 z "
       style="fill:#777874;fill-opacity:1;fill-rule:evenodd;stroke:none;stroke-width:0.25pt;stroke-linecap:butt;stroke-linejoin:miter;stroke-opacity:1"
       id="path2613" />
    <path
       d="M 39.536573,34.000002 L 41,42.718528 L 36.224606,42.56557 L 34.915224,34.152958 L 39.536573,34.000002 z "
       style="color:#000000;fill:#777a75;fill-opacity:1;fill-rule:evenodd;stroke:none;stroke-width:0.25pt;stroke-linecap:butt;stroke-linejoin:miter;marker:none;marker-start:none;marker-mid:none;marker-end:none;stroke-miterlimit:4;stroke-dashoffset:0;stroke-opacity:1;visibility:visible;display:inline;overflow:visible"
       id="path2619" />
    <path
       d="M 39.536573,33.082266 L 41,41.800792 L 36.224606,41.647834 L 34.915224,33.235222 L 39.536573,33.082266 z "
       style="opacity:1;color:#000000;fill:url(#linearGradient2758);fill-opacity:1;fill-rule:evenodd;stroke:none;stroke-width:0.25pt;stroke-linecap:butt;stroke-linejoin:miter;marker:none;marker-start:none;marker-mid:none;marker-end:none;stroke-miterlimit:4;stroke-dasharray:none;stroke-dashoffset:0;stroke-opacity:1;visibility:visible;display:inline;overflow:visible"
       id="path2615" />
    <path
       d="M 9.719669,32.929308 L 8,41.800792 L 13.330974,41.800792 L 13.846875,38.28279 L 28.292093,38.28279 L 28.826817,41.873788 L 34.826835,41.873788 L 33.19315,32.929308 L 9.719669,32.929308 z "
       style="fill:url(#linearGradient1411);fill-opacity:1;fill-rule:evenodd;stroke:none;stroke-width:0.25pt;stroke-linecap:butt;stroke-linejoin:miter;stroke-opacity:1"
       id="path2617" />
    <path
       d="M 13.702021,39.047574 L 13.260079,41.953749 L 28.020933,41.953749 L 27.578991,38.894618 L 13.702021,39.047574 z "
       style="opacity:1;color:#000000;fill:url(#linearGradient1409);fill-opacity:1;fill-rule:evenodd;stroke:none;stroke-width:0.25pt;stroke-linecap:butt;stroke-linejoin:miter;marker:none;marker-start:none;marker-mid:none;marker-end:none;stroke-miterlimit:4;stroke-dasharray:none;stroke-dashoffset:0;stroke-opacity:1;visibility:visible;display:inline;overflow:visible"
       id="path2621" />
    <path
       d="M 8.753568,31.842756 L 40.579383,31.842756 L 43.216562,46.273693 L 5.955492,46.273693 L 8.753568,31.842756 z "
       style="color:#000000;fill:none;fill-opacity:1;fill-rule:evenodd;stroke:url(#linearGradient2741);stroke-width:0.5;stroke-linecap:butt;stroke-linejoin:round;marker:none;marker-start:none;marker-mid:none;marker-end:none;stroke-miterlimit:4;stroke-dashoffset:0;stroke-opacity:1;visibility:visible;display:inline;overflow:visible"
       id="path2631" />
    <path
       d="M 35,30.410719 C 35.952996,27.97325 35.683185,23.49777 36,20 C 36.28086,23.840776 36.295592,29.411387 37,30.499107 L 35,30.410719 z "
       style="opacity:1;color:#000000;fill:#dde1d9;fill-opacity:1;fill-rule:evenodd;stroke:#888a85;stroke-width:1;stroke-linecap:butt;stroke-linejoin:miter;marker:none;marker-start:none;marker-mid:none;marker-end:none;stroke-miterlimit:4;stroke-dasharray:none;stroke-dashoffset:0;stroke-opacity:1;visibility:visible;display:inline;overflow:visible"
       id="path2460" />
    <path
       d="M 37.38827 20.246059 A 1.5909903 1.5909903 0 1 1  34.206289,20.246059 A 1.5909903 1.5909903 0 1 1  37.38827 20.246059 z"
       transform="translate(0.293711,-0.33705)"
       style="opacity:1;color:#000000;fill:#555753;fill-opacity:1;fill-rule:evenodd;stroke:#2e3436;stroke-width:1;stroke-linecap:butt;stroke-linejoin:miter;marker:none;marker-start:none;marker-mid:none;marker-end:none;stroke-miterlimit:4;stroke-dasharray:none;stroke-dashoffset:0;stroke-opacity:1;visibility:visible;display:inline;overflow:visible"
       id="path3335" />
    <path
       d="M 45.015718,9.3976952 C 42.678687,7.0621628 39.447165,5.6268006 35.906249,5.6268006 C 32.365333,5.6268006 29.133811,7.0621628 26.79678,9.3976952"
       style="opacity:1;color:#000000;fill:none;fill-opacity:1;fill-rule:evenodd;stroke:#babdb6;stroke-width:1.00000036;stroke-linecap:round;stroke-linejoin:miter;marker:none;marker-start:none;marker-mid:none;marker-end:none;stroke-miterlimit:4;stroke-dasharray:none;stroke-dashoffset:0;stroke-opacity:1;visibility:visible;display:inline;overflow:visible"
       id="path3235" />
    <path
       d="M 42.134584,12.278829 C 40.536545,10.680509 38.327491,9.6942816 35.906249,9.6942816 C 33.485007,9.6942836 31.275953,10.680511 29.677914,12.278829"
       style="opacity:1;color:#000000;fill:none;fill-opacity:1;fill-rule:evenodd;stroke:#babdb6;stroke-width:1.00000036;stroke-linecap:round;stroke-linejoin:miter;marker:none;marker-start:none;marker-mid:none;marker-end:none;stroke-miterlimit:4;stroke-dasharray:none;stroke-dashoffset:0;stroke-opacity:1;visibility:visible;display:inline;overflow:visible"
       id="path3233" />
    <path
       d="M 39.25345,15.159963 C 38.392087,14.298582 37.211327,13.761765 35.906249,13.761765 C 34.60117,13.761767 33.42041,14.298582 32.559049,15.159963"
       style="opacity:1;color:#000000;fill:none;fill-opacity:1;fill-rule:evenodd;stroke:#babdb6;stroke-width:1.00000036;stroke-linecap:round;stroke-linejoin:miter;marker:none;marker-start:none;marker-mid:none;marker-end:none;stroke-miterlimit:4;stroke-dasharray:none;stroke-dashoffset:0;stroke-opacity:1;visibility:visible;display:inline;overflow:visible"
       id="path3227" />
  </g>
  <g
     id="layer2" />
</svg>
