<?xml version="1.0" encoding="UTF-8" standalone="no"?>
<!-- Created with Inkscape (http://www.inkscape.org/) -->
<svg
   xmlns:svg="http://www.w3.org/2000/svg"
   xmlns="http://www.w3.org/2000/svg"
   xmlns:xlink="http://www.w3.org/1999/xlink"
   version="1.0"
   width="48"
   height="48"
   id="svg1328">
  <defs
     id="defs3">
    <linearGradient
       id="linearGradient3356">
      <stop
         style="stop-color:#ff4141;stop-opacity:1"
         offset="0"
         id="stop3358" />
      <stop
         style="stop-color:#ff9d9d;stop-opacity:1"
         offset="1"
         id="stop3360" />
    </linearGradient>
    <linearGradient
       id="linearGradient3348">
      <stop
         style="stop-color:#ff4949;stop-opacity:1"
         offset="0"
         id="stop3350" />
      <stop
         style="stop-color:#ffb1b1;stop-opacity:1"
         offset="1"
         id="stop3352" />
    </linearGradient>
    <linearGradient
       id="linearGradient3338">
      <stop
         style="stop-color:#cc0000;stop-opacity:1"
         offset="0"
         id="stop3340" />
      <stop
         style="stop-color:#ff5858;stop-opacity:1"
         offset="0.5"
         id="stop3346" />
      <stop
         style="stop-color:#cc0000;stop-opacity:1"
         offset="1"
         id="stop3342" />
    </linearGradient>
    <linearGradient
       id="linearGradient3247">
      <stop
         style="stop-color:#f0f0f0;stop-opacity:1"
         offset="0"
         id="stop3249" />
      <stop
         style="stop-color:#f0f0f0;stop-opacity:0"
         offset="1"
         id="stop3251" />
    </linearGradient>
    <linearGradient
       id="linearGradient3233">
      <stop
         style="stop-color:#eeeeec;stop-opacity:1"
         offset="0"
         id="stop3235" />
      <stop
         style="stop-color:#a3a398;stop-opacity:1"
         offset="1"
         id="stop3237" />
    </linearGradient>
    <linearGradient
       id="linearGradient6924">
      <stop
         style="stop-color:#ffffff;stop-opacity:1"
         offset="0"
         id="stop6926" />
      <stop
         style="stop-color:#ffffff;stop-opacity:0"
         offset="1"
         id="stop6928" />
    </linearGradient>
    <linearGradient
       id="linearGradient4176">
      <stop
         style="stop-color:#ffffff;stop-opacity:1"
         offset="0"
         id="stop4178" />
      <stop
         style="stop-color:#ffffff;stop-opacity:0"
         offset="1"
         id="stop4180" />
    </linearGradient>
    <linearGradient
       id="linearGradient4134">
      <stop
         style="stop-color:#d6d7d5;stop-opacity:1"
         offset="0"
         id="stop4136" />
      <stop
         style="stop-color:#d1d2d0;stop-opacity:1"
         offset="0.25"
         id="stop4148" />
      <stop
         style="stop-color:#a5a6a3;stop-opacity:1"
         offset="0.5"
         id="stop4142" />
      <stop
         style="stop-color:#dddedc;stop-opacity:1"
         offset="1"
         id="stop4138" />
    </linearGradient>
    <linearGradient
       id="linearGradient4126">
      <stop
         style="stop-color:#000000;stop-opacity:1"
         offset="0"
         id="stop4128" />
      <stop
         style="stop-color:#000000;stop-opacity:0"
         offset="1"
         id="stop4130" />
    </linearGradient>
    <radialGradient
       cx="23.857143"
       cy="40"
       r="17.142857"
       fx="23.857143"
       fy="40"
       id="radialGradient4132"
       xlink:href="#linearGradient4126"
       gradientUnits="userSpaceOnUse"
       gradientTransform="matrix(1,0,0,0.5,0,20)" />
    <linearGradient
       x1="9.3030529"
       y1="26.71875"
       x2="38.826412"
       y2="26.71875"
       id="linearGradient4140"
       xlink:href="#linearGradient4134"
       gradientUnits="userSpaceOnUse"
       gradientTransform="matrix(0.765647,0,0,0.779023,-3.920058,-1.051141)" />
    <linearGradient
       x1="17.160095"
       y1="14.004482"
       x2="37.969398"
       y2="56.575912"
       id="linearGradient4182"
       xlink:href="#linearGradient4176"
       gradientUnits="userSpaceOnUse"
       gradientTransform="matrix(0.747261,0,0,0.780131,-3.474617,-1.056018)" />
    <linearGradient
       x1="16.07143"
       y1="19.5"
       x2="15.785715"
       y2="30"
       id="linearGradient6930"
       xlink:href="#linearGradient6924"
       gradientUnits="userSpaceOnUse"
       gradientTransform="matrix(0.785824,0,0,0.785824,-4.426418,0.889128)" />
    <radialGradient
       cx="23.857143"
       cy="40"
       r="17.142857"
       fx="23.857143"
       fy="40"
       id="radialGradient6946"
       xlink:href="#linearGradient4126"
       gradientUnits="userSpaceOnUse"
       gradientTransform="matrix(1,0,0,0.5,0,20)" />
    <linearGradient
       x1="24"
       y1="17.245949"
       x2="23.433737"
       y2="8.0476589"
       id="linearGradient3239"
       xlink:href="#linearGradient3233"
       gradientUnits="userSpaceOnUse" />
    <linearGradient
       x1="24"
       y1="17.245949"
       x2="23.433737"
       y2="8.0476589"
       id="linearGradient3243"
       xlink:href="#linearGradient3233"
       gradientUnits="userSpaceOnUse" />
    <linearGradient
       x1="34.244171"
       y1="17.695425"
       x2="34.244171"
       y2="29.91827"
       id="linearGradient3253"
       xlink:href="#linearGradient3247"
       gradientUnits="userSpaceOnUse"
       gradientTransform="matrix(0.785824,0,0,0.785824,-4.234777,0.238816)" />
    <linearGradient
       x1="24"
       y1="17.245949"
       x2="23.433737"
       y2="8.0476589"
       id="linearGradient3255"
       xlink:href="#linearGradient3233"
       gradientUnits="userSpaceOnUse" />
    <linearGradient
       x1="11.003058"
       y1="33.489445"
       x2="30.452171"
       y2="33.489445"
       id="linearGradient3344"
       xlink:href="#linearGradient3338"
       gradientUnits="userSpaceOnUse"
       gradientTransform="matrix(0.75936,0,0,0.785824,-3.252188,0.238816)" />
    <linearGradient
       x1="24"
       y1="18.132908"
       x2="24"
       y2="8.0243998"
       id="linearGradient3354"
       xlink:href="#linearGradient3348"
       gradientUnits="userSpaceOnUse" />
    <linearGradient
       x1="24"
       y1="10.396756"
       x2="24"
       y2="20.118456"
       id="linearGradient3362"
       xlink:href="#linearGradient3356"
       gradientUnits="userSpaceOnUse" />
    <linearGradient
       id="linearGradient8216">
      <stop
         style="stop-color:#888a85;stop-opacity:1"
         offset="0"
         id="stop8218" />
      <stop
         style="stop-color:#babdb6;stop-opacity:1"
         offset="1"
         id="stop8220" />
    </linearGradient>
    <linearGradient
       id="linearGradient8046">
      <stop
         style="stop-color:#ffffff;stop-opacity:1"
         offset="0"
         id="stop8048" />
      <stop
         style="stop-color:#888a85;stop-opacity:1"
         offset="1"
         id="stop8050" />
    </linearGradient>
    <linearGradient
       id="linearGradient7088">
      <stop
         style="stop-color:#ffffff;stop-opacity:1"
         offset="0"
         id="stop7090" />
      <stop
         style="stop-color:#ffffff;stop-opacity:0"
         offset="1"
         id="stop7092" />
    </linearGradient>
    <linearGradient
       id="linearGradient7972">
      <stop
         style="stop-color:#ffffff;stop-opacity:1"
         offset="0"
         id="stop7974" />
      <stop
         style="stop-color:#eeeeec;stop-opacity:1"
         offset="1"
         id="stop7976" />
    </linearGradient>
    <linearGradient
       id="linearGradient7917">
      <stop
         style="stop-color:#ffffff;stop-opacity:1"
         offset="0"
         id="stop7919" />
      <stop
         style="stop-color:#ffffff;stop-opacity:0"
         offset="1"
         id="stop7921" />
    </linearGradient>
    <linearGradient
       id="linearGradient8236">
      <stop
         style="stop-color:#000000;stop-opacity:1"
         offset="0"
         id="stop8238" />
      <stop
         style="stop-color:#000000;stop-opacity:0"
         offset="1"
         id="stop8240" />
    </linearGradient>
    <linearGradient
       x1="21.8125"
       y1="7.6875"
       x2="26.5"
       y2="19.9375"
       id="linearGradient7094"
       xlink:href="#linearGradient7088"
       gradientUnits="userSpaceOnUse" />
    <linearGradient
       x1="64.5625"
       y1="42.625"
       x2="64.5"
       y2="41"
       id="linearGradient6122"
       xlink:href="#linearGradient8012"
       gradientUnits="userSpaceOnUse"
       gradientTransform="matrix(1,0,0,-1,-38,50.058522)" />
    <linearGradient
       x1="64.5625"
       y1="42.625"
       x2="64.5"
       y2="41"
       id="linearGradient6118"
       xlink:href="#linearGradient8000"
       gradientUnits="userSpaceOnUse"
       gradientTransform="matrix(1,0,0,-1,-40,50.058522)" />
    <linearGradient
       x1="64.5625"
       y1="42.625"
       x2="64.5"
       y2="41"
       id="linearGradient6116"
       xlink:href="#linearGradient8012"
       gradientUnits="userSpaceOnUse"
       gradientTransform="matrix(1,0,0,-1,-40,50.058522)" />
    <linearGradient
       x1="24.375"
       y1="25.375"
       x2="28.087311"
       y2="52.811184"
       id="linearGradient7532"
       xlink:href="#linearGradient7526"
       gradientUnits="userSpaceOnUse" />
    <linearGradient
       x1="27.53125"
       y1="32.21875"
       x2="23.749973"
       y2="22.53125"
       id="linearGradient7511"
       xlink:href="#linearGradient8357"
       gradientUnits="userSpaceOnUse" />
    <linearGradient
       x1="43.5"
       y1="30.5"
       x2="44.0625"
       y2="32.313343"
       id="linearGradient7491"
       xlink:href="#linearGradient7215"
       gradientUnits="userSpaceOnUse"
       gradientTransform="translate(-20,0)" />
    <linearGradient
       x1="43.53125"
       y1="33.46875"
       x2="44"
       y2="35.4375"
       id="linearGradient7488"
       xlink:href="#linearGradient7223"
       gradientUnits="userSpaceOnUse"
       gradientTransform="translate(-20,0)" />
    <linearGradient
       x1="43.480392"
       y1="36.505032"
       x2="43.988625"
       y2="38.4375"
       id="linearGradient7485"
       xlink:href="#linearGradient7231"
       gradientUnits="userSpaceOnUse"
       gradientTransform="translate(-20,0)" />
    <linearGradient
       x1="38.491497"
       y1="24.541054"
       x2="38.947304"
       y2="26.4375"
       id="linearGradient7482"
       xlink:href="#linearGradient7199"
       gradientUnits="userSpaceOnUse"
       gradientTransform="translate(-20,0)" />
    <linearGradient
       x1="43.493069"
       y1="24.486135"
       x2="44"
       y2="26.4375"
       id="linearGradient7479"
       xlink:href="#linearGradient7199"
       gradientUnits="userSpaceOnUse"
       gradientTransform="translate(-20,0)" />
    <linearGradient
       x1="48.478554"
       y1="24.508232"
       x2="48.976982"
       y2="26.4375"
       id="linearGradient7476"
       xlink:href="#linearGradient7199"
       gradientUnits="userSpaceOnUse"
       gradientTransform="translate(-20,0)" />
    <linearGradient
       x1="38.491497"
       y1="24.541054"
       x2="38.947304"
       y2="26.4375"
       id="linearGradient7473"
       xlink:href="#linearGradient7199"
       gradientUnits="userSpaceOnUse"
       gradientTransform="translate(-20,3)" />
    <linearGradient
       x1="43.493069"
       y1="24.486135"
       x2="44"
       y2="26.4375"
       id="linearGradient7470"
       xlink:href="#linearGradient7199"
       gradientUnits="userSpaceOnUse"
       gradientTransform="translate(-20,3)" />
    <linearGradient
       x1="48.478554"
       y1="24.508232"
       x2="48.976982"
       y2="26.4375"
       id="linearGradient7467"
       xlink:href="#linearGradient7199"
       gradientUnits="userSpaceOnUse"
       gradientTransform="translate(-20,3)" />
    <linearGradient
       x1="38.5"
       y1="30.5"
       x2="39"
       y2="32.500843"
       id="linearGradient7464"
       xlink:href="#linearGradient7215"
       gradientUnits="userSpaceOnUse"
       gradientTransform="translate(-20,0)" />
    <linearGradient
       x1="48.5"
       y1="30.46875"
       x2="49"
       y2="32.4375"
       id="linearGradient7461"
       xlink:href="#linearGradient7215"
       gradientUnits="userSpaceOnUse"
       gradientTransform="translate(-20,0)" />
    <linearGradient
       x1="48.53125"
       y1="33.46875"
       x2="49"
       y2="35.4375"
       id="linearGradient7458"
       xlink:href="#linearGradient7223"
       gradientUnits="userSpaceOnUse"
       gradientTransform="translate(-20,0)" />
    <linearGradient
       x1="38.5"
       y1="33.5625"
       x2="39.0625"
       y2="35.497356"
       id="linearGradient7455"
       xlink:href="#linearGradient7223"
       gradientUnits="userSpaceOnUse"
       gradientTransform="translate(-20,0)" />
    <linearGradient
       x1="39.502918"
       y1="36.460838"
       x2="40.01115"
       y2="38.440475"
       id="linearGradient7452"
       xlink:href="#linearGradient7231"
       gradientUnits="userSpaceOnUse"
       gradientTransform="translate(-20,0)" />
    <linearGradient
       x1="48.496433"
       y1="36.460838"
       x2="48.982567"
       y2="38.4375"
       id="linearGradient7449"
       xlink:href="#linearGradient7231"
       gradientUnits="userSpaceOnUse"
       gradientTransform="translate(-20,0)" />
    <linearGradient
       x1="26.499495"
       y1="21.108738"
       x2="29.249495"
       y2="44.788391"
       id="linearGradient7287"
       xlink:href="#linearGradient7281"
       gradientUnits="userSpaceOnUse" />
    <linearGradient
       x1="23.334524"
       y1="12.556273"
       x2="23.334524"
       y2="28.203257"
       id="linearGradient8242"
       xlink:href="#linearGradient8236"
       gradientUnits="userSpaceOnUse"
       gradientTransform="translate(0,-1)" />
    <radialGradient
       cx="27.9375"
       cy="38.0625"
       r="12.0625"
       fx="27.9375"
       fy="38.0625"
       id="radialGradient8234"
       xlink:href="#linearGradient8228"
       gradientUnits="userSpaceOnUse"
       gradientTransform="matrix(1,0,0,0.8134715,0,7.0997409)" />
    <linearGradient
       x1="71.739273"
       y1="2.2823277"
       x2="71.739273"
       y2="5.5714717"
       id="linearGradient8222"
       xlink:href="#linearGradient8216"
       gradientUnits="userSpaceOnUse"
       gradientTransform="translate(-40,0)" />
    <radialGradient
       cx="64.5"
       cy="29.797501"
       r="10.5"
       fx="64.5"
       fy="29.797501"
       id="radialGradient8054"
       xlink:href="#linearGradient8046"
       gradientUnits="userSpaceOnUse"
       gradientTransform="matrix(1.328134,0,0,7.0060184,-61.16464,-173.01183)" />
    <linearGradient
       x1="64.5625"
       y1="42.625"
       x2="64.5"
       y2="41"
       id="linearGradient8010"
       xlink:href="#linearGradient8012"
       gradientUnits="userSpaceOnUse"
       gradientTransform="matrix(1,0,0,-1,-39,83.058522)" />
    <linearGradient
       x1="64.5625"
       y1="42.625"
       x2="64.5"
       y2="41"
       id="linearGradient8006"
       xlink:href="#linearGradient8000"
       gradientUnits="userSpaceOnUse"
       gradientTransform="matrix(1,0,0,-1,-39,83.058522)" />
    <linearGradient
       x1="64.375"
       y1="9.3125"
       x2="64.375"
       y2="23.438053"
       id="linearGradient7998"
       xlink:href="#linearGradient7992"
       gradientUnits="userSpaceOnUse"
       gradientTransform="translate(-89,-1)" />
    <linearGradient
       x1="65.4375"
       y1="19.690521"
       x2="65.4375"
       y2="10.6875"
       id="linearGradient7978"
       xlink:href="#linearGradient7972"
       gradientUnits="userSpaceOnUse"
       gradientTransform="translate(-40,-1)" />
    <linearGradient
       x1="59.510406"
       y1="8.375"
       x2="87.042259"
       y2="92.265244"
       id="linearGradient7923"
       xlink:href="#linearGradient7917"
       gradientUnits="userSpaceOnUse"
       gradientTransform="translate(-40,0)" />
    <linearGradient
       id="linearGradient7992">
      <stop
         style="stop-color:#ffffff;stop-opacity:1"
         offset="0"
         id="stop7994" />
      <stop
         style="stop-color:#d3d7cf;stop-opacity:0"
         offset="1"
         id="stop7996" />
    </linearGradient>
    <linearGradient
       id="linearGradient8000">
      <stop
         style="stop-color:#2e3436;stop-opacity:1"
         offset="0"
         id="stop8002" />
      <stop
         style="stop-color:#888a85;stop-opacity:1"
         offset="1"
         id="stop8004" />
    </linearGradient>
    <linearGradient
       id="linearGradient8012">
      <stop
         style="stop-color:#2e3436;stop-opacity:1"
         offset="0"
         id="stop8014" />
      <stop
         style="stop-color:#888a85;stop-opacity:1"
         offset="1"
         id="stop8016" />
    </linearGradient>
    <linearGradient
       id="linearGradient8228">
      <stop
         style="stop-color:#000000;stop-opacity:1"
         offset="0"
         id="stop8230" />
      <stop
         style="stop-color:#000000;stop-opacity:0"
         offset="1"
         id="stop8232" />
    </linearGradient>
    <linearGradient
       id="linearGradient8357">
      <stop
         style="stop-color:#ffffff;stop-opacity:1"
         offset="0"
         id="stop8359" />
      <stop
         style="stop-color:#888a85;stop-opacity:1"
         offset="1"
         id="stop8361" />
    </linearGradient>
    <linearGradient
       id="linearGradient7199">
      <stop
         style="stop-color:#ffffff;stop-opacity:1"
         offset="0"
         id="stop7201" />
      <stop
         style="stop-color:#ffffff;stop-opacity:0"
         offset="1"
         id="stop7203" />
    </linearGradient>
    <linearGradient
       id="linearGradient7215">
      <stop
         style="stop-color:#ffffff;stop-opacity:1"
         offset="0"
         id="stop7217" />
      <stop
         style="stop-color:#ffffff;stop-opacity:0"
         offset="1"
         id="stop7219" />
    </linearGradient>
    <linearGradient
       id="linearGradient7223">
      <stop
         style="stop-color:#ffffff;stop-opacity:1"
         offset="0"
         id="stop7225" />
      <stop
         style="stop-color:#ffffff;stop-opacity:0"
         offset="1"
         id="stop7227" />
    </linearGradient>
    <linearGradient
       id="linearGradient7231">
      <stop
         style="stop-color:#ffffff;stop-opacity:1"
         offset="0"
         id="stop7233" />
      <stop
         style="stop-color:#ffffff;stop-opacity:0"
         offset="1"
         id="stop7235" />
    </linearGradient>
    <linearGradient
       id="linearGradient7281">
      <stop
         style="stop-color:#2e3436;stop-opacity:1"
         offset="0"
         id="stop7283" />
      <stop
         style="stop-color:#888a85;stop-opacity:1"
         offset="1"
         id="stop7285" />
    </linearGradient>
    <linearGradient
       id="linearGradient7526">
      <stop
         style="stop-color:#888a85;stop-opacity:1"
         offset="0"
         id="stop7528" />
      <stop
         style="stop-color:#d3d7cf;stop-opacity:0.49803922"
         offset="1"
         id="stop7530" />
    </linearGradient>
  </defs>
  <g
     id="layer1">
    <path
       d="M 41 40 A 17.142857 8.5714283 0 1 1  6.7142868,40 A 17.142857 8.5714283 0 1 1  41 40 z"
       transform="matrix(0.831993,0,0,0.904687,-5.111713,-7.837026)"
       style="opacity:1;color:#000000;fill:url(#radialGradient4132);fill-opacity:1;fill-rule:nonzero;stroke:none;stroke-width:1;stroke-linecap:butt;stroke-linejoin:miter;marker:none;marker-start:none;marker-mid:none;marker-end:none;stroke-miterlimit:10;stroke-dasharray:none;stroke-dashoffset:0;stroke-opacity:1;visibility:visible;display:block;overflow:visible"
       id="path3366" />
    <path
       d="M 14.407615,5.8870363 C 8.3900691,5.8870363 3.4971471,8.0702504 3.4971463,10.755934 C 3.4971463,10.948653 3.4971463,28.570144 3.4971463,28.770852 C 3.4971463,31.456536 8.3900681,33.639749 14.407615,33.639749 C 20.425162,33.639749 25.512915,31.456535 25.512913,28.770852 C 25.512913,28.611883 25.512913,10.914902 25.512913,10.755934 C 25.512913,8.0702496 20.425162,5.8870363 14.407615,5.8870363 z "
       style="opacity:1;color:#000000;fill:url(#linearGradient4140);fill-opacity:1;fill-rule:nonzero;stroke:#767973;stroke-width:1.0000006;stroke-linecap:butt;stroke-linejoin:miter;marker:none;marker-start:none;marker-mid:none;marker-end:none;stroke-miterlimit:10;stroke-dasharray:none;stroke-dashoffset:0;stroke-opacity:1;visibility:visible;display:block;overflow:visible"
       id="path3068" />
    <path
       d="M 14.419394,6.5000002 C 8.943644,6.5000002 4.4912611,8.5384211 4.4912604,11.045986 C 4.4912604,11.225924 4.4912604,28.119991 4.4912604,28.307387 C 4.4912604,30.814954 8.943643,32.853373 14.419394,32.853373 C 19.895144,32.853373 24.524816,30.814953 24.524814,28.307387 C 24.524814,28.158963 24.524814,11.194413 24.524814,11.045986 C 24.524814,8.5384203 19.895144,6.5000002 14.419394,6.5000002 z "
       style="opacity:0.5443038;color:#000000;fill:none;fill-opacity:1;fill-rule:nonzero;stroke:url(#linearGradient4182);stroke-width:1.00000036;stroke-linecap:butt;stroke-linejoin:miter;marker:none;marker-start:none;marker-mid:none;marker-end:none;stroke-miterlimit:10;stroke-dasharray:none;stroke-dashoffset:0;stroke-opacity:1;visibility:visible;display:block;overflow:visible"
       id="path4174" />
    <path
       d="M 36.857142 14.071428 A 12.857142 5.5 0 1 1  11.142858,14.071428 A 12.857142 5.5 0 1 1  36.857142 14.071428 z"
       transform="matrix(0.792664,0,0,0.759881,-4.701535,-1.552877e-2)"
       style="opacity:0.467033;color:#000000;fill:#f0f0f0;fill-opacity:1;fill-rule:nonzero;stroke:url(#linearGradient3239);stroke-width:1.28849459;stroke-linecap:butt;stroke-linejoin:miter;marker:none;marker-start:none;marker-mid:none;marker-end:none;stroke-miterlimit:10;stroke-dasharray:none;stroke-dashoffset:0;stroke-opacity:1;visibility:visible;display:block;overflow:visible"
       id="path3364" />
    <path
       d="M 41 40 A 17.142857 8.5714283 0 1 1  6.7142868,40 A 17.142857 8.5714283 0 1 1  41 40 z"
       transform="matrix(0.285592,0,0,0.285592,7.630674,-3.417084)"
       style="opacity:0.30769234;color:#000000;fill:url(#radialGradient6946);fill-opacity:1;fill-rule:nonzero;stroke:none;stroke-width:1;stroke-linecap:butt;stroke-linejoin:miter;marker:none;marker-start:none;marker-mid:none;marker-end:none;stroke-miterlimit:10;stroke-dasharray:none;stroke-dashoffset:0;stroke-opacity:1;visibility:visible;display:block;overflow:visible"
       id="path6944" />
    <path
       d="M 14.695397,4.7062278 C 13.121553,4.7062278 11.056023,5.2674264 11.056023,5.9577853 C 11.056023,6.0073237 11.056023,7.972642 11.056023,8.0242345 C 11.056023,8.7145934 13.121553,9.275792 14.695397,9.275792 C 16.269241,9.275792 18.161208,8.7145934 18.161207,8.0242345 C 18.161207,7.9833716 18.161207,5.9986482 18.161207,5.9577853 C 18.161207,5.2674256 16.269241,4.7062278 14.695397,4.7062278 z "
       style="opacity:1;color:#000000;fill:#9d9e9b;fill-opacity:1;fill-rule:nonzero;stroke:#7d7f7a;stroke-width:1;stroke-linecap:butt;stroke-linejoin:miter;marker:none;marker-start:none;marker-mid:none;marker-end:none;stroke-miterlimit:10;stroke-dasharray:none;stroke-dashoffset:0;stroke-opacity:1;visibility:visible;display:block;overflow:visible"
       id="path3362" />
    <path
       d="M 36.857142 14.071428 A 12.857142 5.5 0 1 1  11.142858,14.071428 A 12.857142 5.5 0 1 1  36.857142 14.071428 z"
       transform="matrix(0.213728,0,0,0.150961,9.493084,4.052715)"
       style="opacity:1;color:#000000;fill:#d3d7cf;fill-opacity:1;fill-rule:nonzero;stroke:url(#linearGradient3255);stroke-width:5.5671978;stroke-linecap:butt;stroke-linejoin:miter;marker:none;marker-start:none;marker-mid:none;marker-end:none;stroke-miterlimit:10;stroke-dasharray:none;stroke-dashoffset:0;stroke-opacity:1;visibility:visible;display:block;overflow:visible"
       id="path6940" />
    <path
       d="M 36.857142 14.071428 A 12.857142 5.5 0 1 1  11.142858,14.071428 A 12.857142 5.5 0 1 1  36.857142 14.071428 z"
       transform="matrix(0.815128,0,0,0.76334,-4.779312,18.01318)"
       style="opacity:0.23626374;color:#000000;fill:#d3d7cf;fill-opacity:1;fill-rule:nonzero;stroke:url(#linearGradient3243);stroke-width:1.2677331;stroke-linecap:butt;stroke-linejoin:miter;marker:none;marker-start:none;marker-mid:none;marker-end:none;stroke-miterlimit:10;stroke-dasharray:none;stroke-dashoffset:0;stroke-opacity:1;visibility:visible;display:block;overflow:visible"
       id="path3241" />
    <path
       d="M 23.945195,9.421181 C 23.073626,8.6470578 22.336664,8.4113672 21.56379,8.0320273 L 21.80193,22.717366 L 23.945195,25.257532 L 23.945195,9.421181 z "
       style="opacity:0.68681317;color:#000000;fill:url(#linearGradient3253);fill-opacity:1;fill-rule:nonzero;stroke:none;stroke-width:0.99999946;stroke-linecap:butt;stroke-linejoin:miter;marker:none;marker-start:none;marker-mid:none;marker-end:none;stroke-miterlimit:10;stroke-dasharray:none;stroke-dashoffset:0;stroke-opacity:1;visibility:visible;display:block;overflow:visible"
       id="path3245" />
    <path
       d="M 14.492542,22.651496 C 9.4776454,22.757367 5.4813345,24.490275 5.4813345,26.602786 C 5.4813345,26.853221 5.4813345,27.8329 5.4813345,28.081631 C 5.4813345,30.262287 9.7182115,32.032919 14.95979,32.032921 C 20.201369,32.032921 24.460494,30.262287 24.460495,28.081631 C 24.460495,27.8329 24.460495,26.853221 24.460495,26.602786 C 24.460495,24.422129 20.201369,22.651496 14.95979,22.651496 C 14.795991,22.651496 14.654312,22.64808 14.492542,22.651496 z "
       style="opacity:0.61538463;color:#000000;fill:url(#linearGradient3344);fill-opacity:1;fill-rule:nonzero;stroke:#a40000;stroke-width:0.99621546;stroke-linecap:butt;stroke-linejoin:miter;marker:none;marker-start:none;marker-mid:none;marker-end:none;stroke-miterlimit:10;stroke-dasharray:none;stroke-dashoffset:0;stroke-opacity:1;visibility:visible;display:block;overflow:visible"
       id="path3275" />
    <path
       d="M 36.857142 14.071428 A 12.857142 5.5 0 1 1  11.142858,14.071428 A 12.857142 5.5 0 1 1  36.857142 14.071428 z"
       transform="matrix(0.738238,0,0,0.718266,-2.743118,16.5004)"
       style="opacity:1;color:#000000;fill:url(#linearGradient3354);fill-opacity:1;fill-rule:nonzero;stroke:url(#linearGradient3362);stroke-width:1.37328029;stroke-linecap:butt;stroke-linejoin:miter;marker:none;marker-start:none;marker-mid:none;marker-end:none;stroke-miterlimit:10;stroke-dasharray:none;stroke-dashoffset:0;stroke-opacity:1;visibility:visible;display:block;overflow:visible"
       id="path3277" />
    <path
       d="M 6.406727,14.304265 L 6.687378,27.494882 L 10.279716,28.505226 L 10.167456,15.37074 C 10.167456,15.37074 11.795233,15.37074 14.433357,15.202349 C 9.223378,15.336716 6.200856,13.892728 4.0492553,12.115184 C 5.162688,13.759266 6.406727,14.304265 6.406727,14.304265 z "
       style="opacity:1;color:#000000;fill:url(#linearGradient6930);fill-opacity:1;fill-rule:nonzero;stroke:none;stroke-width:1;stroke-linecap:butt;stroke-linejoin:miter;marker:none;marker-start:none;marker-mid:none;marker-end:none;stroke-miterlimit:4;stroke-dasharray:none;stroke-dashoffset:0;stroke-opacity:1;visibility:visible;display:block;overflow:visible"
       id="path6922" />
    <g
       transform="translate(-17.380203,-18.318217)"
       id="g4438" />
    <g
       transform="translate(8.782477,-49.072787)"
       id="g13531" />
    <g
       transform="translate(62.025297,-9.931407)"
       id="g3054" />
    <g
       transform="translate(106.0253,6.068589)"
       id="g13534" />
    <g
       transform="translate(36.612617,13.323163)"
       id="g3943" />
    <g
       transform="translate(10.553562,7.3565903e-2)"
       style="display:inline"
       id="g3676">
      <rect
         width="2"
         height="9"
         rx="1"
         ry="1"
         x="30.5"
         y="0.5625"
         style="opacity:1;fill:url(#linearGradient8222);fill-opacity:1;fill-rule:evenodd;stroke:#555753;stroke-width:0.99999994;stroke-linecap:round;stroke-linejoin:round;stroke-miterlimit:4;stroke-dasharray:none;stroke-opacity:1"
         id="rect7962" />
      <path
         d="M 40 38.0625 A 12.0625 9.8125 0 1 1  15.875,38.0625 A 12.0625 9.8125 0 1 1  40 38.0625 z"
         transform="matrix(1.0673575,0,0,0.4968153,-5.1943,23.214968)"
         style="opacity:0.4;fill:url(#radialGradient8234);fill-opacity:1;fill-rule:evenodd;stroke:none;stroke-width:1;stroke-linecap:round;stroke-linejoin:round;stroke-miterlimit:4;stroke-dasharray:none;stroke-opacity:1"
         id="path8226" />
      <path
         d="M 19.5625,5.5 C 16.753603,5.5 14.5,7.070666 14.5,9.03125 L 14.5,33.75 C 14.5,39.708578 16.976602,44.5 20.0625,44.5 L 28.9375,44.5 C 32.023397,44.5 34.5,39.708577 34.5,33.75 L 34.5,9.03125 C 34.5,7.070666 32.246396,5.5 29.4375,5.5 L 19.5625,5.5 z "
         style="opacity:1;fill:url(#radialGradient8054);fill-opacity:1;fill-rule:evenodd;stroke:#555753;stroke-width:1;stroke-linecap:round;stroke-linejoin:miter;stroke-miterlimit:4;stroke-dasharray:none;stroke-opacity:1"
         id="path7885" />
      <path
         d="M 19.5625,6 C 18.251247,6 17.065963,6.3684846 16.25,6.9375 C 15.434037,7.5065154 15,8.2425338 15,9.03125 L 15,33.75 C 15,36.660016 15.605563,39.275023 16.5625,41.125 C 17.519437,42.974977 18.778332,44 20.0625,44 L 28.9375,44 C 30.221668,44 31.480563,42.974977 32.4375,41.125 C 33.394437,39.275023 34,36.660016 34,33.75 L 34,9.03125 C 34,8.2425339 33.565963,7.5065155 32.75,6.9375 C 31.934037,6.3684845 30.748752,6 29.4375,6 L 19.5625,6 z "
         style="opacity:0.47761195;fill:url(#linearGradient7094);fill-opacity:1;fill-rule:evenodd;stroke:none;stroke-width:1;stroke-linecap:round;stroke-linejoin:miter;stroke-miterlimit:4;stroke-dasharray:none;stroke-opacity:1"
         id="path7086" />
      <rect
         width="15.999991"
         height="13"
         rx="3.0661337"
         ry="3.0661337"
         x="-32.499992"
         y="9.5"
         transform="scale(-1,1)"
         style="opacity:0.5970149;fill:none;fill-opacity:1;fill-rule:evenodd;stroke:url(#linearGradient7998);stroke-width:1;stroke-linecap:round;stroke-linejoin:miter;stroke-miterlimit:4;stroke-dasharray:none;stroke-opacity:1"
         id="rect7990" />
      <rect
         width="14"
         height="11"
         rx="2.0388288"
         ry="2.0388288"
         x="17.5"
         y="10.5"
         style="opacity:1;fill:url(#linearGradient7978);fill-opacity:1;fill-rule:evenodd;stroke:#888a85;stroke-width:0.99999994;stroke-linecap:round;stroke-linejoin:miter;stroke-miterlimit:4;stroke-dasharray:none;stroke-opacity:1"
         id="rect7889" />
      <path
         d="M 19.5625,6.5 C 18.343394,6.5 17.249773,6.842685 16.53125,7.34375 C 15.812727,7.844815 15.5,8.431952 15.5,9.03125 L 15.5,33.75 C 15.5,36.591524 16.090474,39.147929 17,40.90625 C 17.909526,42.664571 19.034198,43.5 20.0625,43.5 L 28.9375,43.5 C 29.965802,43.5 31.090474,42.664571 32,40.90625 C 32.909526,39.147929 33.5,36.591523 33.5,33.75 L 33.5,9.03125 C 33.5,8.431952 33.187274,7.844815 32.46875,7.34375 C 31.750226,6.842685 30.656606,6.5 29.4375,6.5 L 19.5625,6.5 z "
         style="opacity:0.86194033;fill:none;fill-opacity:1;fill-rule:evenodd;stroke:url(#linearGradient7923);stroke-width:1;stroke-linecap:round;stroke-linejoin:miter;stroke-miterlimit:4;stroke-opacity:1"
         id="path7896" />
      <path
         d="M 25.5,41.558522 L 25.5,40.5"
         style="fill:none;fill-opacity:1;fill-rule:evenodd;stroke:url(#linearGradient8010);stroke-width:1.00000012px;stroke-linecap:round;stroke-linejoin:miter;stroke-opacity:1"
         id="path7900" />
      <path
         d="M 23.5,41.558522 L 23.5,40.558522"
         style="fill:none;fill-opacity:1;fill-rule:evenodd;stroke:url(#linearGradient8006);stroke-width:1px;stroke-linecap:round;stroke-linejoin:miter;stroke-opacity:1"
         id="path7905" />
      <rect
         width="1"
         height="1"
         x="25"
         y="14"
         style="opacity:1;fill:#3465a4;fill-opacity:1;fill-rule:evenodd;stroke:none;stroke-width:1;stroke-linecap:round;stroke-linejoin:round;stroke-miterlimit:4;stroke-dasharray:none;stroke-opacity:1"
         id="rect8057" />
      <rect
         width="1"
         height="2"
         x="27"
         y="13"
         style="opacity:1;fill:#3465a4;fill-opacity:1;fill-rule:evenodd;stroke:none;stroke-width:1;stroke-linecap:round;stroke-linejoin:round;stroke-miterlimit:4;stroke-dasharray:none;stroke-opacity:1"
         id="rect8059" />
      <rect
         width="1"
         height="3"
         x="29"
         y="12"
         style="opacity:1;fill:#3465a4;fill-opacity:1;fill-rule:evenodd;stroke:none;stroke-width:1;stroke-linecap:round;stroke-linejoin:round;stroke-miterlimit:4;stroke-dasharray:none;stroke-opacity:1"
         id="rect8061" />
      <g
         transform="translate(-50,-1)"
         id="g8067">
        <rect
           width="1"
           height="1"
           x="69"
           y="15"
           style="opacity:1;fill:#3465a4;fill-opacity:1;fill-rule:evenodd;stroke:none;stroke-width:1;stroke-linecap:round;stroke-linejoin:round;stroke-miterlimit:4;stroke-dasharray:none;stroke-opacity:1"
           id="rect8063" />
        <rect
           width="1"
           height="1"
           x="69"
           y="13"
           style="opacity:1;fill:#3465a4;fill-opacity:1;fill-rule:evenodd;stroke:none;stroke-width:1;stroke-linecap:round;stroke-linejoin:round;stroke-miterlimit:4;stroke-dasharray:none;stroke-opacity:1"
           id="rect8065" />
      </g>
      <rect
         width="3.0000002"
         height="1"
         x="19"
         y="19"
         style="opacity:1;fill:#3465a4;fill-opacity:1;fill-rule:evenodd;stroke:none;stroke-width:1;stroke-linecap:round;stroke-linejoin:round;stroke-miterlimit:4;stroke-dasharray:none;stroke-opacity:1"
         id="rect8074" />
      <rect
         width="3.0000002"
         height="1"
         x="27"
         y="19"
         style="opacity:1;fill:#3465a4;fill-opacity:1;fill-rule:evenodd;stroke:none;stroke-width:1;stroke-linecap:round;stroke-linejoin:round;stroke-miterlimit:4;stroke-dasharray:none;stroke-opacity:1"
         id="rect8076" />
      <rect
         width="13"
         height="1"
         x="18"
         y="18"
         style="opacity:0.39179107;fill:#729fcf;fill-opacity:1;fill-rule:evenodd;stroke:none;stroke-width:1;stroke-linecap:round;stroke-linejoin:round;stroke-miterlimit:4;stroke-dasharray:none;stroke-opacity:1"
         id="rect8078" />
      <rect
         width="12"
         height="9"
         rx="1.0075788"
         ry="1.0075788"
         x="18.5"
         y="11.5"
         style="opacity:0.09328356;fill:none;fill-opacity:1;fill-rule:evenodd;stroke:url(#linearGradient8242);stroke-width:0.99999994;stroke-linecap:round;stroke-linejoin:miter;stroke-miterlimit:4;stroke-dasharray:none;stroke-opacity:1"
         id="rect7980" />
      <path
         d="M 71.953125 1.5937499 A 0.453125 0.421875 0 1 1  71.046875,1.5937499 A 0.453125 0.421875 0 1 1  71.953125 1.5937499 z"
         transform="matrix(1.6551692,0,0,1.7962963,-87.0946,-1.105035)"
         style="opacity:1;fill:#eeeeec;fill-opacity:1;fill-rule:evenodd;stroke:none;stroke-width:1;stroke-linecap:round;stroke-linejoin:round;stroke-miterlimit:4;stroke-dasharray:none;stroke-opacity:1"
         id="path8224" />
      <path
         d="M 16.5,24.631663 L 16.5,27.6875 C 16.5,31.386677 16.899906,34.184967 17.59375,36.15625 C 17.940672,37.141892 18.349737,37.906718 18.90625,38.5 C 19.462763,39.093282 20.209189,39.5 21,39.5 L 28,39.5 C 28.785425,39.5 29.535575,39.119774 30.09375,38.53125 C 30.651925,37.942726 31.058872,37.138877 31.40625,36.15625 C 32.101007,34.190996 32.5,31.417446 32.5,27.6875 L 32.5,24.631663 C 31.801719,23.004152 30.471547,23.5 28.96875,23.5 L 20.03125,23.5 C 18.17716,23.5 17.474359,23.061376 16.5,24.631663 z "
         style="fill:none;fill-opacity:1;fill-rule:evenodd;stroke:url(#linearGradient7511);stroke-width:0.99999994;stroke-linecap:round;stroke-linejoin:miter;stroke-miterlimit:4;stroke-opacity:1"
         id="path8355" />
      <path
         d="M 18.0625,24.5 C 17.750875,24.5 17.5,24.750875 17.5,25.0625 L 17.5,25.9375 C 17.5,26.249125 17.750875,26.5 18.0625,26.5 L 20.9375,26.5 C 21.249125,26.5 21.5,26.249125 21.5,25.9375 L 21.5,25.0625 C 21.5,24.750875 21.249125,24.5 20.9375,24.5 L 20.03125,24.5 L 18.0625,24.5 z M 23.0625,24.5 C 22.750875,24.5 22.5,24.750875 22.5,25.0625 L 22.5,25.9375 C 22.5,26.249125 22.750875,26.5 23.0625,26.5 L 25.9375,26.5 C 26.249125,26.5 26.5,26.249125 26.5,25.9375 L 26.5,25.0625 C 26.5,24.750875 26.249125,24.5 25.9375,24.5 L 23.0625,24.5 z M 28.0625,24.5 C 27.750875,24.5 27.5,24.750875 27.5,25.0625 L 27.5,25.9375 C 27.5,26.249125 27.750875,26.5 28.0625,26.5 L 30.9375,26.5 C 31.249125,26.5 31.5,26.249125 31.5,25.9375 L 31.5,25.0625 C 31.5,24.750875 31.249125,24.5 30.9375,24.5 L 28.96875,24.5 L 28.0625,24.5 z M 18.0625,27.5 C 17.772689,27.5 17.531798,27.718965 17.5,28 C 17.497607,28.021153 17.5,28.040686 17.5,28.0625 C 17.503018,28.442419 17.519661,28.797352 17.53125,29.15625 C 17.616416,29.358275 17.828781,29.5 18.0625,29.5 L 20.9375,29.5 C 21.249125,29.5 21.5,29.249125 21.5,28.9375 L 21.5,28.0625 C 21.5,27.750875 21.249125,27.5 20.9375,27.5 L 18.0625,27.5 z M 23.0625,27.5 C 22.750875,27.5 22.5,27.750875 22.5,28.0625 L 22.5,28.9375 C 22.5,29.249125 22.750875,29.5 23.0625,29.5 L 25.9375,29.5 C 26.249125,29.5 26.5,29.249125 26.5,28.9375 L 26.5,28.0625 C 26.5,27.750875 26.249125,27.5 25.9375,27.5 L 23.0625,27.5 z M 28.0625,27.5 C 27.750875,27.5 27.5,27.750875 27.5,28.0625 L 27.5,28.9375 C 27.5,29.249125 27.750875,29.5 28.0625,29.5 L 30.9375,29.5 C 31.171219,29.5 31.383584,29.358275 31.46875,29.15625 C 31.480339,28.794911 31.496982,28.445527 31.5,28.0625 C 31.500172,28.040628 31.499856,28.021943 31.5,28 C 31.468202,27.718965 31.227311,27.5 30.9375,27.5 L 28.0625,27.5 z M 18.0625,30.5 C 17.882716,30.5 17.727835,30.588256 17.625,30.71875 C 17.668776,31.320774 17.712015,31.906145 17.78125,32.4375 C 17.863498,32.484483 17.960623,32.5 18.0625,32.5 L 20.9375,32.5 C 21.249125,32.5 21.5,32.249125 21.5,31.9375 L 21.5,31.0625 C 21.5,30.750875 21.249125,30.5 20.9375,30.5 L 18.0625,30.5 z M 23.0625,30.5 C 22.750875,30.5 22.5,30.750875 22.5,31.0625 L 22.5,31.9375 C 22.5,32.249125 22.750875,32.5 23.0625,32.5 L 25.9375,32.5 C 26.249125,32.5 26.5,32.249125 26.5,31.9375 L 26.5,31.0625 C 26.5,30.750875 26.249125,30.5 25.9375,30.5 L 23.0625,30.5 z M 28.0625,30.5 C 27.750875,30.5 27.5,30.750875 27.5,31.0625 L 27.5,31.9375 C 27.5,32.249125 27.750875,32.5 28.0625,32.5 L 30.9375,32.5 C 31.039377,32.5 31.136502,32.484483 31.21875,32.4375 C 31.286593,31.911149 31.331935,31.315462 31.375,30.71875 C 31.272165,30.588256 31.117284,30.5 30.9375,30.5 L 28.0625,30.5 z M 17.96875,33.5 C 18.103209,34.248868 18.251972,34.921542 18.4375,35.5 L 20.9375,35.5 C 21.249125,35.5 21.5,35.249125 21.5,34.9375 L 21.5,34.0625 C 21.5,33.750875 21.249125,33.5 20.9375,33.5 L 18.0625,33.5 C 18.029779,33.5 17.999911,33.494688 17.96875,33.5 z M 23.0625,33.5 C 22.750875,33.5 22.5,33.750875 22.5,34.0625 L 22.5,34.9375 C 22.5,35.249125 22.750875,35.5 23.0625,35.5 L 25.9375,35.5 C 26.249125,35.5 26.5,35.249125 26.5,34.9375 L 26.5,34.0625 C 26.5,33.750875 26.249125,33.5 25.9375,33.5 L 23.0625,33.5 z M 28.0625,33.5 C 27.750875,33.5 27.5,33.750875 27.5,34.0625 L 27.5,34.9375 C 27.5,35.249125 27.750875,35.5 28.0625,35.5 L 30.5625,35.5 C 30.746275,34.925272 30.897969,34.245333 31.03125,33.5 C 31.000089,33.494688 30.970221,33.5 30.9375,33.5 L 28.0625,33.5 z M 18.9375,36.5 C 18.890307,36.5 18.855821,36.512357 18.8125,36.53125 C 19.410622,37.842551 20.169694,38.5 21,38.5 L 21.0625,38.5 C 21.296219,38.5 21.5,38.249125 21.5,37.9375 L 21.5,37.0625 C 21.5,36.750875 21.296218,36.5 21.0625,36.5 L 18.9375,36.5 z M 23.0625,36.5 C 22.750875,36.5 22.5,36.750875 22.5,37.0625 L 22.5,37.9375 C 22.5,38.249125 22.750875,38.5 23.0625,38.5 L 25.9375,38.5 C 26.249125,38.5 26.5,38.249125 26.5,37.9375 L 26.5,37.0625 C 26.5,36.750875 26.249125,36.5 25.9375,36.5 L 23.0625,36.5 z M 27.9375,36.5 C 27.703781,36.5 27.5,36.750875 27.5,37.0625 L 27.5,37.9375 C 27.5,38.249125 27.703782,38.5 27.9375,38.5 L 28,38.5 C 28.835261,38.5 29.587757,37.850072 30.1875,36.53125 C 30.144179,36.512357 30.109693,36.5 30.0625,36.5 L 27.9375,36.5 z "
         style="fill:url(#linearGradient7532);fill-opacity:1;fill-rule:evenodd;stroke:url(#linearGradient7287);stroke-width:0.97000003;stroke-linecap:round;stroke-linejoin:round;stroke-miterlimit:4;stroke-dasharray:none;stroke-opacity:1"
         id="path8246" />
      <g
         style="opacity:0.85"
         id="g7493">
        <path
           d="M 26.5,31.0625 C 26.5,30.750875 26.249125,30.5 25.9375,30.5 L 23.0625,30.5 C 22.750875,30.5 22.5,30.750875 22.5,31.0625 L 22.5,31.9375"
           style="opacity:1;fill:none;fill-opacity:1;fill-rule:evenodd;stroke:url(#linearGradient7491);stroke-width:1;stroke-linecap:round;stroke-linejoin:round;stroke-miterlimit:4;stroke-dasharray:none;stroke-opacity:1"
           id="path7193" />
        <path
           d="M 26.5,34.0625 C 26.5,33.750875 26.249125,33.5 25.9375,33.5 L 23.0625,33.5 C 22.750875,33.5 22.5,33.750875 22.5,34.0625 L 22.5,34.9375"
           style="opacity:1;fill:none;fill-opacity:1;fill-rule:evenodd;stroke:url(#linearGradient7488);stroke-width:1;stroke-linecap:round;stroke-linejoin:round;stroke-miterlimit:4;stroke-dasharray:none;stroke-opacity:1"
           id="path7195" />
        <path
           d="M 26.5,37.0625 C 26.5,36.750875 26.249125,36.5 25.9375,36.5 L 23.0625,36.5 C 22.750875,36.5 22.5,36.750875 22.5,37.0625 L 22.5,37.9375"
           style="opacity:1;fill:none;fill-opacity:1;fill-rule:evenodd;stroke:url(#linearGradient7485);stroke-width:1;stroke-linecap:round;stroke-linejoin:round;stroke-miterlimit:4;stroke-dasharray:none;stroke-opacity:1"
           id="path7197" />
        <path
           d="M 21.5,25.0625 C 21.5,24.750875 21.249125,24.5 20.9375,24.5 L 20.03125,24.5 L 18.0625,24.5 C 17.750875,24.5 17.5,24.750875 17.5,25.0625 L 17.5,25.9375"
           style="opacity:1;fill:none;fill-opacity:1;fill-rule:evenodd;stroke:url(#linearGradient7482);stroke-width:1;stroke-linecap:round;stroke-linejoin:round;stroke-miterlimit:4;stroke-dasharray:none;stroke-opacity:1"
           id="path7191" />
        <path
           d="M 26.5,25.0625 C 26.5,24.750875 26.249125,24.5 25.9375,24.5 L 23.0625,24.5 C 22.750875,24.5 22.5,24.750875 22.5,25.0625 L 22.5,25.9375"
           style="opacity:1;fill:none;fill-opacity:1;fill-rule:evenodd;stroke:url(#linearGradient7479);stroke-width:1;stroke-linecap:round;stroke-linejoin:round;stroke-miterlimit:4;stroke-dasharray:none;stroke-opacity:1"
           id="path7311" />
        <path
           d="M 31.5,25.0625 C 31.5,24.750875 31.249125,24.5 30.9375,24.5 L 28.96875,24.5 L 28.0625,24.5 C 27.750875,24.5 27.5,24.750875 27.5,25.0625 L 27.5,25.9375"
           style="opacity:1;fill:none;fill-opacity:1;fill-rule:evenodd;stroke:url(#linearGradient7476);stroke-width:1;stroke-linecap:round;stroke-linejoin:round;stroke-miterlimit:4;stroke-dasharray:none;stroke-opacity:1"
           id="path7313" />
        <path
           d="M 21.5,28.0625 C 21.5,27.750875 21.249125,27.5 20.9375,27.5 L 20.03125,27.5 L 18.0625,27.5 C 17.750875,27.5 17.5,27.750875 17.5,28.0625 L 17.5,28.9375"
           style="opacity:1;fill:none;fill-opacity:1;fill-rule:evenodd;stroke:url(#linearGradient7473);stroke-width:1;stroke-linecap:round;stroke-linejoin:round;stroke-miterlimit:4;stroke-dasharray:none;stroke-opacity:1"
           id="path7341" />
        <path
           d="M 26.5,28.0625 C 26.5,27.750875 26.249125,27.5 25.9375,27.5 L 23.0625,27.5 C 22.750875,27.5 22.5,27.750875 22.5,28.0625 L 22.5,28.9375"
           style="opacity:1;fill:none;fill-opacity:1;fill-rule:evenodd;stroke:url(#linearGradient7470);stroke-width:1;stroke-linecap:round;stroke-linejoin:round;stroke-miterlimit:4;stroke-dasharray:none;stroke-opacity:1"
           id="path7343" />
        <path
           d="M 31.5,28.0625 C 31.5,27.750875 31.249125,27.5 30.9375,27.5 L 28.96875,27.5 L 28.0625,27.5 C 27.750875,27.5 27.5,27.750875 27.5,28.0625 L 27.5,28.9375"
           style="opacity:1;fill:none;fill-opacity:1;fill-rule:evenodd;stroke:url(#linearGradient7467);stroke-width:1;stroke-linecap:round;stroke-linejoin:round;stroke-miterlimit:4;stroke-dasharray:none;stroke-opacity:1"
           id="path7345" />
        <path
           d="M 21.5,31.0625 C 21.5,30.750875 21.249125,30.5 20.9375,30.5 L 18.0625,30.5 C 17.882716,30.5 17.727835,30.588256 17.625,30.71875 C 17.668776,31.320774 17.712015,31.906145 17.78125,32.4375"
           style="opacity:1;fill:none;fill-opacity:1;fill-rule:evenodd;stroke:url(#linearGradient7464);stroke-width:1;stroke-linecap:round;stroke-linejoin:round;stroke-miterlimit:4;stroke-dasharray:none;stroke-opacity:1"
           id="path7353" />
        <path
           d="M 31.375,30.71875 C 31.272165,30.588256 31.117284,30.5 30.9375,30.5 L 28.0625,30.5 C 27.750875,30.5 27.5,30.750875 27.5,31.0625 L 27.5,31.9375"
           style="opacity:1;fill:none;fill-opacity:1;fill-rule:evenodd;stroke:url(#linearGradient7461);stroke-width:1;stroke-linecap:round;stroke-linejoin:round;stroke-miterlimit:4;stroke-dasharray:none;stroke-opacity:1"
           id="path7355" />
        <path
           d="M 31.03125,33.5 C 31.000089,33.494688 30.970221,33.5 30.9375,33.5 L 28.0625,33.5 C 27.750875,33.5 27.5,33.750875 27.5,34.0625 L 27.5,34.9375"
           style="opacity:1;fill:none;fill-opacity:1;fill-rule:evenodd;stroke:url(#linearGradient7458);stroke-width:1;stroke-linecap:round;stroke-linejoin:round;stroke-miterlimit:4;stroke-dasharray:none;stroke-opacity:1"
           id="path7361" />
        <path
           d="M 21.5,34.0625 C 21.5,33.750875 21.249125,33.5 20.9375,33.5 L 18.0625,33.5 C 18.029779,33.5 17.999911,33.494688 17.96875,33.5 C 18.103209,34.248868 18.251972,34.921542 18.4375,35.5"
           style="opacity:1;fill:none;fill-opacity:1;fill-rule:evenodd;stroke:url(#linearGradient7455);stroke-width:1;stroke-linecap:round;stroke-linejoin:round;stroke-miterlimit:4;stroke-dasharray:none;stroke-opacity:1"
           id="path7363" />
        <path
           d="M 21.5,37.0625 C 21.5,36.750875 21.296218,36.5 21.0625,36.5 L 18.9375,36.5 C 18.890307,36.5 18.855821,36.512357 18.8125,36.53125"
           style="opacity:1;fill:none;fill-opacity:1;fill-rule:evenodd;stroke:url(#linearGradient7452);stroke-width:1;stroke-linecap:round;stroke-linejoin:round;stroke-miterlimit:4;stroke-dasharray:none;stroke-opacity:1"
           id="path7369" />
        <path
           d="M 30.1875,36.53125 C 30.144179,36.512357 30.109693,36.5 30.0625,36.5 L 27.9375,36.5 C 27.703781,36.5 27.5,36.750875 27.5,37.0625 L 27.5,37.9375"
           style="opacity:1;fill:none;fill-opacity:1;fill-rule:evenodd;stroke:url(#linearGradient7449);stroke-width:1;stroke-linecap:round;stroke-linejoin:round;stroke-miterlimit:4;stroke-dasharray:none;stroke-opacity:1"
           id="path7371" />
      </g>
      <g
         transform="translate(0,1)"
         style="fill:#555753"
         id="g7135" />
      <path
         d="M 24.5,8.558522 L 24.5,7.5"
         style="fill:none;fill-opacity:1;fill-rule:evenodd;stroke:url(#linearGradient6116);stroke-width:1.00000012px;stroke-linecap:round;stroke-linejoin:miter;stroke-opacity:1"
         id="path6112" />
      <path
         d="M 22.5,8.558522 L 22.5,7.558522"
         style="fill:none;fill-opacity:1;fill-rule:evenodd;stroke:url(#linearGradient6118);stroke-width:1px;stroke-linecap:round;stroke-linejoin:miter;stroke-opacity:1"
         id="path6114" />
      <path
         d="M 26.5,8.558522 L 26.5,7.5"
         style="fill:none;fill-opacity:1;fill-rule:evenodd;stroke:url(#linearGradient6122);stroke-width:1.00000012px;stroke-linecap:round;stroke-linejoin:miter;stroke-opacity:1"
         id="path6120" />
    </g>
  </g>
  <g
     id="layer2" />
</svg>
