<?xml version="1.0" encoding="UTF-8" standalone="no"?>
<!-- Created with Inkscape (http://www.inkscape.org/) -->
<svg
   xmlns:svg="http://www.w3.org/2000/svg"
   xmlns="http://www.w3.org/2000/svg"
   xmlns:xlink="http://www.w3.org/1999/xlink"
   version="1.0"
   width="48"
   height="48"
   id="svg1328">
  <defs
     id="defs3">
    <linearGradient
       id="linearGradient3260">
      <stop
         style="stop-color:#3465a4;stop-opacity:1"
         offset="0"
         id="stop3262" />
      <stop
         style="stop-color:#8fb1dc;stop-opacity:1"
         offset="1"
         id="stop3264" />
    </linearGradient>
    <linearGradient
       id="linearGradient3815">
      <stop
         style="stop-color:#204a87;stop-opacity:1"
         offset="0"
         id="stop3817" />
      <stop
         style="stop-color:#98b8e7;stop-opacity:1"
         offset="1"
         id="stop3819" />
    </linearGradient>
    <linearGradient
       id="linearGradient3805">
      <stop
         style="stop-color:#284e7f;stop-opacity:1"
         offset="0"
         id="stop3807" />
      <stop
         style="stop-color:#6694cf;stop-opacity:1"
         offset="0.5"
         id="stop3813" />
      <stop
         style="stop-color:#234570;stop-opacity:1"
         offset="1"
         id="stop3809" />
    </linearGradient>
    <linearGradient
       id="linearGradient3247">
      <stop
         style="stop-color:#f0f0f0;stop-opacity:1"
         offset="0"
         id="stop3249" />
      <stop
         style="stop-color:#f0f0f0;stop-opacity:0"
         offset="1"
         id="stop3251" />
    </linearGradient>
    <linearGradient
       id="linearGradient3233">
      <stop
         style="stop-color:#eeeeec;stop-opacity:1"
         offset="0"
         id="stop3235" />
      <stop
         style="stop-color:#a3a398;stop-opacity:1"
         offset="1"
         id="stop3237" />
    </linearGradient>
    <linearGradient
       id="linearGradient6924">
      <stop
         style="stop-color:#ffffff;stop-opacity:1"
         offset="0"
         id="stop6926" />
      <stop
         style="stop-color:#ffffff;stop-opacity:0"
         offset="1"
         id="stop6928" />
    </linearGradient>
    <linearGradient
       id="linearGradient4176">
      <stop
         style="stop-color:#ffffff;stop-opacity:1"
         offset="0"
         id="stop4178" />
      <stop
         style="stop-color:#ffffff;stop-opacity:0"
         offset="1"
         id="stop4180" />
    </linearGradient>
    <linearGradient
       id="linearGradient4134">
      <stop
         style="stop-color:#d6d7d5;stop-opacity:1"
         offset="0"
         id="stop4136" />
      <stop
         style="stop-color:#d1d2d0;stop-opacity:1"
         offset="0.25"
         id="stop4148" />
      <stop
         style="stop-color:#a5a6a3;stop-opacity:1"
         offset="0.5"
         id="stop4142" />
      <stop
         style="stop-color:#dddedc;stop-opacity:1"
         offset="1"
         id="stop4138" />
    </linearGradient>
    <linearGradient
       id="linearGradient4126">
      <stop
         style="stop-color:#000000;stop-opacity:1"
         offset="0"
         id="stop4128" />
      <stop
         style="stop-color:#000000;stop-opacity:0"
         offset="1"
         id="stop4130" />
    </linearGradient>
    <radialGradient
       cx="23.857143"
       cy="40"
       r="17.142857"
       fx="23.857143"
       fy="40"
       id="radialGradient4132"
       xlink:href="#linearGradient4126"
       gradientUnits="userSpaceOnUse"
       gradientTransform="matrix(1,0,0,0.5,0,20)" />
    <linearGradient
       x1="9.3030529"
       y1="26.71875"
       x2="38.826412"
       y2="26.71875"
       id="linearGradient4140"
       xlink:href="#linearGradient4134"
       gradientUnits="userSpaceOnUse"
       gradientTransform="matrix(1.010754,0,0,0.991346,-0.183016,-3.826537)" />
    <linearGradient
       x1="17.160095"
       y1="14.004482"
       x2="37.969398"
       y2="56.575912"
       id="linearGradient4182"
       xlink:href="#linearGradient4176"
       gradientUnits="userSpaceOnUse"
       gradientTransform="matrix(1.010754,0,0,0.992756,-0.183016,-3.832743)" />
    <linearGradient
       x1="16.07143"
       y1="19.5"
       x2="16.035715"
       y2="31.75"
       id="linearGradient6930"
       xlink:href="#linearGradient6924"
       gradientUnits="userSpaceOnUse"
       gradientTransform="matrix(1.010754,0,0,1,-0.183017,-1.32786)" />
    <radialGradient
       cx="23.857143"
       cy="40"
       r="17.142857"
       fx="23.857143"
       fy="40"
       id="radialGradient6946"
       xlink:href="#linearGradient4126"
       gradientUnits="userSpaceOnUse"
       gradientTransform="matrix(1,0,0,0.5,0,20)" />
    <linearGradient
       x1="34.244171"
       y1="17.695425"
       x2="34.244171"
       y2="29.91827"
       id="linearGradient3253"
       xlink:href="#linearGradient3247"
       gradientUnits="userSpaceOnUse"
       gradientTransform="matrix(1.010754,0,0,1,-0.183017,-2.185003)" />
    <linearGradient
       x1="24"
       y1="17.245949"
       x2="23.433737"
       y2="8.0476589"
       id="linearGradient3255"
       xlink:href="#linearGradient3233"
       gradientUnits="userSpaceOnUse" />
    <linearGradient
       x1="11.003058"
       y1="32.489445"
       x2="32.396713"
       y2="32.489445"
       id="linearGradient3811"
       xlink:href="#linearGradient3805"
       gradientUnits="userSpaceOnUse"
       gradientTransform="matrix(0.989992,0,0,1,0.912613,-2.021202)" />
    <linearGradient
       x1="25.698481"
       y1="11.170371"
       x2="25.573168"
       y2="20.118456"
       id="linearGradient3821"
       xlink:href="#linearGradient3815"
       gradientUnits="userSpaceOnUse" />
    <linearGradient
       x1="21.486856"
       y1="25.114395"
       x2="21.756248"
       y2="5.5616603"
       id="linearGradient3266"
       xlink:href="#linearGradient3260"
       gradientUnits="userSpaceOnUse" />
    <linearGradient
       x1="24"
       y1="17.245949"
       x2="23.433737"
       y2="8.0476589"
       id="linearGradient4230"
       xlink:href="#linearGradient3233"
       gradientUnits="userSpaceOnUse" />
  </defs>
  <g
     id="layer1">
    <path
       d="M 41 40 A 17.142857 8.5714283 0 1 1  6.7142868,40 A 17.142857 8.5714283 0 1 1  41 40 z"
       transform="matrix(1.05,0,0,1.163968,-1.050001,-13.53559)"
       style="opacity:1;color:#000000;fill:url(#radialGradient4132);fill-opacity:1;fill-rule:nonzero;stroke:none;stroke-width:1;stroke-linecap:butt;stroke-linejoin:miter;marker:none;marker-start:none;marker-mid:none;marker-end:none;stroke-miterlimit:10;stroke-dasharray:none;stroke-dashoffset:0;stroke-opacity:1;visibility:visible;display:block;overflow:visible"
       id="path3366" />
    <path
       d="M 24.011908,5.0026374 C 16.067961,5.0026374 9.6086644,7.7808855 9.6086634,11.198551 C 9.6086634,11.443795 9.6086634,33.868017 9.6086634,34.123427 C 9.6086634,37.541093 16.06796,40.31934 24.011908,40.31934 C 31.955856,40.31934 38.672355,37.541092 38.672353,34.123427 C 38.672353,33.921132 38.672353,11.400846 38.672353,11.198551 C 38.672353,7.7808845 31.955855,5.0026374 24.011908,5.0026374 z "
       style="opacity:1;color:#000000;fill:url(#linearGradient4140);fill-opacity:1;fill-rule:nonzero;stroke:#767973;stroke-width:1;stroke-linecap:butt;stroke-linejoin:miter;marker:none;marker-start:none;marker-mid:none;marker-end:none;stroke-miterlimit:10;stroke-dasharray:none;stroke-dashoffset:0;stroke-opacity:1;visibility:visible;display:block;overflow:visible"
       id="path3068" />
    <path
       d="M 23.455862,18.875039 C 16.846436,19.009765 11.579464,21.214977 11.579464,23.903252 C 11.579464,24.221943 11.579464,33.093633 11.579464,33.410156 C 11.579464,36.185149 17.163491,38.438366 24.071674,38.438368 C 30.979856,38.438368 36.593208,36.185149 36.593209,33.410156 C 36.593209,33.093633 36.593209,24.221943 36.593209,23.903252 C 36.593209,21.128258 30.979856,18.87504 24.071674,18.875039 C 23.855794,18.875039 23.669068,18.870693 23.455862,18.875039 z "
       style="opacity:0.79120878;color:#000000;fill:url(#linearGradient3811);fill-opacity:1;fill-rule:nonzero;stroke:#204a87;stroke-width:0.99621499;stroke-linecap:butt;stroke-linejoin:miter;marker:none;marker-start:none;marker-mid:none;marker-end:none;stroke-miterlimit:10;stroke-dasharray:none;stroke-dashoffset:0;stroke-opacity:1;visibility:visible;display:block;overflow:visible"
       id="path3275" />
    <path
       d="M 24.020624,5.7826643 C 16.614063,5.7826643 10.59172,8.376656 10.591719,11.567657 C 10.591719,11.796637 10.591719,33.295174 10.591719,33.533645 C 10.591719,36.724648 16.614062,39.318638 24.020624,39.318638 C 31.427184,39.318638 37.68933,36.724647 37.689328,33.533645 C 37.689328,33.344768 37.689328,11.756537 37.689328,11.567657 C 37.689328,8.376655 31.427183,5.7826643 24.020624,5.7826643 z "
       style="opacity:0.5443038;color:#000000;fill:none;fill-opacity:1;fill-rule:nonzero;stroke:url(#linearGradient4182);stroke-width:1.00000012;stroke-linecap:butt;stroke-linejoin:miter;marker:none;marker-start:none;marker-mid:none;marker-end:none;stroke-miterlimit:10;stroke-dasharray:none;stroke-dashoffset:0;stroke-opacity:1;visibility:visible;display:block;overflow:visible"
       id="path4174" />
    <path
       d="M 36.857142 14.071428 A 12.857142 5.5 0 1 1  11.142858,14.071428 A 12.857142 5.5 0 1 1  36.857142 14.071428 z"
       transform="matrix(0.972641,0,0,0.865862,0.742969,11.55384)"
       style="opacity:1;color:#000000;fill:url(#linearGradient3266);fill-opacity:1;fill-rule:nonzero;stroke:url(#linearGradient3821);stroke-width:1.08968079;stroke-linecap:butt;stroke-linejoin:miter;marker:none;marker-start:none;marker-mid:none;marker-end:none;stroke-miterlimit:10;stroke-dasharray:none;stroke-dashoffset:0;stroke-opacity:1;visibility:visible;display:block;overflow:visible"
       id="path3277" />
    <path
       d="M 36.063047,9.500013 C 34.942005,8.514903 33.994098,8.214975 33,7.7322461 L 33.306304,26.420069 L 36.063047,29.652556 L 36.063047,9.500013 z "
       style="opacity:1;color:#000000;fill:url(#linearGradient3253);fill-opacity:1;fill-rule:nonzero;stroke:none;stroke-width:0.99999946;stroke-linecap:butt;stroke-linejoin:miter;marker:none;marker-start:none;marker-mid:none;marker-end:none;stroke-miterlimit:10;stroke-dasharray:none;stroke-dashoffset:0;stroke-opacity:1;visibility:visible;display:block;overflow:visible"
       id="path3245" />
    <path
       d="M 36.857142 14.071428 A 12.857142 5.5 0 1 1  11.142858,14.071428 A 12.857142 5.5 0 1 1  36.857142 14.071428 z"
       transform="matrix(1.048446,0,0,0.964345,-1.08762,-2.540415)"
       style="opacity:0.467033;color:#000000;fill:#f0f0f0;fill-opacity:1;fill-rule:nonzero;stroke:url(#linearGradient4230);stroke-width:0.99451303;stroke-linecap:butt;stroke-linejoin:miter;marker:none;marker-start:none;marker-mid:none;marker-end:none;stroke-miterlimit:10;stroke-dasharray:none;stroke-dashoffset:0;stroke-opacity:1;visibility:visible;display:block;overflow:visible"
       id="path3364" />
    <path
       d="M 41 40 A 17.142857 8.5714283 0 1 1  6.7142868,40 A 17.142857 8.5714283 0 1 1  41 40 z"
       transform="matrix(0.367338,0,0,0.36343,15.07873,-6.837317)"
       style="opacity:0.30769234;color:#000000;fill:url(#radialGradient6946);fill-opacity:1;fill-rule:nonzero;stroke:none;stroke-width:1;stroke-linecap:butt;stroke-linejoin:miter;marker:none;marker-start:none;marker-mid:none;marker-end:none;stroke-miterlimit:10;stroke-dasharray:none;stroke-dashoffset:0;stroke-opacity:1;visibility:visible;display:block;overflow:visible"
       id="path6944" />
    <path
       d="M 24.165629,3.5 C 22.141297,3.5 19.484541,4.214153 19.484541,5.092669 C 19.484541,5.155709 19.484541,7.656674 19.484541,7.722328 C 19.484541,8.600844 22.141297,9.314997 24.165629,9.314997 C 26.189962,9.314997 28.623475,8.600844 28.623474,7.722328 C 28.623474,7.670328 28.623474,5.144669 28.623474,5.092669 C 28.623474,4.214152 26.189962,3.5 24.165629,3.5 z "
       style="opacity:1;color:#000000;fill:#9d9e9b;fill-opacity:1;fill-rule:nonzero;stroke:#7d7f7a;stroke-width:0.99999994;stroke-linecap:butt;stroke-linejoin:miter;marker:none;marker-start:none;marker-mid:none;marker-end:none;stroke-miterlimit:10;stroke-dasharray:none;stroke-dashoffset:0;stroke-opacity:1;visibility:visible;display:block;overflow:visible"
       id="path3362" />
    <path
       d="M 13.750953,15.743568 L 14.111935,32.529283 L 18.732526,33.814997 L 18.588133,17.100711 C 18.588133,17.100711 20.547828,17.012323 23.941075,16.798037 C 17.373827,16.748054 13.084129,15.219867 10.71869,12.957854 C 12.150827,15.05003 13.750953,15.743568 13.750953,15.743568 z "
       style="opacity:0.58241763;color:#000000;fill:url(#linearGradient6930);fill-opacity:1;fill-rule:nonzero;stroke:none;stroke-width:1;stroke-linecap:butt;stroke-linejoin:miter;marker:none;marker-start:none;marker-mid:none;marker-end:none;stroke-miterlimit:4;stroke-dasharray:none;stroke-dashoffset:0;stroke-opacity:1;visibility:visible;display:block;overflow:visible"
       id="path6922" />
    <path
       d="M 36.857142 14.071428 A 12.857142 5.5 0 1 1  11.142858,14.071428 A 12.857142 5.5 0 1 1  36.857142 14.071428 z"
       transform="matrix(0.274904,0,0,0.192106,17.47423,2.668374)"
       style="opacity:1;color:#000000;fill:#d3d7cf;fill-opacity:1;fill-rule:nonzero;stroke:url(#linearGradient3255);stroke-width:4.35150146;stroke-linecap:butt;stroke-linejoin:miter;marker:none;marker-start:none;marker-mid:none;marker-end:none;stroke-miterlimit:10;stroke-dasharray:none;stroke-dashoffset:0;stroke-opacity:1;visibility:visible;display:block;overflow:visible"
       id="path6940" />
    <g
       transform="translate(-53.99282,-31.64138)"
       id="g4438" />
  </g>
  <g
     id="layer2" />
</svg>
