<?xml version="1.0" encoding="UTF-8" standalone="no"?>
<!-- Created with Inkscape (http://www.inkscape.org/) -->
<svg
   xmlns:svg="http://www.w3.org/2000/svg"
   xmlns="http://www.w3.org/2000/svg"
   xmlns:xlink="http://www.w3.org/1999/xlink"
   version="1.0"
   width="48"
   height="48"
   id="svg1328">
  <defs
     id="defs3">
    <linearGradient
       x1="16.3447"
       y1="30.360399"
       x2="34.009102"
       y2="13.0483"
       id="aigrd2"
       gradientUnits="userSpaceOnUse"
       gradientTransform="matrix(0.937963,0,0,0.937963,6.485913,12.6462)">
      <stop
         style="stop-color:#686868;stop-opacity:1"
         offset="0"
         id="stop3655" />
      <stop
         style="stop-color:#6d6d6d;stop-opacity:1"
         offset="1"
         id="stop3657" />
    </linearGradient>
    <linearGradient
       x1="6.8618002"
       y1="27.3535"
       x2="39.192001"
       y2="15.62"
       id="aigrd3"
       gradientUnits="userSpaceOnUse"
       gradientTransform="matrix(0.937963,0,0,0.937963,6.485913,12.6462)">
      <stop
         style="stop-color:#fcfcfc;stop-opacity:1"
         offset="0"
         id="stop3664" />
      <stop
         style="stop-color:#bbbbbb;stop-opacity:1"
         offset="1"
         id="stop3666" />
    </linearGradient>
    <linearGradient
       x1="14.9478"
       y1="19.6626"
       x2="37.1408"
       y2="11.6082"
       id="aigrd4"
       gradientUnits="userSpaceOnUse"
       gradientTransform="matrix(0.937963,0,0,0.937963,6.485913,12.6462)">
      <stop
         style="stop-color:#ebebeb;stop-opacity:1"
         offset="0"
         id="stop3671" />
      <stop
         style="stop-color:#818181;stop-opacity:1"
         offset="1"
         id="stop3673" />
    </linearGradient>
    <radialGradient
       cx="12.4722"
       cy="15.9321"
       r="6.1648998"
       fx="12.4722"
       fy="15.9321"
       id="aigrd6"
       gradientUnits="userSpaceOnUse"
       gradientTransform="matrix(0.907,0.4211,-0.4211,0.907,19.2898,-10.214)">
      <stop
         style="stop-color:#9e9e9e;stop-opacity:1"
         offset="0"
         id="stop3693" />
      <stop
         style="stop-color:#535353;stop-opacity:1"
         offset="1"
         id="stop3695" />
    </radialGradient>
    <radialGradient
       cx="14.5474"
       cy="15.9844"
       r="4.5099001"
       fx="14.5474"
       fy="15.9844"
       id="aigrd5"
       gradientUnits="userSpaceOnUse"
       gradientTransform="matrix(0.907,0.4211,-0.4211,0.907,19.2898,-10.214)">
      <stop
         style="stop-color:#efefef;stop-opacity:1"
         offset="0"
         id="stop3686" />
      <stop
         style="stop-color:#6d6d6d;stop-opacity:1"
         offset="1"
         id="stop3688" />
    </radialGradient>
    <linearGradient
       id="linearGradient3247">
      <stop
         style="stop-color:#f0f0f0;stop-opacity:1"
         offset="0"
         id="stop3249" />
      <stop
         style="stop-color:#f0f0f0;stop-opacity:0"
         offset="1"
         id="stop3251" />
    </linearGradient>
    <linearGradient
       id="linearGradient3233">
      <stop
         style="stop-color:#eeeeec;stop-opacity:1"
         offset="0"
         id="stop3235" />
      <stop
         style="stop-color:#a3a398;stop-opacity:1"
         offset="1"
         id="stop3237" />
    </linearGradient>
    <linearGradient
       id="linearGradient6924">
      <stop
         style="stop-color:#ffffff;stop-opacity:1"
         offset="0"
         id="stop6926" />
      <stop
         style="stop-color:#ffffff;stop-opacity:0"
         offset="1"
         id="stop6928" />
    </linearGradient>
    <linearGradient
       id="linearGradient4176">
      <stop
         style="stop-color:#ffffff;stop-opacity:1"
         offset="0"
         id="stop4178" />
      <stop
         style="stop-color:#ffffff;stop-opacity:0"
         offset="1"
         id="stop4180" />
    </linearGradient>
    <linearGradient
       id="linearGradient4134">
      <stop
         style="stop-color:#d6d7d5;stop-opacity:1"
         offset="0"
         id="stop4136" />
      <stop
         style="stop-color:#d1d2d0;stop-opacity:1"
         offset="0.25"
         id="stop4148" />
      <stop
         style="stop-color:#a5a6a3;stop-opacity:1"
         offset="0.5"
         id="stop4142" />
      <stop
         style="stop-color:#dddedc;stop-opacity:1"
         offset="1"
         id="stop4138" />
    </linearGradient>
    <linearGradient
       id="linearGradient4126">
      <stop
         style="stop-color:#000000;stop-opacity:1"
         offset="0"
         id="stop4128" />
      <stop
         style="stop-color:#000000;stop-opacity:0"
         offset="1"
         id="stop4130" />
    </linearGradient>
    <radialGradient
       cx="23.857143"
       cy="40"
       r="17.142857"
       fx="23.857143"
       fy="40"
       id="radialGradient4132"
       xlink:href="#linearGradient4126"
       gradientUnits="userSpaceOnUse"
       gradientTransform="matrix(1,0,0,0.5,0,20)" />
    <radialGradient
       cx="23.857143"
       cy="40"
       r="17.142857"
       fx="23.857143"
       fy="40"
       id="radialGradient6946"
       xlink:href="#linearGradient4126"
       gradientUnits="userSpaceOnUse"
       gradientTransform="matrix(1,0,0,0.5,0,20)" />
    <linearGradient
       x1="24"
       y1="17.245949"
       x2="23.433737"
       y2="8.0476589"
       id="linearGradient3255"
       xlink:href="#linearGradient3233"
       gradientUnits="userSpaceOnUse" />
    <linearGradient
       x1="16.3447"
       y1="30.360399"
       x2="34.009102"
       y2="13.0483"
       id="linearGradient4678"
       xlink:href="#aigrd2"
       gradientUnits="userSpaceOnUse"
       gradientTransform="matrix(0.937963,0,0,0.937963,6.491274,12.62438)" />
    <linearGradient
       id="linearGradient3260">
      <stop
         style="stop-color:#3465a4;stop-opacity:1"
         offset="0"
         id="stop3262" />
      <stop
         style="stop-color:#8fb1dc;stop-opacity:1"
         offset="1"
         id="stop3264" />
    </linearGradient>
    <linearGradient
       id="linearGradient3815">
      <stop
         style="stop-color:#204a87;stop-opacity:1"
         offset="0"
         id="stop3817" />
      <stop
         style="stop-color:#98b8e7;stop-opacity:1"
         offset="1"
         id="stop3819" />
    </linearGradient>
    <linearGradient
       id="linearGradient3805">
      <stop
         style="stop-color:#284e7f;stop-opacity:1"
         offset="0"
         id="stop3807" />
      <stop
         style="stop-color:#6694cf;stop-opacity:1"
         offset="0.5"
         id="stop3813" />
      <stop
         style="stop-color:#234570;stop-opacity:1"
         offset="1"
         id="stop3809" />
    </linearGradient>
    <linearGradient
       x1="9.3030529"
       y1="26.71875"
       x2="38.826412"
       y2="26.71875"
       id="linearGradient2572"
       xlink:href="#linearGradient4134"
       gradientUnits="userSpaceOnUse"
       gradientTransform="matrix(0.573686,0,0,0.617087,49.87395,-4.037989)" />
    <linearGradient
       x1="17.160095"
       y1="14.004482"
       x2="37.969398"
       y2="56.575912"
       id="linearGradient2574"
       xlink:href="#linearGradient4176"
       gradientUnits="userSpaceOnUse"
       gradientTransform="matrix(0.559909,0,0,0.617965,50.20771,-4.041853)" />
    <linearGradient
       x1="34.244171"
       y1="17.695425"
       x2="34.244171"
       y2="29.91827"
       id="linearGradient2576"
       xlink:href="#linearGradient3247"
       gradientUnits="userSpaceOnUse"
       gradientTransform="matrix(0.588804,0,0,0.622475,49.63814,-3.016176)" />
    <linearGradient
       x1="11.003058"
       y1="32.489445"
       x2="32.396713"
       y2="32.489445"
       id="linearGradient2578"
       xlink:href="#linearGradient3805"
       gradientUnits="userSpaceOnUse"
       gradientTransform="matrix(0.757466,0,0,0.79213,52.62229,-3.308503)" />
    <linearGradient
       x1="21.486856"
       y1="25.114395"
       x2="21.756248"
       y2="5.5616603"
       id="linearGradient2580"
       xlink:href="#linearGradient3260"
       gradientUnits="userSpaceOnUse" />
    <linearGradient
       x1="25.698481"
       y1="11.170371"
       x2="25.573168"
       y2="20.118456"
       id="linearGradient2582"
       xlink:href="#linearGradient3815"
       gradientUnits="userSpaceOnUse" />
    <linearGradient
       x1="24"
       y1="17.245949"
       x2="23.433737"
       y2="8.0476589"
       id="linearGradient2584"
       xlink:href="#linearGradient3233"
       gradientUnits="userSpaceOnUse" />
    <radialGradient
       cx="23.857143"
       cy="40"
       r="17.142857"
       fx="23.857143"
       fy="40"
       id="radialGradient2586"
       xlink:href="#linearGradient4126"
       gradientUnits="userSpaceOnUse"
       gradientTransform="matrix(1,0,0,0.5,0,20)" />
    <linearGradient
       x1="16.07143"
       y1="19.5"
       x2="15.785715"
       y2="30"
       id="linearGradient2588"
       xlink:href="#linearGradient6924"
       gradientUnits="userSpaceOnUse"
       gradientTransform="matrix(0.588804,0,0,0.622475,49.49454,-2.501044)" />
    <linearGradient
       x1="24"
       y1="17.245949"
       x2="23.433737"
       y2="8.0476589"
       id="linearGradient2590"
       xlink:href="#linearGradient3233"
       gradientUnits="userSpaceOnUse" />
  </defs>
  <g
     id="layer1">
    <path
       d="M 41 40 A 17.142857 8.5714283 0 1 1  6.7142868,40 A 17.142857 8.5714283 0 1 1  41 40 z"
       transform="matrix(0.831993,0,0,0.904687,-5.111713,-7.837026)"
       style="opacity:1;color:#000000;fill:url(#radialGradient4132);fill-opacity:1;fill-rule:nonzero;stroke:none;stroke-width:1;stroke-linecap:butt;stroke-linejoin:miter;marker:none;marker-start:none;marker-mid:none;marker-end:none;stroke-miterlimit:10;stroke-dasharray:none;stroke-dashoffset:0;stroke-opacity:1;visibility:visible;display:block;overflow:visible"
       id="path3366" />
    <path
       d="M 41 40 A 17.142857 8.5714283 0 1 1  6.7142868,40 A 17.142857 8.5714283 0 1 1  41 40 z"
       transform="matrix(0.285592,0,0,0.285592,7.630674,-3.417084)"
       style="opacity:0.30769234;color:#000000;fill:url(#radialGradient6946);fill-opacity:1;fill-rule:nonzero;stroke:none;stroke-width:1;stroke-linecap:butt;stroke-linejoin:miter;marker:none;marker-start:none;marker-mid:none;marker-end:none;stroke-miterlimit:10;stroke-dasharray:none;stroke-dashoffset:0;stroke-opacity:1;visibility:visible;display:block;overflow:visible"
       id="path6944" />
    <g
       transform="translate(-56.21011,3.45207)"
       id="g2018">
      <path
         d="M 70.754127,2.3850427 C 64.800881,2.3850427 59.960242,4.5857764 59.960241,7.2930121 C 59.960241,7.4872772 59.960241,25.250176 59.960241,25.452494 C 59.960241,28.15973 64.80088,30.360463 70.754127,30.360463 C 76.707374,30.360463 81.740762,28.159729 81.740761,25.452494 C 81.740761,25.29225 81.740761,7.453256 81.740761,7.2930121 C 81.740761,4.5857756 76.707373,2.3850427 70.754127,2.3850427 z "
         style="color:#000000;fill:url(#linearGradient2572);fill-opacity:1;fill-rule:nonzero;stroke:#767973;stroke-width:0.9999997;stroke-linecap:butt;stroke-linejoin:miter;marker:none;marker-start:none;marker-mid:none;marker-end:none;stroke-miterlimit:10;stroke-dasharray:none;stroke-dashoffset:0;stroke-opacity:1;visibility:visible;display:block;overflow:visible"
         id="path1912" />
      <path
         d="M 70.760659,3.0029254 C 65.210133,3.0029254 60.69695,5.0577041 60.69695,7.585392 C 60.69695,7.7667739 60.69695,24.79641 60.69695,24.98531 C 60.69695,27.512999 65.210132,29.567777 70.760659,29.567777 C 76.311184,29.567777 81.004077,27.512999 81.004075,24.98531 C 81.004075,24.835695 81.004075,7.7350095 81.004075,7.585392 C 81.004075,5.0577033 76.311183,3.0029254 70.760659,3.0029254 z "
         style="opacity:0.5443038;color:#000000;fill:none;fill-opacity:1;fill-rule:nonzero;stroke:url(#linearGradient2574);stroke-width:0.99999982;stroke-linecap:butt;stroke-linejoin:miter;marker:none;marker-start:none;marker-mid:none;marker-end:none;stroke-miterlimit:10;stroke-dasharray:none;stroke-dashoffset:0;stroke-opacity:1;visibility:visible;display:block;overflow:visible"
         id="path1914" />
      <path
         d="M 79.785332,5.9475489 C 78.945215,5.1672137 78.234848,4.9296317 77.489865,4.5472477 L 77.71941,19.350433 L 79.785332,21.910983 L 79.785332,5.9475489 z "
         style="color:#000000;fill:url(#linearGradient2576);fill-opacity:1;fill-rule:nonzero;stroke:none;stroke-width:0.99999946;stroke-linecap:butt;stroke-linejoin:miter;marker:none;marker-start:none;marker-mid:none;marker-end:none;stroke-miterlimit:10;stroke-dasharray:none;stroke-dashoffset:0;stroke-opacity:1;visibility:visible;display:block;overflow:visible"
         id="path1916" />
      <path
         d="M 70.322762,4.2335617 C 65.320374,4.3402822 61.334032,6.0870968 61.334032,8.2165604 C 61.334032,8.4690051 61.334032,24.507016 61.334032,24.757743 C 61.334032,26.955898 65.560341,28.740739 70.788844,28.740741 C 76.017348,28.740741 80.26585,26.955898 80.265851,24.757743 C 80.265851,24.507016 80.265851,8.4690051 80.265851,8.2165604 C 80.265851,6.0184041 76.017348,4.2335625 70.788844,4.2335617 C 70.625453,4.2335617 70.484129,4.2301191 70.322762,4.2335617 z "
         style="opacity:0.79120878;color:#000000;fill:url(#linearGradient2578);fill-opacity:1;fill-rule:nonzero;stroke:#204a87;stroke-width:0.99621493;stroke-linecap:butt;stroke-linejoin:miter;marker:none;marker-start:none;marker-mid:none;marker-end:none;stroke-miterlimit:10;stroke-dasharray:none;stroke-dashoffset:0;stroke-opacity:1;visibility:visible;display:block;overflow:visible"
         id="path1918" />
      <path
         d="M 36.857142 14.071428 A 12.857142 5.5 0 1 1  11.142858,14.071428 A 12.857142 5.5 0 1 1  36.857142 14.071428 z"
         transform="matrix(0.736706,0,0,0.685875,53.11824,-2.056787)"
         style="color:#000000;fill:url(#linearGradient2580);fill-opacity:1;fill-rule:nonzero;stroke:url(#linearGradient2582);stroke-width:1.4067924;stroke-linecap:butt;stroke-linejoin:miter;marker:none;marker-start:none;marker-mid:none;marker-end:none;stroke-miterlimit:10;stroke-dasharray:none;stroke-dashoffset:0;stroke-opacity:1;visibility:visible;display:block;overflow:visible"
         id="path1920" />
      <path
         d="M 36.857142 14.071428 A 12.857142 5.5 0 1 1  11.142858,14.071428 A 12.857142 5.5 0 1 1  36.857142 14.071428 z"
         transform="matrix(0.785713,0,0,0.763887,51.94438,-3.590035)"
         style="opacity:0.467033;color:#000000;fill:#f0f0f0;fill-opacity:1;fill-rule:nonzero;stroke:url(#linearGradient2584);stroke-width:1.29078352;stroke-linecap:butt;stroke-linejoin:miter;marker:none;marker-start:none;marker-mid:none;marker-end:none;stroke-miterlimit:10;stroke-dasharray:none;stroke-dashoffset:0;stroke-opacity:1;visibility:visible;display:block;overflow:visible"
         id="path1922" />
      <path
         d="M 41 40 A 17.142857 8.5714283 0 1 1  6.7142868,40 A 17.142857 8.5714283 0 1 1  41 40 z"
         transform="matrix(0.275285,0,0,0.287884,64.05955,-6.99374)"
         style="opacity:0.30769234;color:#000000;fill:url(#radialGradient2586);fill-opacity:1;fill-rule:nonzero;stroke:none;stroke-width:1;stroke-linecap:butt;stroke-linejoin:miter;marker:none;marker-start:none;marker-mid:none;marker-end:none;stroke-miterlimit:10;stroke-dasharray:none;stroke-dashoffset:0;stroke-opacity:1;visibility:visible;display:block;overflow:visible"
         id="path1924" />
      <path
         d="M 70.869327,1.1947586 C 69.352279,1.1947586 67.361289,1.7604606 67.361289,2.4563595 C 67.361289,2.5062953 67.361289,4.4873847 67.361289,4.5393912 C 67.361289,5.2352901 69.352279,5.8009921 70.869327,5.8009921 C 72.386375,5.8009921 74.210066,5.2352901 74.210065,4.5393912 C 74.210065,4.4982005 74.210065,2.4975502 74.210065,2.4563595 C 74.210065,1.7604598 72.386375,1.1947586 70.869327,1.1947586 z "
         style="color:#000000;fill:#9d9e9b;fill-opacity:1;fill-rule:nonzero;stroke:#7d7f7a;stroke-width:0.99999964;stroke-linecap:butt;stroke-linejoin:miter;marker:none;marker-start:none;marker-mid:none;marker-end:none;stroke-miterlimit:10;stroke-dasharray:none;stroke-dashoffset:0;stroke-opacity:1;visibility:visible;display:block;overflow:visible"
         id="path1926" />
      <path
         d="M 63.0645,10.893256 L 63.335023,24.189725 L 66.797725,25.208177 L 66.689515,11.96829 C 66.689515,11.96829 68.158125,11.898275 70.701045,11.728533 C 65.779506,11.68894 62.564778,10.478417 60.792103,8.6866088 C 61.865355,10.343884 63.0645,10.893256 63.0645,10.893256 z "
         style="opacity:0.58241763;color:#000000;fill:url(#linearGradient2588);fill-opacity:1;fill-rule:nonzero;stroke:none;stroke-width:1;stroke-linecap:butt;stroke-linejoin:miter;marker:none;marker-start:none;marker-mid:none;marker-end:none;stroke-miterlimit:4;stroke-dasharray:none;stroke-dashoffset:0;stroke-opacity:1;visibility:visible;display:block;overflow:visible"
         id="path1928" />
      <path
         d="M 36.857142 14.071428 A 12.857142 5.5 0 1 1  11.142858,14.071428 A 12.857142 5.5 0 1 1  36.857142 14.071428 z"
         transform="matrix(0.206015,0,0,0.152173,65.85475,0.536003)"
         style="color:#000000;fill:#d3d7cf;fill-opacity:1;fill-rule:nonzero;stroke:url(#linearGradient2590);stroke-width:5.64783573;stroke-linecap:butt;stroke-linejoin:miter;marker:none;marker-start:none;marker-mid:none;marker-end:none;stroke-miterlimit:10;stroke-dasharray:none;stroke-dashoffset:0;stroke-opacity:1;visibility:visible;display:block;overflow:visible"
         id="path1930" />
    </g>
    <path
       d="M 14.695397,4.7062278 C 13.121553,4.7062278 11.056023,5.2674264 11.056023,5.9577853 C 11.056023,6.0073237 11.056023,7.972642 11.056023,8.0242345 C 11.056023,8.7145934 13.121553,9.275792 14.695397,9.275792 C 16.269241,9.275792 18.161208,8.7145934 18.161207,8.0242345 C 18.161207,7.9833716 18.161207,5.9986482 18.161207,5.9577853 C 18.161207,5.2674256 16.269241,4.7062278 14.695397,4.7062278 z "
       style="opacity:1;color:#000000;fill:#9d9e9b;fill-opacity:1;fill-rule:nonzero;stroke:#7d7f7a;stroke-width:1;stroke-linecap:butt;stroke-linejoin:miter;marker:none;marker-start:none;marker-mid:none;marker-end:none;stroke-miterlimit:10;stroke-dasharray:none;stroke-dashoffset:0;stroke-opacity:1;visibility:visible;display:block;overflow:visible"
       id="path3362" />
    <path
       d="M 36.857142 14.071428 A 12.857142 5.5 0 1 1  11.142858,14.071428 A 12.857142 5.5 0 1 1  36.857142 14.071428 z"
       transform="matrix(0.213728,0,0,0.150961,9.493084,4.052715)"
       style="opacity:1;color:#000000;fill:#d3d7cf;fill-opacity:1;fill-rule:nonzero;stroke:url(#linearGradient3255);stroke-width:5.5671978;stroke-linecap:butt;stroke-linejoin:miter;marker:none;marker-start:none;marker-mid:none;marker-end:none;stroke-miterlimit:10;stroke-dasharray:none;stroke-dashoffset:0;stroke-opacity:1;visibility:visible;display:block;overflow:visible"
       id="path6940" />
    <path
       d="M 26.477944,23.504729 C 22.421711,23.607579 14.150491,24.784269 12.790444,38.129729 C 12.744645,38.624358 12.74288,39.109474 12.821694,39.567229 C 12.820125,39.575029 12.823213,39.590686 12.821694,39.598479 C 11.65696,45.57287 24.985283,49.232288 30.884194,43.754729 L 42.134194,32.598479 C 43.453209,31.279469 42.283613,28.558384 42.134194,28.223479 C 42.124233,28.201152 42.134194,28.192229 42.134194,28.192229 C 40.258271,25.003155 30.979612,23.504729 27.602944,23.504729 C 27.286381,23.504729 26.897554,23.494089 26.477944,23.504729 z "
       style="fill:url(#linearGradient4678);fill-rule:nonzero;stroke:#595959;stroke-width:2;stroke-miterlimit:4;stroke-dasharray:none;stroke-opacity:1"
       id="path3796" />
    <path
       d="M 42.128522,28.216386 L 13.802028,37.502224 C 8.5494326,44.630746 24.307217,49.88334 30.872961,43.786579 L 42.128522,32.624814 C 43.535467,31.217869 42.128522,28.216386 42.128522,28.216386 L 42.128522,28.216386 z "
       style="fill:url(#aigrd2);fill-rule:nonzero;stroke:none;stroke-miterlimit:4"
       id="path3659" />
    <path
       d="M 42.128522,28.685368 C 40.252595,25.496293 30.966757,23.995551 27.590089,23.995551 C 24.307217,23.995551 14.271009,23.901755 12.864064,38.62778 C 12.395082,43.692782 18.86703,46.975654 23.932032,45.381116 C 28.903238,43.786579 29.090831,36.001482 33.21787,32.812407 C 37.344908,29.623331 44.004448,31.96824 42.128522,28.779164 L 42.128522,28.685368 z "
       style="fill:#f0f0f0;fill-rule:nonzero;stroke:none;stroke-miterlimit:4"
       id="path3661" />
    <path
       d="M 42.128522,28.216386 C 40.252595,25.027311 30.966757,23.526569 27.590089,23.526569 C 24.213421,23.526569 14.271009,23.432773 12.770268,38.158798 C 12.301286,43.2238 18.773233,46.506672 23.838236,44.912135 C 28.809442,43.317597 28.997034,35.532501 33.124073,32.343425 C 37.251112,29.15435 43.910652,31.499258 42.034725,28.310183 L 42.128522,28.216386 z "
       style="fill:url(#aigrd3);fill-rule:nonzero;stroke:none;stroke-miterlimit:4"
       id="path3668" />
    <path
       d="M 42.316114,29.15435 C 42.597503,30.655091 36.406945,29.810924 35,31.311666 C 33.874444,29.248146 29.278423,27.09083 25.807959,26.34046 C 22.431291,25.590089 18.304252,26.152867 18.304252,26.152867 C 24.025828,20.900272 41.847133,24.464533 42.316114,29.15435 z "
       style="fill:url(#aigrd4);fill-rule:nonzero;stroke:none;stroke-miterlimit:4"
       id="path3675" />
    <path
       d="M 35.281389,32.906203 C 39.033243,31.030277 39.689817,32.249629 41.940929,30.373702 C 40.440188,32.437222 38.376668,31.874444 36.125556,33 L 35.187593,32.906203 L 35.281389,32.906203 z "
       style="opacity:0.3;fill:#ffffff;fill-rule:nonzero;stroke:none;stroke-miterlimit:4"
       id="path3677" />
    <path
       d="M 35.093796,31.311666 L 35.281389,33 C 39.220835,31.030277 39.689817,32.718611 42.316114,30.092313 C 39.408428,32.062036 38.282872,31.030277 35.468982,32.249629 L 35,31.405462 L 35.093796,31.311666 z "
       style="opacity:0.3;fill:#000000;fill-rule:nonzero;stroke:none;stroke-miterlimit:4"
       id="path3679" />
    <path
       d="M 25.807959,26.34046 L 26.370737,26.528052 C 29.090831,24.183144 36.406945,25.121107 36.406945,25.121107 C 36.406945,25.121107 28.621849,23.714162 25.807959,26.434256 L 25.807959,26.34046 z "
       style="opacity:0.3;fill:#000000;fill-rule:nonzero;stroke:none;stroke-miterlimit:4"
       id="path3681" />
    <path
       d="M 26.20941,24.025057 C 20.117023,24.369316 15.368888,26.322254 13.227823,38.428329 C 11.931817,45.756246 25.091441,48.415913 30.497575,43.395933 L 41.682784,32.296643 C 42.891612,31.087819 42.557636,28.712489 40.620284,27.349617 C 36.574842,24.503763 30.335022,24.025057 27.240431,24.025057 C 26.950313,24.025057 26.593967,24.015306 26.20941,24.025057 z "
       style="opacity:0.37362641;fill:none;fill-rule:nonzero;stroke:#ffffff;stroke-width:1;stroke-miterlimit:4;stroke-dasharray:none;stroke-opacity:1"
       id="path4680" />
    <g
       transform="matrix(0.937963,0,0,0.937963,6.485913,12.6462)"
       style="fill:#bababa;fill-rule:nonzero;stroke:#000000;stroke-miterlimit:4"
       id="g3683">
      <radialGradient
         cx="14.5474"
         cy="15.9844"
         r="4.5099001"
         fx="14.5474"
         fy="15.9844"
         id="radialGradient3782"
         gradientUnits="userSpaceOnUse"
         gradientTransform="matrix(0.907,0.4211,-0.4211,0.907,19.2898,-10.214)">
        <stop
           style="stop-color:#efefef;stop-opacity:1"
           offset="0"
           id="stop3784" />
        <stop
           style="stop-color:#6d6d6d;stop-opacity:1"
           offset="1"
           id="stop3786" />
      </radialGradient>
      <path
         d="M 26.8,11.2 C 25,10.9 23.9,12.1 23.5,13.1 C 24,13.7 24.5,13.9 25.7,13.8 C 27.5,13.7 28.3,13.6 29.5,12.8 C 28.9,12.2 28,11.3 26.8,11.1 L 26.8,11.2 z "
         style="fill:url(#aigrd5);stroke:none"
         id="path3690" />
      <radialGradient
         cx="12.4722"
         cy="15.9321"
         r="6.1648998"
         fx="12.4722"
         fy="15.9321"
         id="radialGradient3789"
         gradientUnits="userSpaceOnUse"
         gradientTransform="matrix(0.907,0.4211,-0.4211,0.907,19.2898,-10.214)">
        <stop
           style="stop-color:#9e9e9e;stop-opacity:1"
           offset="0"
           id="stop3791" />
        <stop
           style="stop-color:#535353;stop-opacity:1"
           offset="1"
           id="stop3793" />
      </radialGradient>
      <path
         d="M 27.6,11.9 C 26.5,11.7 25.9,13.2 25.7,13.9 C 26.8,13.8 28.6,13.6 29.3,12.8 C 29,12.4 28.4,12.1 27.6,12 L 27.6,11.9 z "
         style="fill:url(#aigrd6);stroke:none"
         id="path3697" />
    </g>
    <path
       d="M 47.583401,16.583175 C 45.951924,13.710074 43.218714,11.466737 39.805401,10.524727 C 36.392089,9.5827161 32.895163,10.106651 30.021016,11.736284"
       style="opacity:1;color:#000000;fill:none;fill-opacity:1;fill-rule:evenodd;stroke:#babdb6;stroke-width:1.00000036;stroke-linecap:round;stroke-linejoin:miter;marker:none;marker-start:none;marker-mid:none;marker-end:none;stroke-miterlimit:4;stroke-dasharray:none;stroke-dashoffset:0;stroke-opacity:1;visibility:visible;display:inline;overflow:visible"
       id="path3235" />
    <path
       d="M 44.039609,18.593997 C 42.924369,16.62814 41.057294,15.089766 38.723306,14.445628 C 36.389317,13.801493 33.997499,14.164492 32.031838,15.280076"
       style="opacity:1;color:#000000;fill:none;fill-opacity:1;fill-rule:evenodd;stroke:#babdb6;stroke-width:1.00000036;stroke-linecap:round;stroke-linejoin:miter;marker:none;marker-start:none;marker-mid:none;marker-end:none;stroke-miterlimit:4;stroke-dasharray:none;stroke-dashoffset:0;stroke-opacity:1;visibility:visible;display:inline;overflow:visible"
       id="path3233" />
    <path
       d="M 40.495817,20.604819 C 39.894653,19.545326 38.899256,18.71373 37.641209,18.366532 C 36.383161,18.019336 35.10214,18.222682 34.042661,18.823868"
       style="opacity:1;color:#000000;fill:none;fill-opacity:1;fill-rule:evenodd;stroke:#babdb6;stroke-width:1.00000036;stroke-linecap:round;stroke-linejoin:miter;marker:none;marker-start:none;marker-mid:none;marker-end:none;stroke-miterlimit:4;stroke-dasharray:none;stroke-dashoffset:0;stroke-opacity:1;visibility:visible;display:inline;overflow:visible"
       id="path3227" />
    <g
       transform="matrix(0.749282,0,0,0.79213,119.0661,5.489991)"
       id="g1932" />
    <g
       transform="translate(66.25488,7.11108)"
       id="g2441" />
  </g>
  <g
     id="layer2" />
</svg>
