<?xml version="1.0" encoding="UTF-8" standalone="no"?>
<!-- Created with Inkscape (http://www.inkscape.org/) -->
<svg
   xmlns:svg="http://www.w3.org/2000/svg"
   xmlns="http://www.w3.org/2000/svg"
   xmlns:xlink="http://www.w3.org/1999/xlink"
   version="1.0"
   width="48"
   height="48"
   id="svg1328">
  <defs
     id="defs3">
    <linearGradient
       x1="16.3447"
       y1="30.360399"
       x2="34.009102"
       y2="13.0483"
       id="aigrd2"
       gradientUnits="userSpaceOnUse"
       gradientTransform="matrix(0.937963,0,0,0.937963,6.485913,12.6462)">
      <stop
         style="stop-color:#686868;stop-opacity:1"
         offset="0"
         id="stop3655" />
      <stop
         style="stop-color:#6d6d6d;stop-opacity:1"
         offset="1"
         id="stop3657" />
    </linearGradient>
    <linearGradient
       x1="6.8618002"
       y1="27.3535"
       x2="39.192001"
       y2="15.62"
       id="aigrd3"
       gradientUnits="userSpaceOnUse"
       gradientTransform="matrix(0.937963,0,0,0.937963,6.485913,12.6462)">
      <stop
         style="stop-color:#fcfcfc;stop-opacity:1"
         offset="0"
         id="stop3664" />
      <stop
         style="stop-color:#bbbbbb;stop-opacity:1"
         offset="1"
         id="stop3666" />
    </linearGradient>
    <linearGradient
       x1="14.9478"
       y1="19.6626"
       x2="37.1408"
       y2="11.6082"
       id="aigrd4"
       gradientUnits="userSpaceOnUse"
       gradientTransform="matrix(0.937963,0,0,0.937963,6.485913,12.6462)">
      <stop
         style="stop-color:#ebebeb;stop-opacity:1"
         offset="0"
         id="stop3671" />
      <stop
         style="stop-color:#818181;stop-opacity:1"
         offset="1"
         id="stop3673" />
    </linearGradient>
    <radialGradient
       cx="12.4722"
       cy="15.9321"
       r="6.1648998"
       fx="12.4722"
       fy="15.9321"
       id="aigrd6"
       gradientUnits="userSpaceOnUse"
       gradientTransform="matrix(0.907,0.4211,-0.4211,0.907,19.2898,-10.214)">
      <stop
         style="stop-color:#9e9e9e;stop-opacity:1"
         offset="0"
         id="stop3693" />
      <stop
         style="stop-color:#535353;stop-opacity:1"
         offset="1"
         id="stop3695" />
    </radialGradient>
    <radialGradient
       cx="14.5474"
       cy="15.9844"
       r="4.5099001"
       fx="14.5474"
       fy="15.9844"
       id="aigrd5"
       gradientUnits="userSpaceOnUse"
       gradientTransform="matrix(0.907,0.4211,-0.4211,0.907,19.2898,-10.214)">
      <stop
         style="stop-color:#efefef;stop-opacity:1"
         offset="0"
         id="stop3686" />
      <stop
         style="stop-color:#6d6d6d;stop-opacity:1"
         offset="1"
         id="stop3688" />
    </radialGradient>
    <linearGradient
       id="linearGradient3356">
      <stop
         style="stop-color:#ff4141;stop-opacity:1"
         offset="0"
         id="stop3358" />
      <stop
         style="stop-color:#ff9d9d;stop-opacity:1"
         offset="1"
         id="stop3360" />
    </linearGradient>
    <linearGradient
       id="linearGradient3348">
      <stop
         style="stop-color:#ff4949;stop-opacity:1"
         offset="0"
         id="stop3350" />
      <stop
         style="stop-color:#ffb1b1;stop-opacity:1"
         offset="1"
         id="stop3352" />
    </linearGradient>
    <linearGradient
       id="linearGradient3338">
      <stop
         style="stop-color:#cc0000;stop-opacity:1"
         offset="0"
         id="stop3340" />
      <stop
         style="stop-color:#ff5858;stop-opacity:1"
         offset="0.5"
         id="stop3346" />
      <stop
         style="stop-color:#cc0000;stop-opacity:1"
         offset="1"
         id="stop3342" />
    </linearGradient>
    <linearGradient
       id="linearGradient3247">
      <stop
         style="stop-color:#f0f0f0;stop-opacity:1"
         offset="0"
         id="stop3249" />
      <stop
         style="stop-color:#f0f0f0;stop-opacity:0"
         offset="1"
         id="stop3251" />
    </linearGradient>
    <linearGradient
       id="linearGradient3233">
      <stop
         style="stop-color:#eeeeec;stop-opacity:1"
         offset="0"
         id="stop3235" />
      <stop
         style="stop-color:#a3a398;stop-opacity:1"
         offset="1"
         id="stop3237" />
    </linearGradient>
    <linearGradient
       id="linearGradient6924">
      <stop
         style="stop-color:#ffffff;stop-opacity:1"
         offset="0"
         id="stop6926" />
      <stop
         style="stop-color:#ffffff;stop-opacity:0"
         offset="1"
         id="stop6928" />
    </linearGradient>
    <linearGradient
       id="linearGradient4176">
      <stop
         style="stop-color:#ffffff;stop-opacity:1"
         offset="0"
         id="stop4178" />
      <stop
         style="stop-color:#ffffff;stop-opacity:0"
         offset="1"
         id="stop4180" />
    </linearGradient>
    <linearGradient
       id="linearGradient4134">
      <stop
         style="stop-color:#d6d7d5;stop-opacity:1"
         offset="0"
         id="stop4136" />
      <stop
         style="stop-color:#d1d2d0;stop-opacity:1"
         offset="0.25"
         id="stop4148" />
      <stop
         style="stop-color:#a5a6a3;stop-opacity:1"
         offset="0.5"
         id="stop4142" />
      <stop
         style="stop-color:#dddedc;stop-opacity:1"
         offset="1"
         id="stop4138" />
    </linearGradient>
    <linearGradient
       id="linearGradient4126">
      <stop
         style="stop-color:#000000;stop-opacity:1"
         offset="0"
         id="stop4128" />
      <stop
         style="stop-color:#000000;stop-opacity:0"
         offset="1"
         id="stop4130" />
    </linearGradient>
    <radialGradient
       cx="23.857143"
       cy="40"
       r="17.142857"
       fx="23.857143"
       fy="40"
       id="radialGradient4132"
       xlink:href="#linearGradient4126"
       gradientUnits="userSpaceOnUse"
       gradientTransform="matrix(1,0,0,0.5,0,20)" />
    <linearGradient
       x1="9.3030529"
       y1="26.71875"
       x2="38.826412"
       y2="26.71875"
       id="linearGradient4140"
       xlink:href="#linearGradient4134"
       gradientUnits="userSpaceOnUse"
       gradientTransform="matrix(0.765647,0,0,0.779023,-3.920058,-1.051141)" />
    <linearGradient
       x1="17.160095"
       y1="14.004482"
       x2="37.969398"
       y2="56.575912"
       id="linearGradient4182"
       xlink:href="#linearGradient4176"
       gradientUnits="userSpaceOnUse"
       gradientTransform="matrix(0.747261,0,0,0.780131,-3.474617,-1.056018)" />
    <linearGradient
       x1="16.07143"
       y1="19.5"
       x2="15.785715"
       y2="30"
       id="linearGradient6930"
       xlink:href="#linearGradient6924"
       gradientUnits="userSpaceOnUse"
       gradientTransform="matrix(0.785824,0,0,0.785824,-4.426418,0.889128)" />
    <radialGradient
       cx="23.857143"
       cy="40"
       r="17.142857"
       fx="23.857143"
       fy="40"
       id="radialGradient6946"
       xlink:href="#linearGradient4126"
       gradientUnits="userSpaceOnUse"
       gradientTransform="matrix(1,0,0,0.5,0,20)" />
    <linearGradient
       x1="24"
       y1="17.245949"
       x2="23.433737"
       y2="8.0476589"
       id="linearGradient3239"
       xlink:href="#linearGradient3233"
       gradientUnits="userSpaceOnUse" />
    <linearGradient
       x1="24"
       y1="17.245949"
       x2="23.433737"
       y2="8.0476589"
       id="linearGradient3243"
       xlink:href="#linearGradient3233"
       gradientUnits="userSpaceOnUse" />
    <linearGradient
       x1="34.244171"
       y1="17.695425"
       x2="34.244171"
       y2="29.91827"
       id="linearGradient3253"
       xlink:href="#linearGradient3247"
       gradientUnits="userSpaceOnUse"
       gradientTransform="matrix(0.785824,0,0,0.785824,-4.234777,0.238816)" />
    <linearGradient
       x1="24"
       y1="17.245949"
       x2="23.433737"
       y2="8.0476589"
       id="linearGradient3255"
       xlink:href="#linearGradient3233"
       gradientUnits="userSpaceOnUse" />
    <linearGradient
       x1="11.003058"
       y1="33.489445"
       x2="30.452171"
       y2="33.489445"
       id="linearGradient3344"
       xlink:href="#linearGradient3338"
       gradientUnits="userSpaceOnUse"
       gradientTransform="matrix(0.75936,0,0,0.785824,-3.252188,0.238816)" />
    <linearGradient
       x1="24"
       y1="18.132908"
       x2="24"
       y2="8.0243998"
       id="linearGradient3354"
       xlink:href="#linearGradient3348"
       gradientUnits="userSpaceOnUse" />
    <linearGradient
       x1="24"
       y1="10.396756"
       x2="24"
       y2="20.118456"
       id="linearGradient3362"
       xlink:href="#linearGradient3356"
       gradientUnits="userSpaceOnUse" />
    <linearGradient
       x1="16.3447"
       y1="30.360399"
       x2="34.009102"
       y2="13.0483"
       id="linearGradient4678"
       xlink:href="#aigrd2"
       gradientUnits="userSpaceOnUse"
       gradientTransform="matrix(0.937963,0,0,0.937963,6.491274,12.62438)" />
  </defs>
  <g
     id="layer1">
    <path
       d="M 41 40 A 17.142857 8.5714283 0 1 1  6.7142868,40 A 17.142857 8.5714283 0 1 1  41 40 z"
       transform="matrix(0.831993,0,0,0.904687,-5.111713,-7.837026)"
       style="opacity:1;color:#000000;fill:url(#radialGradient4132);fill-opacity:1;fill-rule:nonzero;stroke:none;stroke-width:1;stroke-linecap:butt;stroke-linejoin:miter;marker:none;marker-start:none;marker-mid:none;marker-end:none;stroke-miterlimit:10;stroke-dasharray:none;stroke-dashoffset:0;stroke-opacity:1;visibility:visible;display:block;overflow:visible"
       id="path3366" />
    <path
       d="M 14.407615,5.8870363 C 8.3900691,5.8870363 3.4971471,8.0702504 3.4971463,10.755934 C 3.4971463,10.948653 3.4971463,28.570144 3.4971463,28.770852 C 3.4971463,31.456536 8.3900681,33.639749 14.407615,33.639749 C 20.425162,33.639749 25.512915,31.456535 25.512913,28.770852 C 25.512913,28.611883 25.512913,10.914902 25.512913,10.755934 C 25.512913,8.0702496 20.425162,5.8870363 14.407615,5.8870363 z "
       style="opacity:1;color:#000000;fill:url(#linearGradient4140);fill-opacity:1;fill-rule:nonzero;stroke:#767973;stroke-width:1.0000006;stroke-linecap:butt;stroke-linejoin:miter;marker:none;marker-start:none;marker-mid:none;marker-end:none;stroke-miterlimit:10;stroke-dasharray:none;stroke-dashoffset:0;stroke-opacity:1;visibility:visible;display:block;overflow:visible"
       id="path3068" />
    <path
       d="M 14.419394,6.5000002 C 8.943644,6.5000002 4.4912611,8.5384211 4.4912604,11.045986 C 4.4912604,11.225924 4.4912604,28.119991 4.4912604,28.307387 C 4.4912604,30.814954 8.943643,32.853373 14.419394,32.853373 C 19.895144,32.853373 24.524816,30.814953 24.524814,28.307387 C 24.524814,28.158963 24.524814,11.194413 24.524814,11.045986 C 24.524814,8.5384203 19.895144,6.5000002 14.419394,6.5000002 z "
       style="opacity:0.5443038;color:#000000;fill:none;fill-opacity:1;fill-rule:nonzero;stroke:url(#linearGradient4182);stroke-width:1.00000036;stroke-linecap:butt;stroke-linejoin:miter;marker:none;marker-start:none;marker-mid:none;marker-end:none;stroke-miterlimit:10;stroke-dasharray:none;stroke-dashoffset:0;stroke-opacity:1;visibility:visible;display:block;overflow:visible"
       id="path4174" />
    <path
       d="M 36.857142 14.071428 A 12.857142 5.5 0 1 1  11.142858,14.071428 A 12.857142 5.5 0 1 1  36.857142 14.071428 z"
       transform="matrix(0.792664,0,0,0.759881,-4.701535,-1.552877e-2)"
       style="opacity:0.467033;color:#000000;fill:#f0f0f0;fill-opacity:1;fill-rule:nonzero;stroke:url(#linearGradient3239);stroke-width:1.28849459;stroke-linecap:butt;stroke-linejoin:miter;marker:none;marker-start:none;marker-mid:none;marker-end:none;stroke-miterlimit:10;stroke-dasharray:none;stroke-dashoffset:0;stroke-opacity:1;visibility:visible;display:block;overflow:visible"
       id="path3364" />
    <path
       d="M 41 40 A 17.142857 8.5714283 0 1 1  6.7142868,40 A 17.142857 8.5714283 0 1 1  41 40 z"
       transform="matrix(0.285592,0,0,0.285592,7.630674,-3.417084)"
       style="opacity:0.30769234;color:#000000;fill:url(#radialGradient6946);fill-opacity:1;fill-rule:nonzero;stroke:none;stroke-width:1;stroke-linecap:butt;stroke-linejoin:miter;marker:none;marker-start:none;marker-mid:none;marker-end:none;stroke-miterlimit:10;stroke-dasharray:none;stroke-dashoffset:0;stroke-opacity:1;visibility:visible;display:block;overflow:visible"
       id="path6944" />
    <path
       d="M 14.695397,4.7062278 C 13.121553,4.7062278 11.056023,5.2674264 11.056023,5.9577853 C 11.056023,6.0073237 11.056023,7.972642 11.056023,8.0242345 C 11.056023,8.7145934 13.121553,9.275792 14.695397,9.275792 C 16.269241,9.275792 18.161208,8.7145934 18.161207,8.0242345 C 18.161207,7.9833716 18.161207,5.9986482 18.161207,5.9577853 C 18.161207,5.2674256 16.269241,4.7062278 14.695397,4.7062278 z "
       style="opacity:1;color:#000000;fill:#9d9e9b;fill-opacity:1;fill-rule:nonzero;stroke:#7d7f7a;stroke-width:1;stroke-linecap:butt;stroke-linejoin:miter;marker:none;marker-start:none;marker-mid:none;marker-end:none;stroke-miterlimit:10;stroke-dasharray:none;stroke-dashoffset:0;stroke-opacity:1;visibility:visible;display:block;overflow:visible"
       id="path3362" />
    <path
       d="M 36.857142 14.071428 A 12.857142 5.5 0 1 1  11.142858,14.071428 A 12.857142 5.5 0 1 1  36.857142 14.071428 z"
       transform="matrix(0.213728,0,0,0.150961,9.493084,4.052715)"
       style="opacity:1;color:#000000;fill:#d3d7cf;fill-opacity:1;fill-rule:nonzero;stroke:url(#linearGradient3255);stroke-width:5.5671978;stroke-linecap:butt;stroke-linejoin:miter;marker:none;marker-start:none;marker-mid:none;marker-end:none;stroke-miterlimit:10;stroke-dasharray:none;stroke-dashoffset:0;stroke-opacity:1;visibility:visible;display:block;overflow:visible"
       id="path6940" />
    <path
       d="M 36.857142 14.071428 A 12.857142 5.5 0 1 1  11.142858,14.071428 A 12.857142 5.5 0 1 1  36.857142 14.071428 z"
       transform="matrix(0.815128,0,0,0.76334,-4.779312,18.01318)"
       style="opacity:0.23626374;color:#000000;fill:#d3d7cf;fill-opacity:1;fill-rule:nonzero;stroke:url(#linearGradient3243);stroke-width:1.2677331;stroke-linecap:butt;stroke-linejoin:miter;marker:none;marker-start:none;marker-mid:none;marker-end:none;stroke-miterlimit:10;stroke-dasharray:none;stroke-dashoffset:0;stroke-opacity:1;visibility:visible;display:block;overflow:visible"
       id="path3241" />
    <path
       d="M 23.945195,9.421181 C 23.073626,8.6470578 22.336664,8.4113672 21.56379,8.0320273 L 21.80193,22.717366 L 23.945195,25.257532 L 23.945195,9.421181 z "
       style="opacity:0.68681317;color:#000000;fill:url(#linearGradient3253);fill-opacity:1;fill-rule:nonzero;stroke:none;stroke-width:0.99999946;stroke-linecap:butt;stroke-linejoin:miter;marker:none;marker-start:none;marker-mid:none;marker-end:none;stroke-miterlimit:10;stroke-dasharray:none;stroke-dashoffset:0;stroke-opacity:1;visibility:visible;display:block;overflow:visible"
       id="path3245" />
    <path
       d="M 14.492542,22.651496 C 9.4776454,22.757367 5.4813345,24.490275 5.4813345,26.602786 C 5.4813345,26.853221 5.4813345,27.8329 5.4813345,28.081631 C 5.4813345,30.262287 9.7182115,32.032919 14.95979,32.032921 C 20.201369,32.032921 24.460494,30.262287 24.460495,28.081631 C 24.460495,27.8329 24.460495,26.853221 24.460495,26.602786 C 24.460495,24.422129 20.201369,22.651496 14.95979,22.651496 C 14.795991,22.651496 14.654312,22.64808 14.492542,22.651496 z "
       style="opacity:0.61538463;color:#000000;fill:url(#linearGradient3344);fill-opacity:1;fill-rule:nonzero;stroke:#a40000;stroke-width:0.99621546;stroke-linecap:butt;stroke-linejoin:miter;marker:none;marker-start:none;marker-mid:none;marker-end:none;stroke-miterlimit:10;stroke-dasharray:none;stroke-dashoffset:0;stroke-opacity:1;visibility:visible;display:block;overflow:visible"
       id="path3275" />
    <path
       d="M 36.857142 14.071428 A 12.857142 5.5 0 1 1  11.142858,14.071428 A 12.857142 5.5 0 1 1  36.857142 14.071428 z"
       transform="matrix(0.738238,0,0,0.718266,-2.743118,16.5004)"
       style="opacity:1;color:#000000;fill:url(#linearGradient3354);fill-opacity:1;fill-rule:nonzero;stroke:url(#linearGradient3362);stroke-width:1.37328029;stroke-linecap:butt;stroke-linejoin:miter;marker:none;marker-start:none;marker-mid:none;marker-end:none;stroke-miterlimit:10;stroke-dasharray:none;stroke-dashoffset:0;stroke-opacity:1;visibility:visible;display:block;overflow:visible"
       id="path3277" />
    <path
       d="M 26.477944,23.504729 C 22.421711,23.607579 14.150491,24.784269 12.790444,38.129729 C 12.744645,38.624358 12.74288,39.109474 12.821694,39.567229 C 12.820125,39.575029 12.823213,39.590686 12.821694,39.598479 C 11.65696,45.57287 24.985283,49.232288 30.884194,43.754729 L 42.134194,32.598479 C 43.453209,31.279469 42.283613,28.558384 42.134194,28.223479 C 42.124233,28.201152 42.134194,28.192229 42.134194,28.192229 C 40.258271,25.003155 30.979612,23.504729 27.602944,23.504729 C 27.286381,23.504729 26.897554,23.494089 26.477944,23.504729 z "
       style="fill:url(#linearGradient4678);fill-rule:nonzero;stroke:#595959;stroke-width:2;stroke-miterlimit:4;stroke-dasharray:none;stroke-opacity:1"
       id="path3796" />
    <path
       d="M 6.406727,14.304265 L 6.687378,27.494882 L 10.279716,28.505226 L 10.167456,15.37074 C 10.167456,15.37074 11.795233,15.37074 14.433357,15.202349 C 9.223378,15.336716 6.200856,13.892728 4.0492553,12.115184 C 5.162688,13.759266 6.406727,14.304265 6.406727,14.304265 z "
       style="opacity:1;color:#000000;fill:url(#linearGradient6930);fill-opacity:1;fill-rule:nonzero;stroke:none;stroke-width:1;stroke-linecap:butt;stroke-linejoin:miter;marker:none;marker-start:none;marker-mid:none;marker-end:none;stroke-miterlimit:4;stroke-dasharray:none;stroke-dashoffset:0;stroke-opacity:1;visibility:visible;display:block;overflow:visible"
       id="path6922" />
    <path
       d="M 42.128522,28.216386 L 13.802028,37.502224 C 8.5494326,44.630746 24.307217,49.88334 30.872961,43.786579 L 42.128522,32.624814 C 43.535467,31.217869 42.128522,28.216386 42.128522,28.216386 L 42.128522,28.216386 z "
       style="fill:url(#aigrd2);fill-rule:nonzero;stroke:none;stroke-miterlimit:4"
       id="path3659" />
    <path
       d="M 42.128522,28.685368 C 40.252595,25.496293 30.966757,23.995551 27.590089,23.995551 C 24.307217,23.995551 14.271009,23.901755 12.864064,38.62778 C 12.395082,43.692782 18.86703,46.975654 23.932032,45.381116 C 28.903238,43.786579 29.090831,36.001482 33.21787,32.812407 C 37.344908,29.623331 44.004448,31.96824 42.128522,28.779164 L 42.128522,28.685368 z "
       style="fill:#f0f0f0;fill-rule:nonzero;stroke:none;stroke-miterlimit:4"
       id="path3661" />
    <path
       d="M 42.128522,28.216386 C 40.252595,25.027311 30.966757,23.526569 27.590089,23.526569 C 24.213421,23.526569 14.271009,23.432773 12.770268,38.158798 C 12.301286,43.2238 18.773233,46.506672 23.838236,44.912135 C 28.809442,43.317597 28.997034,35.532501 33.124073,32.343425 C 37.251112,29.15435 43.910652,31.499258 42.034725,28.310183 L 42.128522,28.216386 z "
       style="fill:url(#aigrd3);fill-rule:nonzero;stroke:none;stroke-miterlimit:4"
       id="path3668" />
    <path
       d="M 42.316114,29.15435 C 42.597503,30.655091 36.406945,29.810924 35,31.311666 C 33.874444,29.248146 29.278423,27.09083 25.807959,26.34046 C 22.431291,25.590089 18.304252,26.152867 18.304252,26.152867 C 24.025828,20.900272 41.847133,24.464533 42.316114,29.15435 z "
       style="fill:url(#aigrd4);fill-rule:nonzero;stroke:none;stroke-miterlimit:4"
       id="path3675" />
    <path
       d="M 35.281389,32.906203 C 39.033243,31.030277 39.689817,32.249629 41.940929,30.373702 C 40.440188,32.437222 38.376668,31.874444 36.125556,33 L 35.187593,32.906203 L 35.281389,32.906203 z "
       style="opacity:0.3;fill:#ffffff;fill-rule:nonzero;stroke:none;stroke-miterlimit:4"
       id="path3677" />
    <path
       d="M 35.093796,31.311666 L 35.281389,33 C 39.220835,31.030277 39.689817,32.718611 42.316114,30.092313 C 39.408428,32.062036 38.282872,31.030277 35.468982,32.249629 L 35,31.405462 L 35.093796,31.311666 z "
       style="opacity:0.3;fill:#000000;fill-rule:nonzero;stroke:none;stroke-miterlimit:4"
       id="path3679" />
    <path
       d="M 25.807959,26.34046 L 26.370737,26.528052 C 29.090831,24.183144 36.406945,25.121107 36.406945,25.121107 C 36.406945,25.121107 28.621849,23.714162 25.807959,26.434256 L 25.807959,26.34046 z "
       style="opacity:0.3;fill:#000000;fill-rule:nonzero;stroke:none;stroke-miterlimit:4"
       id="path3681" />
    <path
       d="M 26.20941,24.025057 C 20.117023,24.369316 15.368888,26.322254 13.227823,38.428329 C 11.931817,45.756246 25.091441,48.415913 30.497575,43.395933 L 41.682784,32.296643 C 42.891612,31.087819 42.557636,28.712489 40.620284,27.349617 C 36.574842,24.503763 30.335022,24.025057 27.240431,24.025057 C 26.950313,24.025057 26.593967,24.015306 26.20941,24.025057 z "
       style="opacity:0.37362641;fill:none;fill-rule:nonzero;stroke:#ffffff;stroke-width:1;stroke-miterlimit:4;stroke-dasharray:none;stroke-opacity:1"
       id="path4680" />
    <g
       transform="matrix(0.937963,0,0,0.937963,6.485913,12.6462)"
       style="fill:#bababa;fill-rule:nonzero;stroke:#000000;stroke-miterlimit:4"
       id="g3683">
      <radialGradient
         cx="14.5474"
         cy="15.9844"
         r="4.5099001"
         fx="14.5474"
         fy="15.9844"
         id="radialGradient3782"
         gradientUnits="userSpaceOnUse"
         gradientTransform="matrix(0.907,0.4211,-0.4211,0.907,19.2898,-10.214)">
        <stop
           style="stop-color:#efefef;stop-opacity:1"
           offset="0"
           id="stop3784" />
        <stop
           style="stop-color:#6d6d6d;stop-opacity:1"
           offset="1"
           id="stop3786" />
      </radialGradient>
      <path
         d="M 26.8,11.2 C 25,10.9 23.9,12.1 23.5,13.1 C 24,13.7 24.5,13.9 25.7,13.8 C 27.5,13.7 28.3,13.6 29.5,12.8 C 28.9,12.2 28,11.3 26.8,11.1 L 26.8,11.2 z "
         style="fill:url(#aigrd5);stroke:none"
         id="path3690" />
      <radialGradient
         cx="12.4722"
         cy="15.9321"
         r="6.1648998"
         fx="12.4722"
         fy="15.9321"
         id="radialGradient3789"
         gradientUnits="userSpaceOnUse"
         gradientTransform="matrix(0.907,0.4211,-0.4211,0.907,19.2898,-10.214)">
        <stop
           style="stop-color:#9e9e9e;stop-opacity:1"
           offset="0"
           id="stop3791" />
        <stop
           style="stop-color:#535353;stop-opacity:1"
           offset="1"
           id="stop3793" />
      </radialGradient>
      <path
         d="M 27.6,11.9 C 26.5,11.7 25.9,13.2 25.7,13.9 C 26.8,13.8 28.6,13.6 29.3,12.8 C 29,12.4 28.4,12.1 27.6,12 L 27.6,11.9 z "
         style="fill:url(#aigrd6);stroke:none"
         id="path3697" />
    </g>
    <path
       d="M 47.583401,16.583175 C 45.951924,13.710074 43.218714,11.466737 39.805401,10.524727 C 36.392089,9.5827161 32.895163,10.106651 30.021016,11.736284"
       style="opacity:1;color:#000000;fill:none;fill-opacity:1;fill-rule:evenodd;stroke:#babdb6;stroke-width:1.00000036;stroke-linecap:round;stroke-linejoin:miter;marker:none;marker-start:none;marker-mid:none;marker-end:none;stroke-miterlimit:4;stroke-dasharray:none;stroke-dashoffset:0;stroke-opacity:1;visibility:visible;display:inline;overflow:visible"
       id="path3235" />
    <path
       d="M 44.039609,18.593997 C 42.924369,16.62814 41.057294,15.089766 38.723306,14.445628 C 36.389317,13.801493 33.997499,14.164492 32.031838,15.280076"
       style="opacity:1;color:#000000;fill:none;fill-opacity:1;fill-rule:evenodd;stroke:#babdb6;stroke-width:1.00000036;stroke-linecap:round;stroke-linejoin:miter;marker:none;marker-start:none;marker-mid:none;marker-end:none;stroke-miterlimit:4;stroke-dasharray:none;stroke-dashoffset:0;stroke-opacity:1;visibility:visible;display:inline;overflow:visible"
       id="path3233" />
    <path
       d="M 40.495817,20.604819 C 39.894653,19.545326 38.899256,18.71373 37.641209,18.366532 C 36.383161,18.019336 35.10214,18.222682 34.042661,18.823868"
       style="opacity:1;color:#000000;fill:none;fill-opacity:1;fill-rule:evenodd;stroke:#babdb6;stroke-width:1.00000036;stroke-linecap:round;stroke-linejoin:miter;marker:none;marker-start:none;marker-mid:none;marker-end:none;stroke-miterlimit:4;stroke-dasharray:none;stroke-dashoffset:0;stroke-opacity:1;visibility:visible;display:inline;overflow:visible"
       id="path3227" />
  </g>
  <g
     id="layer2" />
</svg>
