<?xml version="1.0" encoding="UTF-8" standalone="no"?>
<!-- Created with Inkscape (http://www.inkscape.org/) -->
<svg
   xmlns:svg="http://www.w3.org/2000/svg"
   xmlns="http://www.w3.org/2000/svg"
   xmlns:xlink="http://www.w3.org/1999/xlink"
   version="1.0"
   width="48"
   height="48"
   id="svg11300">
  <defs
     id="defs3">
    <linearGradient
       id="linearGradient2891">
      <stop
         style="stop-color:#000000;stop-opacity:1"
         offset="0"
         id="stop2893" />
      <stop
         style="stop-color:#000000;stop-opacity:0"
         offset="1"
         id="stop2895" />
    </linearGradient>
    <linearGradient
       id="linearGradient2986">
      <stop
         style="stop-color:#a40000;stop-opacity:1"
         offset="0"
         id="stop2988" />
      <stop
         style="stop-color:#690000;stop-opacity:1"
         offset="1"
         id="stop2990" />
    </linearGradient>
    <linearGradient
       id="linearGradient2788">
      <stop
         style="stop-color:#f67f7f;stop-opacity:1"
         offset="0"
         id="stop2790" />
      <stop
         style="stop-color:#ef2929;stop-opacity:1"
         offset="1"
         id="stop2792" />
    </linearGradient>
    <linearGradient
       id="linearGradient2921">
      <stop
         style="stop-color:#ffffff;stop-opacity:1"
         offset="0"
         id="stop2923" />
      <stop
         style="stop-color:#ffffff;stop-opacity:0"
         offset="1"
         id="stop2925" />
    </linearGradient>
    <linearGradient
       id="linearGradient2862">
      <stop
         style="stop-color:#ffffff;stop-opacity:1"
         offset="0"
         id="stop2864" />
      <stop
         style="stop-color:#ffffff;stop-opacity:0"
         offset="1"
         id="stop2866" />
    </linearGradient>
    <linearGradient
       id="linearGradient2854">
      <stop
         style="stop-color:#ffffff;stop-opacity:1"
         offset="0"
         id="stop2856" />
      <stop
         style="stop-color:#ffffff;stop-opacity:0"
         offset="1"
         id="stop2858" />
    </linearGradient>
    <linearGradient
       id="linearGradient5170">
      <stop
         style="stop-color:#000000;stop-opacity:1"
         offset="0"
         id="stop5172" />
      <stop
         style="stop-color:#000000;stop-opacity:0"
         offset="1"
         id="stop5174" />
    </linearGradient>
    <linearGradient
       id="linearGradient5160">
      <stop
         style="stop-color:#ffffff;stop-opacity:1"
         offset="0"
         id="stop5162" />
      <stop
         style="stop-color:#d3d7cf;stop-opacity:1"
         offset="1"
         id="stop5164" />
    </linearGradient>
    <linearGradient
       id="linearGradient5152">
      <stop
         style="stop-color:#ffffff;stop-opacity:1"
         offset="0"
         id="stop5154" />
      <stop
         style="stop-color:#ffffff;stop-opacity:0"
         offset="1"
         id="stop5156" />
    </linearGradient>
    <linearGradient
       x1="23.28125"
       y1="21.40625"
       x2="21.78125"
       y2="55.90625"
       id="linearGradient5158"
       xlink:href="#linearGradient5152"
       gradientUnits="userSpaceOnUse" />
    <radialGradient
       cx="25.90625"
       cy="18.03125"
       r="19.005075"
       fx="25.90625"
       fy="18.03125"
       id="radialGradient5166"
       xlink:href="#linearGradient5160"
       gradientUnits="userSpaceOnUse"
       gradientTransform="matrix(0.73703,0,0,0.73703,6.812572,4.741682)" />
    <radialGradient
       cx="25.3125"
       cy="40.75"
       r="18.0625"
       fx="25.3125"
       fy="40.75"
       id="radialGradient5176"
       xlink:href="#linearGradient5170"
       gradientUnits="userSpaceOnUse"
       gradientTransform="matrix(1,0,0,0.352941,0,26.36765)" />
    <radialGradient
       cx="11"
       cy="19"
       r="10.5"
       fx="11"
       fy="19"
       id="radialGradient8458"
       xlink:href="#linearGradient2891"
       gradientUnits="userSpaceOnUse"
       gradientTransform="matrix(1,0,0,0.238095,0,14.47619)" />
    <linearGradient
       x1="27.762564"
       y1="71.519295"
       x2="24"
       y2="21.605078"
       id="linearGradient8460"
       xlink:href="#linearGradient2788"
       gradientUnits="userSpaceOnUse"
       gradientTransform="translate(5.875264,45.59708)" />
    <linearGradient
       x1="41.185291"
       y1="16.25"
       x2="43.331738"
       y2="37.5"
       id="linearGradient8462"
       xlink:href="#linearGradient2986"
       gradientUnits="userSpaceOnUse"
       gradientTransform="translate(5.875264,45.59708)" />
    <linearGradient
       x1="23.276466"
       y1="21.037874"
       x2="16.77494"
       y2="5.2555733"
       id="linearGradient8464"
       xlink:href="#linearGradient2921"
       gradientUnits="userSpaceOnUse"
       gradientTransform="translate(5.875264,45.59708)" />
    <linearGradient
       x1="14"
       y1="34"
       x2="20.636963"
       y2="8.25"
       id="linearGradient8466"
       xlink:href="#linearGradient2862"
       gradientUnits="userSpaceOnUse"
       gradientTransform="translate(5.875264,45.59708)" />
    <linearGradient
       x1="27.625"
       y1="23.25"
       x2="27.363037"
       y2="0.5"
       id="linearGradient8468"
       xlink:href="#linearGradient2854"
       gradientUnits="userSpaceOnUse"
       gradientTransform="translate(5.875264,45.59708)" />
  </defs>
  <g
     id="layer1">
    <path
       d="M 43.375 40.75 A 18.0625 6.375 0 1 1  7.25,40.75 A 18.0625 6.375 0 1 1  43.375 40.75 z"
       transform="matrix(1.138408,0,0,1.138408,-3.50346,-7.640138)"
       style="opacity:0.23595503;color:#000000;fill:url(#radialGradient5176);fill-opacity:1;fill-rule:evenodd;stroke:none;stroke-width:1;stroke-linecap:butt;stroke-linejoin:miter;marker:none;marker-start:none;marker-mid:none;marker-end:none;stroke-miterlimit:4;stroke-dasharray:none;stroke-dashoffset:0;stroke-opacity:1;visibility:visible;display:inline;overflow:visible"
       id="path5168" />
    <path
       d="M 23.5625,5.53125 L 23.5625,10.65625 C 20.993604,11.013501 18.646191,12.073753 16.71875,13.625 L 13,9.90625 C 11.095031,8.0012812 9.0459565,10.139706 10.90625,12 L 14.625,15.71875 C 13.067023,17.637172 12.020502,19.969868 11.65625,22.53125 L 6.53125,22.53125 C 3.7855147,22.53125 4.0547984,25.5 6.53125,25.5 L 11.5625,25.5 C 11.755706,28.205867 12.703674,30.683551 14.21875,32.75 L 10.90625,36.0625 C 9.09375,37.875 11.318297,39.837953 13,38.15625 L 16.1875,34.96875 C 18.204948,36.76564 20.755546,37.956654 23.5625,38.34375 L 23.5625,42.53125 C 23.5625,45.184373 26.53125,45.188786 26.53125,42.53125 L 26.53125,38.46875 C 29.46022,38.255502 32.127787,37.117213 34.28125,35.375 L 37.0625,38.15625 C 38.565102,39.835629 40.924017,37.741879 39.15625,36.0625 L 36.375,33.28125 C 38.125006,31.116256 39.228658,28.44297 39.4375,25.5 L 43.53125,25.5 C 45.566103,25.5 45.836136,22.53125 43.53125,22.53125 L 39.34375,22.53125 C 38.952144,19.73621 37.759213,17.197731 35.96875,15.1875 L 39.15625,12 C 40.74724,10.232233 38.65349,8.4036481 37.0625,9.90625 L 33.75,13.21875 C 31.691357,11.709397 29.225223,10.760857 26.53125,10.5625 L 26.53125,5.53125 C 26.53125,3.1431283 23.5625,3.3215413 23.5625,5.53125 z "
       style="opacity:1;color:#000000;fill:url(#radialGradient5166);fill-opacity:1;fill-rule:evenodd;stroke:#888a85;stroke-width:1.01015258;stroke-linecap:butt;stroke-linejoin:miter;marker:none;marker-start:none;marker-mid:none;marker-end:none;stroke-miterlimit:4;stroke-dasharray:none;stroke-dashoffset:0;stroke-opacity:1;visibility:visible;display:inline;overflow:visible"
       id="path4263" />
    <path
       d="M 25.09375,4.6875 C 24.802565,4.6962497 24.4375,4.830562 24.4375,5.53125 L 24.4375,10.65625 C 24.438113,11.093192 24.119395,11.465029 23.6875,11.53125 C 21.282157,11.865756 19.088867,12.85769 17.28125,14.3125 C 16.928459,14.600807 16.414327,14.573748 16.09375,14.25 L 12.375,10.53125 C 11.651494,9.8077446 11.33476,10.005814 11.1875,10.15625 C 11.04024,10.306686 10.835581,10.679331 11.53125,11.375 L 15.25,15.09375 C 15.573748,15.414327 15.600807,15.928459 15.3125,16.28125 C 13.853456,18.077851 12.872809,20.254443 12.53125,22.65625 C 12.465029,23.088145 12.093192,23.406863 11.65625,23.40625 L 6.53125,23.40625 C 6.0040952,23.40625 5.7220217,23.54544 5.59375,23.65625 C 5.4654783,23.76706 5.4636361,23.855992 5.46875,23.96875 C 5.4789779,24.194267 5.6462216,24.625 6.53125,24.625 L 11.5625,24.625 C 12.020654,24.628151 12.400467,24.980835 12.4375,25.4375 C 12.618808,27.976731 13.517676,30.282217 14.9375,32.21875 C 15.198879,32.573641 15.158888,33.066854 14.84375,33.375 L 11.53125,36.6875 C 11.198455,37.020295 11.132722,37.278629 11.125,37.4375 C 11.117278,37.596371 11.159115,37.695871 11.25,37.78125 C 11.431769,37.952008 11.793527,38.112723 12.375,37.53125 L 15.5625,34.34375 C 15.895436,34.010044 16.43165,33.996295 16.78125,34.3125 C 18.667254,35.992316 21.051823,37.105274 23.6875,37.46875 C 24.119395,37.534971 24.438113,37.906808 24.4375,38.34375 L 24.4375,42.53125 C 24.4375,43.528133 24.847358,43.62484 25.0625,43.625 C 25.277642,43.62516 25.65625,43.530887 25.65625,42.53125 L 25.65625,38.46875 C 25.659401,38.010596 26.012085,37.630783 26.46875,37.59375 C 29.20929,37.394221 31.696414,36.323628 33.71875,34.6875 C 34.071541,34.399193 34.585673,34.426252 34.90625,34.75 L 37.6875,37.53125 C 37.698175,37.541405 37.708595,37.551825 37.71875,37.5625 C 38.195082,38.094871 38.491333,37.932624 38.71875,37.71875 C 38.832458,37.611813 38.907672,37.489364 38.90625,37.34375 C 38.904828,37.198136 38.866787,37.007822 38.5625,36.71875 C 38.551825,36.708595 38.541405,36.698175 38.53125,36.6875 L 35.75,33.90625 C 35.426252,33.585673 35.399193,33.071541 35.6875,32.71875 C 37.328102,30.689104 38.366546,28.198849 38.5625,25.4375 C 38.599533,24.980835 38.979346,24.628151 39.4375,24.625 L 43.53125,24.625 C 44.118829,24.625 44.267023,24.281581 44.28125,23.96875 C 44.288364,23.812334 44.242164,23.683302 44.15625,23.59375 C 44.070336,23.504198 43.917728,23.40625 43.53125,23.40625 L 39.34375,23.40625 C 38.906808,23.406863 38.534971,23.088145 38.46875,22.65625 C 38.101164,20.032652 36.98685,17.661116 35.3125,15.78125 C 34.996295,15.43165 35.010044,14.895436 35.34375,14.5625 L 38.5,11.40625 C 38.515299,11.389252 38.517035,11.391435 38.53125,11.375 C 39.042145,10.784319 38.864072,10.540391 38.6875,10.375 C 38.506015,10.205007 38.180911,10.066987 37.65625,10.5625 L 34.375,13.84375 C 34.066854,14.158888 33.573641,14.198879 33.21875,13.9375 C 31.289159,12.522765 28.99632,11.623605 26.46875,11.4375 C 26.012085,11.400467 25.659401,11.020654 25.65625,10.5625 L 25.65625,5.53125 C 25.65625,5.1134947 25.532627,4.9419285 25.4375,4.84375 C 25.342373,4.7455715 25.239343,4.6831252 25.09375,4.6875 z "
       style="opacity:0.64606742;color:#000000;fill:none;fill-opacity:1;fill-rule:evenodd;stroke:url(#linearGradient5158);stroke-width:1;stroke-linecap:butt;stroke-linejoin:miter;marker:none;marker-start:none;marker-mid:none;marker-end:none;stroke-miterlimit:4;stroke-dasharray:none;stroke-dashoffset:0;stroke-opacity:1;visibility:visible;display:inline;overflow:visible"
       id="path5150" />
    <path
       d="M -27.223611,2.5138158 C -37.987614,2.5138158 -46.723621,11.249817 -46.723621,22.013826 C -46.723621,32.777835 -37.987615,41.513836 -27.223611,41.513836 C -16.459608,41.513836 -7.7236011,32.777835 -7.7236011,22.013826 C -7.7236011,11.249817 -16.459608,2.5138158 -27.223611,2.5138158 z "
       style="opacity:0.7;fill:none;fill-opacity:1;stroke:#ffffff;stroke-width:1.00000048;stroke-linecap:square;stroke-linejoin:round;stroke-miterlimit:4;stroke-dasharray:none;stroke-dashoffset:0;stroke-opacity:1"
       id="path2841" />
    <g
       transform="matrix(0.678383,2.055786e-2,-1.77511e-2,0.689201,6.327009,-23.28831)"
       id="g8450">
      <path
         d="M 21.5 19 A 10.5 2.5 0 1 1  0.5,19 A 10.5 2.5 0 1 1  21.5 19 z"
         transform="matrix(2.095238,0,0,2.6,6.827644,36.69709)"
         style="opacity:0.3;fill:url(#radialGradient8458);fill-opacity:1;stroke:none;stroke-width:1;stroke-linecap:round;stroke-linejoin:round;stroke-miterlimit:4;stroke-dasharray:none;stroke-dashoffset:0;stroke-opacity:1"
         id="path2894" />
      <path
         d="M 29.875264,48.097083 C 18.559267,48.097083 9.3752635,57.281079 9.3752635,68.597083 C 9.3752635,79.913087 18.559266,89.097083 29.875264,89.097083 C 41.191261,89.097083 50.375264,79.913087 50.375264,68.597083 C 50.375264,57.281079 41.191261,48.097083 29.875264,48.097083 z M 29.875264,55.097083 C 37.327276,55.097083 43.375264,61.145072 43.375264,68.597083 C 43.375265,71.057195 42.713949,73.360086 41.562764,75.347083 L 23.125264,56.909583 C 25.112261,55.758398 27.415152,55.097083 29.875264,55.097083 z M 18.187764,61.847083 L 36.625264,80.284583 C 34.638267,81.435768 32.335376,82.097083 29.875264,82.097083 C 22.423253,82.097082 16.375264,76.049094 16.375264,68.597083 C 16.375264,66.136971 17.036579,63.83408 18.187764,61.847083 z "
         style="opacity:1;fill:url(#linearGradient8460);fill-opacity:1;stroke:url(#linearGradient8462);stroke-width:1;stroke-linecap:square;stroke-linejoin:round;stroke-miterlimit:4;stroke-dasharray:none;stroke-dashoffset:0;stroke-opacity:1"
         id="path1937" />
      <path
         d="M 29.875264,48.597083 C 18.828496,48.597083 9.8752635,57.550308 9.8752635,68.597083 C 9.8752635,69.557037 9.9320455,70.485749 10.062764,71.409583 C 11.848851,74.102941 14.44384,75.097686 17.469014,75.097083 C 16.443545,73.151708 15.875264,70.945353 15.875264,68.597083 C 15.875264,66.047797 16.556916,63.656855 17.750264,61.597083 C 17.828202,61.458678 17.967529,61.365793 18.125264,61.347083 C 18.277486,61.334044 18.427262,61.39165 18.531514,61.503333 L 29.125264,72.097083 C 31.151429,71.273973 33.131182,70.415942 35.094014,69.565833 L 22.781514,57.253333 C 22.671925,57.145253 22.606925,56.999905 22.625264,56.847083 C 22.643602,56.694261 22.743216,56.551166 22.875264,56.472083 C 24.935036,55.278735 27.325978,54.597083 29.875264,54.597083 C 36.839696,54.597083 42.619473,59.710867 43.687764,66.378333 C 46.342534,65.743218 48.477843,65.821117 49.812764,67.190833 C 49.088287,56.803263 40.447198,48.597083 29.875264,48.597083 z "
         style="opacity:0.25;fill:url(#linearGradient8464);fill-opacity:1;stroke:none;stroke-width:1;stroke-linecap:square;stroke-linejoin:round;stroke-miterlimit:4;stroke-dasharray:none;stroke-dashoffset:0;stroke-opacity:1"
         id="path2912" />
      <path
         d="M 29.875276,49.097084 C 19.111273,49.097084 10.375266,57.833085 10.375266,68.597094 C 10.375266,79.361103 19.111272,88.097104 29.875276,88.097104 C 40.639279,88.097104 49.375286,79.361103 49.375286,68.597094 C 49.375286,57.833085 40.639279,49.097084 29.875276,49.097084 z "
         style="opacity:0.7;fill:none;fill-opacity:1;stroke:#ffffff;stroke-width:1.00000048;stroke-linecap:square;stroke-linejoin:round;stroke-miterlimit:4;stroke-dasharray:none;stroke-dashoffset:0;stroke-opacity:1"
         id="path8446" />
      <path
         d="M 18.031514,60.847083 C 18.351597,60.792489 18.678187,60.897464 18.906514,61.128333 L 37.344014,79.565833 C 37.573212,79.786388 37.683186,80.103208 37.639934,80.418337 C 37.596681,80.733465 37.405411,81.008938 37.125264,81.159583 C 34.992716,82.395094 32.513723,83.097083 29.875264,83.097083 C 21.884797,83.097082 15.375264,76.58755 15.375264,68.597083 C 15.375264,65.958624 16.077253,63.479631 17.312764,61.347083 C 17.462236,61.078326 17.727551,60.893759 18.031514,60.847083 L 18.031514,60.847083 z "
         style="opacity:0.7;fill:none;fill-opacity:1;stroke:url(#linearGradient8466);stroke-width:1;stroke-linecap:square;stroke-linejoin:round;stroke-miterlimit:4;stroke-dashoffset:0;stroke-opacity:1"
         id="path2847" />
      <path
         d="M 29.875264,54.097083 C 37.865732,54.097083 44.375264,60.606616 44.375264,68.597083 C 44.375265,71.235543 43.673275,73.714535 42.437764,75.847083 C 42.287119,76.12723 42.011646,76.3185 41.696518,76.361753 C 41.381389,76.405005 41.064569,76.295031 40.844014,76.065833 L 22.406514,57.628333 C 22.177316,57.407778 22.067342,57.090958 22.110594,56.775829 C 22.153847,56.460701 22.345117,56.185228 22.625264,56.034583 C 24.757812,54.799072 27.236805,54.097083 29.875264,54.097083 z "
         style="opacity:0.7;fill:none;fill-opacity:1;stroke:url(#linearGradient8468);stroke-width:1;stroke-linecap:square;stroke-linejoin:round;stroke-miterlimit:4;stroke-dashoffset:0;stroke-opacity:1"
         id="path2850" />
    </g>
  </g>
</svg>
