<?xml version="1.0" encoding="UTF-8" standalone="no"?>
<!-- Created with Inkscape (http://www.inkscape.org/) -->
<svg
   xmlns:svg="http://www.w3.org/2000/svg"
   xmlns="http://www.w3.org/2000/svg"
   xmlns:xlink="http://www.w3.org/1999/xlink"
   version="1.0"
   width="48"
   height="48"
   id="svg2913">
  <defs
     id="defs3">
    <linearGradient
       id="linearGradient4292">
      <stop
         style="stop-color:#aeb6a7;stop-opacity:1"
         offset="0"
         id="stop4294" />
      <stop
         style="stop-color:#dfe3dc;stop-opacity:1"
         offset="0.5"
         id="stop4300" />
      <stop
         style="stop-color:#a9b1a2;stop-opacity:1"
         offset="1"
         id="stop4296" />
    </linearGradient>
    <linearGradient
       id="linearGradient4097">
      <stop
         style="stop-color:#ffffff;stop-opacity:1"
         offset="0"
         id="stop4099" />
      <stop
         style="stop-color:#878787;stop-opacity:1"
         offset="1"
         id="stop4101" />
    </linearGradient>
    <linearGradient
       id="linearGradient4087">
      <stop
         style="stop-color:#ffffff;stop-opacity:1"
         offset="0"
         id="stop4089" />
      <stop
         style="stop-color:#ffffff;stop-opacity:0"
         offset="1"
         id="stop4091" />
    </linearGradient>
    <linearGradient
       id="linearGradient2673">
      <stop
         style="stop-color:#ffffff;stop-opacity:1"
         offset="0"
         id="stop2675" />
      <stop
         style="stop-color:#888a85;stop-opacity:1"
         offset="1"
         id="stop2677" />
    </linearGradient>
    <linearGradient
       id="linearGradient4264">
      <stop
         style="stop-color:#000000;stop-opacity:1"
         offset="0"
         id="stop4266" />
      <stop
         style="stop-color:#000000;stop-opacity:0"
         offset="1"
         id="stop4268" />
    </linearGradient>
    <linearGradient
       id="linearGradient4244">
      <stop
         style="stop-color:#ffffff;stop-opacity:1"
         offset="0"
         id="stop4246" />
      <stop
         style="stop-color:#d3d3d3;stop-opacity:1"
         offset="1"
         id="stop4248" />
    </linearGradient>
    <radialGradient
       cx="17.797907"
       cy="-1.8972808"
       r="20.935818"
       fx="17.797907"
       fy="-1.8972808"
       id="radialGradient4250"
       xlink:href="#linearGradient4244"
       gradientUnits="userSpaceOnUse"
       gradientTransform="matrix(0.631676,1.388567e-2,-1.063081e-2,0.485821,5.210096,4.674603)" />
    <radialGradient
       cx="23.201941"
       cy="27.096155"
       r="23.555494"
       fx="23.201941"
       fy="27.096155"
       id="radialGradient4270"
       xlink:href="#linearGradient4264"
       gradientUnits="userSpaceOnUse"
       gradientTransform="matrix(1,0,0,0.651032,0,9.455693)" />
    <radialGradient
       cx="15.5"
       cy="26.583336"
       r="11.5"
       fx="15.5"
       fy="26.583336"
       id="radialGradient4093"
       xlink:href="#linearGradient4087"
       gradientUnits="userSpaceOnUse"
       gradientTransform="matrix(1.532763,0,0,1.582745,-7.257824,-20.07462)" />
    <linearGradient
       x1="15.5"
       y1="34.375"
       x2="15.5"
       y2="27.5"
       id="linearGradient4103"
       xlink:href="#linearGradient4097"
       gradientUnits="userSpaceOnUse"
       gradientTransform="translate(1,0)" />
    <linearGradient
       x1="2.9959066"
       y1="24.503084"
       x2="27.995987"
       y2="24.503084"
       id="linearGradient4298"
       xlink:href="#linearGradient4292"
       gradientUnits="userSpaceOnUse"
       gradientTransform="translate(1,0)" />
    <radialGradient
       cx="41.245354"
       cy="34.418121"
       r="0.984375"
       fx="41.245354"
       fy="34.418121"
       id="radialGradient2377"
       xlink:href="#linearGradient2673"
       gradientUnits="userSpaceOnUse"
       gradientTransform="matrix(1.253968,0,0,1.253968,-10.36111,-8.56746)" />
    <linearGradient
       x1="21.993773"
       y1="33.955299"
       x2="20.917078"
       y2="15.814602"
       id="linearGradient3982"
       xlink:href="#linearGradient3957"
       gradientUnits="userSpaceOnUse" />
    <linearGradient
       x1="43.93581"
       y1="53.835983"
       x2="20.064686"
       y2="-8.5626707"
       id="linearGradient3980"
       xlink:href="#linearGradient2479"
       gradientUnits="userSpaceOnUse" />
    <linearGradient
       x1="36.917976"
       y1="66.288063"
       x2="19.071495"
       y2="5.5410109"
       id="linearGradient3978"
       xlink:href="#linearGradient2536"
       gradientUnits="userSpaceOnUse" />
    <linearGradient
       id="linearGradient2479">
      <stop
         style="stop-color:#ffe69b;stop-opacity:1"
         offset="0"
         id="stop2481" />
      <stop
         style="stop-color:#ffffff;stop-opacity:1"
         offset="1"
         id="stop2483" />
    </linearGradient>
    <linearGradient
       id="linearGradient2536">
      <stop
         style="stop-color:#a40000;stop-opacity:1"
         offset="0"
         id="stop2538" />
      <stop
         style="stop-color:#ff1717;stop-opacity:1"
         offset="1"
         id="stop2540" />
    </linearGradient>
    <linearGradient
       id="linearGradient3957">
      <stop
         style="stop-color:#fffeff;stop-opacity:0.33333334"
         offset="0"
         id="stop3959" />
      <stop
         style="stop-color:#fffeff;stop-opacity:0.21568628"
         offset="1"
         id="stop3961" />
    </linearGradient>
  </defs>
  <g
     id="layer2">
    <path
       d="M 46.757435 27.096155 A 23.555494 15.335379 0 1 1  -0.35355377,27.096155 A 23.555494 15.335379 0 1 1  46.757435 27.096155 z"
       transform="matrix(0.528197,0,0,0.363113,3.302863,32.72951)"
       style="opacity:0.56000001;color:#000000;fill:url(#radialGradient4270);fill-opacity:1;fill-rule:evenodd;stroke:none;stroke-width:1;stroke-linecap:round;stroke-linejoin:round;marker:none;marker-start:none;marker-mid:none;marker-end:none;stroke-miterlimit:4;stroke-dasharray:none;stroke-dashoffset:0;stroke-opacity:1;visibility:visible;display:inline;overflow:visible"
       id="path4262" />
    <path
       d="M 10.54317,3.5118657 C 9.9132464,3.5118657 9.5667896,3.5561236 9.2518288,4.0596999 C 9.2518278,4.0596999 4.8738605,9.379923 4.8738605,9.379923 C 4.4959065,9.7591977 4.4959065,10.288758 4.4959065,11.424941 C 4.4959065,11.424941 4.4959065,43.830508 4.4959065,43.830508 C 4.4959065,44.938967 5.1588737,45.494305 6.1652036,45.494303 L 26.889683,45.494303 C 27.882294,45.494303 28.495987,44.758977 28.495987,43.606536 L 28.495987,11.200969 C 28.495741,10.785813 28.432995,10.200173 28.086783,9.6966104 L 23.834554,4.1564688 C 23.396606,3.6323407 23.003654,3.5240559 22.511715,3.5118657 L 10.54317,3.5118657 z "
       style="fill:url(#linearGradient4298);fill-opacity:1;fill-rule:evenodd;stroke:#888a85;stroke-width:0.9999997;stroke-linecap:round;stroke-linejoin:round;stroke-miterlimit:4;stroke-dasharray:none;stroke-opacity:1"
       id="path4196" />
    <path
       d="M 5.5354257,9.347442 C 4.9059244,10.638045 5.3473831,11.018975 6.2607026,11.018975 C 6.2607026,11.018975 26.580984,11.050225 26.580984,11.050225 C 27.567202,11.029239 28.019695,10.595845 27.464986,9.911538 L 23.238232,4.6313905 C 22.950611,4.2114523 22.78619,4.0104929 22.356031,4 L 10.612455,4 C 10.061641,4 9.6996782,4.2675653 9.4793536,4.7554773 C 9.4793536,4.7554773 5.5354257,9.347442 5.5354257,9.347442 z "
       style="fill:url(#radialGradient4250);fill-opacity:1;fill-rule:evenodd;stroke:none;stroke-width:1px;stroke-linecap:butt;stroke-linejoin:miter;stroke-opacity:1"
       id="path3093" />
    <path
       d="M 42 33.984375 A 0.984375 0.984375 0 1 1  40.03125,33.984375 A 0.984375 0.984375 0 1 1  42 33.984375 z"
       transform="matrix(2.031748,0,0,2.031747,-60.33341,-29.04766)"
       style="opacity:1;color:#000000;fill:url(#radialGradient2377);fill-opacity:1;fill-rule:evenodd;stroke:none;stroke-width:1.02044296px;stroke-linecap:butt;stroke-linejoin:miter;marker:none;marker-start:none;marker-mid:none;marker-end:none;stroke-miterlimit:4;stroke-dasharray:none;stroke-dashoffset:0;stroke-opacity:1;visibility:visible;display:inline;overflow:visible;font-family:Bitstream Vera Sans"
       id="path2671" />
    <path
       d="M 10.646473,4.5128776 C 10.057784,4.5128776 10.202756,4.5550256 9.8459121,4.9095964 C 9.8459112,4.9095964 5.6920186,9.913703 5.6920186,9.913703 C 5.3388049,10.274898 5.4950549,10.841714 5.4950549,11.361235 C 5.4950549,11.361235 5.4950549,42.909521 5.4950549,42.909521 C 5.4950549,43.965138 6.1146254,44.494003 7.0550824,44.494002 L 26.580517,44.494002 C 27.633154,44.494002 27.48158,43.928185 27.49117,43.227475 C 27.49117,43.227475 27.49117,11.179189 27.49117,11.179189 C 27.49117,10.707033 27.307301,10.339217 27.137956,10.194472 L 23.567825,5.1267522 C 23.158545,4.6276094 22.791315,4.5244866 22.331577,4.5128776 L 10.646473,4.5128776 z "
       style="fill:none;fill-opacity:1;fill-rule:evenodd;stroke:#ffffff;stroke-width:0.99999976;stroke-linecap:round;stroke-linejoin:round;stroke-miterlimit:4;stroke-dasharray:none;stroke-opacity:1"
       id="path4081" />
    <rect
       width="22.40625"
       height="1.0312501"
       x="5"
       y="9.96875"
       style="opacity:1;color:#000000;fill:#ffffff;fill-opacity:1;fill-rule:evenodd;stroke:none;stroke-width:1;stroke-linecap:butt;stroke-linejoin:round;marker:none;marker-start:none;marker-mid:none;marker-end:none;stroke-miterlimit:4;stroke-dasharray:none;stroke-dashoffset:0;stroke-opacity:1;visibility:visible;display:inline;overflow:visible"
       id="rect4083" />
    <path
       d="M 5,11 L 28,11 C 28,11 22.125,23 16.375,23 C 10.625,23 5,11 5,11 z "
       style="opacity:0.79120878;color:#000000;fill:url(#radialGradient4093);fill-opacity:1;fill-rule:evenodd;stroke:none;stroke-width:1;stroke-linecap:butt;stroke-linejoin:round;marker:none;marker-start:none;marker-mid:none;marker-end:none;stroke-miterlimit:4;stroke-dasharray:none;stroke-dashoffset:0;stroke-opacity:1;visibility:visible;display:inline;overflow:visible"
       id="path4085" />
    <rect
       width="7"
       height="7"
       rx="2.25"
       ry="2.25"
       x="13"
       y="28"
       style="opacity:0.79120878;color:#000000;fill:#cccccc;fill-opacity:1;fill-rule:evenodd;stroke:url(#linearGradient4103);stroke-width:1;stroke-linecap:butt;stroke-linejoin:round;marker:none;marker-start:none;marker-mid:none;marker-end:none;stroke-miterlimit:4;stroke-dasharray:none;stroke-dashoffset:0;stroke-opacity:1;visibility:visible;display:inline;overflow:visible"
       id="rect4095" />
    <path
       d="M 42 33.984375 A 0.984375 0.984375 0 1 1  40.03125,33.984375 A 0.984375 0.984375 0 1 1  42 33.984375 z"
       transform="matrix(1.015875,0,0,1.015875,-18.66677,5.476111)"
       style="opacity:1;color:#000000;fill:#cee14b;fill-opacity:1;fill-rule:evenodd;stroke:none;stroke-width:1.02044296px;stroke-linecap:butt;stroke-linejoin:miter;marker:none;marker-start:none;marker-mid:none;marker-end:none;stroke-miterlimit:4;stroke-dasharray:none;stroke-dashoffset:0;stroke-opacity:1;visibility:visible;display:inline;overflow:visible;font-family:Bitstream Vera Sans"
       id="path2375" />
    <g
       transform="matrix(0.50181,0,0,0.50181,23.17801,18.42688)"
       id="g1491">
      <g
         id="g1493" />
      <g
         id="layer1">
        <g
           id="g4006">
          <path
             d="M 46.857143 23.928572 A 23.357143 23.357143 0 1 1  0.1428566,23.928572 A 23.357143 23.357143 0 1 1  46.857143 23.928572 z"
             transform="matrix(0.920488,0,0,0.920488,2.368532,0.97408)"
             style="fill:url(#linearGradient3978);fill-opacity:1;fill-rule:nonzero;stroke:#b20000;stroke-width:2.16492105;stroke-linecap:butt;stroke-linejoin:miter;stroke-miterlimit:4;stroke-dasharray:none;stroke-opacity:1"
             id="path1314" />
          <path
             d="M 49.901535 26.635273 A 23.991123 23.991123 0 1 1  1.9192886,26.635273 A 23.991123 23.991123 0 1 1  49.901535 26.635273 z"
             transform="matrix(0.804178,0,0,0.804178,3.163406,1.58053)"
             style="opacity:0.34659089;fill:#cc0000;fill-opacity:0;stroke:url(#linearGradient3980);stroke-width:2.47803497;stroke-linecap:butt;stroke-linejoin:miter;stroke-miterlimit:4;stroke-dasharray:none;stroke-opacity:1"
             id="path3560" />
        </g>
      </g>
      <g
         id="layer3">
        <path
           d="M 21.158162,27.488536 L 20.704556,6.8863757 L 26.590888,6.8863757 L 26.202083,27.488536 L 21.158162,27.488536 z "
           style="fill:#efefef;fill-opacity:1;fill-rule:nonzero;stroke:none;stroke-width:0.73876643;stroke-miterlimit:4;stroke-opacity:0.8627451"
           id="rect2070" />
      </g>
      <g
         id="layer4">
        <path
           d="M 43.370686,21.715486 C 43.370686,32.546102 33.016357,15.449178 24.695948,22.101874 C 16.569626,28.599385 4.0989837,34.292422 4.0989837,23.461806 C 4.0989837,12.377753 12.79438,2.0948032 23.625,2.0948032 C 34.455619,2.0948032 43.370686,10.884868 43.370686,21.715486 z "
           transform="matrix(1.002994,0,0,1.002994,-7.185874e-2,1.968356e-2)"
           style="fill:url(#linearGradient3982);fill-opacity:1;fill-rule:nonzero;stroke:none;stroke-width:1;stroke-linecap:round;stroke-linejoin:round;stroke-miterlimit:4;stroke-dashoffset:0;stroke-opacity:1"
           id="path3955" />
      </g>
    </g>
    <path
       d="M 35.797279 38.542446 A 1.8561553 1.8561553 0 1 1  32.084969,38.542446 A 1.8561553 1.8561553 0 1 1  35.797279 38.542446 z"
       transform="translate(1.191942,-3.176777)"
       style="opacity:1;color:#000000;fill:#efefef;fill-opacity:1;fill-rule:evenodd;stroke:none;stroke-width:1;stroke-linecap:butt;stroke-linejoin:miter;marker:none;marker-start:none;marker-mid:none;marker-end:none;stroke-miterlimit:4;stroke-dasharray:none;stroke-dashoffset:0;stroke-opacity:1;visibility:visible;display:inline;overflow:visible"
       id="path4327" />
  </g>
</svg>
