<?xml version="1.0" encoding="UTF-8" standalone="no"?>
<!-- Created with Inkscape (http://www.inkscape.org/) -->
<svg
   xmlns:svg="http://www.w3.org/2000/svg"
   xmlns="http://www.w3.org/2000/svg"
   xmlns:xlink="http://www.w3.org/1999/xlink"
   version="1.0"
   width="48"
   height="48"
   id="svg1328">
  <defs
     id="defs3">
    <linearGradient
       x1="16.3447"
       y1="30.360399"
       x2="34.009102"
       y2="13.0483"
       id="aigrd2"
       gradientUnits="userSpaceOnUse"
       gradientTransform="matrix(0.937963,0,0,0.937963,6.485913,12.6462)">
      <stop
         style="stop-color:#686868;stop-opacity:1"
         offset="0"
         id="stop3655" />
      <stop
         style="stop-color:#6d6d6d;stop-opacity:1"
         offset="1"
         id="stop3657" />
    </linearGradient>
    <linearGradient
       x1="6.8618002"
       y1="27.3535"
       x2="39.192001"
       y2="15.62"
       id="aigrd3"
       gradientUnits="userSpaceOnUse"
       gradientTransform="matrix(0.937963,0,0,0.937963,6.485913,12.6462)">
      <stop
         style="stop-color:#fcfcfc;stop-opacity:1"
         offset="0"
         id="stop3664" />
      <stop
         style="stop-color:#bbbbbb;stop-opacity:1"
         offset="1"
         id="stop3666" />
    </linearGradient>
    <linearGradient
       x1="14.9478"
       y1="19.6626"
       x2="37.1408"
       y2="11.6082"
       id="aigrd4"
       gradientUnits="userSpaceOnUse"
       gradientTransform="matrix(0.937963,0,0,0.937963,6.485913,12.6462)">
      <stop
         style="stop-color:#ebebeb;stop-opacity:1"
         offset="0"
         id="stop3671" />
      <stop
         style="stop-color:#818181;stop-opacity:1"
         offset="1"
         id="stop3673" />
    </linearGradient>
    <radialGradient
       cx="12.4722"
       cy="15.9321"
       r="6.1648998"
       fx="12.4722"
       fy="15.9321"
       id="aigrd6"
       gradientUnits="userSpaceOnUse"
       gradientTransform="matrix(0.907,0.4211,-0.4211,0.907,19.2898,-10.214)">
      <stop
         style="stop-color:#9e9e9e;stop-opacity:1"
         offset="0"
         id="stop3693" />
      <stop
         style="stop-color:#535353;stop-opacity:1"
         offset="1"
         id="stop3695" />
    </radialGradient>
    <radialGradient
       cx="14.5474"
       cy="15.9844"
       r="4.5099001"
       fx="14.5474"
       fy="15.9844"
       id="aigrd5"
       gradientUnits="userSpaceOnUse"
       gradientTransform="matrix(0.907,0.4211,-0.4211,0.907,19.2898,-10.214)">
      <stop
         style="stop-color:#efefef;stop-opacity:1"
         offset="0"
         id="stop3686" />
      <stop
         style="stop-color:#6d6d6d;stop-opacity:1"
         offset="1"
         id="stop3688" />
    </radialGradient>
    <linearGradient
       id="linearGradient3247">
      <stop
         style="stop-color:#f0f0f0;stop-opacity:1"
         offset="0"
         id="stop3249" />
      <stop
         style="stop-color:#f0f0f0;stop-opacity:0"
         offset="1"
         id="stop3251" />
    </linearGradient>
    <linearGradient
       id="linearGradient3233">
      <stop
         style="stop-color:#eeeeec;stop-opacity:1"
         offset="0"
         id="stop3235" />
      <stop
         style="stop-color:#a3a398;stop-opacity:1"
         offset="1"
         id="stop3237" />
    </linearGradient>
    <linearGradient
       id="linearGradient6924">
      <stop
         style="stop-color:#ffffff;stop-opacity:1"
         offset="0"
         id="stop6926" />
      <stop
         style="stop-color:#ffffff;stop-opacity:0"
         offset="1"
         id="stop6928" />
    </linearGradient>
    <linearGradient
       id="linearGradient4176">
      <stop
         style="stop-color:#ffffff;stop-opacity:1"
         offset="0"
         id="stop4178" />
      <stop
         style="stop-color:#ffffff;stop-opacity:0"
         offset="1"
         id="stop4180" />
    </linearGradient>
    <linearGradient
       id="linearGradient4134">
      <stop
         style="stop-color:#d6d7d5;stop-opacity:1"
         offset="0"
         id="stop4136" />
      <stop
         style="stop-color:#d1d2d0;stop-opacity:1"
         offset="0.25"
         id="stop4148" />
      <stop
         style="stop-color:#a5a6a3;stop-opacity:1"
         offset="0.5"
         id="stop4142" />
      <stop
         style="stop-color:#dddedc;stop-opacity:1"
         offset="1"
         id="stop4138" />
    </linearGradient>
    <linearGradient
       id="linearGradient4126">
      <stop
         style="stop-color:#000000;stop-opacity:1"
         offset="0"
         id="stop4128" />
      <stop
         style="stop-color:#000000;stop-opacity:0"
         offset="1"
         id="stop4130" />
    </linearGradient>
    <radialGradient
       cx="23.857143"
       cy="40"
       r="17.142857"
       fx="23.857143"
       fy="40"
       id="radialGradient4132"
       xlink:href="#linearGradient4126"
       gradientUnits="userSpaceOnUse"
       gradientTransform="matrix(1,0,0,0.5,0,20)" />
    <linearGradient
       x1="34.244171"
       y1="17.695425"
       x2="34.244171"
       y2="29.91827"
       id="linearGradient3253"
       xlink:href="#linearGradient3247"
       gradientUnits="userSpaceOnUse"
       gradientTransform="matrix(0.785824,0,0,0.785824,-4.234777,0.238816)" />
    <linearGradient
       x1="16.3447"
       y1="30.360399"
       x2="34.009102"
       y2="13.0483"
       id="linearGradient4678"
       xlink:href="#aigrd2"
       gradientUnits="userSpaceOnUse"
       gradientTransform="matrix(0.937963,0,0,0.937963,6.491274,12.62438)" />
    <linearGradient
       id="linearGradient3260">
      <stop
         style="stop-color:#3465a4;stop-opacity:1"
         offset="0"
         id="stop3262" />
      <stop
         style="stop-color:#8fb1dc;stop-opacity:1"
         offset="1"
         id="stop3264" />
    </linearGradient>
    <linearGradient
       id="linearGradient3815">
      <stop
         style="stop-color:#204a87;stop-opacity:1"
         offset="0"
         id="stop3817" />
      <stop
         style="stop-color:#98b8e7;stop-opacity:1"
         offset="1"
         id="stop3819" />
    </linearGradient>
    <linearGradient
       id="linearGradient3805">
      <stop
         style="stop-color:#284e7f;stop-opacity:1"
         offset="0"
         id="stop3807" />
      <stop
         style="stop-color:#6694cf;stop-opacity:1"
         offset="0.5"
         id="stop3813" />
      <stop
         style="stop-color:#234570;stop-opacity:1"
         offset="1"
         id="stop3809" />
    </linearGradient>
    <radialGradient
       cx="23.857143"
       cy="40"
       r="17.142857"
       fx="23.857143"
       fy="40"
       id="radialGradient4001"
       xlink:href="#linearGradient4126"
       gradientUnits="userSpaceOnUse"
       gradientTransform="matrix(1,0,0,0.5,0,20)" />
    <linearGradient
       x1="9.3030529"
       y1="26.71875"
       x2="38.826412"
       y2="26.71875"
       id="linearGradient4003"
       xlink:href="#linearGradient4134"
       gradientUnits="userSpaceOnUse"
       gradientTransform="matrix(0.765647,0,0,0.779023,-3.920058,-3.051141)" />
    <linearGradient
       x1="11.003058"
       y1="32.489445"
       x2="32.396713"
       y2="32.489445"
       id="linearGradient4005"
       xlink:href="#linearGradient3805"
       gradientUnits="userSpaceOnUse"
       gradientTransform="matrix(0.989992,0,0,1,0.971538,-1.949365)" />
    <linearGradient
       x1="17.160095"
       y1="14.004482"
       x2="37.969398"
       y2="56.575912"
       id="linearGradient4007"
       xlink:href="#linearGradient4176"
       gradientUnits="userSpaceOnUse"
       gradientTransform="matrix(0.747261,0,0,0.780131,-3.474617,-3.056018)" />
    <linearGradient
       x1="21.486856"
       y1="25.114395"
       x2="21.756248"
       y2="5.5616603"
       id="linearGradient4009"
       xlink:href="#linearGradient3260"
       gradientUnits="userSpaceOnUse" />
    <linearGradient
       x1="25.698481"
       y1="11.170371"
       x2="25.573168"
       y2="20.118456"
       id="linearGradient4011"
       xlink:href="#linearGradient3815"
       gradientUnits="userSpaceOnUse" />
    <linearGradient
       x1="34.244171"
       y1="17.695425"
       x2="34.244171"
       y2="29.91827"
       id="linearGradient4013"
       xlink:href="#linearGradient3247"
       gradientUnits="userSpaceOnUse"
       gradientTransform="matrix(0.785824,0,0,0.785824,-4.234777,-1.761184)" />
    <linearGradient
       x1="24"
       y1="17.245949"
       x2="23.433737"
       y2="8.0476589"
       id="linearGradient4015"
       xlink:href="#linearGradient3233"
       gradientUnits="userSpaceOnUse" />
    <radialGradient
       cx="23.857143"
       cy="40"
       r="17.142857"
       fx="23.857143"
       fy="40"
       id="radialGradient4017"
       xlink:href="#linearGradient4126"
       gradientUnits="userSpaceOnUse"
       gradientTransform="matrix(1,0,0,0.5,0,20)" />
    <linearGradient
       x1="16.07143"
       y1="19.5"
       x2="15.785715"
       y2="30"
       id="linearGradient4019"
       xlink:href="#linearGradient6924"
       gradientUnits="userSpaceOnUse"
       gradientTransform="matrix(0.785824,0,0,0.785824,-4.426418,-1.110872)" />
    <linearGradient
       x1="24"
       y1="17.245949"
       x2="23.433737"
       y2="8.0476589"
       id="linearGradient4021"
       xlink:href="#linearGradient3233"
       gradientUnits="userSpaceOnUse" />
  </defs>
  <g
     id="layer1">
    <path
       d="M 41 40 A 17.142857 8.5714283 0 1 1  6.7142868,40 A 17.142857 8.5714283 0 1 1  41 40 z"
       transform="matrix(0.831993,0,0,0.904687,-5.111713,-7.837026)"
       style="opacity:1;color:#000000;fill:url(#radialGradient4132);fill-opacity:1;fill-rule:nonzero;stroke:none;stroke-width:1;stroke-linecap:butt;stroke-linejoin:miter;marker:none;marker-start:none;marker-mid:none;marker-end:none;stroke-miterlimit:10;stroke-dasharray:none;stroke-dashoffset:0;stroke-opacity:1;visibility:visible;display:block;overflow:visible"
       id="path3366" />
    <path
       d="M 23.945195,9.421181 C 23.073626,8.6470578 22.336664,8.4113672 21.56379,8.0320273 L 21.80193,22.717366 L 23.945195,25.257532 L 23.945195,9.421181 z "
       style="opacity:0.68681317;color:#000000;fill:url(#linearGradient3253);fill-opacity:1;fill-rule:nonzero;stroke:none;stroke-width:0.99999946;stroke-linecap:butt;stroke-linejoin:miter;marker:none;marker-start:none;marker-mid:none;marker-end:none;stroke-miterlimit:10;stroke-dasharray:none;stroke-dashoffset:0;stroke-opacity:1;visibility:visible;display:block;overflow:visible"
       id="path3245" />
    <g
       transform="matrix(0.768432,0,0,0.768432,-3.85571,2.09236)"
       id="g2145">
      <g
         id="g2147">
        <path
           d="M 41 40 A 17.142857 8.5714283 0 1 1  6.7142868,40 A 17.142857 8.5714283 0 1 1  41 40 z"
           transform="matrix(1.05,0,0,1.167351,-1.05,-13.69991)"
           style="opacity:1;color:#000000;fill:url(#radialGradient4001);fill-opacity:1;fill-rule:nonzero;stroke:none;stroke-width:1;stroke-linecap:butt;stroke-linejoin:miter;marker:none;marker-start:none;marker-mid:none;marker-end:none;stroke-miterlimit:10;stroke-dasharray:none;stroke-dashoffset:0;stroke-opacity:1;visibility:visible;display:block;overflow:visible"
           id="path2149" />
        <path
           d="M 24.070833,5.0744743 C 16.126886,5.0744743 9.66759,7.8527224 9.667589,11.270388 C 9.667589,11.515632 9.667589,33.939854 9.667589,34.195264 C 9.667589,37.61293 16.126885,40.391177 24.070833,40.391177 C 32.014781,40.391177 38.73128,37.612929 38.731278,34.195264 C 38.731278,33.992969 38.731278,11.472683 38.731278,11.270388 C 38.731278,7.8527214 32.01478,5.0744743 24.070833,5.0744743 z "
           style="opacity:1;color:#000000;fill:url(#linearGradient4003);fill-opacity:1;fill-rule:nonzero;stroke:#767973;stroke-width:1.30135167;stroke-linecap:butt;stroke-linejoin:miter;marker:none;marker-start:none;marker-mid:none;marker-end:none;stroke-miterlimit:10;stroke-dasharray:none;stroke-dashoffset:0;stroke-opacity:1;visibility:visible;display:block;overflow:visible"
           id="path2151" />
        <path
           d="M 23.514787,14.946876 C 16.905361,15.081602 11.638389,17.286814 11.638389,19.975089 C 11.638389,20.29378 11.638389,33.16547 11.638389,33.481993 C 11.638389,36.256986 17.222416,38.510203 24.130599,38.510205 C 31.038781,38.510205 36.652133,36.256986 36.652134,33.481993 C 36.652134,33.16547 36.652134,20.29378 36.652134,19.975089 C 36.652134,17.200095 31.038781,14.946877 24.130599,14.946876 C 23.914719,14.946876 23.727993,14.94253 23.514787,14.946876 z "
           style="opacity:0.79120878;color:#000000;fill:url(#linearGradient4005);fill-opacity:1;fill-rule:nonzero;stroke:#204a87;stroke-width:1.29642594;stroke-linecap:butt;stroke-linejoin:miter;marker:none;marker-start:none;marker-mid:none;marker-end:none;stroke-miterlimit:10;stroke-dasharray:none;stroke-dashoffset:0;stroke-opacity:1;visibility:visible;display:block;overflow:visible"
           id="path2153" />
        <path
           d="M 24.079549,5.8545012 C 16.672988,5.8545012 10.650645,8.4484929 10.650644,11.639494 C 10.650644,11.868474 10.650644,33.367011 10.650644,33.605482 C 10.650644,36.796485 16.672987,39.390475 24.079549,39.390475 C 31.486109,39.390475 37.748255,36.796484 37.748253,33.605482 C 37.748253,33.416605 37.748253,11.828374 37.748253,11.639494 C 37.748253,8.4484919 31.486108,5.8545012 24.079549,5.8545012 z "
           style="opacity:0.5443038;color:#000000;fill:none;fill-opacity:1;fill-rule:nonzero;stroke:url(#linearGradient4007);stroke-width:1.30135179;stroke-linecap:butt;stroke-linejoin:miter;marker:none;marker-start:none;marker-mid:none;marker-end:none;stroke-miterlimit:10;stroke-dasharray:none;stroke-dashoffset:0;stroke-opacity:1;visibility:visible;display:block;overflow:visible"
           id="path2155" />
        <path
           d="M 36.857142 14.071428 A 12.857142 5.5 0 1 1  11.142858,14.071428 A 12.857142 5.5 0 1 1  36.857142 14.071428 z"
           transform="matrix(0.972641,0,0,0.865862,0.796499,7.150163)"
           style="opacity:1;color:#000000;fill:url(#linearGradient4009);fill-opacity:1;fill-rule:nonzero;stroke:url(#linearGradient4011);stroke-width:1.4180578;stroke-linecap:butt;stroke-linejoin:miter;marker:none;marker-start:none;marker-mid:none;marker-end:none;stroke-miterlimit:10;stroke-dasharray:none;stroke-dashoffset:0;stroke-opacity:1;visibility:visible;display:block;overflow:visible"
           id="path2157" />
        <path
           d="M 36.121972,9.5718499 C 35.00093,8.5867399 34.053023,8.2868119 33.058925,7.804083 L 33.365229,26.491906 L 36.121972,29.724393 L 36.121972,9.5718499 z "
           style="opacity:1;color:#000000;fill:url(#linearGradient4013);fill-opacity:1;fill-rule:nonzero;stroke:none;stroke-width:0.99999946;stroke-linecap:butt;stroke-linejoin:miter;marker:none;marker-start:none;marker-mid:none;marker-end:none;stroke-miterlimit:10;stroke-dasharray:none;stroke-dashoffset:0;stroke-opacity:1;visibility:visible;display:block;overflow:visible"
           id="path2159" />
        <path
           d="M 36.857142 14.071428 A 12.857142 5.5 0 1 1  11.142858,14.071428 A 12.857142 5.5 0 1 1  36.857142 14.071428 z"
           transform="matrix(1.048446,0,0,0.964345,-1.028695,-2.468578)"
           style="opacity:0.467033;color:#000000;fill:#f0f0f0;fill-opacity:1;fill-rule:nonzero;stroke:url(#linearGradient4015);stroke-width:1.29421115;stroke-linecap:butt;stroke-linejoin:miter;marker:none;marker-start:none;marker-mid:none;marker-end:none;stroke-miterlimit:10;stroke-dasharray:none;stroke-dashoffset:0;stroke-opacity:1;visibility:visible;display:block;overflow:visible"
           id="path2161" />
        <path
           d="M 41 40 A 17.142857 8.5714283 0 1 1  6.7142868,40 A 17.142857 8.5714283 0 1 1  41 40 z"
           transform="matrix(0.367338,0,0,0.36343,15.13767,-6.76548)"
           style="opacity:0.30769234;color:#000000;fill:url(#radialGradient4017);fill-opacity:1;fill-rule:nonzero;stroke:none;stroke-width:1;stroke-linecap:butt;stroke-linejoin:miter;marker:none;marker-start:none;marker-mid:none;marker-end:none;stroke-miterlimit:10;stroke-dasharray:none;stroke-dashoffset:0;stroke-opacity:1;visibility:visible;display:block;overflow:visible"
           id="path2163" />
        <path
           d="M 24.224554,3.5718369 C 22.200222,3.5718369 19.543466,4.2859899 19.543466,5.1645059 C 19.543466,5.2275459 19.543466,7.7285109 19.543466,7.7941649 C 19.543466,8.6726809 22.200222,9.3868339 24.224554,9.3868339 C 26.248887,9.3868339 28.6824,8.6726809 28.682399,7.7941649 C 28.682399,7.7421649 28.682399,5.2165059 28.682399,5.1645059 C 28.682399,4.2859889 26.248887,3.5718369 24.224554,3.5718369 z "
           style="opacity:1;color:#000000;fill:#9d9e9b;fill-opacity:1;fill-rule:nonzero;stroke:#7d7f7a;stroke-width:1.30135155;stroke-linecap:butt;stroke-linejoin:miter;marker:none;marker-start:none;marker-mid:none;marker-end:none;stroke-miterlimit:10;stroke-dasharray:none;stroke-dashoffset:0;stroke-opacity:1;visibility:visible;display:block;overflow:visible"
           id="path2165" />
        <path
           d="M 13.809878,15.815405 L 14.170861,32.60112 L 18.791451,33.886834 L 18.647058,17.172548 C 18.647058,17.172548 20.606753,17.08416 24,16.869874 C 17.432752,16.819891 13.143054,15.291704 10.777615,13.029691 C 12.209752,15.121867 13.809878,15.815405 13.809878,15.815405 z "
           style="opacity:0.58241763;color:#000000;fill:url(#linearGradient4019);fill-opacity:1;fill-rule:nonzero;stroke:none;stroke-width:1;stroke-linecap:butt;stroke-linejoin:miter;marker:none;marker-start:none;marker-mid:none;marker-end:none;stroke-miterlimit:4;stroke-dasharray:none;stroke-dashoffset:0;stroke-opacity:1;visibility:visible;display:block;overflow:visible"
           id="path2167" />
        <path
           d="M 36.857142 14.071428 A 12.857142 5.5 0 1 1  11.142858,14.071428 A 12.857142 5.5 0 1 1  36.857142 14.071428 z"
           transform="matrix(0.274904,0,0,0.192106,17.53316,2.740211)"
           style="opacity:1;color:#000000;fill:#d3d7cf;fill-opacity:1;fill-rule:nonzero;stroke:url(#linearGradient4021);stroke-width:5.66283321;stroke-linecap:butt;stroke-linejoin:miter;marker:none;marker-start:none;marker-mid:none;marker-end:none;stroke-miterlimit:10;stroke-dasharray:none;stroke-dashoffset:0;stroke-opacity:1;visibility:visible;display:block;overflow:visible"
           id="path2169" />
        <g
           transform="translate(-53.99282,-31.64138)"
           id="g4438" />
      </g>
      <g
         id="g2172" />
    </g>
    <path
       d="M 26.477944,23.504729 C 22.421711,23.607579 14.150491,24.784269 12.790444,38.129729 C 12.744645,38.624358 12.74288,39.109474 12.821694,39.567229 C 12.820125,39.575029 12.823213,39.590686 12.821694,39.598479 C 11.65696,45.57287 24.985283,49.232288 30.884194,43.754729 L 42.134194,32.598479 C 43.453209,31.279469 42.283613,28.558384 42.134194,28.223479 C 42.124233,28.201152 42.134194,28.192229 42.134194,28.192229 C 40.258271,25.003155 30.979612,23.504729 27.602944,23.504729 C 27.286381,23.504729 26.897554,23.494089 26.477944,23.504729 z "
       style="fill:url(#linearGradient4678);fill-rule:nonzero;stroke:#595959;stroke-width:2;stroke-miterlimit:4;stroke-dasharray:none;stroke-opacity:1"
       id="path3796" />
    <path
       d="M 42.128522,28.216386 L 13.802028,37.502224 C 8.5494326,44.630746 24.307217,49.88334 30.872961,43.786579 L 42.128522,32.624814 C 43.535467,31.217869 42.128522,28.216386 42.128522,28.216386 L 42.128522,28.216386 z "
       style="fill:url(#aigrd2);fill-rule:nonzero;stroke:none;stroke-miterlimit:4"
       id="path3659" />
    <path
       d="M 42.128522,28.685368 C 40.252595,25.496293 30.966757,23.995551 27.590089,23.995551 C 24.307217,23.995551 14.271009,23.901755 12.864064,38.62778 C 12.395082,43.692782 18.86703,46.975654 23.932032,45.381116 C 28.903238,43.786579 29.090831,36.001482 33.21787,32.812407 C 37.344908,29.623331 44.004448,31.96824 42.128522,28.779164 L 42.128522,28.685368 z "
       style="fill:#f0f0f0;fill-rule:nonzero;stroke:none;stroke-miterlimit:4"
       id="path3661" />
    <path
       d="M 42.128522,28.216386 C 40.252595,25.027311 30.966757,23.526569 27.590089,23.526569 C 24.213421,23.526569 14.271009,23.432773 12.770268,38.158798 C 12.301286,43.2238 18.773233,46.506672 23.838236,44.912135 C 28.809442,43.317597 28.997034,35.532501 33.124073,32.343425 C 37.251112,29.15435 43.910652,31.499258 42.034725,28.310183 L 42.128522,28.216386 z "
       style="fill:url(#aigrd3);fill-rule:nonzero;stroke:none;stroke-miterlimit:4"
       id="path3668" />
    <path
       d="M 42.316114,29.15435 C 42.597503,30.655091 36.406945,29.810924 35,31.311666 C 33.874444,29.248146 29.278423,27.09083 25.807959,26.34046 C 22.431291,25.590089 18.304252,26.152867 18.304252,26.152867 C 24.025828,20.900272 41.847133,24.464533 42.316114,29.15435 z "
       style="fill:url(#aigrd4);fill-rule:nonzero;stroke:none;stroke-miterlimit:4"
       id="path3675" />
    <path
       d="M 35.281389,32.906203 C 39.033243,31.030277 39.689817,32.249629 41.940929,30.373702 C 40.440188,32.437222 38.376668,31.874444 36.125556,33 L 35.187593,32.906203 L 35.281389,32.906203 z "
       style="opacity:0.3;fill:#ffffff;fill-rule:nonzero;stroke:none;stroke-miterlimit:4"
       id="path3677" />
    <path
       d="M 35.093796,31.311666 L 35.281389,33 C 39.220835,31.030277 39.689817,32.718611 42.316114,30.092313 C 39.408428,32.062036 38.282872,31.030277 35.468982,32.249629 L 35,31.405462 L 35.093796,31.311666 z "
       style="opacity:0.3;fill:#000000;fill-rule:nonzero;stroke:none;stroke-miterlimit:4"
       id="path3679" />
    <path
       d="M 25.807959,26.34046 L 26.370737,26.528052 C 29.090831,24.183144 36.406945,25.121107 36.406945,25.121107 C 36.406945,25.121107 28.621849,23.714162 25.807959,26.434256 L 25.807959,26.34046 z "
       style="opacity:0.3;fill:#000000;fill-rule:nonzero;stroke:none;stroke-miterlimit:4"
       id="path3681" />
    <path
       d="M 26.20941,24.025057 C 20.117023,24.369316 15.368888,26.322254 13.227823,38.428329 C 11.931817,45.756246 25.091441,48.415913 30.497575,43.395933 L 41.682784,32.296643 C 42.891612,31.087819 42.557636,28.712489 40.620284,27.349617 C 36.574842,24.503763 30.335022,24.025057 27.240431,24.025057 C 26.950313,24.025057 26.593967,24.015306 26.20941,24.025057 z "
       style="opacity:0.37362641;fill:none;fill-rule:nonzero;stroke:#ffffff;stroke-width:1;stroke-miterlimit:4;stroke-dasharray:none;stroke-opacity:1"
       id="path4680" />
    <g
       transform="matrix(0.937963,0,0,0.937963,6.485913,12.6462)"
       style="fill:#bababa;fill-rule:nonzero;stroke:#000000;stroke-miterlimit:4"
       id="g3683">
      <radialGradient
         cx="14.5474"
         cy="15.9844"
         r="4.5099001"
         fx="14.5474"
         fy="15.9844"
         id="radialGradient3782"
         gradientUnits="userSpaceOnUse"
         gradientTransform="matrix(0.907,0.4211,-0.4211,0.907,19.2898,-10.214)">
        <stop
           style="stop-color:#efefef;stop-opacity:1"
           offset="0"
           id="stop3784" />
        <stop
           style="stop-color:#6d6d6d;stop-opacity:1"
           offset="1"
           id="stop3786" />
      </radialGradient>
      <path
         d="M 26.8,11.2 C 25,10.9 23.9,12.1 23.5,13.1 C 24,13.7 24.5,13.9 25.7,13.8 C 27.5,13.7 28.3,13.6 29.5,12.8 C 28.9,12.2 28,11.3 26.8,11.1 L 26.8,11.2 z "
         style="fill:url(#aigrd5);stroke:none"
         id="path3690" />
      <radialGradient
         cx="12.4722"
         cy="15.9321"
         r="6.1648998"
         fx="12.4722"
         fy="15.9321"
         id="radialGradient3789"
         gradientUnits="userSpaceOnUse"
         gradientTransform="matrix(0.907,0.4211,-0.4211,0.907,19.2898,-10.214)">
        <stop
           style="stop-color:#9e9e9e;stop-opacity:1"
           offset="0"
           id="stop3791" />
        <stop
           style="stop-color:#535353;stop-opacity:1"
           offset="1"
           id="stop3793" />
      </radialGradient>
      <path
         d="M 27.6,11.9 C 26.5,11.7 25.9,13.2 25.7,13.9 C 26.8,13.8 28.6,13.6 29.3,12.8 C 29,12.4 28.4,12.1 27.6,12 L 27.6,11.9 z "
         style="fill:url(#aigrd6);stroke:none"
         id="path3697" />
    </g>
    <path
       d="M 47.583401,16.583175 C 45.951924,13.710074 43.218714,11.466737 39.805401,10.524727 C 36.392089,9.5827161 32.895163,10.106651 30.021016,11.736284"
       style="opacity:1;color:#000000;fill:none;fill-opacity:1;fill-rule:evenodd;stroke:#babdb6;stroke-width:1.00000036;stroke-linecap:round;stroke-linejoin:miter;marker:none;marker-start:none;marker-mid:none;marker-end:none;stroke-miterlimit:4;stroke-dasharray:none;stroke-dashoffset:0;stroke-opacity:1;visibility:visible;display:inline;overflow:visible"
       id="path3235" />
    <path
       d="M 44.039609,18.593997 C 42.924369,16.62814 41.057294,15.089766 38.723306,14.445628 C 36.389317,13.801493 33.997499,14.164492 32.031838,15.280076"
       style="opacity:1;color:#000000;fill:none;fill-opacity:1;fill-rule:evenodd;stroke:#babdb6;stroke-width:1.00000036;stroke-linecap:round;stroke-linejoin:miter;marker:none;marker-start:none;marker-mid:none;marker-end:none;stroke-miterlimit:4;stroke-dasharray:none;stroke-dashoffset:0;stroke-opacity:1;visibility:visible;display:inline;overflow:visible"
       id="path3233" />
    <path
       d="M 40.495817,20.604819 C 39.894653,19.545326 38.899256,18.71373 37.641209,18.366532 C 36.383161,18.019336 35.10214,18.222682 34.042661,18.823868"
       style="opacity:1;color:#000000;fill:none;fill-opacity:1;fill-rule:evenodd;stroke:#babdb6;stroke-width:1.00000036;stroke-linecap:round;stroke-linejoin:miter;marker:none;marker-start:none;marker-mid:none;marker-end:none;stroke-miterlimit:4;stroke-dasharray:none;stroke-dashoffset:0;stroke-opacity:1;visibility:visible;display:inline;overflow:visible"
       id="path3227" />
    <g
       transform="translate(73.50488,-12.57915)"
       id="g3893" />
  </g>
  <g
     id="layer2" />
</svg>
