<?xml version="1.0" encoding="UTF-8" standalone="no"?>
<!-- Created with Inkscape (http://www.inkscape.org/) -->
<svg
   xmlns:svg="http://www.w3.org/2000/svg"
   xmlns="http://www.w3.org/2000/svg"
   xmlns:xlink="http://www.w3.org/1999/xlink"
   version="1.0"
   width="48"
   height="48"
   id="svg1328">
  <defs
     id="defs3">
    <linearGradient
       id="linearGradient2245">
      <stop
         style="stop-color:#dde1d9;stop-opacity:1"
         offset="0"
         id="stop2247" />
      <stop
         style="stop-color:#cacdc6;stop-opacity:1"
         offset="1"
         id="stop2249" />
    </linearGradient>
    <linearGradient
       x1="18.316999"
       y1="48.643234"
       x2="18.176752"
       y2="52.536461"
       id="linearGradient2981"
       xlink:href="#linearGradient2245"
       gradientUnits="userSpaceOnUse"
       gradientTransform="matrix(1.129863,0,0,0.899111,0,1.555273)" />
    <linearGradient
       x1="8.1134243"
       y1="88.509071"
       x2="8.1134233"
       y2="100.20015"
       id="linearGradient2758"
       xlink:href="#linearGradient2752"
       gradientUnits="userSpaceOnUse"
       gradientTransform="matrix(2.012827,0,0,0.432928,4.489755,2.000006)" />
    <linearGradient
       x1="8.1134243"
       y1="88.509071"
       x2="8.1134233"
       y2="100.20015"
       id="linearGradient1411"
       xlink:href="#linearGradient2752"
       gradientUnits="userSpaceOnUse"
       gradientTransform="matrix(2.247004,0,0,0.432928,0.947581,2.000006)" />
    <linearGradient
       id="linearGradient2752">
      <stop
         style="stop-color:#9d9d9d;stop-opacity:1"
         offset="0"
         id="stop2754" />
      <stop
         style="stop-color:#b9b9b9;stop-opacity:1"
         offset="1"
         id="stop2756" />
    </linearGradient>
    <linearGradient
       x1="8.1134243"
       y1="88.509071"
       x2="8.1134233"
       y2="100.20015"
       id="linearGradient1409"
       xlink:href="#linearGradient2752"
       gradientUnits="userSpaceOnUse"
       gradientTransform="matrix(2.309851,0,0,0.432928,0,2.000006)" />
    <linearGradient
       id="linearGradient2635">
      <stop
         style="stop-color:#f9fff5;stop-opacity:1"
         offset="0"
         id="stop2637" />
      <stop
         style="stop-color:#f9fff5;stop-opacity:0"
         offset="1"
         id="stop2639" />
    </linearGradient>
    <linearGradient
       x1="13.62871"
       y1="101.2846"
       x2="8.6485014"
       y2="74.098007"
       id="linearGradient2741"
       xlink:href="#linearGradient2635"
       gradientUnits="userSpaceOnUse"
       gradientTransform="matrix(2.143634,0,0,0.480712,1,0.574206)" />
    <linearGradient
       id="linearGradient3247">
      <stop
         style="stop-color:#f0f0f0;stop-opacity:1"
         offset="0"
         id="stop3249" />
      <stop
         style="stop-color:#f0f0f0;stop-opacity:0"
         offset="1"
         id="stop3251" />
    </linearGradient>
    <linearGradient
       id="linearGradient3233">
      <stop
         style="stop-color:#eeeeec;stop-opacity:1"
         offset="0"
         id="stop3235" />
      <stop
         style="stop-color:#a3a398;stop-opacity:1"
         offset="1"
         id="stop3237" />
    </linearGradient>
    <linearGradient
       id="linearGradient6924">
      <stop
         style="stop-color:#ffffff;stop-opacity:1"
         offset="0"
         id="stop6926" />
      <stop
         style="stop-color:#ffffff;stop-opacity:0"
         offset="1"
         id="stop6928" />
    </linearGradient>
    <linearGradient
       id="linearGradient4176">
      <stop
         style="stop-color:#ffffff;stop-opacity:1"
         offset="0"
         id="stop4178" />
      <stop
         style="stop-color:#ffffff;stop-opacity:0"
         offset="1"
         id="stop4180" />
    </linearGradient>
    <linearGradient
       id="linearGradient4134">
      <stop
         style="stop-color:#d6d7d5;stop-opacity:1"
         offset="0"
         id="stop4136" />
      <stop
         style="stop-color:#d1d2d0;stop-opacity:1"
         offset="0.25"
         id="stop4148" />
      <stop
         style="stop-color:#a5a6a3;stop-opacity:1"
         offset="0.5"
         id="stop4142" />
      <stop
         style="stop-color:#dddedc;stop-opacity:1"
         offset="1"
         id="stop4138" />
    </linearGradient>
    <linearGradient
       id="linearGradient4126">
      <stop
         style="stop-color:#000000;stop-opacity:1"
         offset="0"
         id="stop4128" />
      <stop
         style="stop-color:#000000;stop-opacity:0"
         offset="1"
         id="stop4130" />
    </linearGradient>
    <radialGradient
       cx="23.857143"
       cy="40"
       r="17.142857"
       fx="23.857143"
       fy="40"
       id="radialGradient4132"
       xlink:href="#linearGradient4126"
       gradientUnits="userSpaceOnUse"
       gradientTransform="matrix(1,0,0,0.5,0,20)" />
    <linearGradient
       id="linearGradient3805">
      <stop
         style="stop-color:#284e7f;stop-opacity:1"
         offset="0"
         id="stop3807" />
      <stop
         style="stop-color:#6694cf;stop-opacity:1"
         offset="0.5"
         id="stop3813" />
      <stop
         style="stop-color:#234570;stop-opacity:1"
         offset="1"
         id="stop3809" />
    </linearGradient>
    <linearGradient
       id="linearGradient3815">
      <stop
         style="stop-color:#204a87;stop-opacity:1"
         offset="0"
         id="stop3817" />
      <stop
         style="stop-color:#98b8e7;stop-opacity:1"
         offset="1"
         id="stop3819" />
    </linearGradient>
    <linearGradient
       id="linearGradient3260">
      <stop
         style="stop-color:#3465a4;stop-opacity:1"
         offset="0"
         id="stop3262" />
      <stop
         style="stop-color:#8fb1dc;stop-opacity:1"
         offset="1"
         id="stop3264" />
    </linearGradient>
    <linearGradient
       x1="9.3030529"
       y1="26.71875"
       x2="38.826412"
       y2="26.71875"
       id="linearGradient2030"
       xlink:href="#linearGradient4134"
       gradientUnits="userSpaceOnUse"
       gradientTransform="matrix(0.573686,0,0,0.617087,49.87395,-4.037989)" />
    <linearGradient
       x1="17.160095"
       y1="14.004482"
       x2="37.969398"
       y2="56.575912"
       id="linearGradient2032"
       xlink:href="#linearGradient4176"
       gradientUnits="userSpaceOnUse"
       gradientTransform="matrix(0.559909,0,0,0.617965,50.20771,-4.041853)" />
    <linearGradient
       x1="34.244171"
       y1="17.695425"
       x2="34.244171"
       y2="29.91827"
       id="linearGradient2034"
       xlink:href="#linearGradient3247"
       gradientUnits="userSpaceOnUse"
       gradientTransform="matrix(0.588804,0,0,0.622475,49.63814,-3.016176)" />
    <linearGradient
       x1="11.003058"
       y1="32.489445"
       x2="32.396713"
       y2="32.489445"
       id="linearGradient2036"
       xlink:href="#linearGradient3805"
       gradientUnits="userSpaceOnUse"
       gradientTransform="matrix(0.757466,0,0,0.79213,52.62229,-3.308503)" />
    <linearGradient
       x1="21.486856"
       y1="25.114395"
       x2="21.756248"
       y2="5.5616603"
       id="linearGradient2038"
       xlink:href="#linearGradient3260"
       gradientUnits="userSpaceOnUse" />
    <linearGradient
       x1="25.698481"
       y1="11.170371"
       x2="25.573168"
       y2="20.118456"
       id="linearGradient2040"
       xlink:href="#linearGradient3815"
       gradientUnits="userSpaceOnUse" />
    <linearGradient
       x1="24"
       y1="17.245949"
       x2="23.433737"
       y2="8.0476589"
       id="linearGradient2042"
       xlink:href="#linearGradient3233"
       gradientUnits="userSpaceOnUse" />
    <radialGradient
       cx="23.857143"
       cy="40"
       r="17.142857"
       fx="23.857143"
       fy="40"
       id="radialGradient2044"
       xlink:href="#linearGradient4126"
       gradientUnits="userSpaceOnUse"
       gradientTransform="matrix(1,0,0,0.5,0,20)" />
    <linearGradient
       x1="16.07143"
       y1="19.5"
       x2="15.785715"
       y2="30"
       id="linearGradient2046"
       xlink:href="#linearGradient6924"
       gradientUnits="userSpaceOnUse"
       gradientTransform="matrix(0.588804,0,0,0.622475,49.49454,-2.501044)" />
    <linearGradient
       x1="24"
       y1="17.245949"
       x2="23.433737"
       y2="8.0476589"
       id="linearGradient2048"
       xlink:href="#linearGradient3233"
       gradientUnits="userSpaceOnUse" />
  </defs>
  <g
     id="layer1">
    <path
       d="M 41 40 A 17.142857 8.5714283 0 1 1  6.7142868,40 A 17.142857 8.5714283 0 1 1  41 40 z"
       transform="matrix(0.831993,0,0,0.904687,-5.111713,-7.837026)"
       style="opacity:1;color:#000000;fill:url(#radialGradient4132);fill-opacity:1;fill-rule:nonzero;stroke:none;stroke-width:1;stroke-linecap:butt;stroke-linejoin:miter;marker:none;marker-start:none;marker-mid:none;marker-end:none;stroke-miterlimit:10;stroke-dasharray:none;stroke-dashoffset:0;stroke-opacity:1;visibility:visible;display:block;overflow:visible"
       id="path3366" />
    <g
       transform="translate(-56.21499,1.59099)"
       id="g2018">
      <path
         d="M 70.754127,2.3850427 C 64.800881,2.3850427 59.960242,4.5857764 59.960241,7.2930121 C 59.960241,7.4872772 59.960241,25.250176 59.960241,25.452494 C 59.960241,28.15973 64.80088,30.360463 70.754127,30.360463 C 76.707374,30.360463 81.740762,28.159729 81.740761,25.452494 C 81.740761,25.29225 81.740761,7.453256 81.740761,7.2930121 C 81.740761,4.5857756 76.707373,2.3850427 70.754127,2.3850427 z "
         style="color:#000000;fill:url(#linearGradient2030);fill-opacity:1;fill-rule:nonzero;stroke:#767973;stroke-width:0.9999997;stroke-linecap:butt;stroke-linejoin:miter;marker:none;marker-start:none;marker-mid:none;marker-end:none;stroke-miterlimit:10;stroke-dasharray:none;stroke-dashoffset:0;stroke-opacity:1;visibility:visible;display:block;overflow:visible"
         id="path1912" />
      <path
         d="M 70.760659,3.0029254 C 65.210133,3.0029254 60.69695,5.0577041 60.69695,7.585392 C 60.69695,7.7667739 60.69695,24.79641 60.69695,24.98531 C 60.69695,27.512999 65.210132,29.567777 70.760659,29.567777 C 76.311184,29.567777 81.004077,27.512999 81.004075,24.98531 C 81.004075,24.835695 81.004075,7.7350095 81.004075,7.585392 C 81.004075,5.0577033 76.311183,3.0029254 70.760659,3.0029254 z "
         style="opacity:0.5443038;color:#000000;fill:none;fill-opacity:1;fill-rule:nonzero;stroke:url(#linearGradient2032);stroke-width:0.99999982;stroke-linecap:butt;stroke-linejoin:miter;marker:none;marker-start:none;marker-mid:none;marker-end:none;stroke-miterlimit:10;stroke-dasharray:none;stroke-dashoffset:0;stroke-opacity:1;visibility:visible;display:block;overflow:visible"
         id="path1914" />
      <path
         d="M 79.785332,5.9475489 C 78.945215,5.1672137 78.234848,4.9296317 77.489865,4.5472477 L 77.71941,19.350433 L 79.785332,21.910983 L 79.785332,5.9475489 z "
         style="color:#000000;fill:url(#linearGradient2034);fill-opacity:1;fill-rule:nonzero;stroke:none;stroke-width:0.99999946;stroke-linecap:butt;stroke-linejoin:miter;marker:none;marker-start:none;marker-mid:none;marker-end:none;stroke-miterlimit:10;stroke-dasharray:none;stroke-dashoffset:0;stroke-opacity:1;visibility:visible;display:block;overflow:visible"
         id="path1916" />
      <path
         d="M 70.322762,4.2335617 C 65.320374,4.3402822 61.334032,6.0870968 61.334032,8.2165604 C 61.334032,8.4690051 61.334032,24.507016 61.334032,24.757743 C 61.334032,26.955898 65.560341,28.740739 70.788844,28.740741 C 76.017348,28.740741 80.26585,26.955898 80.265851,24.757743 C 80.265851,24.507016 80.265851,8.4690051 80.265851,8.2165604 C 80.265851,6.0184041 76.017348,4.2335625 70.788844,4.2335617 C 70.625453,4.2335617 70.484129,4.2301191 70.322762,4.2335617 z "
         style="opacity:0.79120878;color:#000000;fill:url(#linearGradient2036);fill-opacity:1;fill-rule:nonzero;stroke:#204a87;stroke-width:0.99621493;stroke-linecap:butt;stroke-linejoin:miter;marker:none;marker-start:none;marker-mid:none;marker-end:none;stroke-miterlimit:10;stroke-dasharray:none;stroke-dashoffset:0;stroke-opacity:1;visibility:visible;display:block;overflow:visible"
         id="path1918" />
      <path
         d="M 36.857142 14.071428 A 12.857142 5.5 0 1 1  11.142858,14.071428 A 12.857142 5.5 0 1 1  36.857142 14.071428 z"
         transform="matrix(0.736706,0,0,0.685875,53.11824,-2.056787)"
         style="color:#000000;fill:url(#linearGradient2038);fill-opacity:1;fill-rule:nonzero;stroke:url(#linearGradient2040);stroke-width:1.4067924;stroke-linecap:butt;stroke-linejoin:miter;marker:none;marker-start:none;marker-mid:none;marker-end:none;stroke-miterlimit:10;stroke-dasharray:none;stroke-dashoffset:0;stroke-opacity:1;visibility:visible;display:block;overflow:visible"
         id="path1920" />
      <path
         d="M 36.857142 14.071428 A 12.857142 5.5 0 1 1  11.142858,14.071428 A 12.857142 5.5 0 1 1  36.857142 14.071428 z"
         transform="matrix(0.785713,0,0,0.763887,51.94438,-3.590035)"
         style="opacity:0.467033;color:#000000;fill:#f0f0f0;fill-opacity:1;fill-rule:nonzero;stroke:url(#linearGradient2042);stroke-width:1.29078352;stroke-linecap:butt;stroke-linejoin:miter;marker:none;marker-start:none;marker-mid:none;marker-end:none;stroke-miterlimit:10;stroke-dasharray:none;stroke-dashoffset:0;stroke-opacity:1;visibility:visible;display:block;overflow:visible"
         id="path1922" />
      <path
         d="M 41 40 A 17.142857 8.5714283 0 1 1  6.7142868,40 A 17.142857 8.5714283 0 1 1  41 40 z"
         transform="matrix(0.275285,0,0,0.287884,64.05955,-6.99374)"
         style="opacity:0.30769234;color:#000000;fill:url(#radialGradient2044);fill-opacity:1;fill-rule:nonzero;stroke:none;stroke-width:1;stroke-linecap:butt;stroke-linejoin:miter;marker:none;marker-start:none;marker-mid:none;marker-end:none;stroke-miterlimit:10;stroke-dasharray:none;stroke-dashoffset:0;stroke-opacity:1;visibility:visible;display:block;overflow:visible"
         id="path1924" />
      <path
         d="M 70.869327,1.1947586 C 69.352279,1.1947586 67.361289,1.7604606 67.361289,2.4563595 C 67.361289,2.5062953 67.361289,4.4873847 67.361289,4.5393912 C 67.361289,5.2352901 69.352279,5.8009921 70.869327,5.8009921 C 72.386375,5.8009921 74.210066,5.2352901 74.210065,4.5393912 C 74.210065,4.4982005 74.210065,2.4975502 74.210065,2.4563595 C 74.210065,1.7604598 72.386375,1.1947586 70.869327,1.1947586 z "
         style="color:#000000;fill:#9d9e9b;fill-opacity:1;fill-rule:nonzero;stroke:#7d7f7a;stroke-width:0.99999964;stroke-linecap:butt;stroke-linejoin:miter;marker:none;marker-start:none;marker-mid:none;marker-end:none;stroke-miterlimit:10;stroke-dasharray:none;stroke-dashoffset:0;stroke-opacity:1;visibility:visible;display:block;overflow:visible"
         id="path1926" />
      <path
         d="M 63.0645,10.893256 L 63.335023,24.189725 L 66.797725,25.208177 L 66.689515,11.96829 C 66.689515,11.96829 68.158125,11.898275 70.701045,11.728533 C 65.779506,11.68894 62.564778,10.478417 60.792103,8.6866088 C 61.865355,10.343884 63.0645,10.893256 63.0645,10.893256 z "
         style="opacity:0.58241763;color:#000000;fill:url(#linearGradient2046);fill-opacity:1;fill-rule:nonzero;stroke:none;stroke-width:1;stroke-linecap:butt;stroke-linejoin:miter;marker:none;marker-start:none;marker-mid:none;marker-end:none;stroke-miterlimit:4;stroke-dasharray:none;stroke-dashoffset:0;stroke-opacity:1;visibility:visible;display:block;overflow:visible"
         id="path1928" />
      <path
         d="M 36.857142 14.071428 A 12.857142 5.5 0 1 1  11.142858,14.071428 A 12.857142 5.5 0 1 1  36.857142 14.071428 z"
         transform="matrix(0.206015,0,0,0.152173,65.85475,0.536003)"
         style="color:#000000;fill:#d3d7cf;fill-opacity:1;fill-rule:nonzero;stroke:url(#linearGradient2048);stroke-width:5.64783573;stroke-linecap:butt;stroke-linejoin:miter;marker:none;marker-start:none;marker-mid:none;marker-end:none;stroke-miterlimit:10;stroke-dasharray:none;stroke-dashoffset:0;stroke-opacity:1;visibility:visible;display:block;overflow:visible"
         id="path1930" />
    </g>
    <path
       d="M 9.087933,30.526749 L 40.090339,30.526749 C 41.209588,30.526749 41.067694,31.003931 41.182566,31.604117 L 44.017212,46.414716 C 44.132084,47.014905 44.044234,47.492084 42.924985,47.492084 L 6.253287,47.492084 C 5.134038,47.492084 5.046188,47.014905 5.16106,46.414716 L 7.995705,31.604117 C 8.110577,31.003929 7.968684,30.526749 9.087933,30.526749 z "
       style="opacity:1;color:#000000;fill:url(#linearGradient2981);fill-opacity:1;fill-rule:evenodd;stroke:#888a85;stroke-width:1.00000012;stroke-linecap:butt;stroke-linejoin:miter;marker:none;marker-start:none;marker-mid:none;marker-end:none;stroke-miterlimit:4;stroke-dasharray:none;stroke-dashoffset:0;stroke-opacity:1;visibility:visible;display:inline;overflow:visible"
       id="path2409" />
    <path
       d="M 9.719669,34 L 8,42.871484 L 13.330974,42.871484 L 13.846875,39.353482 L 28.292093,39.353482 L 28.826817,42.94448 L 34.826835,42.94448 L 33.19315,34 L 9.719669,34 z "
       style="fill:#7a7d77;fill-opacity:1;fill-rule:evenodd;stroke:none;stroke-width:0.25pt;stroke-linecap:butt;stroke-linejoin:miter;stroke-opacity:1"
       id="path2611" />
    <path
       d="M 13.702021,39.965309 L 13.260079,42.871485 L 28.020933,42.871485 L 27.578991,39.812354 L 13.702021,39.965309 z "
       style="fill:#777874;fill-opacity:1;fill-rule:evenodd;stroke:none;stroke-width:0.25pt;stroke-linecap:butt;stroke-linejoin:miter;stroke-opacity:1"
       id="path2613" />
    <path
       d="M 39.536573,34.000002 L 41,42.718528 L 36.224606,42.56557 L 34.915224,34.152958 L 39.536573,34.000002 z "
       style="color:#000000;fill:#777a75;fill-opacity:1;fill-rule:evenodd;stroke:none;stroke-width:0.25pt;stroke-linecap:butt;stroke-linejoin:miter;marker:none;marker-start:none;marker-mid:none;marker-end:none;stroke-miterlimit:4;stroke-dashoffset:0;stroke-opacity:1;visibility:visible;display:inline;overflow:visible"
       id="path2619" />
    <path
       d="M 39.536573,33.082266 L 41,41.800792 L 36.224606,41.647834 L 34.915224,33.235222 L 39.536573,33.082266 z "
       style="opacity:1;color:#000000;fill:url(#linearGradient2758);fill-opacity:1;fill-rule:evenodd;stroke:none;stroke-width:0.25pt;stroke-linecap:butt;stroke-linejoin:miter;marker:none;marker-start:none;marker-mid:none;marker-end:none;stroke-miterlimit:4;stroke-dasharray:none;stroke-dashoffset:0;stroke-opacity:1;visibility:visible;display:inline;overflow:visible"
       id="path2615" />
    <path
       d="M 9.719669,32.929308 L 8,41.800792 L 13.330974,41.800792 L 13.846875,38.28279 L 28.292093,38.28279 L 28.826817,41.873788 L 34.826835,41.873788 L 33.19315,32.929308 L 9.719669,32.929308 z "
       style="fill:url(#linearGradient1411);fill-opacity:1;fill-rule:evenodd;stroke:none;stroke-width:0.25pt;stroke-linecap:butt;stroke-linejoin:miter;stroke-opacity:1"
       id="path2617" />
    <path
       d="M 13.702021,39.047574 L 13.260079,41.953749 L 28.020933,41.953749 L 27.578991,38.894618 L 13.702021,39.047574 z "
       style="opacity:1;color:#000000;fill:url(#linearGradient1409);fill-opacity:1;fill-rule:evenodd;stroke:none;stroke-width:0.25pt;stroke-linecap:butt;stroke-linejoin:miter;marker:none;marker-start:none;marker-mid:none;marker-end:none;stroke-miterlimit:4;stroke-dasharray:none;stroke-dashoffset:0;stroke-opacity:1;visibility:visible;display:inline;overflow:visible"
       id="path2621" />
    <path
       d="M 8.753568,31.842756 L 40.579383,31.842756 L 43.216562,46.273693 L 5.955492,46.273693 L 8.753568,31.842756 z "
       style="color:#000000;fill:none;fill-opacity:1;fill-rule:evenodd;stroke:url(#linearGradient2741);stroke-width:0.5;stroke-linecap:butt;stroke-linejoin:round;marker:none;marker-start:none;marker-mid:none;marker-end:none;stroke-miterlimit:4;stroke-dashoffset:0;stroke-opacity:1;visibility:visible;display:inline;overflow:visible"
       id="path2631" />
    <path
       d="M 35,30.410719 C 35.952996,27.97325 35.683185,23.49777 36,20 C 36.28086,23.840776 36.295592,29.411387 37,30.499107 L 35,30.410719 z "
       style="opacity:1;color:#000000;fill:#dde1d9;fill-opacity:1;fill-rule:evenodd;stroke:#888a85;stroke-width:1;stroke-linecap:butt;stroke-linejoin:miter;marker:none;marker-start:none;marker-mid:none;marker-end:none;stroke-miterlimit:4;stroke-dasharray:none;stroke-dashoffset:0;stroke-opacity:1;visibility:visible;display:inline;overflow:visible"
       id="path2460" />
    <path
       d="M 37.38827 20.246059 A 1.5909903 1.5909903 0 1 1  34.206289,20.246059 A 1.5909903 1.5909903 0 1 1  37.38827 20.246059 z"
       transform="translate(0.293711,-0.33705)"
       style="opacity:1;color:#000000;fill:#555753;fill-opacity:1;fill-rule:evenodd;stroke:#2e3436;stroke-width:1;stroke-linecap:butt;stroke-linejoin:miter;marker:none;marker-start:none;marker-mid:none;marker-end:none;stroke-miterlimit:4;stroke-dasharray:none;stroke-dashoffset:0;stroke-opacity:1;visibility:visible;display:inline;overflow:visible"
       id="path3335" />
    <path
       d="M 45.015718,9.3976952 C 42.678687,7.0621628 39.447165,5.6268006 35.906249,5.6268006 C 32.365333,5.6268006 29.133811,7.0621628 26.79678,9.3976952"
       style="opacity:1;color:#000000;fill:none;fill-opacity:1;fill-rule:evenodd;stroke:#babdb6;stroke-width:1.00000036;stroke-linecap:round;stroke-linejoin:miter;marker:none;marker-start:none;marker-mid:none;marker-end:none;stroke-miterlimit:4;stroke-dasharray:none;stroke-dashoffset:0;stroke-opacity:1;visibility:visible;display:inline;overflow:visible"
       id="path3235" />
    <path
       d="M 42.134584,12.278829 C 40.536545,10.680509 38.327491,9.6942816 35.906249,9.6942816 C 33.485007,9.6942836 31.275953,10.680511 29.677914,12.278829"
       style="opacity:1;color:#000000;fill:none;fill-opacity:1;fill-rule:evenodd;stroke:#babdb6;stroke-width:1.00000036;stroke-linecap:round;stroke-linejoin:miter;marker:none;marker-start:none;marker-mid:none;marker-end:none;stroke-miterlimit:4;stroke-dasharray:none;stroke-dashoffset:0;stroke-opacity:1;visibility:visible;display:inline;overflow:visible"
       id="path3233" />
    <path
       d="M 39.25345,15.159963 C 38.392087,14.298582 37.211327,13.761765 35.906249,13.761765 C 34.60117,13.761767 33.42041,14.298582 32.559049,15.159963"
       style="opacity:1;color:#000000;fill:none;fill-opacity:1;fill-rule:evenodd;stroke:#babdb6;stroke-width:1.00000036;stroke-linecap:round;stroke-linejoin:miter;marker:none;marker-start:none;marker-mid:none;marker-end:none;stroke-miterlimit:4;stroke-dasharray:none;stroke-dashoffset:0;stroke-opacity:1;visibility:visible;display:inline;overflow:visible"
       id="path3227" />
    <g
       transform="matrix(0.749282,0,0,0.79213,52.81118,-1.621089)"
       id="g1932" />
  </g>
  <g
     id="layer2" />
</svg>
