<?xml version="1.0" encoding="UTF-8" standalone="no"?>
<!-- Created with Inkscape (http://www.inkscape.org/) -->
<svg
   xmlns:svg="http://www.w3.org/2000/svg"
   xmlns="http://www.w3.org/2000/svg"
   xmlns:xlink="http://www.w3.org/1999/xlink"
   version="1.0"
   width="48"
   height="48"
   id="svg1328">
  <defs
     id="defs3">
    <linearGradient
       id="linearGradient1535">
      <stop
         style="stop-color:#f67800;stop-opacity:1"
         offset="0"
         id="stop1537" />
      <stop
         style="stop-color:#fcaf3e;stop-opacity:1"
         offset="1"
         id="stop1539" />
    </linearGradient>
    <linearGradient
       id="linearGradient1523">
      <stop
         style="stop-color:#ce5c00;stop-opacity:1"
         offset="0"
         id="stop1525" />
      <stop
         style="stop-color:#fcaf3e;stop-opacity:1"
         offset="1"
         id="stop1527" />
    </linearGradient>
    <linearGradient
       id="linearGradient3338">
      <stop
         style="stop-color:#c36000;stop-opacity:1"
         offset="0"
         id="stop3340" />
      <stop
         style="stop-color:#fcaf3e;stop-opacity:1"
         offset="0.5"
         id="stop3346" />
      <stop
         style="stop-color:#f57900;stop-opacity:1"
         offset="1"
         id="stop3342" />
    </linearGradient>
    <linearGradient
       id="linearGradient3247">
      <stop
         style="stop-color:#f0f0f0;stop-opacity:1"
         offset="0"
         id="stop3249" />
      <stop
         style="stop-color:#f0f0f0;stop-opacity:0"
         offset="1"
         id="stop3251" />
    </linearGradient>
    <linearGradient
       id="linearGradient3233">
      <stop
         style="stop-color:#eeeeec;stop-opacity:1"
         offset="0"
         id="stop3235" />
      <stop
         style="stop-color:#a3a398;stop-opacity:1"
         offset="1"
         id="stop3237" />
    </linearGradient>
    <linearGradient
       id="linearGradient6924">
      <stop
         style="stop-color:#ffffff;stop-opacity:1"
         offset="0"
         id="stop6926" />
      <stop
         style="stop-color:#ffffff;stop-opacity:0"
         offset="1"
         id="stop6928" />
    </linearGradient>
    <linearGradient
       id="linearGradient4176">
      <stop
         style="stop-color:#ffffff;stop-opacity:1"
         offset="0"
         id="stop4178" />
      <stop
         style="stop-color:#ffffff;stop-opacity:0"
         offset="1"
         id="stop4180" />
    </linearGradient>
    <linearGradient
       id="linearGradient4134">
      <stop
         style="stop-color:#d6d7d5;stop-opacity:1"
         offset="0"
         id="stop4136" />
      <stop
         style="stop-color:#d1d2d0;stop-opacity:1"
         offset="0.25"
         id="stop4148" />
      <stop
         style="stop-color:#a5a6a3;stop-opacity:1"
         offset="0.5"
         id="stop4142" />
      <stop
         style="stop-color:#dddedc;stop-opacity:1"
         offset="1"
         id="stop4138" />
    </linearGradient>
    <linearGradient
       id="linearGradient4126">
      <stop
         style="stop-color:#000000;stop-opacity:1"
         offset="0"
         id="stop4128" />
      <stop
         style="stop-color:#000000;stop-opacity:0"
         offset="1"
         id="stop4130" />
    </linearGradient>
    <linearGradient
       x1="11.003058"
       y1="33.489445"
       x2="30.452171"
       y2="33.489445"
       id="linearGradient4501"
       xlink:href="#linearGradient3338"
       gradientUnits="userSpaceOnUse"
       gradientTransform="matrix(1.004593,0,0,1,-5.892444e-2,-2.082537)" />
    <linearGradient
       x1="24"
       y1="18.132908"
       x2="24"
       y2="8.0243998"
       id="linearGradient4518"
       xlink:href="#linearGradient1535"
       gradientUnits="userSpaceOnUse" />
    <linearGradient
       x1="24"
       y1="10.396756"
       x2="24"
       y2="20.118456"
       id="linearGradient4520"
       xlink:href="#linearGradient1523"
       gradientUnits="userSpaceOnUse" />
    <linearGradient
       x1="24"
       y1="17.245949"
       x2="23.433737"
       y2="8.0476589"
       id="linearGradient3582"
       xlink:href="#linearGradient3233"
       gradientUnits="userSpaceOnUse" />
    <linearGradient
       x1="16.07143"
       y1="19.5"
       x2="16.035715"
       y2="31.75"
       id="linearGradient3584"
       xlink:href="#linearGradient6924"
       gradientUnits="userSpaceOnUse"
       gradientTransform="matrix(1.010754,0,0,1,-0.269359,-1.327864)" />
    <radialGradient
       cx="23.857143"
       cy="40"
       r="17.142857"
       fx="23.857143"
       fy="40"
       id="radialGradient3586"
       xlink:href="#linearGradient4126"
       gradientUnits="userSpaceOnUse"
       gradientTransform="matrix(1,0,0,0.5,0,20)" />
    <linearGradient
       x1="24"
       y1="17.245949"
       x2="23.433737"
       y2="8.0476589"
       id="linearGradient3588"
       xlink:href="#linearGradient3233"
       gradientUnits="userSpaceOnUse" />
    <linearGradient
       x1="34.244171"
       y1="17.695425"
       x2="34.244171"
       y2="29.91827"
       id="linearGradient3590"
       xlink:href="#linearGradient3247"
       gradientUnits="userSpaceOnUse"
       gradientTransform="matrix(1.010754,0,0,1,-0.269359,-2.185007)" />
    <linearGradient
       x1="17.160095"
       y1="14.004482"
       x2="37.969398"
       y2="56.575912"
       id="linearGradient3592"
       xlink:href="#linearGradient4176"
       gradientUnits="userSpaceOnUse"
       gradientTransform="matrix(1.010754,0,0,0.992756,-0.269358,-3.832747)" />
    <linearGradient
       x1="24"
       y1="17.245949"
       x2="23.433737"
       y2="8.0476589"
       id="linearGradient3594"
       xlink:href="#linearGradient3233"
       gradientUnits="userSpaceOnUse" />
    <linearGradient
       x1="9.3030529"
       y1="26.71875"
       x2="38.826412"
       y2="26.71875"
       id="linearGradient3596"
       xlink:href="#linearGradient4134"
       gradientUnits="userSpaceOnUse"
       gradientTransform="matrix(1.010754,0,0,0.991346,-0.269358,-3.826541)" />
    <radialGradient
       cx="23.857143"
       cy="40"
       r="17.142857"
       fx="23.857143"
       fy="40"
       id="radialGradient3598"
       xlink:href="#linearGradient4126"
       gradientUnits="userSpaceOnUse"
       gradientTransform="matrix(1,0,0,0.5,0,20)" />
  </defs>
  <g
     id="layer1">
    <path
       d="M 41 40 A 17.142857 8.5714283 0 1 1  6.7142868,40 A 17.142857 8.5714283 0 1 1  41 40 z"
       transform="matrix(1.050001,0,0,1.166666,-1.050005,-13.66665)"
       style="opacity:1;color:#000000;fill:url(#radialGradient3598);fill-opacity:1;fill-rule:nonzero;stroke:none;stroke-width:1;stroke-linecap:butt;stroke-linejoin:miter;marker:none;marker-start:none;marker-mid:none;marker-end:none;stroke-miterlimit:10;stroke-dasharray:none;stroke-dashoffset:0;stroke-opacity:1;visibility:visible;display:block;overflow:visible"
       id="path3366" />
    <path
       d="M 23.925566,5.0026329 C 15.981619,5.0026329 9.522322,7.780881 9.522321,11.198547 C 9.522321,11.443791 9.522321,33.868013 9.522321,34.123423 C 9.522321,37.541089 15.981618,40.319336 23.925566,40.319336 C 31.869514,40.319336 38.586013,37.541088 38.586011,34.123423 C 38.586011,33.921128 38.586011,11.400842 38.586011,11.198547 C 38.586011,7.78088 31.869513,5.0026329 23.925566,5.0026329 z "
       style="opacity:1;color:#000000;fill:url(#linearGradient3596);fill-opacity:1;fill-rule:nonzero;stroke:#767973;stroke-width:1;stroke-linecap:butt;stroke-linejoin:miter;marker:none;marker-start:none;marker-mid:none;marker-end:none;stroke-miterlimit:10;stroke-dasharray:none;stroke-dashoffset:0;stroke-opacity:1;visibility:visible;display:block;overflow:visible"
       id="path3068" />
    <path
       d="M 36.857142 14.071428 A 12.857142 5.5 0 1 1  11.142858,14.071428 A 12.857142 5.5 0 1 1  36.857142 14.071428 z"
       transform="matrix(1.048446,0,0,0.971388,-0.969759,20.43377)"
       style="opacity:0.23626374;color:#000000;fill:#d3d7cf;fill-opacity:1;fill-rule:nonzero;stroke:url(#linearGradient3594);stroke-width:0.99090111;stroke-linecap:butt;stroke-linejoin:miter;marker:none;marker-start:none;marker-mid:none;marker-end:none;stroke-miterlimit:10;stroke-dasharray:none;stroke-dashoffset:0;stroke-opacity:1;visibility:visible;display:block;overflow:visible"
       id="path3241" />
    <path
       d="M 23.934282,5.7826598 C 16.527721,5.7826598 10.505378,8.3766515 10.505377,11.567653 C 10.505377,11.796633 10.505377,33.29517 10.505377,33.533641 C 10.505377,36.724644 16.52772,39.318634 23.934282,39.318634 C 31.340842,39.318634 37.602988,36.724643 37.602986,33.533641 C 37.602986,33.344764 37.602986,11.756533 37.602986,11.567653 C 37.602986,8.3766505 31.340841,5.7826598 23.934282,5.7826598 z "
       style="opacity:0.5443038;color:#000000;fill:none;fill-opacity:1;fill-rule:nonzero;stroke:url(#linearGradient3592);stroke-width:1.00000012;stroke-linecap:butt;stroke-linejoin:miter;marker:none;marker-start:none;marker-mid:none;marker-end:none;stroke-miterlimit:10;stroke-dasharray:none;stroke-dashoffset:0;stroke-opacity:1;visibility:visible;display:block;overflow:visible"
       id="path4174" />
    <path
       d="M 23.41643,26.438709 C 16.781984,26.573435 11.495072,25.367574 11.495072,28.055849 C 11.495072,28.37454 11.495072,33.032303 11.495072,33.348826 C 11.495072,36.123819 17.10024,38.377036 24.034575,38.377038 C 30.96891,38.377038 36.603512,36.123819 36.603513,33.348826 C 36.603513,33.032303 36.603513,28.37454 36.603513,28.055849 C 36.603513,25.280855 30.96891,26.43871 24.034575,26.438709 C 23.817877,26.438709 23.630444,26.434363 23.41643,26.438709 z "
       style="opacity:1;color:#000000;fill:url(#linearGradient4501);fill-opacity:1;fill-rule:nonzero;stroke:#e2811b;stroke-width:0.99621516;stroke-linecap:butt;stroke-linejoin:miter;marker:none;marker-start:none;marker-mid:none;marker-end:none;stroke-miterlimit:10;stroke-dasharray:none;stroke-dashoffset:0;stroke-opacity:1;visibility:visible;display:block;overflow:visible"
       id="path4432" />
    <path
       d="M 36.857142 14.071428 A 12.857142 5.5 0 1 1  11.142858,14.071428 A 12.857142 5.5 0 1 1  36.857142 14.071428 z"
       transform="matrix(0.972634,0,0,0.914029,0.651491,14.66547)"
       style="color:#000000;fill:url(#linearGradient4518);fill-opacity:1;fill-rule:nonzero;stroke:url(#linearGradient4520);stroke-width:1.06058359;stroke-linecap:butt;stroke-linejoin:miter;marker:none;marker-start:none;marker-mid:none;marker-end:none;stroke-miterlimit:10;stroke-dasharray:none;stroke-dashoffset:0;stroke-opacity:1;visibility:visible;display:block;overflow:visible"
       id="path4434" />
    <path
       d="M 35.976705,9.5000085 C 34.855663,8.5148985 33.907756,8.2149705 32.913658,7.7322416 L 33.219962,26.420065 L 35.976705,29.652552 L 35.976705,9.5000085 z "
       style="opacity:1;color:#000000;fill:url(#linearGradient3590);fill-opacity:1;fill-rule:nonzero;stroke:none;stroke-width:0.99999946;stroke-linecap:butt;stroke-linejoin:miter;marker:none;marker-start:none;marker-mid:none;marker-end:none;stroke-miterlimit:10;stroke-dasharray:none;stroke-dashoffset:0;stroke-opacity:1;visibility:visible;display:block;overflow:visible"
       id="path3245" />
    <path
       d="M 36.857142 14.071428 A 12.857142 5.5 0 1 1  11.142858,14.071428 A 12.857142 5.5 0 1 1  36.857142 14.071428 z"
       transform="matrix(1.048446,0,0,0.964345,-1.173962,-2.540419)"
       style="opacity:0.467033;color:#000000;fill:#f0f0f0;fill-opacity:1;fill-rule:nonzero;stroke:url(#linearGradient3588);stroke-width:0.99451303;stroke-linecap:butt;stroke-linejoin:miter;marker:none;marker-start:none;marker-mid:none;marker-end:none;stroke-miterlimit:10;stroke-dasharray:none;stroke-dashoffset:0;stroke-opacity:1;visibility:visible;display:block;overflow:visible"
       id="path3364" />
    <path
       d="M 41 40 A 17.142857 8.5714283 0 1 1  6.7142868,40 A 17.142857 8.5714283 0 1 1  41 40 z"
       transform="matrix(0.367338,0,0,0.36343,14.99239,-6.837321)"
       style="opacity:0.30769234;color:#000000;fill:url(#radialGradient3586);fill-opacity:1;fill-rule:nonzero;stroke:none;stroke-width:1;stroke-linecap:butt;stroke-linejoin:miter;marker:none;marker-start:none;marker-mid:none;marker-end:none;stroke-miterlimit:10;stroke-dasharray:none;stroke-dashoffset:0;stroke-opacity:1;visibility:visible;display:block;overflow:visible"
       id="path6944" />
    <path
       d="M 24.079287,3.4999955 C 22.054955,3.4999955 19.398199,4.2141485 19.398199,5.0926645 C 19.398199,5.1557045 19.398199,7.6566695 19.398199,7.7223235 C 19.398199,8.6008395 22.054955,9.3149925 24.079287,9.3149925 C 26.10362,9.3149925 28.537133,8.6008395 28.537132,7.7223235 C 28.537132,7.6703235 28.537132,5.1446645 28.537132,5.0926645 C 28.537132,4.2141475 26.10362,3.4999955 24.079287,3.4999955 z "
       style="opacity:1;color:#000000;fill:#9d9e9b;fill-opacity:1;fill-rule:nonzero;stroke:#7d7f7a;stroke-width:0.99999994;stroke-linecap:butt;stroke-linejoin:miter;marker:none;marker-start:none;marker-mid:none;marker-end:none;stroke-miterlimit:10;stroke-dasharray:none;stroke-dashoffset:0;stroke-opacity:1;visibility:visible;display:block;overflow:visible"
       id="path3362" />
    <path
       d="M 13.664611,15.743564 L 14.025593,32.529279 L 18.646184,33.814993 L 18.501791,17.100707 C 18.501791,17.100707 20.461486,17.012319 23.854733,16.798033 C 17.287485,16.74805 12.997787,15.219863 10.632348,12.95785 C 12.064485,15.050026 13.664611,15.743564 13.664611,15.743564 z "
       style="opacity:0.58241763;color:#000000;fill:url(#linearGradient3584);fill-opacity:1;fill-rule:nonzero;stroke:none;stroke-width:1;stroke-linecap:butt;stroke-linejoin:miter;marker:none;marker-start:none;marker-mid:none;marker-end:none;stroke-miterlimit:4;stroke-dasharray:none;stroke-dashoffset:0;stroke-opacity:1;visibility:visible;display:block;overflow:visible"
       id="path6922" />
    <path
       d="M 36.857142 14.071428 A 12.857142 5.5 0 1 1  11.142858,14.071428 A 12.857142 5.5 0 1 1  36.857142 14.071428 z"
       transform="matrix(0.274904,0,0,0.192106,17.38789,2.66837)"
       style="opacity:1;color:#000000;fill:#d3d7cf;fill-opacity:1;fill-rule:nonzero;stroke:url(#linearGradient3582);stroke-width:4.35150146;stroke-linecap:butt;stroke-linejoin:miter;marker:none;marker-start:none;marker-mid:none;marker-end:none;stroke-miterlimit:10;stroke-dasharray:none;stroke-dashoffset:0;stroke-opacity:1;visibility:visible;display:block;overflow:visible"
       id="path6940" />
    <g
       transform="translate(-53.99282,-31.64138)"
       id="g4438" />
  </g>
  <g
     id="layer2" />
</svg>
