<?xml version="1.0" encoding="UTF-8" standalone="no"?>
<!-- Generator: Adobe Illustrator 13.0.2, SVG Export Plug-In . SVG Version: 6.00 Build 14948)  -->
<svg
   xmlns:dc="http://purl.org/dc/elements/1.1/"
   xmlns:cc="http://creativecommons.org/ns#"
   xmlns:rdf="http://www.w3.org/1999/02/22-rdf-syntax-ns#"
   xmlns:svg="http://www.w3.org/2000/svg"
   xmlns="http://www.w3.org/2000/svg"
   xmlns:xlink="http://www.w3.org/1999/xlink"
   xmlns:sodipodi="http://sodipodi.sourceforge.net/DTD/sodipodi-0.dtd"
   xmlns:inkscape="http://www.inkscape.org/namespaces/inkscape"
   version="1.0"
   x="0px"
   y="0px"
   width="48"
   height="48"
   viewBox="0 0 36.184 43.865"
   enable-background="new 0 0 36.184 43.865"
   xml:space="preserve"
   id="svg2419"
   sodipodi:version="0.32"
   inkscape:version="0.46"
   sodipodi:docname="print_ok.svg"
   inkscape:output_extension="org.inkscape.output.svg.inkscape"
   inkscape:export-filename="/Users/mlanglie/Desktop/Fingerprint Enrollment Icons/Vector/print_ok.png"
   inkscape:export-xdpi="90"
   inkscape:export-ydpi="90"><metadata
   id="metadata2435"><rdf:RDF><cc:Work
       rdf:about=""><dc:format>image/svg+xml</dc:format><dc:type
         rdf:resource="http://purl.org/dc/dcmitype/StillImage" /></cc:Work></rdf:RDF></metadata><defs
   id="defs2433"><linearGradient
   inkscape:collect="always"
   id="linearGradient84104"><stop
     style="stop-color:#fffffc;stop-opacity:1;"
     offset="0"
     id="stop84106" /><stop
     style="stop-color:#fffffc;stop-opacity:0;"
     offset="1"
     id="stop84108" /></linearGradient><linearGradient
   id="linearGradient84076"><stop
     style="stop-color:#73d216;stop-opacity:1;"
     offset="0"
     id="stop84078" /><stop
     id="stop84090"
     offset="0.31459025"
     style="stop-color:#73d216;stop-opacity:1;" /><stop
     style="stop-color:#4e9a06;stop-opacity:1;"
     offset="1"
     id="stop84080" /></linearGradient><linearGradient
   id="linearGradient3531"><stop
     id="stop3533"
     offset="0"
     style="stop-color:#9b9b9b;stop-opacity:1;" /><stop
     id="stop3535"
     offset="1"
     style="stop-color:#414141;stop-opacity:1;" /></linearGradient><linearGradient
   id="linearGradient3483"><stop
     id="stop3485"
     offset="0"
     style="stop-color:#000000;stop-opacity:1;" /><stop
     id="stop3487"
     offset="1"
     style="stop-color:#787878;stop-opacity:1" /></linearGradient><linearGradient
   id="linearGradient3263"><stop
     id="stop3265"
     offset="0"
     style="stop-color:#ffffff;stop-opacity:1;" /><stop
     id="stop3267"
     offset="1"
     style="stop-color:#ffffff;stop-opacity:0;" /></linearGradient><linearGradient
   id="linearGradient3247"><stop
     style="stop-color:#52a714;stop-opacity:1;"
     offset="0"
     id="stop3249" /><stop
     style="stop-color:#398800;stop-opacity:1;"
     offset="1"
     id="stop3251" /></linearGradient><linearGradient
   id="linearGradient3233"><stop
     id="stop3235"
     offset="0"
     style="stop-color:#398800;stop-opacity:1;" /><stop
     id="stop3237"
     offset="1"
     style="stop-color:#84c706;stop-opacity:1;" /></linearGradient><inkscape:perspective
   sodipodi:type="inkscape:persp3d"
   inkscape:vp_x="0 : 21.932501 : 1"
   inkscape:vp_y="0 : 1000 : 0"
   inkscape:vp_z="36.183998 : 21.932501 : 1"
   inkscape:persp3d-origin="18.091999 : 14.621667 : 1"
   id="perspective2437" />
	
	

		
		
	<filter
   inkscape:collect="always"
   id="filter3471"><feGaussianBlur
     inkscape:collect="always"
     stdDeviation="0.057808254"
     id="feGaussianBlur3473" /></filter><linearGradient
   inkscape:collect="always"
   xlink:href="#linearGradient3233"
   id="linearGradient3517"
   gradientUnits="userSpaceOnUse"
   x1="25.144751"
   y1="43.865002"
   x2="25.144751"
   y2="23.838018" /><linearGradient
   inkscape:collect="always"
   xlink:href="#linearGradient3247"
   id="linearGradient3519"
   gradientUnits="userSpaceOnUse"
   x1="30.691881"
   y1="23.365002"
   x2="30.691881"
   y2="44.365963" /><linearGradient
   inkscape:collect="always"
   xlink:href="#linearGradient3263"
   id="linearGradient3521"
   gradientUnits="userSpaceOnUse"
   x1="26.455547"
   y1="24.322035"
   x2="26.455547"
   y2="30.466549" /><linearGradient
   gradientUnits="userSpaceOnUse"
   y2="55.692348"
   x2="18.072493"
   y1="29.205048"
   x1="21.55229"
   id="linearGradient5138"
   xlink:href="#linearGradient5132"
   inkscape:collect="always" /><linearGradient
   id="linearGradient5132"
   inkscape:collect="always"><stop
     id="stop5134"
     offset="0"
     style="stop-color:white;stop-opacity:1;" /><stop
     id="stop5136"
     offset="1"
     style="stop-color:white;stop-opacity:0;" /></linearGradient><linearGradient
   id="linearGradient1913"><stop
     id="stop1915"
     offset="0"
     style="stop-color:#73d216;stop-opacity:1" /><stop
     id="stop1917"
     offset="1"
     style="stop-color:#8ae234;stop-opacity:1" /></linearGradient><inkscape:perspective
   id="perspective84036"
   inkscape:persp3d-origin="24 : 16 : 1"
   inkscape:vp_z="48 : 24 : 1"
   inkscape:vp_y="0 : 1000 : 0"
   inkscape:vp_x="0 : 24 : 1"
   sodipodi:type="inkscape:persp3d" /><radialGradient
   inkscape:collect="always"
   xlink:href="#linearGradient84076"
   id="radialGradient84088"
   cx="26.183998"
   cy="40.111427"
   fx="26.183998"
   fy="40.111427"
   r="10.5"
   gradientUnits="userSpaceOnUse"
   gradientTransform="matrix(0.9228377,7.3282173e-8,-7.9001009e-8,0.8924238,2.0204218,4.4167191)" /><linearGradient
   inkscape:collect="always"
   xlink:href="#linearGradient3263"
   id="linearGradient84092"
   gradientUnits="userSpaceOnUse"
   x1="26.455547"
   y1="24.322035"
   x2="26.455547"
   y2="30.466549" /><linearGradient
   inkscape:collect="always"
   xlink:href="#linearGradient84104"
   id="linearGradient84110"
   x1="28.185518"
   y1="22.649143"
   x2="27.596079"
   y2="42.648415"
   gradientUnits="userSpaceOnUse" /><radialGradient
   inkscape:collect="always"
   xlink:href="#linearGradient84076"
   id="radialGradient84134"
   gradientUnits="userSpaceOnUse"
   gradientTransform="matrix(1.0862379,-2.5925308e-8,1.5464794e-8,0.8186283,-2.2580516,7.302016)"
   cx="26.183998"
   cy="39.098457"
   fx="26.183998"
   fy="39.098457"
   r="10.5" /><linearGradient
   inkscape:collect="always"
   xlink:href="#linearGradient3263"
   id="linearGradient84136"
   gradientUnits="userSpaceOnUse"
   x1="26.455547"
   y1="24.322035"
   x2="26.455547"
   y2="30.466549" /><linearGradient
   inkscape:collect="always"
   xlink:href="#linearGradient84104"
   id="linearGradient84138"
   gradientUnits="userSpaceOnUse"
   x1="21.515692"
   y1="23.09075"
   x2="34.488232"
   y2="40.661182" /><filter
   inkscape:collect="always"
   id="filter84266"
   x="-0.07103052"
   width="1.142061"
   y="-0.5276553"
   height="2.0553105"><feGaussianBlur
     inkscape:collect="always"
     stdDeviation="0.45756194"
     id="feGaussianBlur84268" /></filter><linearGradient
   inkscape:collect="always"
   xlink:href="#linearGradient3263"
   id="linearGradient84277"
   gradientUnits="userSpaceOnUse"
   x1="26.455547"
   y1="24.322035"
   x2="26.455547"
   y2="30.466549" /><linearGradient
   inkscape:collect="always"
   xlink:href="#linearGradient84104"
   id="linearGradient84279"
   gradientUnits="userSpaceOnUse"
   x1="21.515692"
   y1="23.09075"
   x2="34.488232"
   y2="40.661182" /></defs><sodipodi:namedview
   inkscape:window-height="713"
   inkscape:window-width="1222"
   inkscape:pageshadow="2"
   inkscape:pageopacity="0.0"
   guidetolerance="10.0"
   gridtolerance="10.0"
   objecttolerance="10.0"
   borderopacity="1.0"
   bordercolor="#666666"
   pagecolor="#ffffff"
   id="base"
   showgrid="false"
   inkscape:zoom="4.399364"
   inkscape:cx="39.372624"
   inkscape:cy="7.0437262"
   inkscape:window-x="15"
   inkscape:window-y="165"
   inkscape:current-layer="svg2419" />
<path
   sodipodi:type="arc"
   style="opacity:0.24299999;fill:#000000;fill-opacity:1;stroke:none;stroke-width:1;stroke-linejoin:miter;stroke-miterlimit:4;stroke-dasharray:none;stroke-opacity:1;filter:url(#filter84266)"
   id="path84140"
   sodipodi:cx="27.093658"
   sodipodi:cy="38.810692"
   sodipodi:rx="7.7301183"
   sodipodi:ry="1.0405928"
   d="M 34.823777,38.810692 A 7.7301183,1.0405928 0 1 1 19.36354,38.810692 A 7.7301183,1.0405928 0 1 1 34.823777,38.810692 z"
   transform="matrix(1.1911672,0,0,2.1266149,-5.0625748,-41.775272)" /><g
   id="Background">
</g>
<g
   id="Guides">
</g>
<path
   id="path2424"
   d="M 11.4715,8.6587828 C 11.85841,8.5063492 18.052855,7.561643 17.533735,14.80408 C 16.823104,24.735732 10.185364,21.847978 8.4432981,28.076079 C 9.1393466,27.839903 9.3182195,27.169011 9.756653,26.617618 C 11.076813,24.955913 11.899239,24.128823 13.185374,23.57555 C 17.764131,21.605215 20.247937,13.221415 16.391477,9.350375 C 14.944939,7.8975596 12.256985,8.0358782 11.4715,8.6587828 z M -0.42938057,30.607215 C -0.63450107,30.057705 -0.82406747,29.493139 -0.99905177,28.917282 C 0.26764038,30.495244 2.394932,29.496061 3.7663553,29.835942 C 7.7655495,30.827068 10.188281,29.685092 12.483493,26.986468 C 14.524976,24.585181 15.716814,26.01071 17.678584,22.400312 C 18.1734,21.49042 19.513975,20.499607 20.036011,16.462963 C 20.321819,14.250806 21.717163,13.992047 21.54704,12.391502 C 21.286508,9.9394059 21.195769,9.5856116 20.169194,7.9304926 C 18.692521,5.5480253 16.429451,4.9093448 14.383024,4.903159 C 12.660627,4.8984543 11.830403,5.5932308 11.247122,5.820939 C 15.376525,4.8200358 18.963747,6.2462048 19.964074,8.6587828 C 20.4725,9.8848305 20.731088,10.257444 20.821497,11.562532 C 20.964401,13.628842 20.293627,14.400415 20.249881,13.774689 C 20.066148,11.097706 19.138731,7.7893511 16.036647,6.7232629 C 14.08071,6.0514297 11.288738,6.5623616 9.6166659,7.8298117 C 7.5771256,9.7832092 6.4815291,12.601333 6.4815291,14.458754 C 6.4815291,18.022104 6.4552814,19.153118 5.840892,22.47841 C 5.582304,23.881356 4.6490541,25.341699 5.1885893,27.263105 C 5.9837959,26.96953 6.6973432,25.862981 6.9812066,25.096113 C 8.9731118,19.712038 10.278689,20.976666 12.329895,18.813438 C 12.817907,18.298742 13.655888,16.907087 13.757962,16.394273 C 14.004884,15.152229 14.615385,12.184495 12.543765,12.254125 C 10.819197,13.353146 11.543438,15.633991 10.22425,17.856498 C 12.257957,16.947548 12.124774,13.112265 12.871375,13.021934 C 13.519788,12.943836 13.479931,14.488864 13.338,15.31313 C 13.032749,17.084925 12.408638,18.086089 11.005847,19.10513 C 9.8869191,19.918105 8.8467342,20.049837 7.8347414,21.757648 C 7.6442029,22.057809 6.2890464,25.330408 6.120867,25.639037 C 5.2721928,27.201003 5.3742671,25.548707 6.3075169,22.931003 C 6.3075169,22.931003 7.2174355,20.095002 7.0978629,16.9993 C 7.0434233,15.566244 7.1231384,9.904591 10.82989,7.8994415 C 12.425164,7.0365969 14.901193,6.4946138 16.606318,7.7611229 C 21.944313,11.725315 19.458563,21.448078 15.392121,24.198454 C 13.75699,25.305002 12.399889,25.373692 11.005847,27.501164 C 9.918999,29.160046 6.8363585,30.274122 4.6937724,29.305892 C 5.5511957,28.829775 6.8820488,28.787432 7.2650702,27.723226 C 10.071625,19.916223 15.516555,23.290444 16.169829,14.950867 C 16.401197,11.993484 14.864252,9.6797058 12.683753,9.6797058 C 10.452702,9.6797058 8.9526972,12.659672 8.6143939,15.425102 C 8.4520474,16.758419 8.3645551,18.513277 8.2576203,19.43446 C 10.04246,18.397541 8.4714901,11.146635 12.470855,10.731679 C 15.950127,10.371298 15.652653,14.948985 15.256023,16.945666 C 14.953689,18.468112 14.256667,19.779785 11.256658,21.500771 C 9.676938,22.406898 8.629948,23.557671 7.8289087,25.441439 C 7.3593673,26.546106 6.3988976,28.436461 4.53337,28.617122 C 4.3195003,28.637822 3.9131477,26.558339 3.7867702,25.457436 C 3.6001201,23.832427 4.440045,22.749402 4.7190479,21.000189 C 5.0301312,19.057142 5.2478894,17.510232 5.2644158,14.182117 C 4.4799026,9.0737386 5.2780257,7.5635248 7.4089462,5.140597 C 9.9005288,2.306477 12.031512,2.0549452 13.495175,2.0414516 C 15.638858,2.0237012 16.885321,3.5353485 16.249545,3.412085 C 14.609553,3.0949872 11.616348,2.6753267 9.0440775,5.2789155 C 7.6092061,6.7298495 6.0265698,8.5966804 6.1947492,10.870939 C 6.8664947,7.6039854 10.320801,3.7360695 13.733969,3.7360695 C 17.563499,3.7360695 19.963101,5.1556521 21.106332,6.9999001 C 22.267062,8.8733168 22.748269,10.281909 22.748269,12.806458 C 22.748269,14.670467 21.716834,15.435453 21.249236,16.946607 C 21.069391,17.527169 20.450141,19.029855 20.177944,20.195682 C 19.084291,24.880637 18.295889,27.137018 14.257639,30.204492 C 12.498075,31.540631 11.0982,31.630961 10.165922,31.269639 C 10.173699,31.117206 12.353227,30.918668 13.710328,28.921987 C 14.988685,27.040101 16.636455,26.992113 17.383054,24.825122 C 16.609234,25.763242 15.405731,26.658079 14.400543,27.100321 C 14.11668,27.225467 13.604365,27.870953 13.407994,28.100544 C 11.354844,30.515944 9.699297,31.088038 7.3321475,31.358088 C 7.7083639,31.534985 8.097218,31.671422 8.5094033,31.724115 C 11.518163,32.108961 13.373968,32.147539 15.76056,30.039827 C 19.12901,27.065506 19.683127,25.185502 20.034068,22.951704 C 20.293627,21.297527 21.655941,17.421123 22.247619,15.852571 C 23.080867,13.643616 22.556758,18.089853 22.318585,18.673238 C 20.924543,22.100151 21.486437,26.72018 17.942032,30.365393 C 15.509749,32.86736 12.310453,33.796071 7.1221663,32.621775 C 5.7388178,32.30844 6.239509,31.841732 4.657845,31.358088 C 4.1834429,31.143553 1.6402954,30.997707 1.3486549,30.995825 C 0.70898981,30.992061 0.10626602,30.860329 -0.42938057,30.607215 z M 4.2543673,5.1321285 C 2.8544925,6.7006803 3.1305788,7.9154375 2.2021896,9.2289942 C 0.37749172,11.810941 1.4380914,15.378055 1.0521537,17.983526 C 0.55247613,21.363393 0.50913089,20.094485 -0.0071428722,17.974697 C -0.76834557,14.849245 -0.21551087,13.71635 -0.090105372,12.391502 C 0.60497135,9.1141985 1.2125559,7.7404222 2.8554645,5.6731707 C 4.2115933,3.9672413 6.135449,3.0215936 4.2543673,5.1321285 z M 24.022738,36.434475 C 23.474454,37.067729 22.882424,37.657701 22.248591,38.195919 L 21.462134,38.491375 C 18.22784,39.695783 16.567433,39.805873 11.843827,39.067233 C 9.918999,38.766131 7.2913178,38.39634 5.4841183,39.262008 C 6.5702412,39.494461 10.381694,38.345449 11.56288,39.970538 C 11.446224,40.140849 9.1976753,39.867976 7.0823087,40.331861 C 6.5699934,40.042991 6.0751766,39.715542 5.5978581,39.351398 C 5.1390103,38.993839 4.8036236,38.704969 4.4789305,38.398222 C 6.9432934,37.015037 10.891135,37.492095 13.335083,37.804487 C 17.567761,38.346471 19.246638,38.16581 21.951118,37.173114 C 22.683136,36.904005 23.374324,36.654655 24.022738,36.434475 z M 26.080749,7.8825045 C 27.13746,9.9657525 28.24375,11.559709 28.24375,14.719395 C 28.24375,18.197241 25.745362,19.892699 25.346787,22.207418 C 24.973487,24.37441 24.914187,26.178198 24.585605,26.178198 C 24.11898,26.178198 23.970243,24.110005 24.041208,22.659071 C 24.113147,21.19026 24.300417,20.389257 24.641637,19.294941 C 25.02563,18.066069 25.608953,15.315973 25.490352,13.235548 C 25.33481,10.489877 25.576852,11.073882 26.289427,12.729942 C 26.756052,13.812967 26.247915,15.934534 26.289427,17.469211 C 27.316002,15.633392 27.121554,12.867259 26.336068,10.86211 C 26.073591,10.189336 25.713282,8.8290928 26.080749,7.8825045 z M 24.608294,9.2431681 C 24.472195,8.6390829 23.70969,6.477977 22.713252,5.1870035 C 21.219079,3.2533658 22.564494,3.6570102 23.635787,4.8313069 C 24.682776,5.9792572 25.458582,7.3442852 25.487746,8.6644279 C 25.547046,11.377166 25.108944,11.455325 24.608294,9.2431681 z M 28.310827,16.859099 C 28.588858,16.49966 28.861055,18.750394 28.357489,19.540787 C 27.013026,21.649439 27.496178,25.113051 26.626116,27.878481 C 25.240824,32.27833 20.835106,35.602682 15.985124,35.513292 C 19.529529,34.338995 22.700634,33.797953 24.16953,26.824625 C 24.298825,26.210189 25.161109,26.541401 24.3834,29.44421 C 25.240824,28.207811 25.985479,25.109287 26.098247,22.60826 C 26.173102,20.914563 27.715881,18.48693 28.310827,16.859099 z M 0.33666203,7.0620024 C 3.1023869,1.995966 8.6775827,0.52715408 13.200929,0.52715408 C 16.027898,0.52715408 18.494205,1.0117396 20.804971,2.3394101 C 21.160772,2.5991103 21.699335,2.9199718 21.989031,3.2097822 C 22.925198,4.1497842 21.355919,3.7289582 19.391486,2.8597515 C 15.788463,1.2655141 13.210649,1.5085776 11.04376,1.8557856 C 9.4407091,2.112663 8.4189947,3.395148 7.616011,4.1733077 C 4.6568312,7.0356559 4.1960391,9.5950208 4.5518406,12.806458 C 4.9931901,16.791351 4.2543673,21.000189 3.3230616,23.294208 C 2.8467153,24.469446 2.9099042,25.995654 3.1228018,26.962944 C 3.5077673,28.707452 5.0036733,29.433225 3.1344674,29.192978 C -0.13966347,28.772157 -0.13773997,24.273729 0.98021562,21.094283 C 2.1224745,17.845207 1.495243,15.951027 1.7355647,13.562036 C 2.8026799,2.8737448 3.1130804,15.825944 3.0518358,16.393333 C 2.6940901,19.711097 2.2203141,20.592698 1.7248713,22.0691 C 0.65905915,25.245183 1.9177265,27.094796 2.2524513,27.350994 C 0.89725312,23.033886 3.2657056,21.64003 3.4523556,16.633273 C 3.4980459,15.417575 3.5174886,14.673289 3.3318108,13.031344 C 2.7611674,7.9643665 4.0677172,5.041798 6.9588475,2.6941455 C 5.2051155,2.7110825 3.8587082,3.9794735 2.6688146,5.1321285 C 1.363237,6.3958147 0.15098419,9.2779223 -0.22620427,10.387294 C -0.79004277,12.046176 -1.2848596,10.030677 0.33666203,7.0620024 z M -1.1234851,28.497622 C -2.0265988,25.35299 -2.4786417,21.846097 -2.4037873,18.200883 C -2.3746233,16.749949 -2.2443571,15.155993 -1.7971749,13.290103 C -0.92614167,9.6543002 -0.69568297,11.570518 -0.75405287,12.016887 C -1.906054,20.826496 1.6007898,19.123308 -0.53825967,25.728487 C -1.2848596,25.186504 -0.49674737,21.494805 -1.669846,19.297342 C -1.3645539,21.71935 -2.0304874,25.727486 0.6156649,28.255799 C 1.3719861,28.979384 2.8544925,29.37364 0.70898981,29.192978 C -0.027888672,29.130876 -0.63158467,28.886231 -1.1234851,28.497622 z M 0.47373313,32.736569 C 0.3036094,32.382775 0.14126284,32.020512 -0.015250972,31.650721 C 0.99382545,31.532162 3.0430867,31.426777 4.813345,32.172003 C 5.8418641,32.604837 3.7828816,32.394066 1.9863756,32.504156 C 1.3428221,32.542735 0.81203619,32.697049 0.47373313,32.736569 z M 1.3272679,34.351227 C 1.1308965,34.014369 0.94230231,33.668102 0.76051305,33.313367 C 5.2070598,32.522034 7.1591074,33.303958 10.615049,33.590945 C 14.176952,33.887342 18.036329,32.081673 19.249554,30.005012 C 19.872692,28.937983 20.047677,28.679223 20.173082,28.398823 C 20.281962,28.156059 20.353899,27.8973 20.648457,27.082444 C 21.301732,25.276774 21.270624,27.738281 21.106332,28.345189 C 19.995182,32.442996 19.062904,31.720351 17.197377,33.526961 C 21.488381,31.992284 22.140685,28.921987 21.581706,24.645402 C 21.447552,23.621656 22.24373,20.854343 22.609254,19.86447 C 22.609254,19.86447 23.377241,17.382263 23.382101,12.981474 C 23.385017,10.110657 22.446907,5.6863438 18.607945,4.0349891 C 17.32181,3.4817147 15.535997,1.961151 15.535997,1.961151 C 16.331576,2.384936 18.250199,2.6518031 20.106978,3.7583519 C 20.177944,3.8006944 24.197722,6.0420202 24.599214,11.907858 C 24.788781,14.679876 24.809506,14.809385 24.622856,16.615054 C 24.622856,16.615054 24.508806,18.471876 23.856503,20.006553 C 23.541531,20.860929 23.2042,23.380774 23.390851,24.645402 C 23.822478,27.572675 22.050276,34.880978 14.832172,34.880978 C 11.643568,34.880978 9.7031857,34.471668 8.1769331,34.235492 C 6.7945567,34.020957 4.0006399,33.900516 1.3272679,34.351227 z M 3.9160641,37.83648 C 3.5466527,37.449752 3.1918233,37.039501 2.851576,36.606667 C 3.8975936,36.013873 4.8162614,36.004464 6.6798447,36.055275 C 8.8146538,36.055275 12.031449,36.901182 11.04376,37.179702 C 10.996125,37.191934 6.4669471,36.563384 3.9160641,37.83648 z M 14.719404,41.637889 C 14.296525,41.700932 13.867813,41.747979 13.430353,41.776207 C 11.348039,41.911704 9.4173774,41.49957 7.6714227,40.64049 C 8.5230132,40.522871 10.16981,40.466415 11.73106,40.686596 C 12.655561,40.817387 13.709355,41.272803 14.719404,41.637889 z M 20.747615,39.325051 C 19.318575,40.268817 17.725246,40.977347 15.991929,41.391361 C 14.720376,41.014044 11.970742,40.569899 11.991882,39.739346 C 12.007714,39.117287 15.479614,40.315864 17.475407,40.060868 C 18.84223,39.886794 19.878525,39.619567 20.747615,39.325051 z M 26.747633,31.987579 C 27.295917,31.456887 26.637782,34.608104 23.560001,35.921661 C 21.475743,36.660301 18.380466,38.308833 13.057053,36.902123 C 12.403778,36.72899 10.334101,36.181361 9.8733094,36.088208 C 6.2861299,35.366505 4.4235188,35.58198 2.3927281,35.996936 C 2.1564992,35.669488 1.9280475,35.329808 1.7073728,34.979777 C 2.3616198,34.715372 4.0055005,34.612809 5.186645,34.610927 C 8.9478367,34.604341 13.98933,35.964944 15.98318,36.055275 C 20.657206,36.266987 23.666937,32.984978 24.040237,32.984978 C 24.972514,32.984978 23.166287,34.616574 22.664665,35.067285 C 22.237898,35.45213 24.347431,34.500837 26.747633,31.987579 z M 28.517892,25.005783 C 28.394431,27.133255 28.234028,30.085933 26.454048,31.562273 C 23.614441,33.917452 24.785865,32.262334 26.025337,30.618507 C 28.180561,27.758982 27.284252,21.317287 28.69482,20.069596 C 28.711346,21.421731 28.607328,23.483337 28.517892,25.005783 z"
   style="fill:#a1a1a1;fill-opacity:1"
   inkscape:export-xdpi="90"
   inkscape:export-ydpi="90"
   sodipodi:nodetypes="cscssscccssssssscsssscsscsssccssscscssssscsssscssssssscsssscsssssscscsscssssssscsccssscsccccscccscssccssssssscsccsssccsscscsccscsssssssssssscsscssccsssccsscccsscccssssscscsscssccsssccccsccscscccsscccssccssssccsscc" />
<circle
   clip-rule="evenodd"
   cx="26.184"
   cy="33.865002"
   r="10"
   id="circle2428"
   sodipodi:cx="26.184"
   sodipodi:cy="33.865002"
   sodipodi:rx="10"
   sodipodi:ry="10"
   style="fill:url(#radialGradient84134);fill-opacity:1;fill-rule:evenodd;stroke:#448c00;stroke-width:1.31732059;stroke-miterlimit:4;stroke-dasharray:none;stroke-opacity:1"
   transform="matrix(1.1263785,0,0,1.1511056,-2.2713556,-9.1997707)" /><path
   sodipodi:type="arc"
   style="opacity:0.50746268;fill:url(#linearGradient84277);fill-opacity:1;stroke:none;stroke-width:1;stroke-linejoin:miter;stroke-miterlimit:4;stroke-dasharray:none;stroke-opacity:1"
   id="path3253"
   sodipodi:cx="26.455547"
   sodipodi:cy="27.394291"
   sodipodi:rx="6.1445141"
   sodipodi:ry="3.072257"
   d="M 32.600061,27.394291 A 6.1445141,3.072257 0 1 1 20.311033,27.394291 A 6.1445141,3.072257 0 1 1 32.600061,27.394291 z"
   transform="matrix(1.1111101,0,0,1.2758999,-2.2387648,-10.924499)" /><path
   clip-rule="evenodd"
   d="M 21.777021,33.575871 C 22.428021,34.222871 23.330021,35.596871 24.012021,36.209871 C 25.264021,34.898871 27.599021,31.912871 31.077021,29.499871 C 31.754021,29.029871 33.458021,29.462871 32.557021,30.487871 C 29.846021,33.287871 27.332021,36.692871 25.385021,39.387871 C 24.468021,40.656871 23.706021,39.994871 22.908021,38.978871 C 21.912021,37.682871 20.897021,36.071871 20.509021,35.011871 C 20.282021,34.392871 20.974021,32.785871 21.777021,33.575871 z"
   id="path2430"
   style="opacity:0.42786069;fill:#398800;fill-opacity:1;fill-rule:evenodd;stroke:#398800;stroke-width:1;stroke-miterlimit:4;stroke-dasharray:none;stroke-opacity:1;filter:url(#filter3471)"
   transform="matrix(1.1263785,0,0,1.1511056,-2.2713556,-9.1997707)" /><path
   clip-rule="evenodd"
   d="M 21.969435,28.185201 C 22.702707,28.929966 23.718701,30.511585 24.486892,31.217213 C 25.897117,29.708113 28.527211,26.270911 32.444755,23.493294 C 33.207314,22.952275 35.126663,23.450703 34.111795,24.630586 C 31.058183,27.853682 28.226468,31.773196 26.033409,34.875426 C 25.00052,36.33618 24.142219,35.574148 23.243369,34.404624 C 22.121497,32.912791 20.978222,31.05836 20.541188,29.838188 C 20.2855,29.125654 21.064954,27.275827 21.969435,28.185201 z"
   id="path3469"
   style="fill:#ffffff;fill-rule:evenodd" /><path
   sodipodi:type="arc"
   style="opacity:0.36815945;fill:none;fill-opacity:1;stroke:url(#linearGradient84279);stroke-width:1.2184273;stroke-linejoin:miter;stroke-miterlimit:4;stroke-dasharray:none;stroke-opacity:1"
   id="path84102"
   sodipodi:cx="28.185518"
   sodipodi:cy="31.917336"
   sodipodi:rx="10.027505"
   sodipodi:ry="10.240856"
   d="M 38.213023,31.917336 A 10.027505,10.240856 0 1 1 18.158013,31.917336 A 10.027505,10.240856 0 1 1 38.213023,31.917336 z"
   transform="matrix(1.0116992,0,0,1.0189783,-1.4418411,-2.7101136)" /></svg>