<?xml version="1.0" encoding="UTF-8" standalone="no"?>
<!-- Generator: Adobe Illustrator 13.0.2, SVG Export Plug-In . SVG Version: 6.00 Build 14948)  -->
<svg
   xmlns:dc="http://purl.org/dc/elements/1.1/"
   xmlns:cc="http://creativecommons.org/ns#"
   xmlns:rdf="http://www.w3.org/1999/02/22-rdf-syntax-ns#"
   xmlns:svg="http://www.w3.org/2000/svg"
   xmlns="http://www.w3.org/2000/svg"
   xmlns:xlink="http://www.w3.org/1999/xlink"
   xmlns:sodipodi="http://sodipodi.sourceforge.net/DTD/sodipodi-0.dtd"
   xmlns:inkscape="http://www.inkscape.org/namespaces/inkscape"
   version="1.0"
   x="0px"
   y="0px"
   width="48"
   height="48"
   viewBox="0 0 36.184 43.865"
   enable-background="new 0 0 36.184 43.865"
   xml:space="preserve"
   id="svg2419"
   sodipodi:version="0.32"
   inkscape:version="0.46"
   sodipodi:docname="print_error.svg"
   inkscape:output_extension="org.inkscape.output.svg.inkscape"
   inkscape:export-filename="/Users/mlanglie/Desktop/print_error.png"
   inkscape:export-xdpi="90"
   inkscape:export-ydpi="90"><metadata
   id="metadata2435"><rdf:RDF><cc:Work
       rdf:about=""><dc:format>image/svg+xml</dc:format><dc:type
         rdf:resource="http://purl.org/dc/dcmitype/StillImage" /></cc:Work></rdf:RDF></metadata><defs
   id="defs2433"><linearGradient
   inkscape:collect="always"
   id="linearGradient84104"><stop
     style="stop-color:#fffffc;stop-opacity:1;"
     offset="0"
     id="stop84106" /><stop
     style="stop-color:#fffffc;stop-opacity:0;"
     offset="1"
     id="stop84108" /></linearGradient><linearGradient
   id="linearGradient84076"><stop
     style="stop-color:#73d216;stop-opacity:1;"
     offset="0"
     id="stop84078" /><stop
     id="stop84090"
     offset="0.31459025"
     style="stop-color:#73d216;stop-opacity:1;" /><stop
     style="stop-color:#4e9a06;stop-opacity:1;"
     offset="1"
     id="stop84080" /></linearGradient><linearGradient
   id="linearGradient3531"><stop
     id="stop3533"
     offset="0"
     style="stop-color:#9b9b9b;stop-opacity:1;" /><stop
     id="stop3535"
     offset="1"
     style="stop-color:#414141;stop-opacity:1;" /></linearGradient><linearGradient
   id="linearGradient3483"><stop
     id="stop3485"
     offset="0"
     style="stop-color:#000000;stop-opacity:1;" /><stop
     id="stop3487"
     offset="1"
     style="stop-color:#787878;stop-opacity:1" /></linearGradient><linearGradient
   id="linearGradient3263"><stop
     id="stop3265"
     offset="0"
     style="stop-color:#ffffff;stop-opacity:1;" /><stop
     id="stop3267"
     offset="1"
     style="stop-color:#ffffff;stop-opacity:0;" /></linearGradient><linearGradient
   id="linearGradient3247"><stop
     style="stop-color:#52a714;stop-opacity:1;"
     offset="0"
     id="stop3249" /><stop
     style="stop-color:#398800;stop-opacity:1;"
     offset="1"
     id="stop3251" /></linearGradient><linearGradient
   id="linearGradient3233"><stop
     id="stop3235"
     offset="0"
     style="stop-color:#398800;stop-opacity:1;" /><stop
     id="stop3237"
     offset="1"
     style="stop-color:#84c706;stop-opacity:1;" /></linearGradient><inkscape:perspective
   sodipodi:type="inkscape:persp3d"
   inkscape:vp_x="0 : 21.932501 : 1"
   inkscape:vp_y="0 : 1000 : 0"
   inkscape:vp_z="36.183998 : 21.932501 : 1"
   inkscape:persp3d-origin="18.091999 : 14.621667 : 1"
   id="perspective2437" />
	
	

		
		
	<filter
   inkscape:collect="always"
   id="filter3471"><feGaussianBlur
     inkscape:collect="always"
     stdDeviation="0.057808254"
     id="feGaussianBlur3473" /></filter><linearGradient
   inkscape:collect="always"
   xlink:href="#linearGradient3233"
   id="linearGradient3517"
   gradientUnits="userSpaceOnUse"
   x1="25.144751"
   y1="43.865002"
   x2="25.144751"
   y2="23.838018" /><linearGradient
   inkscape:collect="always"
   xlink:href="#linearGradient3247"
   id="linearGradient3519"
   gradientUnits="userSpaceOnUse"
   x1="30.691881"
   y1="23.365002"
   x2="30.691881"
   y2="44.365963" /><linearGradient
   inkscape:collect="always"
   xlink:href="#linearGradient3263"
   id="linearGradient3521"
   gradientUnits="userSpaceOnUse"
   x1="26.455547"
   y1="24.322035"
   x2="26.455547"
   y2="30.466549" /><linearGradient
   gradientUnits="userSpaceOnUse"
   y2="55.692348"
   x2="18.072493"
   y1="29.205048"
   x1="21.55229"
   id="linearGradient5138"
   xlink:href="#linearGradient5132"
   inkscape:collect="always" /><linearGradient
   id="linearGradient5132"
   inkscape:collect="always"><stop
     id="stop5134"
     offset="0"
     style="stop-color:white;stop-opacity:1;" /><stop
     id="stop5136"
     offset="1"
     style="stop-color:white;stop-opacity:0;" /></linearGradient><linearGradient
   id="linearGradient1913"><stop
     id="stop1915"
     offset="0"
     style="stop-color:#73d216;stop-opacity:1" /><stop
     id="stop1917"
     offset="1"
     style="stop-color:#8ae234;stop-opacity:1" /></linearGradient><inkscape:perspective
   id="perspective84036"
   inkscape:persp3d-origin="24 : 16 : 1"
   inkscape:vp_z="48 : 24 : 1"
   inkscape:vp_y="0 : 1000 : 0"
   inkscape:vp_x="0 : 24 : 1"
   sodipodi:type="inkscape:persp3d" /><radialGradient
   inkscape:collect="always"
   xlink:href="#linearGradient84076"
   id="radialGradient84088"
   cx="26.183998"
   cy="40.111427"
   fx="26.183998"
   fy="40.111427"
   r="10.5"
   gradientUnits="userSpaceOnUse"
   gradientTransform="matrix(0.9228377,7.3282173e-8,-7.9001009e-8,0.8924238,2.0204218,4.4167191)" /><linearGradient
   inkscape:collect="always"
   xlink:href="#linearGradient3263"
   id="linearGradient84092"
   gradientUnits="userSpaceOnUse"
   x1="26.455547"
   y1="24.322035"
   x2="26.455547"
   y2="30.466549" /><linearGradient
   inkscape:collect="always"
   xlink:href="#linearGradient84104"
   id="linearGradient84110"
   x1="28.185518"
   y1="22.649143"
   x2="27.596079"
   y2="42.648415"
   gradientUnits="userSpaceOnUse" /><radialGradient
   inkscape:collect="always"
   xlink:href="#linearGradient84076"
   id="radialGradient84134"
   gradientUnits="userSpaceOnUse"
   gradientTransform="matrix(1.0862379,-2.5925308e-8,1.5464794e-8,0.8186283,-2.2580516,7.302016)"
   cx="26.183998"
   cy="39.098457"
   fx="26.183998"
   fy="39.098457"
   r="10.5" /><linearGradient
   inkscape:collect="always"
   xlink:href="#linearGradient3263"
   id="linearGradient84136"
   gradientUnits="userSpaceOnUse"
   x1="26.455547"
   y1="24.322035"
   x2="26.455547"
   y2="30.466549" /><linearGradient
   inkscape:collect="always"
   xlink:href="#linearGradient84104"
   id="linearGradient84138"
   gradientUnits="userSpaceOnUse"
   x1="21.515692"
   y1="23.09075"
   x2="34.488232"
   y2="40.661182" /><filter
   inkscape:collect="always"
   id="filter84266"
   x="-0.07103052"
   width="1.142061"
   y="-0.5276553"
   height="2.0553105"><feGaussianBlur
     inkscape:collect="always"
     stdDeviation="0.45756194"
     id="feGaussianBlur84268" /></filter><linearGradient
   inkscape:collect="always"
   xlink:href="#linearGradient3263"
   id="linearGradient84277"
   gradientUnits="userSpaceOnUse"
   x1="26.455547"
   y1="24.322035"
   x2="26.455547"
   y2="30.466549" /><linearGradient
   id="linearGradient5171"><stop
     style="stop-color:#fe3a00;stop-opacity:1"
     offset="0"
     id="stop5173" /><stop
     style="stop-color:#c00;stop-opacity:1;"
     offset="1"
     id="stop5175" /></linearGradient><inkscape:perspective
   id="perspective7871"
   inkscape:persp3d-origin="24 : 16 : 1"
   inkscape:vp_z="48 : 24 : 1"
   inkscape:vp_y="0 : 1000 : 0"
   inkscape:vp_x="0 : 24 : 1"
   sodipodi:type="inkscape:persp3d" /><inkscape:perspective
   id="perspective7973"
   inkscape:persp3d-origin="14 : 9.3333333 : 1"
   inkscape:vp_z="28 : 14 : 1"
   inkscape:vp_y="0 : 1000 : 0"
   inkscape:vp_x="0 : 14 : 1"
   sodipodi:type="inkscape:persp3d" />
	
<radialGradient
   inkscape:collect="always"
   xlink:href="#linearGradient5171"
   id="radialGradient8812"
   cx="26.184002"
   cy="39.797016"
   fx="26.184002"
   fy="39.797016"
   r="10.65866"
   gradientUnits="userSpaceOnUse"
   gradientTransform="matrix(0.9444304,0,0,0.7220468,1.4550326,11.504981)" /><linearGradient
   y2="40.661182"
   x2="34.488232"
   y1="23.09075"
   x1="21.515692"
   gradientUnits="userSpaceOnUse"
   id="linearGradient84279"
   xlink:href="#linearGradient84104"
   inkscape:collect="always" /><linearGradient
   y2="30.466549"
   x2="26.455547"
   y1="24.322035"
   x1="26.455547"
   gradientUnits="userSpaceOnUse"
   id="linearGradient9095"
   xlink:href="#linearGradient3263"
   inkscape:collect="always" /><linearGradient
   y2="40.661182"
   x2="34.488232"
   y1="23.09075"
   x1="21.515692"
   gradientUnits="userSpaceOnUse"
   id="linearGradient9089"
   xlink:href="#linearGradient84104"
   inkscape:collect="always" /><linearGradient
   y2="30.466549"
   x2="26.455547"
   y1="24.322035"
   x1="26.455547"
   gradientUnits="userSpaceOnUse"
   id="linearGradient9087"
   xlink:href="#linearGradient3263"
   inkscape:collect="always" /><radialGradient
   r="10.5"
   fy="39.098457"
   fx="26.183998"
   cy="39.098457"
   cx="26.183998"
   gradientTransform="matrix(1.0862379,-2.5925308e-8,1.5464794e-8,0.8186283,-2.2580516,7.302016)"
   gradientUnits="userSpaceOnUse"
   id="radialGradient9085"
   xlink:href="#linearGradient84076"
   inkscape:collect="always" /><linearGradient
   gradientUnits="userSpaceOnUse"
   y2="42.648415"
   x2="27.596079"
   y1="22.649143"
   x1="28.185518"
   id="linearGradient9083"
   xlink:href="#linearGradient84104"
   inkscape:collect="always" /><linearGradient
   y2="30.466549"
   x2="26.455547"
   y1="24.322035"
   x1="26.455547"
   gradientUnits="userSpaceOnUse"
   id="linearGradient9081"
   xlink:href="#linearGradient3263"
   inkscape:collect="always" /><radialGradient
   gradientTransform="matrix(0.9228377,7.3282173e-8,-7.9001009e-8,0.8924238,2.0204218,4.4167191)"
   gradientUnits="userSpaceOnUse"
   r="10.5"
   fy="40.111427"
   fx="26.183998"
   cy="40.111427"
   cx="26.183998"
   id="radialGradient9079"
   xlink:href="#linearGradient84076"
   inkscape:collect="always" /><inkscape:perspective
   sodipodi:type="inkscape:persp3d"
   inkscape:vp_x="0 : 24 : 1"
   inkscape:vp_y="0 : 1000 : 0"
   inkscape:vp_z="48 : 24 : 1"
   inkscape:persp3d-origin="24 : 16 : 1"
   id="perspective9077" /><linearGradient
   id="linearGradient9071"><stop
     style="stop-color:#73d216;stop-opacity:1"
     offset="0"
     id="stop9073" /><stop
     style="stop-color:#8ae234;stop-opacity:1"
     offset="1"
     id="stop9075" /></linearGradient><linearGradient
   inkscape:collect="always"
   xlink:href="#linearGradient5132"
   id="linearGradient9063"
   x1="21.55229"
   y1="29.205048"
   x2="18.072493"
   y2="55.692348"
   gradientUnits="userSpaceOnUse" /><linearGradient
   y2="30.466549"
   x2="26.455547"
   y1="24.322035"
   x1="26.455547"
   gradientUnits="userSpaceOnUse"
   id="linearGradient9061"
   xlink:href="#linearGradient3263"
   inkscape:collect="always" /><linearGradient
   y2="44.365963"
   x2="30.691881"
   y1="23.365002"
   x1="30.691881"
   gradientUnits="userSpaceOnUse"
   id="linearGradient9059"
   xlink:href="#linearGradient3247"
   inkscape:collect="always" /><linearGradient
   y2="23.838018"
   x2="25.144751"
   y1="43.865002"
   x1="25.144751"
   gradientUnits="userSpaceOnUse"
   id="linearGradient9057"
   xlink:href="#linearGradient3233"
   inkscape:collect="always" />
	
	

		
		
	<inkscape:perspective
   id="perspective9051"
   inkscape:persp3d-origin="18.091999 : 14.621667 : 1"
   inkscape:vp_z="36.183998 : 21.932501 : 1"
   inkscape:vp_y="0 : 1000 : 0"
   inkscape:vp_x="0 : 21.932501 : 1"
   sodipodi:type="inkscape:persp3d" /><linearGradient
   id="linearGradient9045"><stop
     style="stop-color:#398800;stop-opacity:1;"
     offset="0"
     id="stop9047" /><stop
     style="stop-color:#84c706;stop-opacity:1;"
     offset="1"
     id="stop9049" /></linearGradient><linearGradient
   id="linearGradient9039"><stop
     id="stop9041"
     offset="0"
     style="stop-color:#52a714;stop-opacity:1;" /><stop
     id="stop9043"
     offset="1"
     style="stop-color:#398800;stop-opacity:1;" /></linearGradient><linearGradient
   id="linearGradient9033"><stop
     style="stop-color:#ffffff;stop-opacity:1;"
     offset="0"
     id="stop9035" /><stop
     style="stop-color:#ffffff;stop-opacity:0;"
     offset="1"
     id="stop9037" /></linearGradient><linearGradient
   id="linearGradient9027"><stop
     style="stop-color:#000000;stop-opacity:1;"
     offset="0"
     id="stop9029" /><stop
     style="stop-color:#787878;stop-opacity:1"
     offset="1"
     id="stop9031" /></linearGradient><linearGradient
   id="linearGradient9021"><stop
     style="stop-color:#9b9b9b;stop-opacity:1;"
     offset="0"
     id="stop9023" /><stop
     style="stop-color:#414141;stop-opacity:1;"
     offset="1"
     id="stop9025" /></linearGradient><linearGradient
   id="linearGradient9013"><stop
     id="stop9015"
     offset="0"
     style="stop-color:#73d216;stop-opacity:1;" /><stop
     style="stop-color:#73d216;stop-opacity:1;"
     offset="0.31459025"
     id="stop9017" /><stop
     id="stop9019"
     offset="1"
     style="stop-color:#4e9a06;stop-opacity:1;" /></linearGradient><linearGradient
   inkscape:collect="always"
   xlink:href="#linearGradient3263"
   id="linearGradient9115"
   gradientUnits="userSpaceOnUse"
   x1="26.455547"
   y1="24.322035"
   x2="26.455547"
   y2="30.466549" /></defs><sodipodi:namedview
   inkscape:window-height="733"
   inkscape:window-width="1263"
   inkscape:pageshadow="2"
   inkscape:pageopacity="0.0"
   guidetolerance="10.0"
   gridtolerance="10.0"
   objecttolerance="10.0"
   borderopacity="1.0"
   bordercolor="#666666"
   pagecolor="#ffffff"
   id="base"
   showgrid="false"
   inkscape:zoom="10.958333"
   inkscape:cx="16.307224"
   inkscape:cy="24"
   inkscape:window-x="6"
   inkscape:window-y="140"
   inkscape:current-layer="svg2419" />
<path
   id="path2424"
   d="M 11.485207,8.6743869 C 11.872117,8.5219533 18.066562,7.5772471 17.547442,14.819684 C 16.836811,24.751336 10.199071,21.863582 8.4570051,28.091683 C 9.1530536,27.855507 9.3319265,27.184615 9.77036,26.633222 C 11.09052,24.971517 11.912946,24.144427 13.199081,23.591154 C 17.777838,21.620819 20.261644,13.237019 16.405184,9.3659791 C 14.958646,7.9131637 12.270692,8.0514823 11.485207,8.6743869 z M -0.41567362,30.622819 C -0.62079412,30.073309 -0.81036052,29.508743 -0.98534482,28.932886 C 0.28134733,30.510848 2.408639,29.511665 3.7800623,29.851546 C 7.7792565,30.842672 10.201988,29.700696 12.4972,27.002072 C 14.538683,24.600785 15.730521,26.026314 17.692291,22.415916 C 18.187107,21.506024 19.527682,20.515211 20.049718,16.478567 C 20.335526,14.26641 21.73087,14.007651 21.560747,12.407106 C 21.300215,9.95501 21.209476,9.6012157 20.182901,7.9460967 C 18.706228,5.5636294 16.443158,4.9249489 14.396731,4.9187631 C 12.674334,4.9140584 11.84411,5.6088349 11.260829,5.8365431 C 15.390232,4.8356399 18.977454,6.2618089 19.977781,8.6743869 C 20.486207,9.9004346 20.744795,10.273048 20.835204,11.578136 C 20.978108,13.644446 20.307334,14.416019 20.263588,13.790293 C 20.079855,11.11331 19.152438,7.8049552 16.050354,6.738867 C 14.094417,6.0670338 11.302445,6.5779657 9.6303729,7.8454158 C 7.5908326,9.7988133 6.4952361,12.616937 6.4952361,14.474358 C 6.4952361,18.037708 6.4689884,19.168722 5.854599,22.494014 C 5.596011,23.89696 4.6627611,25.357303 5.2022963,27.278709 C 5.9975029,26.985134 6.7110502,25.878585 6.9949136,25.111717 C 8.9868188,19.727642 10.292396,20.99227 12.343602,18.829042 C 12.831614,18.314346 13.669595,16.922691 13.771669,16.409877 C 14.018591,15.167833 14.629092,12.200099 12.557472,12.269729 C 10.832904,13.36875 11.557145,15.649595 10.237957,17.872102 C 12.271664,16.963152 12.138481,13.127869 12.885082,13.037538 C 13.533495,12.95944 13.493638,14.504468 13.351707,15.328734 C 13.046456,17.100529 12.422345,18.101693 11.019554,19.120734 C 9.9006261,19.933709 8.8604412,20.065441 7.8484484,21.773252 C 7.6579099,22.073413 6.3027534,25.346012 6.134574,25.654641 C 5.2858998,27.216607 5.3879741,25.564311 6.3212239,22.946607 C 6.3212239,22.946607 7.2311425,20.110606 7.1115699,17.014904 C 7.0571303,15.581848 7.1368454,9.9201951 10.843597,7.9150456 C 12.438871,7.052201 14.9149,6.5102179 16.620025,7.776727 C 21.95802,11.740919 19.47227,21.463682 15.405828,24.214058 C 13.770697,25.320606 12.413596,25.389296 11.019554,27.516768 C 9.932706,29.17565 6.8500655,30.289726 4.7074794,29.321496 C 5.5649027,28.845379 6.8957558,28.803036 7.2787772,27.73883 C 10.085332,19.931827 15.530262,23.306048 16.183536,14.966471 C 16.414904,12.009088 14.877959,9.6953099 12.69746,9.6953099 C 10.466409,9.6953099 8.9664042,12.675276 8.6281009,15.440706 C 8.4657544,16.774023 8.3782621,18.528881 8.2713273,19.450064 C 10.056167,18.413145 8.4851971,11.162239 12.484562,10.747283 C 15.963834,10.386902 15.66636,14.964589 15.26973,16.96127 C 14.967396,18.483716 14.270374,19.795389 11.270365,21.516375 C 9.690645,22.422502 8.643655,23.573275 7.8426157,25.457043 C 7.3730743,26.56171 6.4126046,28.452065 4.547077,28.632726 C 4.3332073,28.653426 3.9268547,26.573943 3.8004772,25.47304 C 3.6138271,23.848031 4.453752,22.765006 4.7327549,21.015793 C 5.0438382,19.072746 5.2615964,17.525836 5.2781228,14.197721 C 4.4936096,9.0893427 5.2917327,7.5791289 7.4226532,5.1562011 C 9.9142358,2.3220811 12.045219,2.0705493 13.508882,2.0570557 C 15.652565,2.0393053 16.899028,3.5509526 16.263252,3.4276891 C 14.62326,3.1105913 11.630055,2.6909308 9.0577845,5.2945196 C 7.6229131,6.7454536 6.0402768,8.6122845 6.2084562,10.886543 C 6.8802017,7.6195895 10.334508,3.7516736 13.747676,3.7516736 C 17.577206,3.7516736 19.976808,5.1712562 21.120039,7.0155042 C 22.280769,8.8889209 22.761976,10.297513 22.761976,12.822062 C 22.761976,14.686071 21.730541,15.451057 21.262943,16.962211 C 21.083098,17.542773 20.463848,19.045459 20.191651,20.211286 C 19.097998,24.896241 18.309596,27.152622 14.271346,30.220096 C 12.511782,31.556235 11.111907,31.646565 10.179629,31.285243 C 10.187406,31.13281 12.366934,30.934272 13.724035,28.937591 C 15.002392,27.055705 16.650162,27.007717 17.396761,24.840726 C 16.622941,25.778846 15.419438,26.673683 14.41425,27.115925 C 14.130387,27.241071 13.618072,27.886557 13.421701,28.116148 C 11.368551,30.531548 9.713004,31.103642 7.3458545,31.373692 C 7.7220709,31.550589 8.110925,31.687026 8.5231103,31.739719 C 11.53187,32.124565 13.387675,32.163143 15.774267,30.055431 C 19.142717,27.08111 19.696834,25.201106 20.047775,22.967308 C 20.307334,21.313131 21.669648,17.436727 22.261326,15.868175 C 23.094574,13.65922 22.570465,18.105457 22.332292,18.688842 C 20.93825,22.115755 21.500144,26.735784 17.955739,30.380997 C 15.523456,32.882964 12.32416,33.811675 7.1358733,32.637379 C 5.7525248,32.324044 6.253216,31.857336 4.671552,31.373692 C 4.1971499,31.159157 1.6540024,31.013311 1.3623619,31.011429 C 0.72269676,31.007665 0.11997297,30.875933 -0.41567362,30.622819 z M 4.2680743,5.1477326 C 2.8681995,6.7162844 3.1442858,7.9310416 2.2158966,9.2445983 C 0.39119867,11.826545 1.4517984,15.393659 1.0658607,17.99913 C 0.56618308,21.378997 0.52283784,20.110089 0.0065640818,17.990301 C -0.75463862,14.864849 -0.20180392,13.731954 -0.076398418,12.407106 C 0.6186783,9.1298026 1.2262629,7.7560263 2.8691715,5.6887748 C 4.2253003,3.9828454 6.149156,3.0371977 4.2680743,5.1477326 z M 24.036445,36.450079 C 23.488161,37.083333 22.896131,37.673305 22.262298,38.211523 L 21.475841,38.506979 C 18.241547,39.711387 16.58114,39.821477 11.857534,39.082837 C 9.932706,38.781735 7.3050248,38.411944 5.4978253,39.277612 C 6.5839482,39.510065 10.395401,38.361053 11.576587,39.986142 C 11.459931,40.156453 9.2113823,39.88358 7.0960157,40.347465 C 6.5837004,40.058595 6.0888836,39.731146 5.6115651,39.367002 C 5.1527173,39.009443 4.8173306,38.720573 4.4926375,38.413826 C 6.9570004,37.030641 10.904842,37.507699 13.34879,37.820091 C 17.581468,38.362075 19.260345,38.181414 21.964825,37.188718 C 22.696843,36.919609 23.388031,36.670259 24.036445,36.450079 z M 26.094456,7.8981086 C 27.151167,9.9813566 28.257457,11.575313 28.257457,14.734999 C 28.257457,18.212845 25.759069,19.908303 25.360494,22.223022 C 24.987194,24.390014 24.927894,26.193802 24.599312,26.193802 C 24.132687,26.193802 23.98395,24.125609 24.054915,22.674675 C 24.126854,21.205864 24.314124,20.404861 24.655344,19.310545 C 25.039337,18.081673 25.62266,15.331577 25.504059,13.251152 C 25.348517,10.505481 25.590559,11.089486 26.303134,12.745546 C 26.769759,13.828571 26.261622,15.950138 26.303134,17.484815 C 27.329709,15.648996 27.135261,12.882863 26.349775,10.877714 C 26.087298,10.20494 25.726989,8.8446969 26.094456,7.8981086 z M 24.622001,9.2587722 C 24.485902,8.654687 23.723397,6.4935811 22.726959,5.2026076 C 21.232786,3.2689699 22.578201,3.6726143 23.649494,4.846911 C 24.696483,5.9948613 25.472289,7.3598893 25.501453,8.680032 C 25.560753,11.39277 25.122651,11.470929 24.622001,9.2587722 z M 28.324534,16.874703 C 28.602565,16.515264 28.874762,18.765998 28.371196,19.556391 C 27.026733,21.665043 27.509885,25.128655 26.639823,27.894085 C 25.254531,32.293934 20.848813,35.618286 15.998831,35.528896 C 19.543236,34.354599 22.714341,33.813557 24.183237,26.840229 C 24.312532,26.225793 25.174816,26.557005 24.397107,29.459814 C 25.254531,28.223415 25.999186,25.124891 26.111954,22.623864 C 26.186809,20.930167 27.729588,18.502534 28.324534,16.874703 z M 0.35036898,7.0776065 C 3.1160939,2.0115701 8.6912897,0.54275818 13.214636,0.54275818 C 16.041605,0.54275818 18.507912,1.0273437 20.818678,2.3550142 C 21.174479,2.6147144 21.713042,2.9355759 22.002738,3.2253863 C 22.938905,4.1653883 21.369626,3.7445623 19.405193,2.8753556 C 15.80217,1.2811182 13.224356,1.5241817 11.057467,1.8713897 C 9.4544161,2.1282671 8.4327017,3.4107521 7.629718,4.1889118 C 4.6705382,7.05126 4.2097461,9.6106249 4.5655476,12.822062 C 5.0068971,16.806955 4.2680743,21.015793 3.3367686,23.309812 C 2.8604223,24.48505 2.9236112,26.011258 3.1365088,26.978548 C 3.5214743,28.723056 5.0173803,29.448829 3.1481744,29.208582 C -0.12595652,28.787761 -0.12403302,24.289333 0.99392257,21.109887 C 2.1361815,17.860811 1.50895,15.966631 1.7492717,13.57764 C 2.8163869,2.8893489 3.1267874,15.841548 3.0655428,16.408937 C 2.7077971,19.726701 2.2340211,20.608302 1.7385783,22.084704 C 0.6727661,25.260787 1.9314335,27.1104 2.2661583,27.366598 C 0.91096007,23.04949 3.2794126,21.655634 3.4660626,16.648877 C 3.5117529,15.433179 3.5311956,14.688893 3.3455178,13.046948 C 2.7748744,7.9799706 4.0814242,5.0574021 6.9725545,2.7097496 C 5.2188225,2.7266866 3.8724152,3.9950776 2.6825216,5.1477326 C 1.376944,6.4114188 0.16469114,9.2935264 -0.21249732,10.402898 C -0.77633582,12.06178 -1.2711526,10.046281 0.35036898,7.0776065 z M -1.1097781,28.513226 C -2.0128918,25.368594 -2.4649347,21.861701 -2.3900803,18.216487 C -2.3609163,16.765553 -2.2306501,15.171597 -1.7834679,13.305707 C -0.91243472,9.6699043 -0.68197602,11.586122 -0.74034592,12.032491 C -1.892347,20.8421 1.6144968,19.138912 -0.52455272,25.744091 C -1.2711526,25.202108 -0.48304042,21.510409 -1.656139,19.312946 C -1.3508469,21.734954 -2.0167804,25.74309 0.62937185,28.271403 C 1.3856931,28.994988 2.8681995,29.389244 0.72269676,29.208582 C -0.014181718,29.14648 -0.61787772,28.901835 -1.1097781,28.513226 z M 0.48744008,32.752173 C 0.31731635,32.398379 0.15496979,32.036116 -0.001544018,31.666325 C 1.0075324,31.547766 3.0567937,31.442381 4.827052,32.187607 C 5.8555711,32.620441 3.7965886,32.40967 2.0000826,32.51976 C 1.3565291,32.558339 0.82574314,32.712653 0.48744008,32.752173 z M 1.3409749,34.366831 C 1.1446035,34.029973 0.95600926,33.683706 0.77422,33.328971 C 5.2207668,32.537638 7.1728144,33.319562 10.628756,33.606549 C 14.190659,33.902946 18.050036,32.097277 19.263261,30.020616 C 19.886399,28.953587 20.061384,28.694827 20.186789,28.414427 C 20.295669,28.171663 20.367606,27.912904 20.662164,27.098048 C 21.315439,25.292378 21.284331,27.753885 21.120039,28.360793 C 20.008889,32.4586 19.076611,31.735955 17.211084,33.542565 C 21.502088,32.007888 22.154392,28.937591 21.595413,24.661006 C 21.461259,23.63726 22.257437,20.869947 22.622961,19.880074 C 22.622961,19.880074 23.390948,17.397867 23.395808,12.997078 C 23.398724,10.126261 22.460614,5.7019479 18.621652,4.0505932 C 17.335517,3.4973188 15.549704,1.9767551 15.549704,1.9767551 C 16.345283,2.4005401 18.263906,2.6674072 20.120685,3.773956 C 20.191651,3.8162985 24.211429,6.0576243 24.612921,11.923462 C 24.802488,14.69548 24.823213,14.824989 24.636563,16.630658 C 24.636563,16.630658 24.522513,18.48748 23.87021,20.022157 C 23.555238,20.876533 23.217907,23.396378 23.404558,24.661006 C 23.836185,27.588279 22.063983,34.896582 14.845879,34.896582 C 11.657275,34.896582 9.7168927,34.487272 8.1906401,34.251096 C 6.8082637,34.036561 4.0143469,33.91612 1.3409749,34.366831 z M 3.9297711,37.852084 C 3.5603597,37.465356 3.2055303,37.055105 2.865283,36.622271 C 3.9113006,36.029477 4.8299684,36.020068 6.6935517,36.070879 C 8.8283608,36.070879 12.045156,36.916786 11.057467,37.195306 C 11.009832,37.207538 6.4806541,36.578988 3.9297711,37.852084 z M 14.733111,41.653493 C 14.310232,41.716536 13.88152,41.763583 13.44406,41.791811 C 11.361746,41.927308 9.4310844,41.515174 7.6851297,40.656094 C 8.5367202,40.538475 10.183517,40.482019 11.744767,40.7022 C 12.669268,40.832991 13.723062,41.288407 14.733111,41.653493 z M 20.761322,39.340655 C 19.332282,40.284421 17.738953,40.992951 16.005636,41.406965 C 14.734083,41.029648 11.984449,40.585503 12.005589,39.75495 C 12.021421,39.132891 15.493321,40.331468 17.489114,40.076472 C 18.855937,39.902398 19.892232,39.635171 20.761322,39.340655 z M 26.76134,32.003183 C 27.309624,31.472491 26.651489,34.623708 23.573708,35.937265 C 21.48945,36.675905 18.394173,38.324437 13.07076,36.917727 C 12.417485,36.744594 10.347808,36.196965 9.8870164,36.103812 C 6.2998369,35.382109 4.4372258,35.597584 2.4064351,36.01254 C 2.1702062,35.685092 1.9417545,35.345412 1.7210798,34.995381 C 2.3753268,34.730976 4.0192075,34.628413 5.200352,34.626531 C 8.9615437,34.619945 14.003037,35.980548 15.996887,36.070879 C 20.670913,36.282591 23.680644,33.000582 24.053944,33.000582 C 24.986221,33.000582 23.179994,34.632178 22.678372,35.082889 C 22.251605,35.467734 24.361138,34.516441 26.76134,32.003183 z M 28.531599,25.021387 C 28.408138,27.148859 28.247735,30.101537 26.467755,31.577877 C 23.628148,33.933056 24.799572,32.277938 26.039044,30.634111 C 28.194268,27.774586 27.297959,21.332891 28.708527,20.0852 C 28.725053,21.437335 28.621035,23.498941 28.531599,25.021387 z"
   style="fill:#a1a1a1;fill-opacity:1"
   inkscape:export-xdpi="90"
   inkscape:export-ydpi="90"
   sodipodi:nodetypes="cscssscccssssssscsssscsscsssccssscscssssscsssscssssssscsssscsssssscscsscssssssscsccssscsccccscccscssccssssssscsccsssccsscscsccscsssssssssssscsscssccsssccsscccsscccssssscscsscssccsssccccsccscscccsscccssccssssccsscc" /><path
   sodipodi:type="arc"
   style="opacity:0.24299999;fill:#000000;fill-opacity:1;stroke:none;stroke-width:1;stroke-linejoin:miter;stroke-miterlimit:4;stroke-dasharray:none;stroke-opacity:1;filter:url(#filter84266)"
   id="path84140"
   sodipodi:cx="27.093658"
   sodipodi:cy="38.810692"
   sodipodi:rx="7.7301183"
   sodipodi:ry="1.0405928"
   d="M 34.823777,38.810692 A 7.7301183,1.0405928 0 1 1 19.36354,38.810692 A 7.7301183,1.0405928 0 1 1 34.823777,38.810692 z"
   transform="matrix(1.1911672,0,0,2.1266149,-5.0625748,-41.775272)" /><g
   id="Background">
</g>
<g
   id="Guides">
</g>

<circle
   clip-rule="evenodd"
   cx="26.184"
   cy="33.865002"
   r="10"
   id="circle2428"
   sodipodi:cx="26.184"
   sodipodi:cy="33.865002"
   sodipodi:rx="10"
   sodipodi:ry="10"
   style="fill:url(#radialGradient8812);fill-opacity:1;fill-rule:evenodd;stroke:#a40000;stroke-width:1.31732059000000001;stroke-miterlimit:4;stroke-dasharray:none;stroke-opacity:1"
   transform="matrix(1.1263785,0,0,1.1511056,-2.2713556,-9.1997707)" /><path
   sodipodi:type="arc"
   style="opacity:0.5;fill:url(#linearGradient84277);fill-opacity:1;stroke:none;stroke-width:1;stroke-linejoin:miter;stroke-miterlimit:4;stroke-dasharray:none;stroke-opacity:1"
   id="path3253"
   sodipodi:cx="26.455547"
   sodipodi:cy="27.394291"
   sodipodi:rx="6.1445141"
   sodipodi:ry="3.072257"
   d="M 32.600061,27.394291 A 6.1445141,3.072257 0 1 1 20.311033,27.394291 A 6.1445141,3.072257 0 1 1 32.600061,27.394291 z"
   transform="matrix(1.1246822,0,0,1.4387643,-2.5144268,-14.969086)" /><path
   sodipodi:type="arc"
   style="opacity:0.48;fill:none;fill-opacity:1;stroke:#e64837;stroke-width:1.21842730000000010;stroke-linejoin:miter;stroke-miterlimit:4;stroke-dasharray:none;stroke-opacity:1"
   id="path84102"
   sodipodi:cx="28.185518"
   sodipodi:cy="31.917336"
   sodipodi:rx="10.027505"
   sodipodi:ry="10.240856"
   d="M 38.213023,31.917336 A 10.027505,10.240856 0 1 1 18.158013,31.917336 A 10.027505,10.240856 0 1 1 38.213023,31.917336 z"
   transform="matrix(0.9962424,0,0,0.9957004,-0.8393988,-2.0505383)" /><g
   id="g7978"
   transform="translate(103.26268,8.6771365)">
</g><g
   style="display:none"
   id="g7980"
   display="none"
   transform="translate(103.26268,8.6771365)">
</g><path
   id="path7993"
   style="opacity:0.55;fill:#a40000;fill-opacity:1;fill-rule:evenodd;stroke:#a40000;stroke-width:1.14231765000000007;stroke-miterlimit:4;stroke-dasharray:none;stroke-opacity:1"
   d="M 27.143847,37.652725 C 26.708227,37.652725 26.326837,37.518032 25.998788,37.249507 C 25.677852,36.974118 25.516939,36.592349 25.516939,36.10334 C 25.516939,35.676959 25.66985,35.315778 25.977452,35.018942 C 26.291276,34.7161 26.672666,34.565107 27.122511,34.56425 C 27.571466,34.56425 27.953745,34.7161 28.26757,35.018942 C 28.588505,35.31492 28.749418,35.676959 28.749418,36.10334 C 28.749418,36.585484 28.588505,36.963823 28.26757,37.239212 C 27.946633,37.515458 27.571466,37.652725 27.143847,37.652725 z M 25.956115,30.858079 L 25.613842,25.912229 C 25.549833,24.94794 25.517828,24.256464 25.517828,23.836088 C 25.517828,23.26472 25.670739,22.82118 25.978341,22.504613 C 26.292165,22.18118 26.702004,22.019893 27.208746,22.019035 C 27.82217,22.019035 28.232008,22.225791 28.439151,22.638445 C 28.645403,23.045095 28.749418,23.633622 28.749418,24.404025 C 28.749418,24.858717 28.724526,25.320272 28.674741,25.787834 L 28.214228,30.878669 C 28.164443,31.484354 28.056871,31.94934 27.893292,32.272773 C 27.728822,32.596205 27.457671,32.758349 27.079838,32.758349 C 26.694892,32.758349 26.427296,32.603067 26.277052,32.293362 C 26.126807,31.976794 26.020125,31.498939 25.956115,30.858079 z" /><path
   id="path8814"
   style="fill:#ffffff;fill-rule:evenodd"
   d="M 27.143847,36.992527 C 26.708227,36.992527 26.326837,36.857834 25.998788,36.589309 C 25.677852,36.31392 25.516939,35.932151 25.516939,35.443142 C 25.516939,35.016761 25.66985,34.65558 25.977452,34.358744 C 26.291276,34.055902 26.672666,33.904909 27.122511,33.904052 C 27.571466,33.904052 27.953745,34.055902 28.26757,34.358744 C 28.588505,34.654722 28.749418,35.016761 28.749418,35.443142 C 28.749418,35.925286 28.588505,36.303625 28.26757,36.579014 C 27.946633,36.85526 27.571466,36.992527 27.143847,36.992527 z M 25.956115,30.197881 L 25.613842,25.252031 C 25.549833,24.287742 25.517828,23.596266 25.517828,23.17589 C 25.517828,22.604522 25.670739,22.160982 25.978341,21.844415 C 26.292165,21.520982 26.702004,21.359695 27.208746,21.358837 C 27.82217,21.358837 28.232008,21.565593 28.439151,21.978247 C 28.645403,22.384897 28.749418,22.973424 28.749418,23.743827 C 28.749418,24.198519 28.724526,24.660074 28.674741,25.127636 L 28.214228,30.218471 C 28.164443,30.824156 28.056871,31.289142 27.893292,31.612575 C 27.728822,31.936007 27.457671,32.098151 27.079838,32.098151 C 26.694892,32.098151 26.427296,31.942869 26.277052,31.633164 C 26.126807,31.316596 26.020125,30.838741 25.956115,30.197881 z" /><rect
   style="fill:#666666;fill-opacity:0.75;fill-rule:evenodd;stroke:none;stroke-width:1px;stroke-linecap:butt;stroke-linejoin:miter;stroke-opacity:1"
   id="rect9126"
   width="1.8060035"
   height="42.650608"
   x="-26.038683"
   y="-24.284592"
   transform="matrix(-0.6420845,-0.7666339,0.7632254,-0.6461324,0,0)"
   ry="0"
   rx="0.018515259" /></svg>