<?xml version="1.0" encoding="UTF-8" standalone="no"?>
<!-- Created with Inkscape (http://www.inkscape.org/) -->
<svg
   xmlns:dc="http://purl.org/dc/elements/1.1/"
   xmlns:cc="http://web.resource.org/cc/"
   xmlns:rdf="http://www.w3.org/1999/02/22-rdf-syntax-ns#"
   xmlns:svg="http://www.w3.org/2000/svg"
   xmlns="http://www.w3.org/2000/svg"
   xmlns:xlink="http://www.w3.org/1999/xlink"
   xmlns:sodipodi="http://sodipodi.sourceforge.net/DTD/sodipodi-0.dtd"
   xmlns:inkscape="http://www.inkscape.org/namespaces/inkscape"
   version="1.0"
   x="0.0000000"
   y="0.0000000"
   width="48"
   height="48"
   id="svg1"
   sodipodi:version="0.32"
   inkscape:version="0.44"
   sodipodi:docname="folder-open.svg"
   sodipodi:docbase="/home/lapo/Icone/Crux/crux-icon-theme/scalable/status"
   inkscape:export-filename="/home/lapo/Icone/Crux/folderx-daritaliare.png"
   inkscape:export-xdpi="90"
   inkscape:export-ydpi="90"
   inkscape:output_extension="org.inkscape.output.svg.inkscape">
  <metadata
     id="metadata162">
    <rdf:RDF>
      <cc:Work
         rdf:about="">
        <dc:format>image/svg+xml</dc:format>
        <dc:type
           rdf:resource="http://purl.org/dc/dcmitype/StillImage" />
        <dc:title>Folder Open</dc:title>
        <dc:creator>
          <cc:Agent>
            <dc:title>Lapo Calamandrei</dc:title>
          </cc:Agent>
        </dc:creator>
        <dc:date />
        <cc:license
           rdf:resource="http://creativecommons.org/licenses/GPL/2.0/" />
        <dc:identifier />
        <dc:subject>
          <rdf:Bag>
            <rdf:li>folder</rdf:li>
            <rdf:li>directory</rdf:li>
            <rdf:li>storage</rdf:li>
            <rdf:li>open</rdf:li>
          </rdf:Bag>
        </dc:subject>
      </cc:Work>
      <cc:License
         rdf:about="http://creativecommons.org/licenses/GPL/2.0/">
        <cc:permits
           rdf:resource="http://web.resource.org/cc/Reproduction" />
        <cc:permits
           rdf:resource="http://web.resource.org/cc/Distribution" />
        <cc:requires
           rdf:resource="http://web.resource.org/cc/Notice" />
        <cc:permits
           rdf:resource="http://web.resource.org/cc/DerivativeWorks" />
        <cc:requires
           rdf:resource="http://web.resource.org/cc/ShareAlike" />
        <cc:requires
           rdf:resource="http://web.resource.org/cc/SourceCode" />
      </cc:License>
    </rdf:RDF>
  </metadata>
  <sodipodi:namedview
     id="base"
     pagecolor="#ffffff"
     bordercolor="#666"
     borderopacity="1"
     inkscape:pageopacity="0.0"
     inkscape:pageshadow="2"
     inkscape:window-width="1051"
     inkscape:window-height="655"
     inkscape:cy="23.5"
     inkscape:cx="25"
     inkscape:zoom="1"
     inkscape:document-units="px"
     showgrid="false"
     inkscape:window-x="284"
     inkscape:window-y="35"
     inkscape:current-layer="layer5"
     inkscape:showpageshadow="false"
     showguides="false"
     inkscape:guide-bbox="true"
     inkscape:object-paths="false"
     gridspacingx="0.5px"
     gridspacingy="0.5px"
     gridempspacing="2"
     inkscape:grid-points="false"
     showborder="false">
    <sodipodi:guide
       orientation="horizontal"
       position="36.062446"
       id="guide1934" />
    <sodipodi:guide
       orientation="horizontal"
       position="15.003922"
       id="guide1941" />
    <sodipodi:guide
       orientation="vertical"
       position="4.5"
       id="guide1943" />
    <sodipodi:guide
       orientation="vertical"
       position="44.503533"
       id="guide1945" />
    <sodipodi:guide
       orientation="horizontal"
       position="43.125"
       id="guide1947" />
    <sodipodi:guide
       orientation="horizontal"
       position="39"
       id="guide1949" />
    <sodipodi:guide
       orientation="horizontal"
       position="19.003495"
       id="guide2919" />
    <sodipodi:guide
       orientation="vertical"
       position="0.97227183"
       id="guide2212" />
    <sodipodi:guide
       orientation="vertical"
       position="47.994873"
       id="guide2214" />
    <sodipodi:guide
       orientation="horizontal"
       position="111"
       id="guide4328" />
    <sodipodi:guide
       orientation="vertical"
       position="65.75"
       id="guide3135" />
    <sodipodi:guide
       orientation="vertical"
       position="129.75"
       id="guide3137" />
    <sodipodi:guide
       orientation="vertical"
       position="190.75"
       id="guide3139" />
    <sodipodi:guide
       orientation="vertical"
       position="212.48559"
       id="guide3316" />
    <sodipodi:guide
       orientation="horizontal"
       position="178.01413"
       id="guide3318" />
  </sodipodi:namedview>
  <defs
     id="defs3">
    <linearGradient
       inkscape:collect="always"
       id="linearGradient3148">
      <stop
         style="stop-color:white;stop-opacity:1;"
         offset="0"
         id="stop3150" />
      <stop
         style="stop-color:white;stop-opacity:0;"
         offset="1"
         id="stop3152" />
    </linearGradient>
    <linearGradient
       inkscape:collect="always"
       id="linearGradient4100">
      <stop
         style="stop-color:#75507b;stop-opacity:1;"
         offset="0"
         id="stop4102" />
      <stop
         style="stop-color:#5c3566;stop-opacity:1"
         offset="1"
         id="stop4104" />
    </linearGradient>
    <linearGradient
       inkscape:collect="always"
       id="linearGradient3311">
      <stop
         style="stop-color:#888a85;stop-opacity:1;"
         offset="0"
         id="stop3313" />
      <stop
         style="stop-color:#555753;stop-opacity:1"
         offset="1"
         id="stop3315" />
    </linearGradient>
    <linearGradient
       id="linearGradient2894">
      <stop
         style="stop-color:#39213f;stop-opacity:1;"
         offset="0"
         id="stop2896" />
      <stop
         id="stop2900"
         offset="0.47619048"
         style="stop-color:#75507b;stop-opacity:1;" />
      <stop
         style="stop-color:#5c3566;stop-opacity:1"
         offset="1"
         id="stop2898" />
    </linearGradient>
    <linearGradient
       id="linearGradient3100">
      <stop
         style="stop-color:white;stop-opacity:1;"
         offset="0"
         id="stop3102" />
      <stop
         id="stop2071"
         offset="1"
         style="stop-color:white;stop-opacity:0;" />
    </linearGradient>
    <linearGradient
       id="linearGradient3018">
      <stop
         style="stop-color:white;stop-opacity:1;"
         offset="0"
         id="stop3020" />
      <stop
         style="stop-color:white;stop-opacity:0;"
         offset="1"
         id="stop3022" />
    </linearGradient>
    <linearGradient
       inkscape:collect="always"
       xlink:href="#linearGradient3311"
       id="linearGradient3998"
       gradientUnits="userSpaceOnUse"
       gradientTransform="translate(-1,103)"
       x1="20.625"
       y1="-89.501274"
       x2="20.625"
       y2="-73.592278" />
    <linearGradient
       inkscape:collect="always"
       xlink:href="#linearGradient3018"
       id="linearGradient4000"
       gradientUnits="userSpaceOnUse"
       x1="7.875"
       y1="8.8348885"
       x2="7.875"
       y2="30.009003" />
    <linearGradient
       inkscape:collect="always"
       xlink:href="#linearGradient2894"
       id="linearGradient4087"
       gradientUnits="userSpaceOnUse"
       gradientTransform="matrix(1,0,0,0.9603,0,83.39965)"
       x1="9.4176369"
       y1="-44.498653"
       x2="9.4176369"
       y2="-60.72047" />
    <linearGradient
       inkscape:collect="always"
       xlink:href="#linearGradient3100"
       id="linearGradient4089"
       gradientUnits="userSpaceOnUse"
       x1="17.02047"
       y1="-16.221062"
       x2="17.02047"
       y2="-29.344501" />
    <linearGradient
       inkscape:collect="always"
       xlink:href="#linearGradient4100"
       id="linearGradient4106"
       x1="20.662504"
       y1="34.941128"
       x2="20.537504"
       y2="25.303768"
       gradientUnits="userSpaceOnUse" />
    <radialGradient
       inkscape:collect="always"
       xlink:href="#linearGradient3148"
       id="radialGradient3154"
       cx="10.804749"
       cy="16.085173"
       fx="10.804749"
       fy="16.085173"
       r="22.730583"
       gradientTransform="matrix(2.909226,8.225137e-3,0,0.349063,-19.80845,16.49248)"
       gradientUnits="userSpaceOnUse" />
  </defs>
  <g
     inkscape:groupmode="layer"
     id="layer5"
     inkscape:label="Riferimenti"
     style="display:inline" />
  <g
     inkscape:groupmode="layer"
     id="layer4"
     inkscape:label="base"
     style="display:none">
    <rect
       style="opacity:0.7;fill:#2e3436;fill-opacity:1;stroke:none;stroke-width:2;stroke-linecap:square;stroke-linejoin:miter;stroke-miterlimit:4.01111126;stroke-dasharray:none;stroke-dashoffset:10;stroke-opacity:1"
       id="rect2826"
       width="307"
       height="105"
       x="-68"
       y="-209"
       inkscape:export-filename="/home/lapo/Icone/Crux/folderx-daritaliare.png"
       inkscape:export-xdpi="90"
       inkscape:export-ydpi="90" />
  </g>
  <g
     inkscape:groupmode="layer"
     id="layer2"
     inkscape:label="vectors"
     style="display:inline">
    <g
       id="g891"
       transform="matrix(0.186703,0,0,0.186703,-21.1073,57.62299)" />
    <path
       style="fill:url(#linearGradient3998);fill-opacity:1;stroke:#555753;stroke-width:0.99999934;stroke-linecap:round;stroke-linejoin:miter;stroke-miterlimit:4;stroke-dasharray:none;stroke-opacity:1;display:inline"
       d="M 7.5,7.499998 C 6.5975,7.499998 6.168127,7.813608 6,8.95588 C 4.118026,18.929057 4.215756,27.03426 4.5,37.135101 C 4.5,37.884398 5.116307,38.49999 5.875,38.49999 L 41.125,38.49999 C 41.88369,38.49999 42.44816,37.882707 42.5,37.135101 C 43.5,19.08823 41.5,13.864889 41.5,13.864889 C 41.5,13.115592 40.88369,12.5 40.125,12.5 L 22.5,12.5 L 21.5,9.102942 C 21.254867,8.270211 20.9025,7.499998 20,7.499998 L 7.5,7.499998 z "
       id="path3944"
       sodipodi:nodetypes="czcccccccscc"
       inkscape:export-filename="/home/lapo/Icone/Crux/folderx.png"
       inkscape:export-xdpi="90"
       inkscape:export-ydpi="90" />
    <path
       sodipodi:type="inkscape:offset"
       inkscape:radius="-0.98693144"
       inkscape:original="M 8.5 7.5 C 7.5975 7.4999999 7.168127 7.826478 7 8.96875 C 5.118026 18.941927 5.215756 29.024159 5.5 39.125 C 5.5 39.874297 6.116307 40.5 6.875 40.5 L 42.125 40.5 C 42.88369 40.500001 43.44816 39.872606 43.5 39.125 C 44.5 21.078129 42.5 13.875 42.5 13.875 C 42.5 13.125703 41.88369 12.5 41.125 12.5 L 23.5 12.5 L 22.5 9.09375 C 22.254867 8.2610185 21.9025 7.5 21 7.5 L 8.5 7.5 z "
       style="opacity:0.48627451;fill:none;fill-opacity:1;stroke:url(#linearGradient4000);stroke-width:0.99999934;stroke-linecap:round;stroke-linejoin:miter;stroke-miterlimit:4;stroke-dasharray:none;stroke-opacity:1;display:inline"
       id="path3946"
       d="M 8.5,8.5 C 8.167757,8.5 8.1531396,8.5341442 8.15625,8.53125 C 8.1593604,8.5283558 8.0371607,8.6602106 7.96875,9.125 C 7.9689149,9.135416 7.9689149,9.145834 7.96875,9.15625 C 6.1104047,19.004211 6.2160965,29.00501 6.5,39.09375 C 6.5001649,39.104166 6.5001649,39.114584 6.5,39.125 C 6.5,39.333121 6.6589296,39.5 6.875,39.5 L 42.125,39.5 C 42.339597,39.5 42.479725,39.354901 42.5,39.0625 C 43.495176,21.102696 41.5625,14.125 41.5625,14.125 C 41.530831,14.044756 41.509819,13.960707 41.5,13.875 C 41.5,13.666882 41.341065,13.5 41.125,13.5 L 23.5,13.5 C 23.062797,13.49451 22.681309,13.202036 22.5625,12.78125 L 21.5625,9.375 C 21.45311,9.0033953 21.310238,8.710051 21.21875,8.59375 C 21.127262,8.477449 21.173845,8.5 21,8.5 L 8.5,8.5 z "
       inkscape:export-filename="/home/lapo/Icone/Crux/folderx.png"
       inkscape:export-xdpi="90"
       inkscape:export-ydpi="90"
       transform="translate(-1,0)" />
    <g
       style="display:inline"
       transform="matrix(0.216083,0,0,0.263095,-1.89323,-11.2424)"
       id="g3948"
       inkscape:export-filename="/home/lapo/Icone/Crux/folderx.png"
       inkscape:export-xdpi="90"
       inkscape:export-ydpi="90">
      <path
         d="M 32.706693,164.36026 C 22.319193,164.36026 13.956693,172.72276 13.956693,183.11026 C 13.956693,193.49776 22.319193,201.86026 32.706693,201.86026 L 205.20669,201.86026 C 215.59419,201.86026 223.95669,193.49776 223.95669,183.11026 C 223.95669,172.72276 215.59419,164.36026 205.20669,164.36026 L 32.706693,164.36026 z "
         style="opacity:0.04787233;fill-rule:evenodd;stroke-width:3pt"
         id="path3950" />
      <path
         d="M 32.706693,165.61026 C 23.011693,165.61026 15.206693,173.41526 15.206693,183.11026 C 15.206693,192.80526 23.011693,200.61026 32.706693,200.61026 L 205.20669,200.61026 C 214.90169,200.61026 222.70669,192.80526 222.70669,183.11026 C 222.70669,173.41526 214.90169,165.61026 205.20669,165.61026 L 32.706693,165.61026 z "
         style="opacity:0.04787233;fill-rule:evenodd;stroke-width:3pt"
         id="path3952" />
      <path
         d="M 32.706694,166.86026 C 23.704194,166.86026 16.456694,174.10776 16.456694,183.11026 C 16.456694,192.11276 23.704194,199.36026 32.706694,199.36026 L 205.20669,199.36026 C 214.20919,199.36026 221.45669,192.11276 221.45669,183.11026 C 221.45669,174.10776 214.20919,166.86026 205.20669,166.86026 L 32.706694,166.86026 z "
         style="opacity:0.04787233;fill-rule:evenodd;stroke-width:3pt"
         id="path3954" />
      <path
         d="M 32.706694,168.11026 C 24.396694,168.11026 17.706694,174.80026 17.706694,183.11026 C 17.706694,191.42026 24.396694,198.11026 32.706694,198.11026 L 205.20669,198.11026 C 213.51669,198.11026 220.20669,191.42026 220.20669,183.11026 C 220.20669,174.80026 213.51669,168.11026 205.20669,168.11026 L 32.706694,168.11026 z "
         style="opacity:0.04787233;fill-rule:evenodd;stroke-width:3pt"
         id="path3956" />
      <path
         d="M 32.707764,169.36026 C 25.090264,169.36026 18.957764,175.49276 18.957764,183.11026 C 18.957764,190.72776 25.090264,196.86026 32.707764,196.86026 L 205.20618,196.86026 C 212.82368,196.86026 218.95618,190.72776 218.95618,183.11026 C 218.95618,175.49276 212.82368,169.36026 205.20618,169.36026 L 32.707764,169.36026 z "
         style="opacity:0.04787233;fill-rule:evenodd;stroke-width:3pt"
         id="path3958" />
      <path
         d="M 32.706694,170.61026 C 25.781694,170.61026 20.206694,176.18526 20.206694,183.11026 C 20.206694,190.03526 25.781694,195.61026 32.706694,195.61026 L 205.20669,195.61026 C 212.13169,195.61026 217.70669,190.03526 217.70669,183.11026 C 217.70669,176.18526 212.13169,170.61026 205.20669,170.61026 L 32.706694,170.61026 z "
         style="opacity:0.04787233;fill-rule:evenodd;stroke-width:3pt"
         id="path3960" />
      <path
         d="M 32.706694,171.86026 C 26.474194,171.86026 21.456694,176.87776 21.456694,183.11026 C 21.456694,189.34276 26.474194,194.36026 32.706694,194.36026 L 205.20669,194.36026 C 211.43919,194.36026 216.45669,189.34276 216.45669,183.11026 C 216.45669,176.87776 211.43919,171.86026 205.20669,171.86026 L 32.706694,171.86026 z "
         style="opacity:0.04787233;fill-rule:evenodd;stroke-width:3pt"
         id="path3962" />
      <path
         d="M 32.706694,173.11026 C 27.166694,173.11026 22.706694,177.57026 22.706694,183.11026 C 22.706694,188.65026 27.166694,193.11026 32.706694,193.11026 L 205.20669,193.11026 C 210.74669,193.11026 215.20669,188.65026 215.20669,183.11026 C 215.20669,177.57026 210.74669,173.11026 205.20669,173.11026 L 32.706694,173.11026 z "
         style="opacity:0.04787233;fill-rule:evenodd;stroke-width:3pt"
         id="path3964" />
    </g>
    <g
       id="g3980"
       transform="matrix(1,0,0,0.56332,-1,15.9965)"
       inkscape:export-filename="/home/lapo/Icone/Crux/folderx.png"
       inkscape:export-xdpi="90"
       inkscape:export-ydpi="90">
      <path
         sodipodi:nodetypes="ccccccccc"
         id="path3982"
         d="M 2.645078,20.500008 L 46.354654,20.500008 C 46.989027,20.500008 47.499732,20.849913 47.499732,21.284549 C 44.5,28.66255 44.5,31.959632 44.5,34.690095 C 44.5,36.397607 44,39.706 42.354654,39.778416 L 6.645078,39.778416 C 5.5,39.706 4.5,36.397607 4.5,34.690095 C 4.4375,31.959632 4.5,28.66255 1.499999,21.284549 C 1.499999,20.849913 2.010705,20.500008 2.645078,20.500008 z "
         style="fill:url(#linearGradient4106);fill-opacity:1;stroke:url(#linearGradient4087);stroke-width:1.33236361;stroke-linecap:round;stroke-linejoin:miter;stroke-miterlimit:4;stroke-opacity:1;display:inline" />
      <path
         transform="matrix(1,0,0,0.901423,0,50.79619)"
         style="opacity:0.15;fill:none;fill-opacity:1;stroke:url(#linearGradient4089);stroke-width:1.4033258;stroke-linecap:round;stroke-linejoin:miter;stroke-miterlimit:4;stroke-opacity:1;display:inline"
         d="M 2.625,-32.5 C 5.3597846,-25.370787 5.5,-25.405699 5.5,-18.868483 C 5.5396524,-16.219462 5.9187635,-15.587189 6.71875,-14.4375 L 42.3125,-14.4375 L 42.34375,-14.4375 C 43.419472,-14.962936 43.336667,-16.462252 43.5,-18.868483 C 43.5,-23.49881 43.573003,-25.119501 46.375,-32.5 C 46.360642,-32.501163 46.358943,-32.5 46.34375,-32.5 L 2.65625,-32.5 C 2.6410568,-32.5 2.6393578,-32.501163 2.625,-32.5 z "
         id="path3984"
         sodipodi:nodetypes="cscccscccc" />
      <path
         sodipodi:nodetypes="cc"
         id="path3986"
         d="M 2.4999996,22.196088 L 46.5,22.196088"
         style="opacity:0.35;fill:none;fill-opacity:1;fill-rule:evenodd;stroke:url(#radialGradient3154);stroke-width:1.33236313px;stroke-linecap:round;stroke-linejoin:miter;stroke-opacity:1" />
    </g>
    <g
       id="g6102"
       inkscape:label="pixmap"
       style="display:inline"
       transform="translate(188.7605,-103.2651)" />
    <g
       transform="matrix(0.186703,0,0,0.186703,167.6532,-45.64211)"
       id="g6106" />
    <g
       inkscape:label="pattern"
       id="g30621"
       inkscape:r_cx="true"
       inkscape:r_cy="true"
       transform="translate(190.4218,35.092)" />
    <g
       inkscape:label="pattern"
       id="g35222"
       inkscape:r_cx="true"
       inkscape:r_cy="true"
       transform="translate(190.4218,81.092)" />
    <g
       transform="translate(-1,102)"
       inkscape:export-ydpi="90"
       inkscape:export-xdpi="90"
       inkscape:export-filename="/home/lapo/Icone/Crux/folderx.png"
       id="use3206">
      <rect
         style="fill:#eeeeec;fill-opacity:1;stroke:#d3d7cf;stroke-width:0.99999988;stroke-linecap:round;stroke-linejoin:round;stroke-miterlimit:4;stroke-dasharray:none;stroke-opacity:1;display:inline"
         id="rect2420"
         width="10.000002"
         height="3"
         x="9.4999981"
         y="-91.5"
         rx="1.5"
         ry="1.5"
         inkscape:export-filename="/home/lapo/Icone/Crux/folderx-alt.png"
         inkscape:export-xdpi="90"
         inkscape:export-ydpi="90" />
      <g
         style="display:inline"
         id="g2422"
         transform="translate(66,0)"
         inkscape:export-filename="/home/lapo/Icone/Crux/folderx-alt.png"
         inkscape:export-xdpi="90"
         inkscape:export-ydpi="90">
        <rect
           ry="0.5"
           rx="0.5"
           y="-90"
           x="-55"
           height="1"
           width="1"
           id="rect2424"
           style="opacity:1;fill:#2e3436;fill-opacity:1;stroke:none;stroke-width:1;stroke-linecap:square;stroke-linejoin:miter;stroke-miterlimit:4.4000001;stroke-dasharray:none;stroke-dashoffset:10;stroke-opacity:1" />
        <rect
           ry="0.5"
           rx="0.5"
           y="-90"
           x="-53"
           height="1"
           width="1"
           id="rect2426"
           style="opacity:1;fill:#2e3436;fill-opacity:1;stroke:none;stroke-width:1;stroke-linecap:square;stroke-linejoin:miter;stroke-miterlimit:4.4000001;stroke-dasharray:none;stroke-dashoffset:10;stroke-opacity:1;display:inline" />
        <rect
           ry="0.5"
           rx="0.5"
           y="-90"
           x="-51"
           height="1"
           width="1"
           id="rect2428"
           style="opacity:1;fill:#2e3436;fill-opacity:1;stroke:none;stroke-width:1;stroke-linecap:square;stroke-linejoin:miter;stroke-miterlimit:4.4000001;stroke-dasharray:none;stroke-dashoffset:10;stroke-opacity:1;display:inline" />
        <rect
           ry="0.5"
           rx="0.5"
           y="-90"
           x="-49"
           height="1"
           width="1"
           id="rect2430"
           style="opacity:1;fill:#2e3436;fill-opacity:1;stroke:none;stroke-width:1;stroke-linecap:square;stroke-linejoin:miter;stroke-miterlimit:4.4000001;stroke-dasharray:none;stroke-dashoffset:10;stroke-opacity:1;display:inline" />
      </g>
    </g>
  </g>
</svg>
