<?xml version="1.0" encoding="UTF-8" standalone="no"?>
<!-- Created with Inkscape (http://www.inkscape.org/) -->
<svg
   xmlns:dc="http://purl.org/dc/elements/1.1/"
   xmlns:cc="http://web.resource.org/cc/"
   xmlns:rdf="http://www.w3.org/1999/02/22-rdf-syntax-ns#"
   xmlns:svg="http://www.w3.org/2000/svg"
   xmlns="http://www.w3.org/2000/svg"
   xmlns:xlink="http://www.w3.org/1999/xlink"
   xmlns:sodipodi="http://sodipodi.sourceforge.net/DTD/sodipodi-0.dtd"
   xmlns:inkscape="http://www.inkscape.org/namespaces/inkscape"
   version="1.0"
   x="0.0000000"
   y="0.0000000"
   width="48"
   height="48"
   id="svg1"
   sodipodi:version="0.32"
   inkscape:version="0.43+devel"
   sodipodi:docname="prova.svg"
   sodipodi:docbase="/home/lapo/Icone/Crux/crux-icon-theme/scalable/status"
   inkscape:export-filename="/home/lapo/Icone/Crux/folderx-daritaliare.png"
   inkscape:export-xdpi="90"
   inkscape:export-ydpi="90">
  <metadata
     id="metadata162">
    <rdf:RDF>
      <cc:Work
         rdf:about="">
        <dc:format>image/svg+xml</dc:format>
        <dc:type
           rdf:resource="http://purl.org/dc/dcmitype/StillImage" />
        <dc:title>Folder Open</dc:title>
        <dc:creator>
          <cc:Agent>
            <dc:title>Lapo Calamandrei</dc:title>
          </cc:Agent>
        </dc:creator>
        <dc:date />
        <cc:license
           rdf:resource="http://creativecommons.org/licenses/GPL/2.0/" />
        <dc:identifier />
        <dc:subject>
          <rdf:Bag>
            <rdf:li>folder</rdf:li>
            <rdf:li>directory</rdf:li>
            <rdf:li>storage</rdf:li>
            <rdf:li>open</rdf:li>
          </rdf:Bag>
        </dc:subject>
      </cc:Work>
      <cc:License
         rdf:about="http://creativecommons.org/licenses/GPL/2.0/">
        <cc:permits
           rdf:resource="http://web.resource.org/cc/Reproduction" />
        <cc:permits
           rdf:resource="http://web.resource.org/cc/Distribution" />
        <cc:requires
           rdf:resource="http://web.resource.org/cc/Notice" />
        <cc:permits
           rdf:resource="http://web.resource.org/cc/DerivativeWorks" />
        <cc:requires
           rdf:resource="http://web.resource.org/cc/ShareAlike" />
        <cc:requires
           rdf:resource="http://web.resource.org/cc/SourceCode" />
      </cc:License>
    </rdf:RDF>
  </metadata>
  <sodipodi:namedview
     id="base"
     pagecolor="#ffffff"
     bordercolor="#666"
     borderopacity="1"
     inkscape:pageopacity="0.0"
     inkscape:pageshadow="2"
     inkscape:window-width="1051"
     inkscape:window-height="655"
     inkscape:cy="12.973283"
     inkscape:cx="22.704523"
     inkscape:zoom="1"
     inkscape:document-units="px"
     showgrid="false"
     inkscape:window-x="284"
     inkscape:window-y="35"
     inkscape:current-layer="layer2"
     inkscape:showpageshadow="false"
     showguides="false"
     inkscape:guide-bbox="true"
     inkscape:object-paths="false"
     gridspacingx="0.5px"
     gridspacingy="0.5px"
     gridempspacing="2"
     inkscape:grid-points="false"
     showborder="false">
    <sodipodi:guide
       orientation="horizontal"
       position="36.062446"
       id="guide1934" />
    <sodipodi:guide
       orientation="horizontal"
       position="15.003922"
       id="guide1941" />
    <sodipodi:guide
       orientation="vertical"
       position="4.5"
       id="guide1943" />
    <sodipodi:guide
       orientation="vertical"
       position="44.503533"
       id="guide1945" />
    <sodipodi:guide
       orientation="horizontal"
       position="43.125"
       id="guide1947" />
    <sodipodi:guide
       orientation="horizontal"
       position="39"
       id="guide1949" />
    <sodipodi:guide
       orientation="horizontal"
       position="19.003495"
       id="guide2919" />
    <sodipodi:guide
       orientation="vertical"
       position="0.97227183"
       id="guide2212" />
    <sodipodi:guide
       orientation="vertical"
       position="47.994873"
       id="guide2214" />
    <sodipodi:guide
       orientation="horizontal"
       position="111"
       id="guide4328" />
    <sodipodi:guide
       orientation="vertical"
       position="65.75"
       id="guide3135" />
    <sodipodi:guide
       orientation="vertical"
       position="129.75"
       id="guide3137" />
    <sodipodi:guide
       orientation="vertical"
       position="190.75"
       id="guide3139" />
    <sodipodi:guide
       orientation="vertical"
       position="212.48559"
       id="guide3316" />
    <sodipodi:guide
       orientation="horizontal"
       position="178.01413"
       id="guide3318" />
  </sodipodi:namedview>
  <defs
     id="defs3">
    <linearGradient
       inkscape:collect="always"
       id="linearGradient3311">
      <stop
         style="stop-color:#ad7fa8;stop-opacity:1"
         offset="0"
         id="stop3313" />
      <stop
         style="stop-color:#75507b;stop-opacity:1"
         offset="1"
         id="stop3315" />
    </linearGradient>
    <linearGradient
       inkscape:collect="always"
       xlink:href="#linearGradient3311"
       id="linearGradient2187"
       gradientUnits="userSpaceOnUse"
       gradientTransform="translate(-1,103)"
       x1="28.323666"
       y1="-62.627769"
       x2="20.448666"
       y2="-94.053596" />
  </defs>
  <g
     inkscape:groupmode="layer"
     id="layer5"
     inkscape:label="Riferimenti"
     style="display:inline" />
  <g
     inkscape:groupmode="layer"
     id="layer4"
     inkscape:label="base"
     style="display:none">
    <rect
       style="opacity:0.7;fill:#2e3436;fill-opacity:1;stroke:none;stroke-width:2;stroke-linecap:square;stroke-linejoin:miter;stroke-miterlimit:4.01111126;stroke-dasharray:none;stroke-dashoffset:10;stroke-opacity:1"
       id="rect2826"
       width="307"
       height="105"
       x="-68"
       y="-209"
       inkscape:export-filename="/home/lapo/Icone/Crux/folderx-daritaliare.png"
       inkscape:export-xdpi="90"
       inkscape:export-ydpi="90" />
  </g>
  <g
     inkscape:groupmode="layer"
     id="layer2"
     inkscape:label="vectors"
     style="display:inline">
    <g
       id="g891"
       transform="matrix(0.186703,0,0,0.186703,-21.1073,57.62299)" />
    <g
       id="g6102"
       inkscape:label="pixmap"
       style="display:inline"
       transform="translate(188.7605,-103.2651)" />
    <g
       transform="matrix(0.186703,0,0,0.186703,167.6532,-45.64211)"
       id="g6106" />
    <g
       inkscape:label="pattern"
       id="g30621"
       inkscape:r_cx="true"
       inkscape:r_cy="true"
       transform="translate(190.4218,35.092)" />
    <g
       inkscape:label="pattern"
       id="g35222"
       inkscape:r_cx="true"
       inkscape:r_cy="true"
       transform="translate(190.4218,81.092)" />
    <g
       id="g2812"
       style="opacity:0.6">
      <path
         id="path3944"
         d="M 7.5 7.5 C 6.5975 7.4999999 6.168127 7.826478 6 8.96875 C 4.74747 15.606304 4.3711108 21.40953 4.34375 27.53125 L 1.65625 27.53125 C 1.021877 27.53125 0.50000001 27.755162 0.5 28 C 3.500001 32.156176 3.4375 33.993126 3.5 35.53125 C 3.5 36.298583 4.129982 37.624387 4.96875 38.15625 C 5.2110324 38.368487 5.5272657 38.5 5.875 38.5 L 41.125 38.5 C 41.354401 38.5 41.564914 38.443158 41.75 38.34375 C 43.064106 38.027895 43.5 36.40647 43.5 35.53125 C 43.5 33.993126 43.500267 32.156177 46.5 28 C 46.5 27.755161 45.978125 27.53125 45.34375 27.53125 L 42.75 27.53125 C 42.720758 17.244475 41.5 13.875 41.5 13.875 C 41.5 13.125703 40.88369 12.5 40.125 12.5 L 22.5 12.5 L 21.5 9.09375 C 21.254867 8.2610185 20.9025 7.5 20 7.5 L 7.5 7.5 z "
         style="fill:url(#linearGradient2187);fill-opacity:1;stroke:#5c3566;stroke-width:0.99999934;stroke-linecap:round;stroke-linejoin:miter;stroke-miterlimit:4;stroke-dasharray:none;stroke-opacity:1;display:inline;opacity:1" />
      <path
         d="M 7.5,8.5 C 7.1693329,8.5 7.1499049,8.537154 7.15625,8.53125 C 7.1625951,8.525346 7.0682035,8.6616188 7,9.125 C 6.9898148,9.1356456 6.9793956,9.1460648 6.96875,9.15625 C 5.7291457,15.725307 5.3709402,21.44769 5.34375,27.53125 C 5.3436948,28.083512 4.8960119,28.531195 4.34375,28.53125 L 1.9375,28.53125 C 2.8875015,30.009617 3.7459046,31.427822 4.0625,32.4375 C 4.4707187,33.739381 4.4699547,34.760585 4.5,35.5 C 4.5001628,35.510416 4.5001628,35.520834 4.5,35.53125 C 4.5,35.641249 4.6096667,36.086922 4.8125,36.46875 C 5.0153333,36.850578 5.3023555,37.187174 5.5,37.3125 C 5.5440478,37.340442 5.585842,37.371788 5.625,37.40625 C 5.6968801,37.469216 5.7793988,37.5 5.875,37.5 L 41.125,37.5 C 41.189211,37.5 41.234628,37.49379 41.28125,37.46875 C 41.360019,37.426467 41.444101,37.394936 41.53125,37.375 C 41.834675,37.30207 42.030547,37.100505 42.21875,36.71875 C 42.406953,36.336995 42.5,35.802847 42.5,35.53125 C 42.5,34.76213 42.519921,33.741373 42.9375,32.4375 C 43.261355,31.426277 44.10927,30.007053 45.0625,28.53125 L 42.75,28.53125 C 42.197738,28.531195 41.750055,28.083512 41.75,27.53125 C 41.735491,22.427109 41.425784,19.072671 41.125,17 C 40.824216,14.927329 40.5625,14.21875 40.5625,14.21875 C 40.521658,14.108722 40.500502,13.992363 40.5,13.875 C 40.5,13.674048 40.33388,13.5 40.125,13.5 L 22.5,13.5 C 22.052678,13.504038 21.657078,13.210529 21.53125,12.78125 L 20.53125,9.375 C 20.422034,9.003988 20.308383,8.7076934 20.21875,8.59375 C 20.129117,8.4798066 20.170172,8.5 20,8.5 L 7.5,8.5 z "
         id="path2193"
         style="fill:none;fill-opacity:1.0;stroke:white;stroke-width:0.99999934;stroke-linecap:round;stroke-linejoin:miter;stroke-miterlimit:4;stroke-dasharray:none;stroke-opacity:1;display:inline;opacity:0.4"
         inkscape:original="M 7.5 7.5 C 6.5975 7.4999999 6.168127 7.826478 6 8.96875 C 4.74747 15.606304 4.3711108 21.40953 4.34375 27.53125 L 1.65625 27.53125 C 1.021877 27.53125 0.50000001 27.755162 0.5 28 C 3.500001 32.156176 3.4375 33.993126 3.5 35.53125 C 3.5 36.298583 4.129982 37.624387 4.96875 38.15625 C 5.2110324 38.368487 5.5272657 38.5 5.875 38.5 L 41.125 38.5 C 41.354401 38.5 41.564914 38.443158 41.75 38.34375 C 43.064106 38.027895 43.5 36.40647 43.5 35.53125 C 43.5 33.993126 43.500267 32.156177 46.5 28 C 46.5 27.755161 45.978125 27.53125 45.34375 27.53125 L 42.75 27.53125 C 42.720758 17.244475 41.5 13.875 41.5 13.875 C 41.5 13.125703 40.88369 12.5 40.125 12.5 L 22.5 12.5 L 21.5 9.09375 C 21.254867 8.2610185 20.9025 7.5 20 7.5 L 7.5 7.5 z "
         inkscape:radius="-1"
         sodipodi:type="inkscape:offset" />
    </g>
  </g>
</svg>
